<svg width="28" height="31" viewBox="0 0 28 31" fill="none" xmlns="http://www.w3.org/2000/svg">
<path fill-rule="evenodd" clip-rule="evenodd" d="M19.764 0.76856H7.93594C2.36413 0.76856 0.326172 3.02731 0.326172 9.20276V22.3124C0.326172 28.4877 2.36413 30.7463 7.93594 30.7463H19.7603C25.3321 30.7463 27.3738 28.4877 27.3738 22.3124V9.20276C27.3738 3.02731 25.3358 0.76856 19.764 0.76856" fill="#C91C2E"/>
<path d="M12.1274 18.1541H13.2121L12.668 16.7517L12.1274 18.1541ZM11.8603 18.861L11.5386 19.677H10.806L12.3639 15.7598H12.9969L14.5485 19.677H13.7963L13.4786 18.861H11.8603ZM23.6482 19.6743H24.3563V15.7598H23.6482V19.6743ZM20.8304 17.9922H22.1353V17.2789H20.8304V16.4765H22.7246V15.7623H20.1226V19.6766H22.7929V18.9627H20.8304V17.9922ZM18.0172 18.4548L17.2143 15.7597H16.6289L15.826 18.4548L15.0448 15.7615H14.2812L15.5137 19.6788H16.1076L16.9117 17.1057L17.7154 19.6788H18.3147L19.5441 15.7615H18.8001L18.0172 18.4548ZM9.72524 18.0031C9.72524 18.6404 9.43968 18.9808 8.92122 18.9808C8.39991 18.9808 8.11292 18.6307 8.11292 17.976V15.762H7.39544V18.0031C7.39544 19.1057 7.94806 19.7378 8.91153 19.7378C9.88439 19.7378 10.4424 19.0936 10.4424 17.9707V15.7597H9.72524V18.0031ZM5.68347 15.7598H6.40066V19.6791H5.68347V18.0875H4.06317V19.6791H3.3457V15.7598H4.06317V17.3409H5.68347V15.7598Z" fill="white"/>
<path d="M13.8498 10.7698C11.3674 10.7698 9.34766 8.5312 9.34766 5.77987H9.9837C9.9837 8.14256 11.7179 10.0649 13.8498 10.0649C15.9817 10.0649 17.7159 8.14256 17.7159 5.77987H18.3519C18.3519 8.5312 16.3322 10.7698 13.8498 10.7698" fill="white"/>
</svg>
