<svg width="30" height="26" viewBox="0 0 30 26" fill="none" xmlns="http://www.w3.org/2000/svg">
<path d="M3.83075 14.0495H3.8356C4.43789 14.1959 5.05108 14.2958 5.66943 14.3483C6.63592 14.4303 7.60845 14.4189 8.57263 14.3144C8.99422 14.2708 9.41589 14.2126 9.83748 14.1425C11.1059 13.9372 12.3552 13.6318 13.5728 13.2293C13.5803 13.2269 14.2934 12.9902 15.1514 12.611C15.6842 12.377 16.2012 12.1106 16.6996 11.8134C16.9241 11.6842 17.1335 11.5315 17.3241 11.3581C17.5475 11.1265 17.715 10.8493 17.8145 10.5466C17.8376 10.486 17.8584 10.4247 17.8773 10.3624C18.0993 9.43964 17.7564 8.97123 17.7564 8.97123C17.479 8.36896 15.6694 8.39023 15.6694 8.39023C13.6145 8.34901 13.8166 7.22768 13.8166 7.22768C14.4214 6.17429 15.299 5.29395 16.3618 4.67423C16.6013 4.53219 16.9498 4.33429 17.2464 4.41337C17.404 4.46784 17.5368 4.5752 17.6208 4.71614L18.0556 4.06175C18.1913 3.86081 18.18 3.59778 18.0274 3.4086C18.0274 3.4086 18.0258 3.40619 18.024 3.40533C17.8724 3.21289 17.6501 3.08518 17.4039 3.04927C17.3089 3.03719 17.2123 3.0474 17.1223 3.07911C16.4124 3.28667 15.063 4.55985 15.063 4.55985C12.4506 7.27256 13.4586 8.89222 13.4586 8.89222C14.0269 9.94421 15.9293 9.75036 15.9293 9.75036C16.9863 9.78698 17.3282 10.0066 17.4385 10.1509C17.4385 10.1509 17.4385 10.1526 17.4402 10.1533C17.4604 10.1859 17.4768 10.2206 17.489 10.2567V10.2591C17.489 10.2665 17.4907 10.2712 17.4907 10.2745V10.2778C17.4831 10.2841 17.4749 10.2908 17.4675 10.2979L17.4593 10.3035C16.4266 10.9132 15.3335 11.4198 14.1966 11.8158C12.5663 12.3901 10.8752 12.785 9.15489 12.9928C9.07133 13.0032 8.98587 13.0129 8.90303 13.0219C8.392 13.0769 7.88344 13.1116 7.37392 13.1197C6.90439 13.1278 6.43494 13.114 5.96168 13.0769C4.13301 12.9355 2.33662 12.5261 0.633246 11.8625C0.517334 11.8173 0.45278 11.8126 0.421934 11.8488C0.387908 11.8892 0.424398 11.9497 0.431871 11.961L0.436005 11.9674L3.82789 14.0487L3.83075 14.0495Z" fill="#BDA4A1"/>
<path d="M25.686 14.9189C25.686 14.9189 25.5187 14.9779 25.2314 15.5301C25.2314 15.5301 24.8156 16.411 24.2076 16.7647C24.2076 16.7647 23.2228 17.3096 22.5362 16.6444C22.3232 16.3944 22.2615 16.0533 22.374 15.7474C22.374 15.7474 22.4701 15.452 22.1768 15.59C22.1768 15.59 21.7809 15.7926 21.371 15.9927C20.9184 16.2015 20.4537 16.3845 19.9794 16.541C19.8435 16.1626 19.6362 15.8123 19.3681 15.5082C17.8599 13.9353 16.8584 16.0939 16.8584 16.0939C16.4265 17.2421 17.0223 17.7797 17.2642 17.9428C17.2642 17.9428 17.9931 18.323 19.3531 17.9702C19.4442 17.9468 19.5435 17.9153 19.6463 17.8806C19.7147 18.052 19.7651 18.2299 19.7966 18.4114C19.7535 18.459 19.7113 18.5075 19.669 18.5543C18.1488 20.2181 16.9775 20.8039 16.9775 20.8039C14.2673 22.4799 12.9961 21.2568 12.9961 21.2568C12.2474 20.6254 12.3185 19.2143 12.4576 18.3116C12.6179 18.1979 12.7709 18.0746 12.9157 17.9426C12.9157 17.9426 15.0967 15.921 15.7891 15.2839C15.7891 15.2839 17.4962 13.7096 18.8438 13.6457C18.8438 13.6457 20.3248 13.4504 21.0314 14.6468C21.0314 14.6468 21.3784 13.7111 21.2045 13.4504C20.091 11.7782 17.8712 12.722 17.8712 12.722C16.6305 13.1377 14.6964 15.0358 14.6964 15.0358C14.0693 15.6857 12.4992 17.0163 12.4992 17.0163C12.4992 17.0163 11.2823 18.0255 10.5228 17.7783C10.5228 17.7783 9.09557 17.6484 9.77577 15.5161C9.88143 15.1958 10.0198 14.8867 10.1889 14.5933C10.3322 14.3737 10.2734 14.3575 10.1914 14.3859C10.1039 14.4178 10.0303 14.4779 9.98279 14.5563C9.5426 15.2707 9.32103 16.0929 9.34424 16.926C9.47574 18.3702 10.595 18.8184 10.595 18.8184C11.092 19.03 11.6959 18.7876 12.163 18.5042C11.5318 20.7277 12.3593 21.95 12.3593 21.95C13.3631 23.4639 15.2866 22.8196 15.2866 22.8196C17.3049 22.1913 18.9597 20.4377 18.9597 20.4377C19.2852 20.1657 19.5701 19.8507 19.8062 19.5019C20.222 18.8706 20.2145 18.4298 20.2145 18.4298C20.2572 18.1777 20.2724 17.922 20.2601 17.6668C20.798 17.4633 21.3227 17.2282 21.8314 16.9627C21.8314 16.9627 21.8919 16.9232 21.872 17.0565C21.872 17.0565 21.8314 18.1755 22.919 18.3336C23.5438 18.4254 24.1661 18.1536 24.5117 17.638C24.5117 17.638 24.8372 17.1511 24.9831 16.8791C25.1716 17.3992 25.6368 17.7774 26.1957 17.8648C27.6932 18.111 27.8448 16.376 27.8448 16.376C28.0063 15.1441 27.3387 14.4635 27.3387 14.4635L27.0355 15.8143C27.192 15.9917 27.3356 16.1795 27.4654 16.3763C27.4654 16.3763 27.1416 16.6274 26.2362 16.4255C26.0256 16.3575 25.8355 16.2396 25.683 16.0825C25.683 16.0825 25.4369 15.849 25.6805 15.3664C25.6809 15.3672 25.9238 14.7712 25.686 14.9189ZM17.5167 16.3481C17.5167 16.3481 18.1627 15.7901 18.9911 16.7874C18.8926 16.8028 18.794 16.8156 18.6971 16.823C18.6986 16.8235 17.0859 16.968 17.5175 16.3479L17.5167 16.3481Z" fill="#BDA4A1"/>
<path d="M22.1052 9.41312C21.6795 9.77924 19.7298 11.1247 18.7962 11.7634C18.4914 11.9717 18.7605 11.8659 18.7605 11.8659L20.355 11.0456C21.7546 10.3453 22.9707 9.34098 23.9093 8.11018C23.9869 8.01723 24.0588 7.91991 24.1247 7.81878C24.3157 7.9408 24.4735 8.10621 24.5845 8.30076C24.8759 7.77998 24.7666 7.67511 24.7666 7.67511C24.657 7.54297 24.5302 7.42524 24.3897 7.32473C24.5128 7.04869 24.5968 6.75745 24.6391 6.45927C24.5666 5.3822 23.8736 5.74699 23.8736 5.74699C23.4549 5.93227 23.1603 6.31085 23.0901 6.75378C23.163 7.18815 23.8008 7.60484 23.8008 7.60484C23.833 7.62424 23.8636 7.6427 23.8935 7.6614C23.2822 8.46453 22.1052 9.41312 22.1052 9.41312ZM24.0557 7.06778C23.3268 6.52924 23.4735 6.40731 23.4735 6.40731C24.3299 5.74684 24.2024 7.15418 24.2024 7.15418C24.1999 7.15987 24.1975 7.16626 24.1949 7.17249C24.113 7.10969 24.0557 7.06778 24.0557 7.06778Z" fill="#BDA4A1"/>
<path d="M15.2966 17.2852C15.2966 17.2852 14.5802 18.5556 14.4154 18.9678C14.4154 18.9678 14.0296 20.0956 15.0583 20.1853C15.729 20.175 16.2642 19.6366 16.2537 18.9828C16.2534 18.9659 16.2528 18.9491 16.2517 18.9323C16.2517 18.9323 16.304 18.3687 15.314 17.86C15.314 17.86 15.6636 17.0342 15.2966 17.2852ZM16.0123 19.1283C16.0123 19.1283 15.4797 19.8267 14.8004 19.4327C14.8004 19.4327 14.5437 19.2898 14.9843 18.4477L15.0673 18.2993L15.0391 18.376C15.0391 18.376 15.8845 18.8604 16.0123 19.1283Z" fill="#BDA4A1"/>
<path d="M8.38788 8.76903C8.38788 8.76903 7.67142 10.0396 7.50669 10.4515C7.50669 10.4515 7.1208 11.5793 8.14953 11.669C8.82028 11.6587 9.35548 11.1203 9.3449 10.4664C9.34466 10.4496 9.34395 10.4328 9.34299 10.416C9.34299 10.416 9.39523 9.85234 8.40529 9.34309C8.40529 9.34309 8.75485 8.51861 8.38788 8.76903ZM9.10457 10.6129C9.10457 10.6129 8.572 11.3113 7.89267 10.9173C7.89267 10.9173 7.63596 10.7744 8.07655 9.93235L8.15939 9.78338L8.13125 9.86005C8.13125 9.86005 8.9757 10.3449 9.10457 10.6129Z" fill="#BDA4A1"/>
<path d="M11.5936 11.3237C12.9742 7.66951 9.6008 6.03535 9.6008 6.03535L9.56097 6.99696C12.3622 8.84343 11.4354 11.1706 11.4354 11.1706C11.3369 11.5932 11.5936 11.3237 11.5936 11.3237Z" fill="#BDA4A1"/>
<path d="M20.9538 5.3083C20.0899 4.58815 19.7047 6.5864 19.7047 6.5864C19.6318 7.13467 19.4968 8.09768 19.4968 8.09768C18.9137 5.5715 17.7955 5.54976 17.7955 5.54976C17.3425 5.6184 17.4444 6.51612 17.4444 6.51612C17.5148 6.60011 18.2488 7.12478 18.2488 7.12478C18.3581 7.18539 18.3581 6.9342 18.3581 6.9342C18.9254 7.50499 19.3512 9.20405 19.3512 9.20405C19.6949 8.95052 19.8508 7.34714 19.8508 7.34714C20.0694 5.08493 21.0998 6.48495 21.0998 6.48495C21.2455 6.33318 21.2555 5.64286 21.2555 5.64286C21.1725 5.51742 21.0708 5.4046 20.9538 5.3083Z" fill="#BDA4A1"/>
<path d="M2.91876 0V10.1961H3.24932V0.322173H29.2616V25.677H3.24932V16.353H2.91876V26H29.5921V0H2.91876Z" fill="#BDA4A1"/>
<path d="M24.1063 11.7451L24.8334 11.0324L24.0146 10.2299L23.1957 11.0324L23.9229 11.7451L23.1957 12.4578L23.9229 13.1705L23.1957 13.8832L24.0146 14.6857L24.8334 13.8832L24.1063 13.1705L24.8334 12.4578L24.1063 11.7451Z" fill="#BDA4A1"/>
</svg>
