<svg width="34" height="36" viewBox="0 0 34 36" fill="none" xmlns="http://www.w3.org/2000/svg">
<path d="M28.6667 16.3346V14.668C28.6667 8.38258 28.6667 5.23988 26.714 3.28726C24.7614 1.33464 21.6187 1.33464 15.3333 1.33464C9.04794 1.33464 5.90524 1.33464 3.95262 3.28726C2 5.23988 2 8.38258 2 14.668V21.3346C2 27.62 2 30.7627 3.95262 32.7153C5.90524 34.668 9.04794 34.668 15.3333 34.668" stroke="#667085" stroke-width="2.5" stroke-linecap="round" stroke-linejoin="round"/>
<path d="M32 34.668L29.1428 31.8108M30.0952 27.0489C30.0952 30.2048 27.5368 32.7632 24.3809 32.7632C21.225 32.7632 18.6666 30.2048 18.6666 27.0489C18.6666 23.893 21.225 21.3346 24.3809 21.3346C27.5368 21.3346 30.0952 23.893 30.0952 27.0489Z" stroke="#667085" stroke-width="2.5" stroke-linecap="round"/>
<path d="M8.66663 9.66797H22M8.66663 16.3346H15.3333" stroke="#667085" stroke-width="2.5" stroke-linecap="round" stroke-linejoin="round"/>
</svg>
