<svg width="40" height="40" viewBox="0 0 40 40" fill="none" xmlns="http://www.w3.org/2000/svg">
<path d="M30.0015 30.8363L30.4638 28.5259C30.7083 27.3039 31.3616 26.1776 31.5946 24.9534C31.6429 24.6995 31.6682 24.4375 31.6682 24.1696C31.6682 21.8684 29.8027 20.0029 27.5015 20.0029C25.2004 20.0029 23.3349 21.8684 23.3349 24.1696C23.3349 24.4375 23.3602 24.6995 23.4085 24.9534C23.6415 26.1776 24.2948 27.3039 24.5393 28.5259L25.0015 30.8363M30.0015 30.8363H25.0015M30.0015 30.8363L34.162 31.9461C35.626 32.2715 36.6677 33.57 36.6677 35.0697C36.6677 35.9533 35.9514 36.6696 35.0678 36.6696H34.162H20.8343H19.9342C19.0506 36.6696 18.3343 35.9533 18.3343 35.0697C18.3343 33.57 19.376 32.2715 20.84 31.9461L25.0015 30.8363" stroke="#667085" stroke-width="2.5"/>
<path d="M28.3343 15.0013V13.3346C28.3343 8.62059 28.3343 6.26357 26.8699 4.79911C25.4054 3.33464 23.0484 3.33464 18.3343 3.33464H13.3343C8.62027 3.33464 6.26325 3.33464 4.79879 4.79911C3.33432 6.26357 3.33432 8.62059 3.33432 13.3346V26.668C3.33432 31.382 3.33432 33.739 4.79879 35.2035C6.26325 36.668 8.62027 36.668 13.3343 36.668" stroke="#667085" stroke-width="2.5" stroke-linecap="round"/>
<path d="M11.6685 14.4474C11.6685 14.4474 12.7101 14.4474 13.7518 16.6696C13.7518 16.6696 17.0606 11.114 20.0018 10.0029" stroke="#667085" stroke-width="2.5" stroke-linecap="round" stroke-linejoin="round"/>
<path d="M10.0002 23.3346H16.6668" stroke="#667085" stroke-width="2.5" stroke-linecap="round"/>
<path d="M10.0002 28.3346H16.6668" stroke="#667085" stroke-width="2.5" stroke-linecap="round"/>
</svg>
