<svg width="16" height="16" viewBox="0 0 16 16" fill="none" xmlns="http://www.w3.org/2000/svg">
<path d="M14.2228 1.83096C12.7842 0.333688 10.4409 0.33369 9.00229 1.83096L8.40768 2.4498C8.16853 2.6987 8.17643 3.09435 8.42533 3.3335C8.67423 3.57266 9.06988 3.56476 9.30904 3.31586L9.90364 2.69702C10.8504 1.71167 12.3747 1.71167 13.3215 2.69702C14.2817 3.69644 14.2817 5.32675 13.3215 6.32616L10.622 9.13566C10.4722 9.29151 10.3091 9.42179 10.1374 9.52736C9.21398 10.0949 8.00459 9.96872 7.20415 9.13566C7.07395 9.00014 6.96153 8.85331 6.86676 8.69811C6.68687 8.40351 6.30222 8.31052 6.00762 8.49041C5.71303 8.6703 5.62004 9.05494 5.79993 9.34954C5.9412 9.5809 6.10887 9.79989 6.3028 10.0017C7.51489 11.2632 9.37299 11.4644 10.7919 10.5923C11.0542 10.4311 11.3002 10.234 11.5233 10.0017L14.2228 7.19222C15.648 5.709 15.648 3.31418 14.2228 1.83096Z" fill="#BDA4A1"/>
<path d="M9.69721 5.99763C8.25855 4.50036 5.91529 4.50036 4.47663 5.99763L1.77712 8.80713C0.351963 10.2903 0.351964 12.6852 1.77712 14.1684C3.21578 15.6657 5.55904 15.6657 6.9977 14.1684L7.59251 13.5493C7.83167 13.3004 7.82377 12.9048 7.57487 12.6656C7.32597 12.4265 6.93032 12.4344 6.69116 12.6833L6.09635 13.3023C5.14956 14.2877 3.62525 14.2877 2.67847 13.3023C1.71818 12.3029 1.71818 10.6726 2.67847 9.67319L5.37798 6.86369C6.32477 5.87834 7.84908 5.87833 8.79586 6.86369C8.92604 6.99917 9.03843 7.14597 9.13319 7.30113C9.3131 7.59571 9.69775 7.68868 9.99234 7.50877C10.2869 7.32887 10.3799 6.94421 10.2 6.64963C10.0587 6.41833 9.89109 6.1994 9.69721 5.99763Z" fill="#BDA4A1"/>
</svg>
