<svg width="32" height="33" viewBox="0 0 32 33" fill="none" xmlns="http://www.w3.org/2000/svg">
<g clip-path="url(#clip0_18080_126462)">
<path d="M31.4487 26.9821H0.552237C0.24755 26.9821 0.000488281 26.7351 0.000488281 26.4304V6.56835C0.000488281 6.26366 0.24755 6.0166 0.552237 6.0166H31.4487C31.7534 6.0166 32.0005 6.26366 32.0005 6.56835V26.4304C32.0004 26.7351 31.7534 26.9821 31.4487 26.9821Z" fill="#006C35"/>
<path d="M6.62116 13.1429C6.67554 13.4915 6.88623 13.6009 7.06941 13.5866C7.28541 13.5698 7.47485 13.3723 7.47485 13.1637V11.9676C7.47485 11.9077 7.5236 11.8588 7.5836 11.8588C7.6436 11.8588 7.69235 11.9076 7.69235 11.9676V13.1688C7.69235 13.3132 7.76372 13.4479 7.88341 13.5288C7.95647 13.5783 8.04154 13.6037 8.12722 13.6037C8.18179 13.6037 8.2366 13.5933 8.28885 13.5725L8.39754 13.5291C8.40754 14.5331 8.34647 15.4156 8.34535 15.4317C8.33685 15.5516 8.42697 15.6556 8.54679 15.6641C8.5521 15.6646 8.55729 15.6647 8.56254 15.6647C8.67566 15.6647 8.7711 15.5772 8.77929 15.4627C8.78435 15.3921 8.85135 14.4256 8.83128 13.3556L8.89703 13.3293C8.95466 13.3064 9.01941 13.3091 9.07485 13.3367C9.31441 13.4561 9.60266 13.4096 9.79197 13.2203L9.83116 13.1812C10.0069 13.0051 10.0673 12.7494 9.98866 12.5134L9.80347 11.9579C9.9036 11.988 10.0136 11.9437 10.062 11.8472C10.1157 11.7398 10.0722 11.6092 9.96472 11.5554L9.52978 11.3379C9.4511 11.2984 9.35666 11.3106 9.28997 11.3681C9.22347 11.4259 9.19835 11.5178 9.22616 11.6012L9.5761 12.6511C9.60228 12.7297 9.58216 12.8151 9.5236 12.8737L9.48447 12.9128C9.42778 12.9695 9.34141 12.9833 9.26922 12.9476C9.12828 12.8772 8.96778 12.864 8.81722 12.9024C8.78666 12.2043 8.71147 11.5092 8.55135 11.0286C8.51341 10.9147 8.39047 10.853 8.27616 10.8912C8.16222 10.929 8.10066 11.0521 8.13866 11.1662C8.29535 11.6362 8.3636 12.3524 8.38785 13.0645L8.12747 13.1686V11.9674C8.12747 11.6675 7.88354 11.4236 7.58372 11.4236C7.28391 11.4236 7.03998 11.6674 7.03998 11.9674V13.0202L6.8181 11.9242C6.79448 11.8064 6.67985 11.7295 6.56185 11.7541C6.44404 11.7781 6.36791 11.8928 6.39185 12.0105L6.62116 13.1429Z" fill="#F5F5F5"/>
<path d="M7.03977 11.3146C7.15989 11.3146 7.25727 11.2174 7.25727 11.0971V10.8796C7.25727 10.7594 7.15989 10.6621 7.03977 10.6621C6.91964 10.6621 6.82227 10.7594 6.82227 10.8796V11.0971C6.82227 11.2173 6.91964 11.3146 7.03977 11.3146Z" fill="#F5F5F5"/>
<path d="M9.21457 11.0971H9.43207C9.55219 11.0971 9.64957 10.9999 9.64957 10.8796C9.64957 10.7594 9.55219 10.6621 9.43207 10.6621H9.21457C9.09444 10.6621 8.99707 10.7594 8.99707 10.8796C8.99707 10.9999 9.09444 11.0971 9.21457 11.0971Z" fill="#F5F5F5"/>
<path d="M7.79755 13.9559L6.71011 14.6084C6.60705 14.6702 6.57374 14.8037 6.63555 14.9068C6.6763 14.9747 6.7483 15.0124 6.82224 15.0124C6.86036 15.0124 6.89892 15.0024 6.93399 14.9813L8.02142 14.3288C8.12448 14.267 8.1578 14.1334 8.09598 14.0304C8.03417 13.9274 7.90067 13.8941 7.79755 13.9559Z" fill="#F5F5F5"/>
<path d="M10.7298 14.3404L10.7349 14.337C10.7532 14.4105 10.7845 14.4816 10.8353 14.5414C10.9237 14.6454 11.0562 14.6978 11.2059 14.6854C11.4183 14.6699 11.5627 14.5728 11.6583 14.4475C11.6729 14.4575 11.6882 14.4666 11.7042 14.4747C11.8218 14.5339 11.9577 14.5295 12.0872 14.4623C12.4158 14.2931 12.4867 13.9014 12.4767 13.6967C12.4708 13.5773 12.3693 13.4931 12.2502 13.4907C12.1308 13.4958 12.0378 13.5971 12.0421 13.7165C12.0422 13.7193 12.047 13.9773 11.8893 14.0731C11.8635 14.0373 11.833 13.9565 11.8215 13.8898C11.8032 13.7779 11.7003 13.6999 11.5897 13.7089C11.477 13.7178 11.3898 13.8125 11.3895 13.9257C11.3893 13.9573 11.3823 14.2364 11.1669 14.2598C11.1418 14.2256 11.1414 14.0816 11.1661 13.9751C11.1869 13.8878 11.1519 13.7967 11.078 13.7458C11.004 13.6946 10.9065 13.6946 10.8322 13.7449L10.7108 13.8275C10.6532 12.5663 10.5203 11.0966 10.5187 11.0778C10.5079 10.9584 10.4028 10.8694 10.2825 10.8809C10.1628 10.8917 10.0747 10.9975 10.0855 11.1173C10.0874 11.1374 10.241 12.8379 10.2883 14.1364C10.2772 14.147 10.2658 14.1586 10.2549 14.1687C10.1689 13.9519 9.9984 13.8153 9.77884 13.7945C9.46897 13.7671 9.13322 13.978 9.01284 14.2792C8.90909 14.5383 8.97441 14.793 9.17909 14.9278C9.32628 15.0249 9.54841 15.0554 9.82772 14.9576C9.75953 15.1971 9.63534 15.4401 9.47397 15.6281C9.32941 15.7965 9.08803 15.9908 8.77916 15.9821C8.59934 15.9751 8.46122 15.9162 8.35678 15.802C8.10497 15.5269 8.12666 15.0291 8.12685 15.0238C8.1331 14.904 8.04135 14.8019 7.92166 14.7953C7.8011 14.7825 7.6991 14.8804 7.69247 15.0004C7.69097 15.028 7.65941 15.6822 8.03397 16.0936C8.21834 16.2964 8.46328 16.405 8.76203 16.4167C8.77659 16.4173 8.79116 16.4175 8.80578 16.4175C9.16959 16.4175 9.52259 16.2391 9.80378 15.9114C10.0683 15.6034 10.2479 15.185 10.3018 14.7966C10.3011 15.5406 9.85272 16.3797 9.25828 16.7494C9.00584 16.9062 8.61228 17.0476 8.16897 16.8291C7.62247 16.5593 7.6876 15.9347 7.69047 15.9092C7.70541 15.79 7.62085 15.6813 7.50166 15.6664C7.38303 15.652 7.27366 15.7359 7.25891 15.8552C7.25403 15.8941 7.14953 16.811 7.97653 17.219C8.18897 17.3239 8.41109 17.3759 8.63497 17.3759C8.92253 17.3759 9.21278 17.2899 9.48791 17.1187C10.2117 16.6689 10.737 15.6915 10.737 14.7948C10.7369 14.6546 10.7342 14.5015 10.7298 14.3404ZM9.41834 14.5646C9.37947 14.5389 9.40984 14.4568 9.41641 14.4404C9.46222 14.3257 9.60547 14.2265 9.71991 14.2265C9.72578 14.2265 9.73172 14.2267 9.73741 14.2273C9.76522 14.2299 9.83903 14.2369 9.87078 14.4011C9.87416 14.4185 9.87703 14.4363 9.87928 14.4546C9.63691 14.5969 9.47441 14.6014 9.41834 14.5646Z" fill="#F5F5F5"/>
<path d="M7.14962 16.565C7.04656 16.5045 6.91344 16.5391 6.85231 16.6422C6.84231 16.6589 6.82906 16.6772 6.81556 16.6937C6.81319 16.6882 6.81088 16.6823 6.8085 16.6759C6.71781 16.4339 6.78238 16.0612 6.815 15.938C6.84569 15.822 6.77663 15.7031 6.66075 15.672C6.545 15.6423 6.42594 15.7099 6.39481 15.8259C6.379 15.8847 6.24531 16.4127 6.40119 16.8285C6.501 17.0945 6.65425 17.1616 6.76531 17.1707C6.77519 17.1715 6.78494 17.1719 6.79463 17.1719C7.02875 17.1719 7.18456 16.936 7.22787 16.8612C7.28794 16.7577 7.25275 16.6258 7.14962 16.565Z" fill="#F5F5F5"/>
<path d="M11.163 12.6194C11.21 12.6194 11.2574 12.6043 11.2972 12.5729L12.3937 11.7121C12.4088 11.7002 12.4185 11.6847 12.4295 11.67C12.5875 11.5748 12.6943 11.4033 12.6943 11.2059C12.6943 10.906 12.4503 10.6621 12.1505 10.6621C11.8507 10.6621 11.6068 10.9059 11.6068 11.2059C11.6068 11.3737 11.6848 11.522 11.8045 11.6218L11.0285 12.231C10.934 12.3052 10.9176 12.4419 10.9917 12.5362C11.0347 12.5909 11.0985 12.6194 11.163 12.6194ZM12.1506 11.097C12.2106 11.097 12.2593 11.1459 12.2593 11.2058C12.2593 11.2657 12.2106 11.3145 12.1506 11.3145C12.0906 11.3145 12.0418 11.2657 12.0418 11.2058C12.0418 11.1459 12.0906 11.097 12.1506 11.097Z" fill="#F5F5F5"/>
<path d="M11.8932 12.4136C11.7786 12.3755 11.6559 12.4372 11.618 12.5511C11.5947 12.6207 11.4895 12.9795 11.7027 13.1925C11.7855 13.2753 11.8942 13.3167 12.0277 13.3165C12.1169 13.3165 12.2171 13.2982 12.3281 13.261C12.442 13.2232 12.5036 13.1001 12.4656 12.986C12.4276 12.8721 12.3047 12.8101 12.1904 12.8485C12.0689 12.8889 12.0175 12.8823 12.0129 12.8865C12 12.8543 12.0085 12.7571 12.0308 12.6877C12.0684 12.5742 12.0069 12.4515 11.8932 12.4136Z" fill="#F5F5F5"/>
<path d="M14.3824 11.5146C14.4029 11.5205 14.4233 11.5232 14.4435 11.5232C14.5377 11.5232 14.6244 11.4617 14.6522 11.3667L14.779 10.9317C14.8127 10.8164 14.7464 10.6956 14.6312 10.662C14.5156 10.6286 14.3952 10.6945 14.3615 10.8098L14.2346 11.2447C14.2009 11.3602 14.2672 11.4811 14.3824 11.5146Z" fill="#F5F5F5"/>
<path d="M13.1148 11.4892C13.1493 11.5094 13.1872 11.519 13.2244 11.519C13.2992 11.519 13.3719 11.4805 13.4123 11.4114C13.473 11.3077 13.4381 11.1743 13.3344 11.1138C13.2907 11.0883 13.2966 11.0163 13.2982 11.002C13.3047 10.9449 13.3388 10.8752 13.398 10.8568C13.5127 10.8212 13.5768 10.6992 13.5411 10.5845C13.5052 10.4697 13.3835 10.4061 13.2687 10.4414C13.0518 10.5089 12.8938 10.7096 12.866 10.9526C12.8402 11.1787 12.9356 11.3844 13.1148 11.4892Z" fill="#F5F5F5"/>
<path d="M11.3894 15.0117C11.2692 15.0117 11.1719 15.109 11.1719 15.2292C11.1719 15.3354 11.2479 15.4238 11.3486 15.4428C11.36 15.4596 11.3893 15.5172 11.3893 15.6642C11.3893 15.7843 11.4867 15.8817 11.6068 15.8817C11.7269 15.8817 11.8243 15.7844 11.8243 15.6642C11.8244 15.0192 11.4071 15.0117 11.3894 15.0117Z" fill="#F5F5F5"/>
<path d="M15.079 14.1112C15.1064 14.1157 15.1335 14.1178 15.1609 14.1178C15.3317 14.1178 15.5044 14.0316 15.6754 13.8606C15.7603 13.7757 15.7603 13.638 15.6754 13.5531C15.5904 13.4682 15.4528 13.4682 15.3679 13.5531C15.2378 13.6833 15.1678 13.686 15.1499 13.682C15.1084 13.676 15.0707 13.6218 15.0624 13.607C15.0078 13.5012 14.8784 13.459 14.7719 13.5123C14.6645 13.566 14.6209 13.6967 14.6747 13.8041C14.6881 13.8311 14.8137 14.0681 15.079 14.1112Z" fill="#F5F5F5"/>
<path d="M18.776 12.5827C18.7746 12.5794 18.7733 12.5762 18.7722 12.5732C18.7337 12.4602 18.6105 12.3988 18.4977 12.4372C18.3837 12.4751 18.3221 12.5982 18.3601 12.7123C18.377 12.7632 18.474 13.019 18.714 13.0512C18.73 13.0534 18.746 13.0544 18.7618 13.0544C18.9125 13.0544 19.0538 12.9569 19.1824 12.7641C19.249 12.6642 19.222 12.5292 19.122 12.4625C19.022 12.396 18.8869 12.4227 18.8205 12.5229C18.8033 12.5486 18.7884 12.5681 18.776 12.5827Z" fill="#F5F5F5"/>
<path d="M18.349 16.535C18.349 15.6075 18.3083 14.7375 18.2517 13.9751C18.5605 14.5107 18.8383 15.0518 19.0153 15.524C19.0481 15.6113 19.1309 15.665 19.2189 15.665C19.2443 15.665 19.2701 15.6605 19.2952 15.6512C19.4077 15.609 19.4647 15.4837 19.4225 15.3711C19.1472 14.6372 18.6525 13.7632 18.1648 12.9873C18.0459 11.8158 17.9128 11.0722 17.9105 11.0589C17.889 10.9407 17.776 10.8608 17.6577 10.8839C17.5395 10.9053 17.4611 11.0185 17.4825 11.1366C17.4843 11.146 17.5528 11.5291 17.6347 12.1738C17.4676 11.9259 17.3124 11.7022 17.1821 11.518L17.1927 11.5214C17.3073 11.5596 17.4299 11.4979 17.4679 11.384C17.5059 11.2699 17.4444 11.1467 17.3304 11.1089L16.6779 10.8914C16.5874 10.8609 16.4881 10.8932 16.4327 10.9705C16.4179 10.9911 16.4078 11.0137 16.4009 11.0371C16.2707 10.9409 16.1037 10.8626 15.947 10.9282C15.8522 10.9675 15.7392 11.0665 15.7392 11.3152C15.7392 11.5061 15.812 11.7125 15.8892 11.9313C16.0173 12.294 16.0975 12.5608 15.9619 12.688C15.8869 12.7583 15.812 12.7849 15.739 12.7664C15.6049 12.7324 15.4721 12.5538 15.3837 12.2885C15.3798 12.277 15.3718 12.2687 15.3663 12.2584C15.4121 11.9215 15.3921 11.5156 15.2999 11.055C15.2765 10.9372 15.1622 10.8605 15.044 10.8845C14.9262 10.908 14.8499 11.0225 14.8734 11.1404C15.0154 11.8506 14.9728 12.43 14.7595 12.6902C14.677 12.7909 14.5736 12.8376 14.4342 12.8376C14.3902 12.8376 14.3601 12.8236 14.3302 12.7892C14.1586 12.5914 14.1593 11.9534 14.2147 11.5632C14.2235 11.501 14.2048 11.4377 14.1635 11.3901C14.1222 11.3425 14.0623 11.3152 13.9993 11.3152C13.6251 11.3152 13.4832 11.7408 13.358 12.1163C13.3031 12.2814 13.2007 12.5882 13.1294 12.6201C12.9977 12.6201 12.9126 12.2335 12.9119 11.9674C12.9115 11.8474 12.8143 11.7504 12.6944 11.7504C12.6944 11.7504 12.6942 11.7504 12.694 11.7504C12.574 11.7504 12.4768 11.8476 12.4768 11.9676C12.4768 12.4692 12.6477 13.055 13.1293 13.055C13.4879 13.055 13.6332 12.6642 13.7548 12.301C13.7759 12.5899 13.8412 12.8891 14.0015 13.0739C14.1142 13.2039 14.2637 13.2725 14.4342 13.2725C14.7027 13.2725 14.9314 13.1665 15.0958 12.966C15.1256 12.9297 15.1512 12.888 15.1766 12.846C15.3028 13.0255 15.4577 13.1439 15.6323 13.188C15.6835 13.2009 15.735 13.2075 15.7859 13.2075C15.9538 13.2075 16.1179 13.1382 16.2596 13.005C16.289 12.9773 16.3097 12.9471 16.3322 12.9173C16.3854 12.9325 16.4393 12.9415 16.4929 12.9415C16.6691 12.9415 16.8387 12.8705 16.9439 12.803C17.0446 12.7384 17.0737 12.605 17.0098 12.5039C16.9457 12.403 16.8117 12.3729 16.7104 12.4362C16.7085 12.437 16.5632 12.5205 16.4642 12.5009C16.4644 12.2625 16.3782 12.0093 16.2994 11.7862C16.2546 11.6592 16.2086 11.529 16.1869 11.4227C16.2049 11.4378 16.2224 11.4535 16.2381 11.4687C16.3228 11.5537 16.4605 11.5537 16.5455 11.4687C16.5595 11.4547 16.5677 11.4376 16.577 11.4212C16.8025 11.7317 17.2662 12.3844 17.7431 13.1367C17.8342 14.0613 17.914 15.2409 17.914 16.5347C17.914 16.6548 18.0114 16.7522 18.1315 16.7522C18.2517 16.7524 18.349 16.6552 18.349 16.535Z" fill="#F5F5F5"/>
<path d="M18.5664 11.7497C18.5664 11.8699 18.6638 11.9672 18.7839 11.9672C18.9041 11.9672 19.0014 11.8699 19.0014 11.7497C19.0014 11.4937 18.8012 11.0802 18.761 10.9999C18.7072 10.8927 18.5767 10.8494 18.4692 10.9027C18.3617 10.9564 18.3181 11.0871 18.3719 11.1945C18.4504 11.3514 18.5664 11.6362 18.5664 11.7497Z" fill="#F5F5F5"/>
<path d="M17.5768 16.5583C17.4702 16.5039 17.3392 16.5471 17.2849 16.6541C17.2615 16.6997 17.2253 16.7506 17.1947 16.7832C17.1851 16.6968 17.2081 16.5241 17.252 16.381C17.2812 16.2854 17.2416 16.1822 17.156 16.1308C17.0707 16.0792 16.9608 16.0926 16.8902 16.1633L16.4553 16.5982C16.3704 16.6832 16.3704 16.8208 16.4553 16.9057C16.5402 16.9907 16.6779 16.9907 16.7628 16.9057L16.7739 16.8947C16.7927 16.982 16.8287 17.0616 16.8903 17.1232C16.9719 17.2048 17.0704 17.2479 17.1729 17.2479C17.1927 17.2479 17.2127 17.2462 17.2327 17.2431C17.479 17.2031 17.6324 16.9315 17.6735 16.8492C17.727 16.742 17.6837 16.6123 17.5768 16.5583Z" fill="#F5F5F5"/>
<path d="M17.4926 14.8086H15.9598C15.9734 14.7545 15.9874 14.7028 16.0017 14.6538C16.6129 14.5267 16.9762 14.3294 17.083 14.0662C17.12 13.9749 17.1585 13.7903 17.0012 13.5781C16.8594 13.3869 16.6593 13.3012 16.4514 13.3436C16.1424 13.4062 15.867 13.7392 15.6694 14.2724C15.0555 14.3775 14.6625 14.5979 14.4137 14.8153C14.3254 13.924 13.9795 13.3946 13.9626 13.3694C13.8959 13.2694 13.7608 13.2424 13.661 13.3091C13.5611 13.3757 13.5342 13.5106 13.6007 13.6106C13.6046 13.6166 13.9991 14.2199 13.9991 15.2299C13.9991 16.2225 13.2075 16.9697 12.6942 16.9697C12.45 16.9697 12.3431 16.6795 12.2962 16.434C12.7988 16.0817 13.2423 15.6741 13.3402 15.2825C13.4728 14.7525 13.306 14.362 13.1956 14.1035C13.1904 14.0917 13.185 14.0789 13.1795 14.0657C13.1842 14.07 13.1886 14.0744 13.193 14.0787C13.2778 14.1636 13.4155 14.1636 13.5005 14.0787C13.5854 13.9937 13.5854 13.8561 13.5005 13.7712C13.3734 13.6439 13.1265 13.4441 12.902 13.538C12.8072 13.5773 12.6942 13.6762 12.6942 13.9249C12.6942 14.0373 12.7412 14.147 12.7955 14.2745C12.8935 14.5037 13.0153 14.7889 12.9182 15.1771C12.8607 15.4069 12.5786 15.6855 12.2063 15.9623C12.1664 15.9145 12.1087 15.8825 12.0417 15.8825H12.0414C11.9214 15.8827 11.8242 15.9797 11.8242 16.0997C11.8242 16.1389 11.8259 16.1807 11.8284 16.2236C11.363 16.525 10.8363 16.804 10.4292 16.9892C10.3199 17.0389 10.2716 17.1678 10.3213 17.2772C10.3577 17.3572 10.4367 17.4046 10.5194 17.4046C10.5495 17.4046 10.5801 17.3985 10.6092 17.3851C10.7315 17.3295 11.3119 17.0591 11.9082 16.6896C12.018 17.0624 12.2507 17.4047 12.6942 17.4047C13.2159 17.4047 13.8078 16.9781 14.1494 16.3412C14.1906 16.414 14.238 16.4837 14.2945 16.5488C14.842 17.18 15.9112 17.1872 15.9565 17.1872C16.0736 17.1872 16.1696 17.0946 16.1739 16.9776C16.178 16.8605 16.0888 16.7612 15.972 16.7529C15.9703 16.7527 15.797 16.7336 15.7006 16.621C15.6424 16.5531 15.6192 16.4596 15.6294 16.3354C15.6517 16.0674 16.5162 15.867 17.2782 15.8552C17.369 15.8537 17.4494 15.7962 17.4798 15.7106L17.6973 15.099C17.7209 15.0325 17.7108 14.9584 17.67 14.9009C17.6297 14.843 17.5632 14.8086 17.4926 14.8086ZM16.538 13.7701C16.5421 13.7692 16.5476 13.7679 16.5545 13.7679C16.5754 13.7679 16.6082 13.7781 16.6519 13.8372C16.6602 13.8482 16.6867 13.886 16.68 13.9026C16.655 13.9642 16.5049 14.0659 16.192 14.1581C16.3296 13.8896 16.4642 13.7849 16.538 13.7701ZM15.2245 16.629C15.0036 16.5572 14.7784 16.4434 14.6225 16.263C14.4512 16.0649 14.388 15.8143 14.4295 15.4972C14.4357 15.4805 14.45 15.4477 14.4749 15.405C14.7811 15.3769 15.5993 15.4976 15.656 15.7319C15.4036 15.8607 15.2177 16.0419 15.1962 16.2994C15.1854 16.4285 15.1986 16.5379 15.2245 16.629Z" fill="#F5F5F5"/>
<path d="M19.8601 11.6812L19.6426 11.0287C19.6076 10.9238 19.4988 10.8611 19.3908 10.8849C19.2824 10.9081 19.2088 11.0089 19.2199 11.1191C19.37 12.6199 19.6538 15.5466 19.6538 15.8822C19.6538 16.1836 19.1178 16.7769 18.2517 17.2101C18.1442 17.2638 18.1006 17.3944 18.1544 17.5019C18.1925 17.5781 18.2693 17.6221 18.3492 17.6221C18.3818 17.6221 18.415 17.6146 18.4462 17.5991C19.2374 17.2035 20.0888 16.4975 20.0888 15.8822C20.0888 15.5609 19.8666 13.2488 19.7393 11.9501C19.8423 11.9061 19.8962 11.7896 19.8601 11.6812Z" fill="#F5F5F5"/>
<path d="M21.6748 13.6431C21.7167 13.685 21.7723 13.7069 21.8287 13.7069C21.8654 13.7069 21.9025 13.6976 21.9361 13.6784C22.0212 13.6299 22.0634 13.5306 22.0394 13.4356C22.0004 13.2828 21.9874 13.0916 22.0081 13.0134C22.117 13.0168 22.2181 12.9393 22.2341 12.8269C22.2511 12.708 22.1685 12.5978 22.0496 12.5808C21.9058 12.5613 21.7796 12.6036 21.6914 12.7016C21.6343 12.7654 21.6003 12.8471 21.5818 12.9351L21.3299 12.6832C21.245 12.5983 21.1074 12.5983 21.0224 12.6832C20.9375 12.7681 20.9375 12.9058 21.0224 12.9907L21.6748 13.6431Z" fill="#F5F5F5"/>
<path d="M22.1642 13.8702L21.3486 14.4547C21.2511 14.5245 21.2285 14.6605 21.2985 14.7582C21.341 14.8174 21.4078 14.8489 21.4756 14.8489C21.5195 14.8489 21.5637 14.8357 21.6021 14.8081L22.4176 14.2236C22.5152 14.1537 22.5378 14.0178 22.4678 13.9201C22.3976 13.8224 22.2615 13.7996 22.1642 13.8702Z" fill="#F5F5F5"/>
<path d="M22.0919 14.6885C22.0235 14.7766 22.0333 14.9007 22.111 14.9769C22.1203 14.9927 22.1628 15.0759 22.1551 15.29C22.1508 15.4102 22.2447 15.5109 22.3647 15.5151C22.3673 15.5153 22.37 15.5153 22.3726 15.5153C22.4892 15.5153 22.5856 15.4229 22.5898 15.3057C22.6056 14.8618 22.4604 14.6996 22.3972 14.6504C22.3026 14.5764 22.1657 14.5938 22.0919 14.6885Z" fill="#F5F5F5"/>
<path d="M23.99 16.2896C24.1101 16.2896 24.2075 16.1924 24.2075 16.0721C24.2075 15.7513 24.191 15.393 24.1641 15.0203C24.3798 15.3737 24.5589 15.6995 24.6738 15.9674C24.709 16.0501 24.7893 16.0993 24.8737 16.0993C24.9023 16.0993 24.9313 16.0938 24.9593 16.0817C25.0696 16.0343 25.1208 15.9064 25.0734 15.7963C24.8743 15.3316 24.5021 14.7161 24.0783 14.0806C23.993 13.2824 23.8816 12.5002 23.7949 11.9391C23.841 11.9438 23.8888 11.9326 23.9308 11.9053C23.9994 11.8613 24.0316 11.7849 24.027 11.7088C24.0326 11.7302 24.0386 11.7516 24.0511 11.7713C24.0526 11.7735 24.1923 12.0043 24.1303 12.3038C24.1059 12.4213 24.1816 12.5364 24.2993 12.5608C24.3141 12.5637 24.329 12.5653 24.3435 12.5653C24.4444 12.5653 24.5349 12.4945 24.5563 12.3918C24.6545 11.9166 24.4277 11.5531 24.4181 11.5378C24.3535 11.4366 24.219 11.407 24.1177 11.4711C24.0488 11.515 24.0161 11.5915 24.0206 11.6678C24.0149 11.6463 24.0088 11.6246 23.9961 11.605L23.629 11.0341C23.5729 10.947 23.4632 10.9117 23.3669 10.9491C23.2704 10.987 23.2139 11.0874 23.2318 11.1893C23.2349 11.2065 23.4011 12.1608 23.5484 13.3111C23.3816 13.0757 23.2149 12.8455 23.0533 12.6258C23.027 12.2967 23.0006 11.9925 22.9778 11.741C22.9898 11.7374 23.0016 11.7327 23.0132 11.727C23.1206 11.6732 23.1643 11.5426 23.1104 11.4351L22.8929 11.0002C22.846 10.9063 22.7389 10.8596 22.638 10.8885C22.5373 10.9178 22.4716 11.0146 22.482 11.1191C22.5079 11.3786 22.5349 11.666 22.5614 11.9678C22.4239 11.7865 22.2966 11.6205 22.1877 11.4799C22.2089 11.4616 22.2271 11.439 22.2404 11.4121C22.2942 11.3047 22.2506 11.1741 22.1432 11.1203L21.7083 10.9028C21.617 10.8574 21.5063 10.8812 21.4418 10.9606C21.3777 11.0401 21.3773 11.1535 21.4412 11.2333C21.4529 11.248 21.9884 11.9192 22.629 12.7856C22.7401 14.2225 22.8141 15.7173 22.7096 16.0307C22.6905 16.088 22.6571 16.1556 22.6258 16.1579C22.4944 16.1762 22.1806 15.8823 22.0231 15.5673C21.9323 15.3859 21.8016 15.3671 21.7318 15.3702C21.498 15.3846 21.4068 15.6418 21.2411 16.1087C21.1223 16.4432 20.9746 16.8591 20.8089 17.0292C20.7191 16.9194 20.603 16.5513 20.5385 16.1729C20.5687 16.2566 20.647 16.3171 20.7411 16.3171C20.8613 16.3171 20.9586 16.2198 20.9586 16.0996C20.9586 15.7752 20.7318 13.3051 20.6051 11.9514C20.711 11.909 20.7666 11.7907 20.73 11.6811L20.5125 11.0286C20.4776 10.9237 20.3703 10.8618 20.2611 10.8846C20.153 10.9075 20.0791 11.008 20.0896 11.118C20.2375 12.6695 20.5146 15.6663 20.5232 16.0799C20.5226 16.0761 20.5219 16.0725 20.5214 16.0688C20.5045 15.9498 20.3935 15.8683 20.2753 15.8842C20.1564 15.9014 20.0739 16.0114 20.0908 16.1303C20.1543 16.5749 20.3166 17.3392 20.6904 17.4637C20.7199 17.4737 20.7596 17.4826 20.8063 17.4826C20.892 17.4826 21.0009 17.4522 21.1123 17.3407C21.3492 17.1039 21.5095 16.6523 21.6509 16.2541C21.6829 16.1641 21.7208 16.0574 21.7564 15.9661C21.9559 16.2575 22.304 16.6203 22.6567 16.5919C22.7807 16.583 23.0063 16.5163 23.1223 16.1684C23.2379 15.8214 23.1922 14.6115 23.1143 13.4531C23.2975 13.7099 23.4809 13.9729 23.6559 14.2326C23.7238 14.8839 23.7723 15.5364 23.7723 16.0724C23.7726 16.1923 23.8699 16.2896 23.99 16.2896Z" fill="#F5F5F5"/>
<path d="M25.6405 15.146C25.4864 13.9983 25.2718 12.6687 25.1359 11.8527C25.1973 11.8678 25.2641 11.8555 25.3181 11.814C25.4136 11.7412 25.4319 11.6046 25.359 11.5093L24.9648 10.9927C24.904 10.9133 24.7967 10.8853 24.7049 10.9254C24.613 10.9655 24.5605 11.0633 24.5776 11.162C24.5816 11.1843 24.9694 13.4169 25.2093 15.2038C25.3009 15.8866 25.1671 16.4968 24.8512 16.8358C24.6481 17.0535 24.3791 17.152 24.0534 17.1331C23.9339 17.1267 23.8302 17.2167 23.8227 17.3365C23.8152 17.4563 23.9061 17.5596 24.0261 17.5671C24.0628 17.5695 24.099 17.5705 24.1349 17.5705C24.545 17.5705 24.9009 17.4202 25.1693 17.1321C25.5793 16.6926 25.751 15.9686 25.6405 15.146Z" fill="#F5F5F5"/>
<path d="M23.2478 16.5799C23.1679 16.6667 23.174 16.8035 23.2586 16.8855C23.2704 16.897 23.2845 16.9195 23.2846 16.9306C23.2847 16.9367 23.2759 16.955 23.2517 16.9792C23.1668 17.0642 23.1668 17.2018 23.2517 17.2867C23.2942 17.3292 23.3498 17.3505 23.4055 17.3505C23.4611 17.3505 23.5168 17.3292 23.5593 17.2867C23.6972 17.1489 23.7226 17.0089 23.7194 16.9157C23.7127 16.715 23.5761 16.5854 23.5488 16.5614C23.4599 16.4841 23.3277 16.4934 23.2478 16.5799Z" fill="#F5F5F5"/>
<path d="M22.4812 21.3491H22.2637H20.9588V21.1316C20.9588 21.0114 20.8614 20.9141 20.7413 20.9141C20.6212 20.9141 20.5238 21.0113 20.5238 21.1316V21.3491H8.99707C9.43201 21.784 10.3019 22.0016 10.9544 22.0016C11.4224 22.0016 17.2594 22.0016 20.5238 22.0016V22.4365C20.5238 22.5567 20.6212 22.654 20.7413 22.654H22.4812C22.841 22.654 23.1337 22.3613 23.1337 22.0015C23.1337 21.6417 22.841 21.3491 22.4812 21.3491ZM22.4812 22.219H20.9587V22.0015C22.0069 22.0015 22.6986 22.0015 22.6986 22.0015L22.6595 21.8844C22.6822 21.9187 22.6986 21.9574 22.6986 22.0015C22.6986 22.1216 22.601 22.219 22.4812 22.219Z" fill="#F5F5F5"/>
</g>
<defs>
<clipPath id="clip0_18080_126462">
<rect width="32" height="32" fill="white" transform="translate(0 0.5)"/>
</clipPath>
</defs>
</svg>
