<svg width="187" height="186" viewBox="0 0 187 186" fill="none" xmlns="http://www.w3.org/2000/svg">
<path d="M0 10.2385C0 4.58394 4.58395 0 10.2385 0H176.702C182.356 0 186.94 4.58395 186.94 10.2385V175.761C186.94 181.416 182.356 186 176.702 186H10.2385C4.58393 186 0 181.416 0 175.761V10.2385Z" fill="white"/>
<rect x="17.4409" y="15.3167" width="63.7668" height="8.20588" rx="4.10294" fill="#EAECF0"/>
<rect x="17.4409" y="29.2312" width="109.548" height="6.56471" rx="3.28235" fill="#EAECF0"/>
<path d="M17.4409 53.6094L169.5 53.6094" stroke="#EAECF0" stroke-width="0.656808"/>
<rect x="35.3546" y="167.049" width="3.27009" height="3.33518" rx="1.63505" fill="#EEE8E7"/>
<rect x="44.1467" y="165.76" width="22.8906" height="5.47059" rx="2.73529" fill="#EAECF0"/>
<rect x="78.081" y="167.049" width="3.27009" height="3.33518" rx="1.63505" fill="#B59DF9"/>
<rect x="86.6559" y="165.76" width="22.8906" height="5.47059" rx="2.73529" fill="#EAECF0"/>
<rect x="120.811" y="167.049" width="3.27009" height="3.33518" rx="1.63505" fill="#FDAED0"/>
<rect x="129.715" y="165.76" width="22.8906" height="5.47059" rx="2.73529" fill="#EAECF0"/>
<rect x="17.4404" y="71.6615" width="11.4453" height="4.37647" rx="2.18824" fill="#EAECF0"/>
<rect x="17.4404" y="82.6031" width="11.4453" height="4.37647" rx="2.18824" fill="#EAECF0"/>
<rect x="17.4404" y="93.5449" width="11.4453" height="4.37647" rx="2.18823" fill="#EAECF0"/>
<rect x="17.4404" y="104.487" width="11.4453" height="4.37647" rx="2.18824" fill="#EAECF0"/>
<rect x="17.4404" y="115.428" width="11.4453" height="4.37647" rx="2.18824" fill="#EAECF0"/>
<rect x="17.4404" y="126.37" width="11.4453" height="4.37647" rx="2.18823" fill="#EAECF0"/>
<rect x="17.4404" y="137.309" width="11.4453" height="4.37647" rx="2.18823" fill="#EAECF0"/>
<rect x="38.1519" y="147.155" width="11.4453" height="5.47059" rx="2.73529" fill="#EAECF0"/>
<rect x="60.4983" y="147.155" width="11.4453" height="5.47059" rx="2.73529" fill="#EAECF0"/>
<rect x="82.843" y="147.155" width="11.4453" height="5.47059" rx="2.73529" fill="#EAECF0"/>
<rect x="105.189" y="147.155" width="11.4453" height="5.47059" rx="2.73529" fill="#EAECF0"/>
<rect x="127.534" y="147.155" width="11.4453" height="5.47059" rx="2.73529" fill="#EAECF0"/>
<rect x="149.881" y="147.155" width="11.4453" height="5.47059" rx="2.73529" fill="#EAECF0"/>
<rect x="35.7529" y="71.9927" width="132.872" height="68.8197" stroke="#EAECF0" stroke-width="0.656808"/>
<path d="M35.3538 94.6891H168.678" stroke="#EAECF0" stroke-width="0.656808"/>
<path d="M35.3538 83.4343H168.678" stroke="#EAECF0" stroke-width="0.656808"/>
<path d="M35.3538 105.947H168.678" stroke="#EAECF0" stroke-width="0.656808"/>
<path d="M35.3538 117.202H168.678" stroke="#EAECF0" stroke-width="0.656808"/>
<path d="M35.3538 128.457H168.678" stroke="#EAECF0" stroke-width="0.656808"/>
<path d="M57.7827 71.7585L57.7827 141.38" stroke="#EAECF0" stroke-width="0.656808"/>
<path d="M79.7958 71.7585L79.7958 141.38" stroke="#EAECF0" stroke-width="0.656808"/>
<path d="M101.809 71.7585L101.809 141.38" stroke="#EAECF0" stroke-width="0.656808"/>
<path d="M123.822 71.7585L123.822 141.38" stroke="#EAECF0" stroke-width="0.656808"/>
<path d="M145.833 71.7585L145.833 141.38" stroke="#EAECF0" stroke-width="0.656808"/>
<path d="M35.561 83.4335V105.946H124.028L101.6 72.1772L79.7947 83.4335L57.7817 94.4813L35.561 83.4335Z" fill="#EEE8E7"/>
<path d="M145.627 117.41L124.029 105.945H168.263V140.965L145.627 117.41Z" fill="#EEE8E7"/>
<ellipse cx="35.698" cy="117.342" rx="1.36254" ry="1.36765" fill="#B59DF9"/>
<ellipse cx="58.0428" cy="94.9133" rx="1.36254" ry="1.36765" fill="#B59DF9"/>
<ellipse cx="79.8438" cy="117.342" rx="1.36254" ry="1.36765" fill="#B59DF9"/>
<ellipse cx="102.19" cy="128.284" rx="1.36254" ry="1.36765" fill="#B59DF9"/>
<ellipse cx="123.989" cy="94.9133" rx="1.36254" ry="1.36765" fill="#B59DF9"/>
<ellipse cx="145.791" cy="83.4261" rx="1.36254" ry="1.36765" fill="#B59DF9"/>
<ellipse cx="168.137" cy="94.9133" rx="1.36254" ry="1.36765" fill="#B59DF9"/>
<path d="M35.561 117.618L57.9893 94.8968L80.0024 117.618L102.015 128.249L124.236 94.8968L146.249 83.4321L168.054 94.8968" stroke="#B59DF9" stroke-width="1.31362"/>
<path d="M35.561 105.945L57.7817 117.201L80.4177 105.945L101.6 93.4377L123.198 83.4321L145.834 94.6884L168.262 105.945" stroke="#FDAED0" stroke-width="1.31362" stroke-dasharray="2.63 2.63"/>
<ellipse cx="35.698" cy="105.855" rx="1.36254" ry="1.36765" fill="#FDAED0"/>
<ellipse cx="58.0428" cy="117.342" rx="1.36254" ry="1.36765" fill="#FDAED0"/>
<ellipse cx="79.8438" cy="105.855" rx="1.36254" ry="1.36765" fill="#FDAED0"/>
<ellipse cx="102.19" cy="93.2738" rx="1.36254" ry="1.36765" fill="#FDAED0"/>
<ellipse cx="123.989" cy="83.4261" rx="1.36254" ry="1.36765" fill="#FDAED0"/>
<ellipse cx="145.791" cy="94.9133" rx="1.36254" ry="1.36765" fill="#FDAED0"/>
<ellipse cx="168.137" cy="105.855" rx="1.36254" ry="1.36765" fill="#FDAED0"/>
</svg>
