<svg width="390" height="847" viewBox="0 0 390 847" fill="none" xmlns="http://www.w3.org/2000/svg">
<g clip-path="url(#clip0_24781_105847)">
<g clip-path="url(#clip1_24781_105847)">
<path d="M866.15 574.609C866.15 574.609 629.738 696.472 540.814 448.227C480.657 280.303 475.896 153.754 408.591 72.757C352.027 4.68467 241.555 3.37538 189.163 22.0569C116.111 48.0989 55.683 159.529 -20.7217 177.49C-180.432 215.049 -386.879 -159.31 -270.652 -364.907" stroke="#7A706E" stroke-opacity="0.3" stroke-width="0.39182" stroke-miterlimit="10"/>
<path d="M865.726 571.483C865.726 571.483 632.462 691.025 542.098 449.761C481.068 286.814 473.995 163.054 406.49 82.1044C393.702 66.7523 378.219 54.7231 361.316 45.48C350.679 39.6545 339.505 34.9284 328.109 31.1695C277.965 14.6037 223.088 17.0473 190.462 27.2438C118.111 49.7178 57.9569 155.269 -17.869 171.107C-175.84 204.64 -379.741 -158.137 -273.309 -353.845" stroke="#7A706E" stroke-opacity="0.3" stroke-width="0.39182" stroke-miterlimit="10"/>
<path d="M865.305 568.372C865.305 568.372 635.211 685.623 543.385 451.299C481.487 293.338 472.101 172.366 404.394 91.4446C391.696 76.2411 376.394 64.2162 359.732 54.8608C349.238 48.9562 338.25 44.0863 327.062 40.1397C277.836 22.7436 224.05 23.7927 191.768 32.4122C120.113 51.3101 60.1535 150.756 -15.0086 164.693C-171.403 193.695 -372.601 -156.991 -275.953 -342.804" stroke="#7A706E" stroke-opacity="0.3" stroke-width="0.39182" stroke-miterlimit="10"/>
<path d="M864.895 565.263C864.895 565.263 637.981 680.238 544.689 452.847C481.938 299.884 470.226 181.676 402.314 100.806C389.701 85.743 374.584 73.7304 358.16 64.2546C347.815 58.2677 337.005 53.2573 326.03 49.1311C277.719 30.8965 225.023 30.5513 193.087 37.613C122.134 52.9315 62.4184 146.401 -12.1401 158.316C-166.861 183.045 -365.452 -155.82 -278.588 -331.74" stroke="#7A706E" stroke-opacity="0.3" stroke-width="0.39182" stroke-miterlimit="10"/>
<path d="M864.48 562.14C864.48 562.14 640.759 674.864 545.987 454.381C482.388 306.423 468.334 190.968 400.229 110.142C387.701 95.2194 372.766 83.211 356.587 73.6308C346.381 67.557 335.761 62.4107 324.994 58.0969C277.596 39.0351 226.021 37.3934 194.403 42.7882C124.219 54.7617 64.6895 142.026 -9.27151 151.921C-162.309 172.394 -358.298 -154.659 -281.229 -320.689" stroke="#7A706E" stroke-opacity="0.3" stroke-width="0.39182" stroke-miterlimit="10"/>
<path d="M864.062 559.033C864.062 559.033 643.563 669.53 547.277 455.922C482.853 312.999 466.443 200.283 398.134 119.497C385.696 104.723 370.942 92.719 355.001 83.0185C344.938 76.8657 334.503 71.5755 323.947 67.082C277.469 47.1898 226.987 44.1731 195.708 47.9828C126.229 56.4381 66.9446 137.673 -6.41123 145.534C-157.756 161.756 -351.158 -153.486 -283.867 -309.626" stroke="#7A706E" stroke-opacity="0.3" stroke-width="0.39182" stroke-miterlimit="10"/>
<path d="M863.634 555.91C863.634 555.91 646.373 664.193 548.563 457.456C483.33 319.569 464.549 209.579 396.036 128.832C383.684 114.199 369.116 102.207 353.417 92.3832C343.498 86.1514 333.248 80.7173 322.9 76.0362C277.336 55.3056 227.946 50.9251 197.008 53.1384C128.233 58.0755 69.2047 133.286 -3.55802 139.119C-153.191 151.111 -344.024 -152.353 -286.523 -298.595" stroke="#7A706E" stroke-opacity="0.3" stroke-width="0.39182" stroke-miterlimit="10"/>
<path d="M863.215 552.796C863.215 552.796 649.22 658.891 549.853 458.99C483.82 326.155 462.654 218.88 393.941 138.18C381.674 123.688 367.298 111.705 351.835 101.772C342.054 95.453 331.994 89.883 321.858 85.0223C277.213 63.4613 228.912 57.6976 198.318 58.3339C130.239 59.7368 71.4849 128.944 -0.699402 132.736C-148.616 140.506 -336.879 -151.179 -289.174 -287.532" stroke="#7A706E" stroke-opacity="0.3" stroke-width="0.39182" stroke-miterlimit="10"/>
<path d="M862.81 549.673C862.81 549.673 652.112 653.605 551.161 460.524C484.355 332.748 460.783 228.177 391.866 147.516C379.689 133.173 365.49 121.186 350.268 111.141C340.631 104.743 330.745 99.0244 320.828 93.9808C277.102 71.5893 229.888 64.4539 199.639 63.5018C132.254 61.3818 73.775 124.585 2.17064 126.326C-144.014 129.885 -329.73 -150.03 -291.803 -276.492" stroke="#7A706E" stroke-opacity="0.3" stroke-width="0.39182" stroke-miterlimit="10"/>
<path d="M862.395 546.565C862.395 546.565 655.018 648.351 552.455 462.064C484.897 339.355 458.779 237.618 389.776 156.87C377.658 142.691 363.67 130.693 348.69 120.535C339.197 114.047 329.495 108.195 319.79 102.972C276.978 79.7423 230.847 71.2271 200.949 68.6946C134.249 63.0357 76.0636 120.256 5.03922 119.945C-139.401 119.319 -322.58 -148.863 -294.443 -265.427" stroke="#7A706E" stroke-opacity="0.3" stroke-width="0.39182" stroke-miterlimit="10"/>
<path d="M861.975 543.44C861.975 543.44 657.961 643.101 553.748 463.597C485.462 345.973 456.879 246.931 387.685 166.204C375.658 152.175 361.836 140.209 347.108 129.902C337.751 123.349 328.242 117.34 318.75 111.926C276.851 87.8686 231.803 77.9736 202.26 73.8575C136.244 64.671 78.3529 115.908 7.89806 113.541C-134.789 108.745 -315.436 -147.711 -297.088 -254.389" stroke="#7A706E" stroke-opacity="0.3" stroke-width="0.39182" stroke-miterlimit="10"/>
<path d="M861.557 540.313C861.557 540.313 660.937 637.86 555.038 465.118C486.052 352.585 454.979 256.221 385.591 175.539C373.649 161.649 360.013 149.696 345.522 139.269C336.308 132.637 326.984 126.484 317.704 120.89C276.725 96.0024 232.755 84.7197 203.566 79.0312C138.232 66.2865 80.6486 111.564 10.7545 107.125C-130.17 98.1751 -308.294 -146.57 -299.736 -243.351" stroke="#7A706E" stroke-opacity="0.3" stroke-width="0.39182" stroke-miterlimit="10"/>
<path d="M861.146 537.199C861.146 537.199 663.968 632.65 556.341 466.661C486.677 359.218 453.1 265.538 383.51 184.884C371.658 171.144 358.203 159.195 343.954 148.655C334.883 141.944 325.741 135.67 316.672 129.866C276.585 104.225 233.721 91.4772 204.881 84.2084C140.223 67.92 82.9609 107.251 13.6291 100.729C-125.52 87.6487 -301.144 -145.415 -302.371 -232.302" stroke="#7A706E" stroke-opacity="0.3" stroke-width="0.39182" stroke-miterlimit="10"/>
<path d="M860.735 534.084C860.735 534.084 667.036 627.448 557.638 468.194C487.333 365.85 451.207 274.84 381.423 194.23C369.651 180.634 356.383 168.686 342.375 158.034C333.443 151.236 324.484 144.829 315.634 138.842C276.46 112.374 234.675 98.2271 206.195 89.394C142.208 69.5427 85.2711 102.947 16.4911 94.336C-120.87 77.1502 -293.992 -144.243 -305.008 -221.245" stroke="#7A706E" stroke-opacity="0.3" stroke-width="0.39182" stroke-miterlimit="10"/>
<path d="M860.306 530.971C860.306 530.971 670.141 622.251 558.917 469.742C487.999 372.493 449.299 284.165 379.319 203.58C367.636 190.132 354.549 178.189 340.783 167.424C331.994 160.548 323.216 153.988 314.578 147.822C276.317 120.527 235.612 104.981 207.49 94.5832C144.172 71.1611 87.5726 98.6624 19.3402 87.955C-116.234 66.6746 -286.862 -143.076 -307.668 -210.18" stroke="#7A706E" stroke-opacity="0.3" stroke-width="0.39182" stroke-miterlimit="10"/>
<path d="M859.902 527.858C859.902 527.858 673.315 617.048 560.221 471.277C488.723 379.126 447.417 293.466 377.244 212.925C365.646 199.618 352.746 187.687 339.216 176.802C330.571 169.847 321.978 163.143 313.552 156.797C276.205 128.664 236.579 111.73 208.816 99.7682C146.171 72.7719 89.9024 94.3847 22.2205 81.5584C-111.554 56.2187 -279.702 -141.913 -310.291 -199.134" stroke="#7A706E" stroke-opacity="0.3" stroke-width="0.39182" stroke-miterlimit="10"/>
<path d="M859.465 524.741C859.465 524.741 676.508 611.824 561.497 472.817C489.455 385.744 445.509 302.772 375.131 222.27C363.619 209.104 350.904 197.185 337.612 186.18C329.105 179.137 320.702 172.298 312.483 165.764C276.045 136.796 237.506 118.46 210.095 104.937C148.114 74.3502 92.1897 90.0984 25.0481 75.1486C-106.925 45.7688 -272.594 -140.775 -312.972 -188.099" stroke="#7A706E" stroke-opacity="0.3" stroke-width="0.39182" stroke-miterlimit="10"/>
<path d="M859.054 521.635C859.054 521.635 679.78 606.592 562.8 474.367C490.249 392.353 443.632 312.085 373.055 231.631C361.632 218.614 349.095 206.691 336.048 195.581C327.684 188.46 319.466 181.477 311.46 174.763C275.941 144.965 238.477 125.221 211.429 110.142C150.119 75.9619 94.5355 85.8682 27.9357 68.7835C-102.229 35.391 -265.421 -139.584 -315.584 -177.013" stroke="#7A706E" stroke-opacity="0.3" stroke-width="0.39182" stroke-miterlimit="10"/>
<path d="M858.646 518.512C858.646 518.512 683.098 601.31 564.101 475.893C491.066 398.924 441.747 321.377 370.967 240.963C359.63 228.086 347.278 216.175 334.468 204.945C326.243 197.737 318.209 190.621 310.416 183.717C275.806 153.083 239.428 131.937 212.737 115.305C152.104 77.5281 96.8534 81.6071 30.7984 62.3649C-97.5498 24.9869 -258.278 -138.443 -318.23 -165.986" stroke="#7A706E" stroke-opacity="0.3" stroke-width="0.39182" stroke-miterlimit="10"/>
<path d="M858.207 515.385C858.207 515.385 686.44 595.982 565.375 477.422C491.893 405.467 439.842 330.669 368.862 250.302C357.611 237.566 345.44 225.66 332.876 214.325C324.8 207.034 316.945 199.778 309.365 192.694C275.669 161.222 240.373 138.666 214.033 120.484C154.074 79.0909 99.1635 77.3698 33.6431 55.9655C-92.8936 14.6359 -251.153 -137.294 -320.89 -154.932" stroke="#7A706E" stroke-opacity="0.3" stroke-width="0.39182" stroke-miterlimit="10"/>
<path d="M857.801 512.268C857.801 512.268 689.853 590.591 566.677 478.954C492.77 411.969 437.965 339.963 366.775 259.639C355.62 247.048 343.63 235.146 331.298 223.695C323.36 216.317 315.691 208.917 308.326 201.661C275.546 169.351 241.335 145.392 215.346 125.66C156.071 80.6561 101.484 73.1448 36.5097 49.5717C-88.2229 4.30515 -244.001 -136.131 -323.527 -143.884" stroke="#7A706E" stroke-opacity="0.3" stroke-width="0.39182" stroke-miterlimit="10"/>
<path d="M857.394 509.163C857.394 509.163 693.301 585.151 567.984 480.507C493.668 418.451 436.098 349.275 364.703 269.002C353.633 256.551 341.829 244.662 329.733 233.09C321.939 225.633 314.455 218.089 307.298 210.646C275.437 177.505 242.303 152.128 216.67 130.854C158.079 82.2387 103.817 68.9565 39.3881 43.1841C-83.5392 -5.98892 -236.837 -134.963 -326.158 -132.825" stroke="#7A706E" stroke-opacity="0.3" stroke-width="0.39182" stroke-miterlimit="10"/>
<path d="M856.974 506.059C856.974 506.059 696.758 579.626 569.272 482.051C494.571 424.882 434.214 358.579 362.602 278.351C351.617 266.042 339.995 254.156 328.145 242.48C320.49 234.936 313.195 227.257 306.251 219.634C275.31 185.651 243.258 158.864 217.969 136.043C160.071 83.8021 106.119 64.7781 42.241 36.8031C-78.8841 -16.2538 -229.703 -133.795 -328.808 -121.764" stroke="#7A706E" stroke-opacity="0.3" stroke-width="0.39182" stroke-miterlimit="10"/>
<path d="M856.545 502.932C856.545 502.932 700.221 573.977 570.557 483.581C495.467 431.237 432.325 367.868 360.508 287.691C349.613 275.53 338.178 263.646 326.559 251.853C319.053 244.227 311.937 236.406 305.201 228.596C275.175 193.775 244.22 165.578 219.271 141.215C162.075 85.3523 108.421 60.5931 45.0916 30.3962C-74.2523 -26.5121 -222.573 -132.643 -331.462 -110.717" stroke="#7A706E" stroke-opacity="0.3" stroke-width="0.39182" stroke-miterlimit="10"/>
<path d="M856.138 499.804C856.138 499.804 703.705 568.212 571.859 485.102C496.383 437.529 430.449 377.14 358.421 297.018C347.617 284.994 336.357 273.117 324.991 261.216C317.623 253.503 310.705 245.532 304.173 237.557C275.112 201.848 245.199 172.295 220.595 146.385C164.1 86.9017 110.738 56.4219 47.9699 23.9853C-69.6003 -36.7598 -215.409 -131.497 -334.093 -99.6828" stroke="#7A706E" stroke-opacity="0.3" stroke-width="0.39182" stroke-miterlimit="10"/>
<path d="M855.709 496.701C855.709 496.701 707.154 562.364 573.143 486.654C497.268 443.788 428.66 386.324 356.326 306.381C345.621 294.48 334.553 282.612 323.404 270.612C316.193 262.802 309.447 254.705 303.122 246.542C274.976 209.995 246.156 179.025 221.896 151.58C166.114 88.4795 113.02 52.281 50.8243 17.6093C-64.9916 -46.9515 -208.279 -130.322 -336.738 -88.6085" stroke="#7A706E" stroke-opacity="0.3" stroke-width="0.39182" stroke-miterlimit="10"/>
<path d="M855.304 493.6C855.304 493.6 710.597 556.409 574.446 488.202C498.157 449.987 426.778 395.638 354.241 315.734C343.625 303.981 332.734 292.11 321.826 279.997C314.759 272.109 308.197 263.868 302.091 255.522C274.864 218.145 247.138 185.758 223.212 156.761C168.149 90.0411 115.316 48.1384 53.6892 11.2123C-60.38 -57.1496 -201.129 -129.163 -339.382 -77.5599" stroke="#7A706E" stroke-opacity="0.3" stroke-width="0.39182" stroke-miterlimit="10"/>
<path d="M854.882 490.461C854.882 490.461 713.975 550.298 575.731 489.724C498.993 456.096 424.879 404.925 352.147 325.065C341.617 313.454 330.912 301.595 320.246 289.37C313.317 281.394 306.945 273.017 301.046 264.484C274.739 226.276 248.112 192.469 224.519 161.932C170.18 91.5891 117.585 43.9956 56.5557 4.80999C-55.7922 -67.3285 -193.977 -128.009 -342.019 -66.5198" stroke="#7A706E" stroke-opacity="0.3" stroke-width="0.39182" stroke-miterlimit="10"/>
<path d="M854.462 487.347C854.462 487.347 717.307 544.113 577.02 491.259C499.806 462.171 422.988 414.223 350.047 334.406C339.607 322.943 329.082 311.088 318.653 298.743C311.868 290.688 305.681 282.168 299.994 273.454C274.595 234.411 249.083 199.197 225.819 167.112C172.203 93.1574 119.838 39.8762 59.4042 -1.5882C-51.2447 -77.5014 -186.849 -126.847 -344.675 -55.4644" stroke="#7A706E" stroke-opacity="0.3" stroke-width="0.39182" stroke-miterlimit="10"/>
<path d="M854.049 484.243C854.049 484.243 720.578 537.828 578.32 492.811C500.578 468.208 421.107 423.549 347.968 343.768C337.614 332.445 327.275 320.603 317.088 308.145C310.441 300.004 304.437 291.35 298.965 282.446C274.485 242.573 250.107 205.918 227.136 172.306C174.334 94.6782 122.094 35.7685 62.2704 -7.97326C-46.6929 -87.6434 -179.697 -125.676 -347.308 -44.3993" stroke="#7A706E" stroke-opacity="0.3" stroke-width="0.39182" stroke-miterlimit="10"/>
<path d="M853.633 481.137C853.633 481.137 723.77 531.46 579.613 494.354C501.307 474.203 419.215 432.858 345.878 353.113C335.608 341.931 325.451 330.093 315.505 317.523C309.007 309.299 303.179 300.497 297.923 291.422C274.362 250.718 251.07 212.661 228.446 177.491C176.34 96.2871 124.329 31.659 65.1395 -14.362C-42.1814 -97.7966 -172.547 -124.516 -349.952 -33.3503" stroke="#7A706E" stroke-opacity="0.3" stroke-width="0.39182" stroke-miterlimit="10"/>
<path d="M853.23 477.995C853.23 477.995 523.512 600.637 313.939 326.883C307.584 318.581 301.941 309.635 296.893 300.371C127.652 -10.0598 -16.7409 -203.636 -352.591 -22.3237" stroke="#7A706E" stroke-opacity="0.3" stroke-width="0.39182" stroke-miterlimit="10"/>
<path d="M849.505 473.374C848.297 474.823 790.169 496.732 708.152 502.997C626.754 509.213 522.379 500.523 424.677 439.53C384.56 414.626 345.468 380.832 309.719 335.638C303.231 327.461 297.453 318.652 292.241 309.5C283.868 294.789 275.561 280.282 267.311 266.005C214.205 173.878 164.044 92.4049 109.341 30.8373C85.6145 4.27614 60.985 -18.6051 34.8466 -37.1697C-28.9486 -82.6529 -101.579 -102.784 -192.269 -87.2904C-241.675 -78.8519 -296.154 -59.186 -355.911 -27.5223" stroke="#7A706E" stroke-opacity="0.3" stroke-width="0.39182" stroke-miterlimit="10"/>
<path d="M845.817 468.73C843.399 471.64 785.695 493.711 705.098 501.477C623.601 509.333 519.904 503.253 421.858 445.319C381.491 421.47 341.845 388.775 305.537 344.358C298.927 336.311 293 327.627 287.627 318.594C279.013 304.08 270.463 289.696 261.995 275.476C207.768 183.968 158.174 101.169 104.29 38.2639C81.0882 11.1732 56.9117 -12.1562 31.2996 -31.5015C-31.3714 -78.8254 -102.773 -102.201 -193.707 -89.7746C-243.821 -82.9281 -299.233 -63.9369 -359.202 -32.7713" stroke="#7A706E" stroke-opacity="0.3" stroke-width="0.39182" stroke-miterlimit="10"/>
<path d="M842.116 464.102C838.491 468.46 781.204 490.739 702.031 499.973C620.432 509.492 517.357 506.146 419.02 451.126C378.379 428.388 338.279 396.674 301.337 353.098C294.612 345.166 288.521 336.624 282.995 327.707C274.128 313.384 265.326 299.15 256.655 284.969C201.152 194.196 152.203 110.041 99.2201 45.7092C76.515 18.136 52.8204 -5.7304 27.7285 -25.8112C-33.8015 -75.0582 -104.023 -101.641 -195.176 -92.2335C-246.018 -86.9883 -302.339 -68.6738 -362.519 -37.9871" stroke="#7A706E" stroke-opacity="0.3" stroke-width="0.39182" stroke-miterlimit="10"/>
<path d="M838.416 459.476C833.586 465.29 776.719 487.807 698.965 498.47C617.261 509.674 514.808 509.052 416.189 456.931C375.273 435.305 334.657 404.616 297.143 361.835C290.301 354.031 284.055 345.616 278.365 336.811C269.252 322.675 260.205 308.576 251.322 294.45C194.655 204.329 146.242 118.918 94.1625 53.1498C71.9478 25.0975 48.7514 0.695405 24.1752 -20.1289C-36.2181 -71.3069 -105.289 -101.121 -196.621 -94.7036C-248.199 -91.0756 -305.424 -73.4105 -365.811 -43.2141" stroke="#7A706E" stroke-opacity="0.3" stroke-width="0.39182" stroke-miterlimit="10"/>
<path d="M834.714 454.845C828.677 462.109 772.239 484.91 695.898 496.964C614.084 509.887 512.247 511.961 413.346 462.729C372.155 442.225 331.03 412.546 292.937 370.564C285.968 362.882 279.582 354.607 273.722 345.917C264.366 331.978 255.071 318.005 245.976 303.933C188.149 214.474 140.262 127.802 89.0876 60.5851C67.3678 32.0616 44.6502 7.10322 20.5942 -14.4566C-38.6565 -67.569 -106.599 -100.656 -198.09 -97.1757C-250.423 -95.1859 -308.532 -78.1494 -369.138 -48.4478" stroke="#7A706E" stroke-opacity="0.3" stroke-width="0.39182" stroke-miterlimit="10"/>
<path d="M831.007 450.22C823.76 458.944 767.753 482.06 692.825 495.462C610.893 510.119 509.679 514.885 410.502 468.539C369.029 449.16 327.396 420.492 288.731 379.306C281.639 371.754 275.104 363.603 269.084 355.032C259.476 341.285 249.942 327.444 240.636 313.426C181.66 224.621 134.286 136.707 84.0163 68.0412C62.7868 39.0385 40.5631 13.5365 17.0272 -8.75883C-41.0853 -63.8135 -107.934 -100.206 -199.548 -99.6303C-252.651 -99.3025 -311.634 -82.8787 -372.444 -53.6593" stroke="#7A706E" stroke-opacity="0.3" stroke-width="0.39182" stroke-miterlimit="10"/>
<path d="M827.312 445.591C818.856 455.764 763.28 479.238 689.763 493.957C607.72 510.387 507.11 517.814 407.675 474.342C365.917 456.081 323.778 428.443 284.542 388.042C277.323 380.612 270.642 372.593 264.462 364.142C254.608 350.582 244.836 336.873 235.302 322.907C175.182 234.765 128.321 145.609 78.9533 75.4751C58.217 46.0125 36.4841 19.9476 13.4683 -3.08324C-43.5104 -60.0883 -109.27 -99.8245 -201.005 -102.104C-254.891 -103.451 -314.724 -87.6221 -375.753 -58.8976" stroke="#7A706E" stroke-opacity="0.3" stroke-width="0.39182" stroke-miterlimit="10"/>
<path d="M823.6 440.956C813.941 452.586 758.807 476.452 686.69 492.454C604.533 510.678 504.522 520.758 404.831 480.15C362.79 463.026 320.138 436.391 280.34 396.79C272.998 389.49 266.162 381.599 259.829 373.264C249.733 359.9 239.715 346.326 229.966 332.406C168.697 244.919 122.342 154.534 73.8878 82.9262C53.6345 52.999 32.3984 26.3679 9.90121 2.61278C-45.9318 -56.3492 -110.639 -99.4516 -202.463 -104.56C-257.143 -107.598 -317.827 -92.3533 -379.059 -64.111" stroke="#7A706E" stroke-opacity="0.3" stroke-width="0.39182" stroke-miterlimit="10"/>
<path d="M819.906 436.328C809.038 449.406 754.352 473.703 683.63 490.95C601.369 511.004 501.945 523.712 401.999 485.957C359.664 469.965 316.51 444.337 276.145 405.529C268.677 398.352 261.7 390.6 255.198 382.369C244.85 369.196 234.594 355.754 224.633 341.888C162.228 255.048 116.364 163.454 68.8301 90.3682C49.064 59.9844 28.3204 32.7791 6.34782 8.29643C-48.3498 -52.6271 -112.008 -99.1456 -203.904 -107.021C-259.383 -111.777 -320.907 -97.0807 -382.358 -69.3332" stroke="#7A706E" stroke-opacity="0.3" stroke-width="0.39182" stroke-miterlimit="10"/>
<path d="M816.208 431.689C804.131 446.228 749.904 470.992 680.566 489.435C598.193 511.346 499.363 526.668 399.17 491.751C356.546 476.899 312.89 452.279 271.954 414.255C264.358 407.2 257.237 399.581 250.575 391.468C239.984 378.492 229.485 365.174 219.307 351.365C155.766 265.173 110.392 172.38 63.775 97.7971C44.4918 66.9487 24.2466 39.1659 2.79105 13.9703C-50.7637 -48.9295 -113.403 -98.8893 -205.357 -109.508C-261.649 -116.005 -324.004 -101.842 -385.659 -74.5767" stroke="#7A706E" stroke-opacity="0.3" stroke-width="0.39182" stroke-miterlimit="10"/>
<path d="M812.503 427.055C799.218 443.043 745.456 468.311 677.495 487.925C595.028 511.723 496.768 529.631 396.328 497.552C353.409 483.843 309.246 460.222 267.749 422.987C260.031 416.063 252.747 408.586 245.938 400.575C235.082 387.808 224.369 374.608 213.963 360.852C149.295 275.313 104.391 181.311 58.6997 105.247C39.8978 73.9456 20.1569 45.582 -0.784457 19.6542C-53.1964 -45.2218 -114.822 -98.6617 -206.825 -111.965C-263.94 -120.22 -327.106 -106.569 -388.975 -79.7908" stroke="#7A706E" stroke-opacity="0.3" stroke-width="0.39182" stroke-miterlimit="10"/>
<path d="M808.807 422.43C794.318 439.875 741.025 465.667 674.434 486.424C591.872 512.152 494.18 532.626 393.497 503.352C350.287 490.794 305.611 468.176 263.556 431.719C255.71 424.917 248.281 417.572 241.313 409.68C230.209 397.113 219.252 384.036 208.635 370.334C142.837 285.439 98.3986 190.252 53.6426 112.682C35.3221 80.9266 16.0871 51.971 -4.33725 25.3302C-55.5944 -41.5286 -116.229 -98.4885 -208.27 -114.441C-266.208 -124.485 -330.19 -111.312 -392.278 -85.0288" stroke="#7A706E" stroke-opacity="0.3" stroke-width="0.39182" stroke-miterlimit="10"/>
<path d="M805.098 417.802C789.401 436.696 736.59 463.067 671.358 484.92C588.72 512.61 491.582 535.626 390.651 509.159C347.15 497.753 301.963 476.126 259.347 440.458C251.379 433.786 243.8 426.565 236.672 418.793C225.322 406.414 214.126 393.469 203.292 379.825C136.375 295.568 92.3913 199.201 48.5747 120.132C30.7294 87.9269 12.0005 58.3792 -7.90686 31.0255C-58.0196 -37.8207 -117.659 -98.3233 -209.727 -116.89C-268.491 -128.742 -333.291 -116.036 -395.582 -90.2348" stroke="#7A706E" stroke-opacity="0.3" stroke-width="0.39182" stroke-miterlimit="10"/>
<path d="M801.396 413.154C784.49 433.507 732.176 460.47 668.291 483.395C585.587 513.083 488.984 538.62 387.813 514.946C344.015 504.695 298.315 484.071 255.146 449.177C247.049 442.639 239.332 435.547 232.035 427.878C220.443 415.695 209.004 402.874 197.952 389.286C129.917 305.668 86.3756 208.128 43.5059 127.546C26.13 94.8941 7.91886 64.7478 -11.4714 36.6811C-60.4278 -34.1593 -119.089 -98.2476 -211.183 -119.387C-270.776 -133.066 -336.381 -120.803 -398.891 -95.4965" stroke="#7A706E" stroke-opacity="0.3" stroke-width="0.39182" stroke-miterlimit="10"/>
<path d="M797.702 408.538C779.587 430.34 727.783 457.93 665.23 481.903C582.473 513.624 486.398 541.654 384.987 520.762C340.891 511.677 294.686 492.041 250.958 457.926C242.734 451.509 234.865 444.553 227.415 437C215.57 425.008 203.904 412.324 192.624 398.789C123.465 315.8 80.3607 217.092 38.4422 135.004C21.5417 101.902 3.85285 71.165 -15.0367 42.384C-62.8308 -30.4537 -120.521 -98.1552 -212.646 -121.833C-273.076 -137.367 -339.488 -125.524 -402.201 -100.7" stroke="#7A706E" stroke-opacity="0.3" stroke-width="0.39182" stroke-miterlimit="10"/>
<path d="M793.998 403.913C774.679 427.172 723.392 455.415 662.167 480.399C579.368 514.187 483.811 544.695 382.152 526.569C337.768 518.655 291.041 500.005 246.76 466.664C238.414 460.378 230.396 453.546 222.78 446.116C210.689 434.312 198.783 421.759 187.286 408.282C117.015 325.928 74.3351 226.057 33.3798 142.457C16.9428 108.911 -0.216346 77.5692 -18.5993 48.0705C-65.2266 -26.7566 -121.951 -98.1099 -214.1 -124.299C-275.363 -141.71 -342.582 -130.256 -405.514 -105.927" stroke="#7A706E" stroke-opacity="0.3" stroke-width="0.39182" stroke-miterlimit="10"/>
<path d="M790.303 399.266C769.776 423.974 719.021 452.915 659.106 478.876C576.293 514.768 481.222 547.722 379.32 532.358C334.643 525.618 287.404 507.96 242.57 475.393C234.091 469.233 225.938 462.537 218.158 455.219C205.825 443.611 193.683 431.178 181.958 417.753C110.58 336.031 68.3124 235.004 28.322 149.881C12.3543 115.889 -4.28092 83.9444 -22.1587 53.7394C-67.6118 -23.0916 -123.374 -98.1158 -215.551 -126.783C-277.644 -146.093 -345.677 -135.015 -408.812 -111.167" stroke="#7A706E" stroke-opacity="0.3" stroke-width="0.39182" stroke-miterlimit="10"/>
<path d="M786.607 394.656C764.871 420.825 714.665 450.464 656.049 477.398C573.232 515.442 478.645 550.809 376.498 538.189C331.531 532.63 283.773 515.947 238.385 484.156C229.783 478.125 221.489 471.539 213.542 464.355C200.976 452.918 188.581 440.634 176.639 427.267C104.15 346.167 62.2891 243.988 23.2782 157.354C7.77396 122.918 -8.33156 90.369 -25.6983 59.4543C-69.9772 -19.3807 -124.767 -98.1018 -216.978 -129.212C-279.898 -150.445 -348.737 -139.714 -412.091 -116.362" stroke="#7A706E" stroke-opacity="0.3" stroke-width="0.39182" stroke-miterlimit="10"/>
<path d="M782.905 390.023C759.961 417.641 710.319 448.022 652.981 475.889C570.188 516.12 476.055 553.876 373.659 543.991C328.397 539.618 280.129 523.915 234.184 492.89C225.453 486.993 217.015 480.528 208.904 473.455C196.091 462.206 183.464 450.051 171.293 436.747C97.6988 356.268 56.2327 252.942 18.197 164.79C3.14582 129.906 -12.4196 96.7562 -29.2752 65.1318C-72.3754 -15.6991 -126.2 -98.1557 -218.453 -131.684C-282.192 -154.853 -351.856 -144.46 -415.414 -121.59" stroke="#7A706E" stroke-opacity="0.3" stroke-width="0.39182" stroke-miterlimit="10"/>
<path d="M779.191 385.382C755.043 414.457 705.975 445.595 649.901 474.372C567.161 516.828 473.462 556.952 370.809 549.774C325.262 546.591 276.468 531.867 229.972 501.605C221.112 495.842 212.531 489.498 204.26 482.544C191.199 471.494 178.335 459.46 165.946 446.213C91.2427 366.346 50.1698 261.885 13.1257 172.216C-1.46809 136.892 -16.4873 103.138 -32.8483 70.8031C-74.7623 -12.0384 -127.615 -98.2337 -219.917 -134.165C-284.473 -159.294 -354.96 -149.208 -418.732 -126.825" stroke="#7A706E" stroke-opacity="0.3" stroke-width="0.39182" stroke-miterlimit="10"/>
<path d="M775.503 380.761C750.147 411.284 701.671 443.213 646.847 472.875C564.181 517.595 470.9 560.055 367.984 555.588C322.157 553.603 272.837 539.858 225.784 510.351C216.802 504.718 208.07 498.509 199.641 491.664C186.334 480.802 173.237 468.896 160.625 455.71C84.8221 376.46 44.1216 270.855 8.0749 179.665C-6.06581 143.893 -20.5389 109.535 -36.3992 76.4857C-77.1226 -8.3583 -128.998 -98.3262 -221.36 -136.635C-286.729 -163.745 -358.042 -153.945 -422.027 -132.06" stroke="#7A706E" stroke-opacity="0.3" stroke-width="0.39182" stroke-miterlimit="10"/>
<path d="M771.798 376.119C745.232 408.103 697.368 440.831 643.776 471.357C561.211 518.389 468.321 563.137 365.143 561.382C319.028 560.598 269.184 547.82 221.58 519.077C212.464 513.57 203.593 507.49 195.004 500.764C181.451 490.09 168.116 478.315 155.286 465.187C78.3859 386.542 38.0502 279.807 3.00695 187.093C-10.6823 150.885 -24.5973 115.917 -39.9688 82.1593C-79.4973 -4.67921 -130.392 -98.4536 -222.817 -139.106C-288.992 -168.213 -361.137 -158.694 -425.331 -137.287" stroke="#7A706E" stroke-opacity="0.3" stroke-width="0.39182" stroke-miterlimit="10"/>
<path d="M768.086 371.502C740.312 404.934 693.073 438.486 640.698 469.864C558.268 519.242 465.748 566.268 362.299 567.197C315.898 567.614 265.534 555.812 217.374 527.824C208.13 522.45 199.116 516.491 190.367 509.884C176.566 499.41 162.999 487.752 149.94 474.688C71.9362 396.652 31.9612 288.779 -2.06986 194.558C-15.306 157.901 -28.6706 122.337 -43.5414 87.8653C-81.8733 -0.979028 -131.775 -98.5664 -224.287 -141.549C-291.254 -172.67 -364.247 -163.403 -428.654 -142.495" stroke="#7A706E" stroke-opacity="0.3" stroke-width="0.39182" stroke-miterlimit="10"/>
<path d="M764.388 366.865C735.41 401.754 688.81 436.153 637.634 468.351C555.371 520.119 463.189 569.38 359.464 572.996C312.787 574.619 261.886 563.79 213.176 536.554C203.804 531.314 194.646 525.476 185.733 518.981C171.685 508.694 157.886 497.165 144.604 484.161C65.504 406.72 25.8818 297.724 -7.13534 201.983C-19.9348 164.877 -32.7265 128.716 -47.1025 93.5326C-84.2231 2.69518 -133.134 -98.7245 -225.74 -144.034C-293.492 -177.184 -367.344 -168.163 -431.96 -147.734" stroke="#7A706E" stroke-opacity="0.3" stroke-width="0.39182" stroke-miterlimit="10"/>
<path d="M760.687 362.224C730.501 398.562 684.56 433.817 634.568 466.833C552.5 521.029 460.631 572.495 356.626 578.79C309.671 581.63 258.246 571.769 208.98 545.288C199.485 540.178 190.176 534.476 181.105 528.089C166.805 517.994 152.775 506.581 139.274 493.646C59.0763 416.81 19.7983 306.675 -12.1903 209.428C-24.5427 171.877 -36.7719 135.113 -50.6593 99.2224C-86.5729 6.38386 -134.48 -98.8861 -227.188 -146.497C-295.717 -181.69 -370.432 -172.892 -435.261 -152.962" stroke="#7A706E" stroke-opacity="0.3" stroke-width="0.39182" stroke-miterlimit="10"/>
<path d="M756.992 357.599C725.597 395.397 680.336 431.519 631.507 465.332C549.677 522.005 458.084 575.634 353.8 584.597C306.574 588.651 254.608 579.757 204.792 554.028C195.173 549.059 185.716 543.469 176.485 537.202C161.943 527.303 147.676 516.011 133.951 503.136C52.6578 426.895 13.7164 315.635 -17.242 216.871C-29.1518 178.867 -40.8141 141.508 -54.2111 104.898C-88.9134 10.0667 -135.799 -99.0633 -228.627 -148.965C-297.922 -186.209 -373.509 -177.639 -438.548 -158.187" stroke="#7A706E" stroke-opacity="0.3" stroke-width="0.39182" stroke-miterlimit="10"/>
<path d="M753.282 352.958C720.678 392.205 676.111 429.217 628.431 463.815C546.873 522.997 455.53 578.773 350.949 590.384C303.449 595.663 250.947 587.731 200.577 562.746C190.829 557.911 181.229 552.442 171.832 546.297C157.044 536.586 142.544 525.423 128.591 512.612C46.1966 436.957 7.58601 324.576 -22.3319 224.299C-33.8005 185.853 -44.8944 147.889 -57.8026 110.571C-91.2772 13.7479 -137.14 -99.2534 -230.106 -151.436C-300.157 -190.756 -376.627 -182.377 -441.874 -163.415" stroke="#7A706E" stroke-opacity="0.3" stroke-width="0.39182" stroke-miterlimit="10"/>
<path d="M749.588 348.345C715.78 389.049 671.917 426.956 625.375 462.334C544.134 524.064 453.003 581.945 348.128 596.211C300.361 602.712 247.305 595.848 196.394 571.505C186.514 566.826 176.774 561.455 167.218 555.43C152.182 545.919 137.466 534.843 123.269 522.114C39.866 446.901 1.49452 333.543 -27.3844 231.764C-38.4163 192.869 -48.933 154.315 -61.3509 116.278C-93.6141 17.4618 -138.434 -99.4322 -231.556 -153.887C-302.347 -195.281 -379.717 -187.094 -445.183 -168.627" stroke="#7A706E" stroke-opacity="0.3" stroke-width="0.39182" stroke-miterlimit="10"/>
<path d="M745.884 343.701C710.868 385.854 667.738 424.681 622.305 460.814C541.423 525.142 450.466 585.087 345.287 602.002C297.252 609.726 243.66 603.793 192.191 580.229C182.184 575.672 172.297 570.445 162.578 564.52C147.296 555.196 132.341 544.252 117.927 531.581C33.4009 456.997 -4.62775 342.47 -32.4558 239.183C-43.0554 199.83 -52.9501 160.683 -64.9239 121.942C-95.8524 21.1163 -139.737 -99.6527 -233.021 -156.375C-304.549 -199.867 -382.825 -191.857 -448.495 -173.873" stroke="#7A706E" stroke-opacity="0.3" stroke-width="0.39182" stroke-miterlimit="10"/>
<path d="M742.187 339.063C705.961 382.676 663.583 422.413 619.242 459.3C538.753 526.259 447.989 588.371 342.453 607.8C294.174 616.816 240.027 611.753 187.994 588.958C177.865 584.532 167.828 579.428 157.949 573.623C142.421 564.487 127.227 553.675 112.596 541.061C26.9426 467.099 -10.8324 351.41 -37.5115 246.623C-47.719 206.824 -57.0083 167.082 -68.4754 127.624C-98.2283 24.8248 -140.995 -99.857 -234.466 -158.835C-306.714 -204.422 -385.904 -196.587 -451.792 -179.097" stroke="#7A706E" stroke-opacity="0.3" stroke-width="0.39182" stroke-miterlimit="10"/>
<path d="M738.483 334.448C701.049 379.51 659.437 420.171 616.172 457.809C536.127 527.434 445.425 591.421 339.618 613.617C266.706 628.911 180.03 612.063 107.265 550.561C20.4939 477.226 -16.8654 360.358 -42.5724 254.075C-52.309 213.818 -61.0775 173.497 -72.0364 133.31C-100.614 28.5374 -142.252 -100.064 -235.918 -161.301C-308.873 -209.002 -389 -201.328 -455.098 -184.317" stroke="#7A706E" stroke-opacity="0.3" stroke-width="0.39182" stroke-miterlimit="10"/>
</g>
</g>
<defs>
<clipPath id="clip0_24781_105847">
<rect width="390" height="847" fill="white"/>
</clipPath>
<clipPath id="clip1_24781_105847">
<rect width="1440" height="859" fill="white" transform="translate(-525)"/>
</clipPath>
</defs>
</svg>
