<svg width="1440" height="880" viewBox="0 0 1440 880" fill="none" xmlns="http://www.w3.org/2000/svg">
<g clip-path="url(#clip0_24781_103914)">
<path d="M2377.99 1599.26C2377.99 1599.26 1866.67 1862.83 1674.35 1325.92C1544.24 962.729 1533.94 689.026 1388.37 513.845C1266.03 366.617 1027.1 363.785 913.787 404.19C755.79 460.514 625.095 701.516 459.845 740.363C114.421 821.597 -332.087 11.9252 -80.7093 -432.743" stroke="#7A706E" stroke-opacity="0.3" stroke-width="0.847436" stroke-miterlimit="10"/>
<path d="M2377.07 1592.5C2377.07 1592.5 1872.56 1851.05 1677.12 1329.24C1545.13 976.812 1529.83 709.14 1383.83 534.062C1356.17 500.858 1322.68 474.841 1286.12 454.85C1263.12 442.25 1238.95 432.029 1214.3 423.899C1105.85 388.07 987.162 393.355 916.599 415.408C760.117 464.015 630.014 692.304 466.016 726.557C124.353 799.083 -316.648 14.4625 -86.454 -408.817" stroke="#7A706E" stroke-opacity="0.3" stroke-width="0.847436" stroke-miterlimit="10"/>
<path d="M2376.16 1585.77C2376.16 1585.77 1878.51 1839.36 1679.91 1332.56C1546.04 990.921 1525.73 729.281 1379.3 554.263C1351.83 521.381 1318.74 495.373 1282.7 475.139C1260.01 462.368 1236.24 451.836 1212.04 443.3C1105.58 405.675 989.245 407.944 919.425 426.587C764.449 467.459 634.767 682.543 472.205 712.687C133.953 775.412 -301.203 16.9418 -92.1706 -384.939" stroke="#7A706E" stroke-opacity="0.3" stroke-width="0.847436" stroke-miterlimit="10"/>
<path d="M2375.28 1579.05C2375.28 1579.05 1884.5 1827.72 1682.73 1335.91C1547.01 1005.08 1521.68 749.418 1374.8 574.509C1347.52 541.931 1314.82 515.95 1279.3 495.456C1256.93 482.507 1233.55 471.671 1209.81 462.746C1105.32 423.308 991.349 422.562 922.279 437.835C768.82 470.966 639.665 673.124 478.409 698.893C143.777 752.379 -285.74 19.474 -97.8696 -361.008" stroke="#7A706E" stroke-opacity="0.3" stroke-width="0.847436" stroke-miterlimit="10"/>
<path d="M2374.38 1572.29C2374.38 1572.29 1890.51 1816.09 1685.54 1339.23C1547.98 1019.22 1517.59 769.513 1370.29 594.701C1343.19 562.427 1310.89 536.455 1275.9 515.735C1253.83 502.598 1230.86 491.468 1207.57 482.138C1105.06 440.911 993.507 437.36 925.124 449.028C773.328 474.924 644.577 663.661 484.613 685.062C153.62 729.343 -270.267 21.9853 -103.581 -337.108" stroke="#7A706E" stroke-opacity="0.3" stroke-width="0.847436" stroke-miterlimit="10"/>
<path d="M2373.47 1565.57C2373.47 1565.57 1896.57 1804.56 1688.32 1342.56C1548.99 1033.45 1513.49 789.662 1365.75 614.934C1338.85 582.982 1306.94 557.019 1272.47 536.039C1250.7 522.732 1228.13 511.29 1205.3 501.571C1104.78 458.548 995.594 452.023 927.944 460.263C777.672 478.55 649.452 654.247 490.797 671.248C163.465 706.334 -254.828 24.5216 -109.29 -313.179" stroke="#7A706E" stroke-opacity="0.3" stroke-width="0.847436" stroke-miterlimit="10"/>
<path d="M2372.55 1558.82C2372.55 1558.82 1902.65 1793.01 1691.11 1345.88C1550.02 1047.65 1509.4 809.767 1361.22 635.125C1334.5 603.477 1303 577.541 1269.04 556.293C1247.59 542.815 1225.42 531.062 1203.04 520.937C1104.49 476.101 997.67 466.627 930.758 471.414C782.01 482.092 654.342 644.758 496.969 657.374C173.341 683.31 -239.396 26.9732 -115.033 -289.322" stroke="#7A706E" stroke-opacity="0.3" stroke-width="0.847436" stroke-miterlimit="10"/>
<path d="M2371.64 1552.08C2371.64 1552.08 1908.81 1781.55 1693.9 1349.2C1551.08 1061.9 1505.3 829.882 1356.69 655.343C1330.16 623.999 1299.06 598.082 1265.62 576.599C1244.47 562.932 1222.71 550.885 1200.79 540.373C1104.23 493.74 999.76 481.274 933.592 482.65C786.348 485.685 659.274 635.366 503.153 643.569C183.237 660.373 -223.944 29.5112 -120.765 -265.395" stroke="#7A706E" stroke-opacity="0.3" stroke-width="0.847436" stroke-miterlimit="10"/>
<path d="M2370.77 1545.33C2370.77 1545.33 1915.06 1770.12 1696.72 1352.52C1552.24 1076.16 1501.25 849.99 1352.2 675.536C1325.86 644.514 1295.15 618.589 1262.23 596.862C1241.39 583.025 1220.01 570.657 1198.56 559.748C1103.98 511.32 1001.87 495.887 936.447 493.828C790.704 489.243 664.225 625.939 509.358 629.705C193.186 637.403 -208.483 31.9967 -126.453 -241.517" stroke="#7A706E" stroke-opacity="0.3" stroke-width="0.847436" stroke-miterlimit="10"/>
<path d="M2369.87 1538.61C2369.87 1538.61 1921.35 1758.75 1699.52 1355.85C1553.41 1090.45 1496.92 870.409 1347.68 695.765C1321.47 665.1 1291.22 639.149 1258.82 617.179C1238.29 603.147 1217.3 590.492 1196.31 579.195C1103.72 528.953 1003.95 510.536 939.28 505.059C795.02 492.82 669.177 616.576 515.564 615.905C203.165 614.55 -193.018 34.522 -132.162 -217.586" stroke="#7A706E" stroke-opacity="0.3" stroke-width="0.847436" stroke-miterlimit="10"/>
<path d="M2368.96 1531.85C2368.96 1531.85 1927.71 1747.4 1702.32 1359.16C1554.63 1104.76 1492.81 890.551 1343.16 715.955C1317.14 685.611 1287.25 659.732 1255.39 637.439C1235.16 623.267 1214.59 610.27 1194.06 598.56C1103.44 546.529 1006.01 525.128 942.115 516.225C799.334 496.356 674.126 607.173 521.745 602.054C213.139 591.68 -177.568 37.0138 -137.884 -193.712" stroke="#7A706E" stroke-opacity="0.3" stroke-width="0.847436" stroke-miterlimit="10"/>
<path d="M2368.06 1525.08C2368.06 1525.08 1934.15 1736.06 1705.11 1362.45C1555.91 1119.06 1488.7 910.644 1338.63 736.143C1312.8 706.103 1283.31 680.251 1251.97 657.698C1232.04 643.355 1211.87 630.046 1191.8 617.948C1103.17 564.121 1008.07 539.718 944.941 527.415C803.636 499.851 679.093 597.778 527.925 588.177C223.129 568.82 -162.12 39.4804 -143.61 -169.84" stroke="#7A706E" stroke-opacity="0.3" stroke-width="0.847436" stroke-miterlimit="10"/>
<path d="M2367.17 1518.35C2367.17 1518.35 1940.71 1724.79 1707.93 1365.79C1557.26 1133.41 1484.64 930.796 1334.13 756.356C1308.49 726.638 1279.39 700.795 1248.57 677.998C1228.96 663.485 1209.18 649.913 1189.57 637.36C1102.87 581.905 1010.16 554.333 947.787 538.612C807.941 503.383 684.094 588.45 534.142 574.343C233.187 546.053 -146.656 41.9782 -149.308 -145.943" stroke="#7A706E" stroke-opacity="0.3" stroke-width="0.847436" stroke-miterlimit="10"/>
<path d="M2366.28 1511.61C2366.28 1511.61 1947.34 1713.54 1710.74 1369.1C1558.68 1147.75 1480.54 950.914 1329.61 776.57C1304.15 747.163 1275.46 721.322 1245.16 698.283C1225.84 683.581 1206.47 669.723 1187.32 656.775C1102.6 599.53 1012.22 568.932 950.626 549.828C812.235 506.893 689.09 579.141 540.332 560.517C243.245 523.347 -131.188 44.5124 -155.012 -122.027" stroke="#7A706E" stroke-opacity="0.3" stroke-width="0.847436" stroke-miterlimit="10"/>
<path d="M2365.35 1504.88C2365.35 1504.88 1954.06 1702.3 1713.5 1372.45C1560.12 1162.12 1476.42 971.082 1325.06 796.791C1299.79 767.706 1271.49 741.875 1241.72 718.592C1222.71 703.72 1203.72 689.533 1185.04 676.196C1102.29 617.163 1014.25 583.539 953.429 561.051C816.482 510.393 694.069 569.873 546.494 546.715C253.273 500.69 -115.766 47.0367 -160.764 -98.0965" stroke="#7A706E" stroke-opacity="0.3" stroke-width="0.847436" stroke-miterlimit="10"/>
<path d="M2364.47 1498.15C2364.47 1498.15 1960.92 1691.05 1716.32 1375.77C1561.68 1176.47 1472.35 991.199 1320.57 817.004C1295.49 788.223 1267.59 762.418 1238.33 738.875C1219.63 723.832 1201.04 709.334 1182.82 695.609C1102.04 634.762 1016.34 598.137 956.294 572.265C820.803 513.877 699.105 560.622 552.721 532.881C263.39 478.076 -100.283 49.5521 -166.44 -74.2065" stroke="#7A706E" stroke-opacity="0.3" stroke-width="0.847436" stroke-miterlimit="10"/>
<path d="M2363.53 1491.4C2363.53 1491.4 1967.83 1679.75 1719.08 1379.1C1563.27 1190.78 1468.22 1011.33 1316.01 837.215C1291.11 808.739 1263.61 782.96 1234.86 759.157C1216.46 743.926 1198.29 729.134 1180.51 715.003C1101.7 652.35 1018.35 612.692 959.063 583.444C825.011 517.291 704.056 551.351 558.841 519.017C273.407 455.474 -84.9047 52.0141 -172.236 -50.3384" stroke="#7A706E" stroke-opacity="0.3" stroke-width="0.847436" stroke-miterlimit="10"/>
<path d="M2362.64 1484.69C2362.64 1484.69 1974.9 1668.43 1721.9 1382.46C1564.98 1205.07 1464.16 1031.47 1311.51 857.461C1286.81 829.306 1259.69 803.52 1231.47 779.491C1213.39 764.089 1195.61 748.986 1178.3 734.466C1101.47 670.017 1020.45 627.315 961.947 594.702C829.345 520.777 709.127 542.202 565.084 505.251C283.562 433.029 -69.393 54.5908 -177.886 -26.3627" stroke="#7A706E" stroke-opacity="0.3" stroke-width="0.847436" stroke-miterlimit="10"/>
<path d="M2361.76 1477.93C2361.76 1477.93 1982.08 1657.01 1724.71 1385.76C1566.75 1219.28 1460.08 1051.57 1307 877.643C1282.48 849.793 1255.76 824.033 1228.06 799.744C1210.27 784.153 1192.89 768.764 1176.04 753.831C1101.18 687.576 1022.5 641.841 964.775 605.868C833.637 524.164 714.139 532.986 571.275 491.369C293.681 410.527 -53.9463 57.0584 -183.611 -2.51333" stroke="#7A706E" stroke-opacity="0.3" stroke-width="0.847436" stroke-miterlimit="10"/>
<path d="M2360.81 1471.17C2360.81 1471.17 1989.31 1645.48 1727.47 1389.06C1568.54 1233.44 1455.96 1071.66 1302.45 897.843C1278.11 870.296 1251.79 844.546 1224.62 820.031C1207.15 804.263 1190.16 788.569 1173.76 773.248C1100.89 705.179 1024.55 656.394 967.579 617.069C837.898 527.544 719.137 523.822 577.429 477.528C303.753 388.14 -38.5333 59.543 -189.363 21.3947" stroke="#7A706E" stroke-opacity="0.3" stroke-width="0.847436" stroke-miterlimit="10"/>
<path d="M2359.93 1464.43C2359.93 1464.43 1996.69 1633.83 1730.28 1392.38C1570.43 1247.5 1451.9 1091.76 1297.93 918.037C1273.8 890.805 1247.87 865.064 1221.2 840.296C1204.03 824.339 1187.44 808.334 1171.52 792.642C1100.62 722.76 1026.63 670.942 970.417 628.265C842.216 530.929 724.153 514.684 583.626 463.699C313.852 365.796 -23.0668 62.0574 -195.068 45.2908" stroke="#7A706E" stroke-opacity="0.3" stroke-width="0.847436" stroke-miterlimit="10"/>
<path d="M2359.05 1457.71C2359.05 1457.71 2004.15 1622.06 1733.11 1395.73C1572.38 1261.52 1447.87 1111.9 1293.45 938.286C1269.51 911.358 1243.98 885.644 1217.82 860.615C1200.96 844.488 1184.77 828.172 1169.29 812.074C1100.38 740.396 1028.72 685.51 973.282 639.499C846.561 534.352 729.201 505.625 589.853 449.884C323.984 343.532 -7.57097 64.585 -200.756 69.2072" stroke="#7A706E" stroke-opacity="0.3" stroke-width="0.847436" stroke-miterlimit="10"/>
<path d="M2358.14 1451C2358.14 1451 2011.63 1610.11 1735.9 1399.07C1574.33 1275.43 1443.79 1132.03 1288.91 958.508C1265.15 931.885 1240.01 906.179 1214.38 880.925C1197.83 864.61 1182.05 848 1167.03 831.513C1100.11 758.014 1030.79 700.078 976.092 650.722C850.868 537.734 734.179 496.588 596.023 436.083C334.052 321.331 7.8581 67.1097 -206.489 93.1309" stroke="#7A706E" stroke-opacity="0.3" stroke-width="0.847436" stroke-miterlimit="10"/>
<path d="M2357.22 1444.24C2357.22 1444.24 2019.12 1597.89 1738.67 1402.38C1576.27 1289.17 1439.7 1152.12 1284.38 978.709C1260.81 952.407 1236.08 926.703 1210.95 901.196C1194.72 884.703 1179.33 867.789 1164.76 850.896C1099.82 775.584 1032.87 714.601 978.908 661.907C855.202 541.087 739.16 487.537 602.189 422.226C344.07 299.144 23.2799 69.6028 -212.228 117.023" stroke="#7A706E" stroke-opacity="0.3" stroke-width="0.847436" stroke-miterlimit="10"/>
<path d="M2356.34 1437.47C2356.34 1437.47 2026.65 1585.42 1741.49 1405.67C1578.25 1302.78 1435.65 1172.17 1279.86 998.88C1256.5 972.875 1232.14 947.188 1207.56 921.448C1191.63 904.767 1176.66 887.527 1162.53 870.277C1099.68 793.046 1034.98 729.129 981.77 673.09C859.583 544.437 744.17 478.515 608.414 408.36C354.131 276.98 38.7735 72.0798 -217.919 140.889" stroke="#7A706E" stroke-opacity="0.3" stroke-width="0.847436" stroke-miterlimit="10"/>
<path d="M2355.41 1430.76C2355.41 1430.76 2034.11 1572.78 1744.27 1409.03C1580.17 1316.32 1431.78 1192.03 1275.34 1019.13C1252.18 993.391 1228.24 967.723 1204.13 941.769C1188.53 924.878 1173.94 907.366 1160.26 889.71C1099.39 810.666 1037.06 743.683 984.586 684.324C863.94 547.85 749.108 469.559 614.59 394.57C364.101 254.937 54.1953 74.6222 -223.637 164.841" stroke="#7A706E" stroke-opacity="0.3" stroke-width="0.847436" stroke-miterlimit="10"/>
<path d="M2354.53 1424.05C2354.53 1424.05 2041.56 1559.9 1747.09 1412.38C1582.09 1329.73 1427.71 1212.18 1270.82 1039.36C1247.86 1013.94 1224.31 988.266 1200.72 962.068C1185.43 945.006 1171.24 927.183 1158.03 909.132C1099.15 828.292 1039.18 758.245 987.432 695.531C868.34 551.227 754.072 460.599 620.785 380.735C374.074 232.88 69.6589 77.1295 -229.357 188.737" stroke="#7A706E" stroke-opacity="0.3" stroke-width="0.847436" stroke-miterlimit="10"/>
<path d="M2353.62 1417.26C2353.62 1417.26 2048.86 1546.68 1749.87 1415.67C1583.9 1342.94 1423.6 1232.26 1266.3 1059.54C1243.52 1034.43 1220.37 1008.78 1197.3 982.339C1182.31 965.089 1168.53 946.971 1155.77 928.515C1098.88 845.878 1041.29 772.759 990.259 706.715C872.734 554.575 758.98 451.639 626.985 366.888C383.997 210.865 85.1278 79.6254 -235.06 212.614" stroke="#7A706E" stroke-opacity="0.3" stroke-width="0.847436" stroke-miterlimit="10"/>
<path d="M2352.71 1410.53C2352.71 1410.53 2056.07 1533.3 1752.65 1418.99C1585.66 1356.08 1419.51 1252.37 1261.75 1079.74C1239.17 1054.95 1216.41 1029.31 1193.85 1002.61C1179.18 985.19 1165.8 966.762 1153.5 947.917C1098.57 863.474 1043.39 787.311 993.07 717.919C877.109 557.968 763.854 442.73 633.146 353.05C393.832 188.863 100.544 82.1374 -240.805 236.525" stroke="#7A706E" stroke-opacity="0.3" stroke-width="0.847436" stroke-miterlimit="10"/>
<path d="M2351.82 1403.81C2351.82 1403.81 2063.14 1519.71 1755.47 1422.34C1587.32 1369.13 1415.44 1272.54 1257.26 1099.99C1234.86 1075.5 1212.5 1049.89 1190.47 1022.95C1176.09 1005.34 1163.11 986.623 1151.27 967.365C1098.32 881.126 1045.6 801.848 995.917 729.151C881.716 561.257 768.73 433.846 639.343 339.24C403.675 166.928 116.01 84.6703 -246.5 260.457" stroke="#7A706E" stroke-opacity="0.3" stroke-width="0.847436" stroke-miterlimit="10"/>
<path d="M2350.92 1397.1C2350.92 1397.1 2070.05 1505.94 1758.26 1425.68C1588.9 1382.1 1411.35 1292.68 1252.74 1120.2C1230.53 1096.02 1208.56 1070.42 1187.05 1043.23C1172.99 1025.44 1160.39 1006.41 1149.02 986.777C1098.06 898.742 1047.69 816.432 998.752 740.365C886.057 564.736 773.567 424.958 645.55 325.423C413.434 144.969 131.477 87.1786 -252.218 284.354" stroke="#7A706E" stroke-opacity="0.3" stroke-width="0.847436" stroke-miterlimit="10"/>
<path d="M2350.05 1390.3C2350.05 1390.3 1636.92 1655.55 1183.66 1063.47C1169.91 1045.52 1157.71 1026.17 1146.79 1006.13C780.752 334.727 468.457 -83.9439 -257.926 308.203" stroke="#7A706E" stroke-opacity="0.3" stroke-width="0.847436" stroke-miterlimit="10"/>
<path d="M2341.99 1380.31C2339.38 1383.44 2213.66 1430.83 2036.27 1444.38C1860.22 1457.82 1634.48 1439.03 1423.17 1307.11C1336.4 1253.25 1251.85 1180.16 1174.53 1082.41C1160.5 1064.72 1148 1045.67 1136.73 1025.88C1118.62 994.06 1100.66 962.684 1082.81 931.804C967.953 732.551 859.463 556.34 741.15 423.18C689.835 365.733 636.566 316.245 580.033 276.093C442.055 177.721 284.969 134.181 88.8232 167.691C-18.0338 185.942 -135.862 228.476 -265.106 296.959" stroke="#7A706E" stroke-opacity="0.3" stroke-width="0.847436" stroke-miterlimit="10"/>
<path d="M2334.01 1370.26C2328.78 1376.56 2203.98 1424.29 2029.66 1441.09C1853.4 1458.08 1629.12 1444.93 1417.07 1319.63C1329.76 1268.05 1244.01 1197.33 1165.49 1101.27C1151.19 1083.87 1138.37 1065.08 1126.75 1045.55C1108.12 1014.15 1089.63 983.045 1071.31 952.289C954.028 754.374 846.767 575.296 730.224 439.242C680.043 380.65 627.754 330.193 572.36 288.353C436.814 186 282.386 135.442 85.7102 162.318C-22.6762 177.126 -142.521 218.201 -272.225 285.606" stroke="#7A706E" stroke-opacity="0.3" stroke-width="0.847436" stroke-miterlimit="10"/>
<path d="M2326.01 1360.25C2318.17 1369.68 2194.27 1417.86 2023.03 1437.84C1846.55 1458.42 1623.61 1451.19 1410.93 1332.19C1323.03 1283.01 1236.3 1214.42 1156.4 1120.17C1141.86 1103.02 1128.68 1084.54 1116.73 1065.26C1097.55 1034.28 1078.52 1003.49 1059.76 972.821C939.72 776.495 833.851 594.483 719.259 455.346C670.152 395.71 618.905 344.091 564.635 300.66C431.557 194.148 279.681 136.654 82.5329 157.001C-27.4276 168.345 -149.241 207.956 -279.398 274.326" stroke="#7A706E" stroke-opacity="0.3" stroke-width="0.847436" stroke-miterlimit="10"/>
<path d="M2318 1350.25C2307.56 1362.82 2184.57 1411.52 2016.4 1434.58C1839.69 1458.82 1618.1 1457.47 1404.8 1344.74C1316.31 1297.97 1228.47 1231.59 1147.33 1139.07C1132.53 1122.19 1119.02 1103.99 1106.72 1084.94C1087.01 1054.37 1067.44 1023.88 1048.23 993.326C925.666 798.412 820.958 613.684 708.32 471.438C660.273 410.766 610.104 357.989 556.95 312.95C426.33 202.261 276.942 137.777 79.4073 151.658C-32.1465 159.505 -155.913 197.711 -286.52 263.021" stroke="#7A706E" stroke-opacity="0.3" stroke-width="0.847436" stroke-miterlimit="10"/>
<path d="M2310 1340.23C2296.94 1355.94 2174.88 1405.26 2009.76 1431.33C1832.81 1459.28 1612.56 1463.76 1398.65 1357.28C1309.57 1312.94 1220.62 1248.75 1138.23 1157.95C1123.16 1141.33 1109.35 1123.44 1096.67 1104.64C1076.44 1074.49 1056.33 1044.27 1036.66 1013.84C911.594 820.353 808.024 632.898 697.343 487.52C650.367 425.828 601.233 371.848 549.204 325.218C421.055 210.345 274.107 138.785 76.2307 146.311C-36.9579 150.615 -162.636 187.462 -293.716 251.701" stroke="#7A706E" stroke-opacity="0.3" stroke-width="0.847436" stroke-miterlimit="10"/>
<path d="M2301.98 1330.23C2286.31 1349.1 2165.18 1399.09 2003.12 1428.08C1825.92 1459.78 1607.01 1470.09 1392.51 1369.85C1302.81 1327.94 1212.76 1265.93 1129.14 1176.86C1113.8 1160.52 1099.66 1142.89 1086.64 1124.36C1065.86 1094.62 1045.24 1064.69 1025.12 1034.37C897.561 842.299 795.101 652.157 686.376 503.646C640.461 440.918 592.395 385.762 541.491 337.541C415.804 218.468 271.223 139.758 73.0778 141.002C-41.7742 141.711 -169.344 177.233 -300.865 240.429" stroke="#7A706E" stroke-opacity="0.3" stroke-width="0.847436" stroke-miterlimit="10"/>
<path d="M2293.99 1320.22C2275.7 1342.22 2155.5 1392.99 1996.5 1424.83C1819.06 1460.36 1601.45 1476.42 1386.39 1382.4C1296.08 1342.91 1204.94 1283.13 1120.08 1195.75C1104.46 1179.68 1090.02 1162.34 1076.65 1144.06C1055.34 1114.73 1034.2 1085.08 1013.58 1054.87C883.553 864.239 782.201 671.41 675.428 519.724C630.579 456.001 583.575 399.628 533.796 349.816C410.561 226.525 268.334 140.582 69.9298 135.653C-46.6176 132.739 -176.025 166.974 -308.019 229.1" stroke="#7A706E" stroke-opacity="0.3" stroke-width="0.847436" stroke-miterlimit="10"/>
<path d="M2285.96 1310.19C2265.07 1335.35 2145.83 1386.96 1989.85 1421.57C1812.16 1460.99 1595.85 1482.79 1380.24 1394.96C1289.31 1357.93 1197.06 1300.32 1110.99 1214.67C1095.11 1198.88 1080.32 1181.81 1066.63 1163.79C1044.79 1134.88 1023.12 1105.53 1002.04 1075.42C869.526 886.199 769.267 690.714 664.47 535.839C620.666 471.112 574.736 413.514 526.079 362.136C405.322 234.612 265.372 141.389 66.7727 130.34C-51.4892 123.77 -182.738 156.741 -315.172 217.824" stroke="#7A706E" stroke-opacity="0.3" stroke-width="0.847436" stroke-miterlimit="10"/>
<path d="M2277.97 1300.18C2254.47 1328.47 2136.19 1381.02 1983.23 1418.32C1805.32 1461.69 1590.28 1489.18 1374.12 1407.52C1282.55 1372.93 1189.22 1317.51 1101.92 1233.57C1085.76 1218.05 1070.68 1201.28 1056.61 1183.48C1034.23 1154.99 1012.05 1125.92 990.505 1095.93C855.534 908.108 756.339 710.006 653.532 551.935C610.781 486.22 565.917 427.38 518.394 374.429C400.093 242.662 262.411 142.051 63.6572 125.018C-56.3349 114.732 -189.4 146.517 -322.306 206.53" stroke="#7A706E" stroke-opacity="0.3" stroke-width="0.847436" stroke-miterlimit="10"/>
<path d="M2269.97 1290.15C2243.85 1321.6 2126.57 1375.15 1976.6 1415.04C1798.45 1462.43 1584.69 1495.57 1368 1420.05C1275.81 1387.93 1181.39 1334.68 1092.85 1252.44C1076.42 1237.18 1061.02 1220.71 1046.61 1203.16C1023.71 1175.09 1001 1146.29 978.984 1116.42C841.555 930.006 743.42 729.31 642.596 568.002C600.89 501.282 557.103 441.193 510.699 386.7C394.87 250.659 259.393 142.605 60.5129 119.64C-61.2381 105.586 -196.1 136.219 -329.447 195.189" stroke="#7A706E" stroke-opacity="0.3" stroke-width="0.847436" stroke-miterlimit="10"/>
<path d="M2261.96 1280.13C2233.23 1314.71 2116.95 1369.36 1969.96 1411.78C1791.6 1463.25 1579.09 1501.98 1361.85 1432.6C1269.03 1402.95 1173.51 1351.86 1083.76 1271.33C1067.07 1256.35 1051.31 1240.18 1036.59 1222.86C1013.11 1195.24 989.934 1166.69 967.428 1136.94C827.564 951.936 730.444 748.627 631.622 584.116C590.957 516.416 548.262 455.071 502.969 398.994C389.612 258.679 256.327 143.098 57.3398 114.325C-66.1891 96.47 -202.806 125.995 -336.617 183.912" stroke="#7A706E" stroke-opacity="0.3" stroke-width="0.847436" stroke-miterlimit="10"/>
<path d="M2253.97 1270.12C2222.63 1307.85 2107.37 1363.64 1963.34 1408.53C1784.78 1464.18 1573.49 1508.46 1355.73 1445.14C1262.27 1417.98 1165.65 1369.06 1074.69 1290.21C1057.72 1275.5 1041.65 1259.62 1026.58 1242.55C1002.56 1215.37 978.866 1187.09 955.903 1157.45C813.593 973.838 717.482 767.965 620.683 600.195C581.059 531.514 539.457 468.888 495.283 411.269C384.423 266.666 253.283 143.472 54.2138 108.969C-71.0959 87.2453 -209.478 115.737 -343.762 172.583" stroke="#7A706E" stroke-opacity="0.3" stroke-width="0.847436" stroke-miterlimit="10"/>
<path d="M2245.95 1260.12C2212 1300.98 2097.78 1358.01 1956.69 1405.28C1777.96 1465.17 1567.87 1514.95 1349.57 1457.7C1255.49 1433.03 1157.76 1386.26 1065.59 1309.12C1048.35 1294.69 1031.96 1279.07 1016.54 1262.26C991.996 1235.48 967.782 1207.49 944.349 1177.98C799.62 995.744 704.491 787.32 609.724 616.308C571.128 546.655 530.62 482.748 487.564 423.587C379.18 274.685 250.19 143.829 51.0643 103.672C-76.0323 78.0382 -216.183 105.52 -350.907 161.323" stroke="#7A706E" stroke-opacity="0.3" stroke-width="0.847436" stroke-miterlimit="10"/>
<path d="M2237.94 1250.06C2201.38 1294.08 2088.23 1352.4 1950.06 1401.98C1771.19 1466.19 1562.25 1521.42 1343.43 1470.22C1248.71 1448.05 1149.87 1403.44 1056.5 1327.97C1038.99 1313.83 1022.3 1298.49 1006.52 1281.91C981.444 1255.56 956.705 1227.83 932.801 1198.44C785.653 1017.59 691.481 806.629 598.762 632.343C561.181 561.723 521.793 496.522 479.856 435.819C373.972 282.605 247.099 143.993 47.9159 98.272C-80.9739 68.6863 -222.865 95.2101 -358.062 149.943" stroke="#7A706E" stroke-opacity="0.3" stroke-width="0.847436" stroke-miterlimit="10"/>
<path d="M2229.95 1240.08C2190.77 1287.23 2078.73 1346.9 1943.44 1398.75C1764.45 1467.36 1556.65 1527.98 1337.32 1482.8C1241.95 1463.15 1142.01 1420.68 1047.44 1346.89C1029.65 1333.02 1012.63 1317.97 996.52 1301.64C970.902 1275.7 945.669 1248.27 921.274 1218.99C771.696 1039.5 678.468 826.015 587.806 648.474C551.254 576.88 512.996 510.402 472.141 448.154C368.771 290.619 243.998 144.193 44.7484 92.9814C-85.9501 59.3849 -229.588 84.9997 -365.225 138.69" stroke="#7A706E" stroke-opacity="0.3" stroke-width="0.847436" stroke-miterlimit="10"/>
<path d="M2221.94 1230.07C2180.15 1280.38 2069.23 1341.47 1936.81 1395.5C1757.73 1468.58 1551.06 1534.56 1331.19 1495.36C1235.2 1478.24 1134.13 1437.91 1038.36 1365.79C1020.31 1352.2 1002.97 1337.42 986.496 1321.35C960.345 1295.82 934.596 1268.67 909.73 1239.52C757.746 1061.41 665.437 845.404 576.858 664.593C541.308 592.04 504.196 524.253 464.437 460.452C363.59 298.615 240.905 144.291 41.6039 87.6477C-90.8968 49.9915 -236.279 74.7636 -372.389 127.383" stroke="#7A706E" stroke-opacity="0.3" stroke-width="0.847436" stroke-miterlimit="10"/>
<path d="M2213.95 1220.02C2169.55 1273.46 2059.78 1336.06 1930.19 1392.21C1751.08 1469.84 1545.46 1541.11 1325.07 1507.88C1228.44 1493.3 1126.27 1455.11 1029.3 1384.67C1010.96 1371.35 993.329 1356.87 976.503 1341.04C949.828 1315.93 923.566 1289.04 898.208 1260.01C743.831 1083.26 652.414 864.755 565.922 680.649C531.386 607.131 495.407 538.041 456.741 472.713C358.434 306.542 237.831 144.278 38.468 82.2765C-95.8281 40.5119 -242.97 64.4726 -379.521 116.05" stroke="#7A706E" stroke-opacity="0.3" stroke-width="0.847436" stroke-miterlimit="10"/>
<path d="M2205.95 1210.05C2158.94 1266.65 2050.35 1330.76 1923.58 1389.01C1744.46 1471.29 1539.89 1547.79 1318.96 1520.49C1221.7 1508.47 1118.41 1472.39 1020.25 1403.63C1001.64 1390.58 983.704 1376.34 966.515 1360.8C939.337 1336.06 912.53 1309.5 886.701 1280.59C729.921 1105.18 639.383 884.186 555.01 696.812C521.477 622.335 486.644 551.936 449.083 485.074C353.315 314.568 234.814 144.308 35.3791 77.0217C-100.706 31.0998 -249.592 54.3083 -386.616 104.815" stroke="#7A706E" stroke-opacity="0.3" stroke-width="0.847436" stroke-miterlimit="10"/>
<path d="M2197.95 1200.03C2148.32 1259.77 2040.96 1325.47 1916.95 1385.75C1737.88 1472.76 1534.29 1554.42 1312.82 1533.04C1214.93 1523.58 1110.53 1489.62 1011.16 1422.52C992.28 1409.76 974.03 1395.78 956.487 1380.48C928.776 1356.15 901.466 1329.86 875.141 1301.09C715.97 1127.03 626.287 903.552 544.023 712.895C511.469 637.448 477.804 565.751 441.349 497.353C348.131 322.531 231.718 144.192 32.1923 71.6764C-105.665 21.5657 -256.335 44.0431 -393.799 93.5069" stroke="#7A706E" stroke-opacity="0.3" stroke-width="0.847436" stroke-miterlimit="10"/>
<path d="M2189.91 1190C2137.68 1252.88 2031.56 1320.23 1910.28 1382.47C1731.33 1474.29 1528.68 1561.07 1306.66 1545.55C1208.15 1538.66 1102.61 1506.82 1002.05 1441.37C982.889 1428.9 964.329 1415.18 946.44 1400.14C918.193 1376.24 890.37 1350.21 863.576 1321.56C702.005 1148.83 613.172 922.895 533.052 728.956C501.488 652.558 469.004 579.554 433.619 509.619C342.966 330.448 228.656 144.023 29.0223 66.3099C-110.601 11.9615 -263.051 33.7742 -400.978 82.1849" stroke="#7A706E" stroke-opacity="0.3" stroke-width="0.847436" stroke-miterlimit="10"/>
<path d="M2181.94 1180C2127.1 1246.02 2022.25 1315.07 1903.68 1379.23C1724.89 1475.95 1523.14 1567.78 1300.55 1558.12C1201.43 1553.83 1094.76 1524.1 992.995 1460.28C973.568 1448.1 954.682 1434.67 936.451 1419.87C907.671 1396.37 879.345 1370.62 852.067 1342.1C688.119 1170.7 600.091 942.295 522.129 745.067C491.545 667.699 460.242 593.39 425.939 521.91C337.862 338.407 225.664 143.823 25.903 60.9684C-115.479 2.33357 -269.716 23.5304 -408.104 70.8636" stroke="#7A706E" stroke-opacity="0.3" stroke-width="0.847436" stroke-miterlimit="10"/>
<path d="M2173.93 1169.96C2116.47 1239.14 2012.95 1309.92 1897.04 1375.94C1718.46 1477.67 1517.56 1574.45 1294.4 1570.65C1194.67 1568.96 1086.86 1541.32 983.902 1479.15C964.188 1467.24 945.002 1454.09 926.425 1439.55C897.112 1416.46 868.27 1390.99 840.522 1362.6C674.2 1192.51 586.962 961.657 511.169 761.134C481.562 682.821 451.466 607.192 418.22 534.181C332.728 346.365 222.652 143.548 22.7536 55.6245C-120.371 -7.32837 -276.408 13.2595 -415.249 59.5569" stroke="#7A706E" stroke-opacity="0.3" stroke-width="0.847436" stroke-miterlimit="10"/>
<path d="M2165.89 1159.98C2105.82 1232.28 2003.66 1304.85 1890.38 1372.71C1712.1 1479.51 1511.99 1581.22 1288.25 1583.23C1187.89 1584.13 1078.96 1558.61 974.803 1498.07C954.811 1486.45 935.314 1473.56 916.392 1459.27C886.543 1436.62 857.201 1411.4 828.957 1383.15C660.248 1214.37 573.789 981.062 500.187 777.278C471.559 697.996 442.654 621.078 410.491 546.521C327.586 354.367 219.658 143.303 19.5713 50.3403C-125.267 -16.9693 -283.137 3.07293 -422.437 48.2929" stroke="#7A706E" stroke-opacity="0.3" stroke-width="0.847436" stroke-miterlimit="10"/>
<path d="M2157.9 1149.95C2095.22 1225.41 1994.44 1299.8 1883.75 1369.44C1705.83 1481.41 1506.46 1587.95 1282.12 1595.77C1181.17 1599.28 1071.08 1575.86 965.726 1516.95C945.455 1505.62 925.649 1492.99 906.371 1478.95C875.989 1456.7 846.144 1431.76 817.417 1403.64C646.338 1236.15 560.643 1000.41 489.233 793.338C461.55 713.084 433.884 634.873 402.791 558.779C322.506 362.314 216.72 142.962 16.431 44.9658C-130.105 -26.732 -289.833 -7.22132 -429.587 36.9629" stroke="#7A706E" stroke-opacity="0.3" stroke-width="0.847436" stroke-miterlimit="10"/>
<path d="M2149.89 1139.91C2084.61 1218.5 1985.25 1294.75 1877.12 1366.16C1699.62 1483.38 1500.93 1594.69 1275.98 1608.3C1174.43 1614.45 1063.2 1593.12 956.652 1535.84C936.116 1524.79 915.983 1512.46 896.363 1498.64C865.435 1476.81 835.09 1452.13 805.89 1424.15C632.437 1257.97 547.486 1019.77 478.3 809.44C451.584 728.224 425.135 648.71 395.099 571.085C317.424 370.292 213.809 142.612 13.2991 39.6392C-134.918 -36.4783 -296.511 -17.4504 -436.725 25.6563" stroke="#7A706E" stroke-opacity="0.3" stroke-width="0.847436" stroke-miterlimit="10"/>
<path d="M2141.9 1129.91C2074 1211.66 1976.11 1289.78 1870.5 1362.91C1693.52 1485.49 1495.42 1601.48 1269.87 1620.86C1167.73 1629.63 1055.34 1610.39 947.594 1554.75C926.789 1544 906.336 1531.91 886.371 1518.35C854.92 1496.94 824.062 1472.52 794.379 1444.68C618.555 1279.78 534.332 1039.15 467.375 825.537C441.616 743.341 416.393 662.541 387.417 583.361C312.363 378.257 210.957 142.229 10.1872 34.3005C-139.685 -46.251 -303.165 -27.7159 -443.833 14.355" stroke="#7A706E" stroke-opacity="0.3" stroke-width="0.847436" stroke-miterlimit="10"/>
<path d="M2133.88 1119.87C2063.36 1204.75 1966.97 1284.8 1863.85 1359.63C1687.45 1487.63 1489.89 1608.27 1263.7 1633.38C1160.97 1644.8 1047.42 1627.64 938.476 1573.6C917.393 1563.15 896.63 1551.32 876.306 1538.03C844.322 1517.02 812.961 1492.88 782.782 1465.17C604.578 1301.54 521.071 1058.48 456.364 841.602C431.559 758.451 407.565 676.342 379.647 595.631C307.247 386.219 208.055 141.818 6.98611 28.9555C-144.521 -56.0859 -309.912 -37.9634 -451.031 3.0474" stroke="#7A706E" stroke-opacity="0.3" stroke-width="0.847436" stroke-miterlimit="10"/>
<path d="M2125.89 1109.89C2052.77 1197.93 1957.9 1279.91 1857.24 1356.43C1681.53 1489.94 1484.43 1615.13 1257.6 1645.98C1154.29 1660.04 1039.54 1645.2 929.431 1592.55C908.063 1582.43 886.997 1570.81 866.328 1557.78C833.808 1537.21 801.98 1513.25 771.275 1485.72C590.889 1323.05 507.899 1077.88 445.439 857.748C421.579 773.625 398.833 690.24 371.976 607.974C302.196 394.252 205.259 141.431 3.85231 23.6561C-149.256 -65.8721 -316.592 -48.1652 -458.183 -8.2248" stroke="#7A706E" stroke-opacity="0.3" stroke-width="0.847436" stroke-miterlimit="10"/>
<path d="M2117.88 1099.85C2042.14 1191.02 1948.86 1274.99 1850.6 1353.14C1675.67 1492.27 1478.94 1621.92 1251.46 1658.51C1147.57 1675.21 1031.66 1662.38 920.339 1611.41C898.696 1601.56 877.313 1590.25 856.292 1577.44C823.239 1557.27 790.895 1533.6 759.72 1506.2C576.905 1344.89 494.656 1097.18 434.469 873.793C411.544 788.68 390.144 704.012 364.247 620.223C297.354 402.155 202.44 140.954 0.683336 18.2731C-154.018 -75.7908 -323.317 -58.4679 -465.348 -19.5704" stroke="#7A706E" stroke-opacity="0.3" stroke-width="0.847436" stroke-miterlimit="10"/>
<path d="M2109.88 1089.82C2031.53 1184.14 1939.87 1270.09 1843.97 1349.87C1669.89 1494.69 1473.58 1629.03 1245.33 1671.05C1140.91 1690.55 1023.8 1679.6 911.26 1630.29C889.352 1620.72 867.646 1609.68 846.279 1597.13C812.694 1577.37 779.833 1553.98 748.189 1526.7C562.935 1366.74 481.235 1116.52 423.533 889.885C401.456 803.808 381.365 717.853 356.564 632.512C292.214 410.176 199.716 140.512 -2.44288 12.9543C-158.703 -85.6422 -329.976 -68.6962 -472.481 -30.869" stroke="#7A706E" stroke-opacity="0.3" stroke-width="0.847436" stroke-miterlimit="10"/>
<path d="M2101.87 1079.84C2020.91 1177.3 1930.91 1265.24 1837.34 1346.64C1664.21 1497.23 1468.04 1635.62 1239.2 1683.63C1081.5 1716.7 894.038 1680.27 736.66 1547.25C548.991 1388.64 468.189 1135.87 412.59 906.003C391.531 818.935 372.567 731.727 348.864 644.809C287.057 418.206 197.001 140.065 -5.58207 7.61962C-163.371 -95.5482 -336.671 -78.9508 -479.629 -42.1594" stroke="#7A706E" stroke-opacity="0.3" stroke-width="0.847436" stroke-miterlimit="10"/>
</g>
<defs>
<clipPath id="clip0_24781_103914">
<rect width="1440" height="880" fill="white"/>
</clipPath>
</defs>
</svg>
