<svg width="26" height="26" viewBox="0 0 26 26" fill="none" xmlns="http://www.w3.org/2000/svg">
<path opacity="0.4" d="M13 23.8327C18.983 23.8327 23.8333 18.9824 23.8333 12.9993C23.8333 7.01626 18.983 2.16602 13 2.16602C7.01687 2.16602 2.16663 7.01626 2.16663 12.9993C2.16663 18.9824 7.01687 23.8327 13 23.8327Z" fill="#D0D5DD"/>
<path d="M14.1483 13.0006L16.64 10.509C16.9542 10.1948 16.9542 9.67479 16.64 9.36063C16.3258 9.04646 15.8058 9.04646 15.4917 9.36063L13 11.8523L10.5083 9.36063C10.1942 9.04646 9.67418 9.04646 9.36001 9.36063C9.04585 9.67479 9.04585 10.1948 9.36001 10.509L11.8517 13.0006L9.36001 15.4923C9.04585 15.8065 9.04585 16.3265 9.36001 16.6406C9.52251 16.8031 9.72835 16.879 9.93418 16.879C10.14 16.879 10.3458 16.8031 10.5083 16.6406L13 14.149L15.4917 16.6406C15.6542 16.8031 15.86 16.879 16.0658 16.879C16.2717 16.879 16.4775 16.8031 16.64 16.6406C16.9542 16.3265 16.9542 15.8065 16.64 15.4923L14.1483 13.0006Z" fill="#292D32"/>
</svg>
