<svg width="30" height="30" viewBox="0 0 30 30" fill="none" xmlns="http://www.w3.org/2000/svg">
<path d="M14.9941 5.67422V28.3409M14.9941 28.3409H10.9941M14.9941 28.3409H18.9941" stroke="#667085" stroke-width="2" stroke-linecap="round" stroke-linejoin="round"/>
<path d="M26.9983 16.3409L23.665 9.67422L20.3316 16.3409" stroke="#667085" stroke-width="2" stroke-linecap="round" stroke-linejoin="round"/>
<path d="M9.66081 16.3409L6.32747 9.67422L2.99414 16.3409" stroke="#667085" stroke-width="2" stroke-linecap="round" stroke-linejoin="round"/>
<path d="M4.33164 9.67422H5.72924C7.41386 9.67422 9.04831 8.96889 10.3638 7.67422C13.0733 5.00756 16.9233 5.00756 19.6328 7.67422C20.9483 8.96889 22.5828 9.67422 24.2674 9.67422H25.665" stroke="#667085" stroke-width="2" stroke-linecap="round" stroke-linejoin="round"/>
<path d="M23.6608 21.6701C25.4671 21.6701 27.04 20.5585 27.8572 18.9165C28.2982 18.0304 28.5187 17.5873 28.1161 16.962C27.7136 16.3367 27.0475 16.3367 25.7151 16.3367H21.6065C20.2741 16.3367 19.608 16.3367 19.2055 16.962C18.803 17.5873 19.0235 18.0304 19.4645 18.9165C20.2816 20.5584 21.8545 21.6701 23.6608 21.6701Z" stroke="#667085" stroke-width="2"/>
<path d="M6.32956 21.6701C8.13584 21.6701 9.70878 20.5585 10.5259 18.9165C10.9669 18.0304 11.1874 17.5873 10.7849 16.962C10.3824 16.3367 9.71622 16.3367 8.38389 16.3367H4.27523C2.94289 16.3367 2.27673 16.3367 1.87421 16.962C1.4717 17.5873 1.6922 18.0304 2.1332 18.9165C2.95033 20.5584 4.52327 21.6701 6.32956 21.6701Z" stroke="#667085" stroke-width="2"/>
<path d="M16.9941 3.67422C16.9941 4.77879 16.0987 5.67422 14.9941 5.67422C13.8896 5.67422 12.9941 4.77879 12.9941 3.67422C12.9941 2.56966 13.8896 1.67422 14.9941 1.67422C16.0987 1.67422 16.9941 2.56966 16.9941 3.67422Z" stroke="#667085" stroke-width="2"/>
</svg>
