<svg width="47" height="40" viewBox="0 0 47 40" fill="none" xmlns="http://www.w3.org/2000/svg">
<path d="M5.60441 21.6131H5.6122C6.58009 21.8383 7.56548 21.992 8.55917 22.0726C10.1123 22.1989 11.6752 22.1814 13.2246 22.0205C13.9021 21.9535 14.5797 21.8639 15.2572 21.7561C17.2955 21.4402 19.3031 20.9704 21.2598 20.3511C21.2718 20.3474 22.4178 19.9834 23.7967 19.3999C24.6528 19.0399 25.4837 18.6301 26.2846 18.1728C26.6454 17.9742 26.9819 17.7392 27.2882 17.4724C27.6472 17.1161 27.9163 16.6897 28.0762 16.224C28.1133 16.1307 28.1468 16.0364 28.1772 15.9406C28.5339 14.5209 27.9829 13.8003 27.9829 13.8003C27.5372 12.8737 24.629 12.9064 24.629 12.9064C21.3268 12.843 21.6515 11.1179 21.6515 11.1179C22.6235 9.4973 24.0338 8.14293 25.7418 7.18951C26.1266 6.97099 26.6867 6.66653 27.1632 6.78819C27.4166 6.87198 27.6299 7.03716 27.7649 7.25399L28.4636 6.24724C28.6817 5.9381 28.6636 5.53343 28.4184 5.24239C28.4184 5.24239 28.4157 5.23868 28.4129 5.23736C28.1693 4.94129 27.8121 4.74483 27.4164 4.68957C27.2638 4.67099 27.1085 4.68669 26.9638 4.73548C25.823 5.0548 23.6546 7.01354 23.6546 7.01354C19.4564 11.1869 21.0764 13.6787 21.0764 13.6787C21.9896 15.2972 25.0468 14.9989 25.0468 14.9989C26.7453 15.0553 27.2948 15.3932 27.472 15.6152C27.472 15.6152 27.472 15.6177 27.4747 15.6189C27.5073 15.669 27.5336 15.7223 27.5531 15.778V15.7817C27.5531 15.7929 27.5558 15.8003 27.5558 15.8053V15.8103C27.5437 15.8202 27.5305 15.8303 27.5186 15.8412L27.5053 15.85C25.8459 16.788 24.0893 17.5673 22.2622 18.1765C19.6424 19.0601 16.9248 19.6676 14.1603 19.9873C14.026 20.0034 13.8887 20.0182 13.7555 20.0322C12.9343 20.1167 12.1171 20.1701 11.2983 20.1826C10.5437 20.1949 9.78934 20.1738 9.0288 20.1167C6.09014 19.8992 3.20335 19.2693 0.466041 18.2484C0.279772 18.1789 0.176033 18.1716 0.126463 18.2273C0.0717835 18.2895 0.130424 18.3825 0.142433 18.3999L0.149076 18.4098L5.59981 21.6118L5.60441 21.6131Z" fill="white"/>
<path d="M40.7293 22.9508C40.7293 22.9508 40.4603 23.0415 39.9986 23.8911C39.9986 23.8911 39.3304 25.2463 38.3535 25.7904C38.3535 25.7904 36.7708 26.6288 35.6675 25.6053C35.3253 25.2207 35.2261 24.696 35.4068 24.2254C35.4068 24.2254 35.5612 23.7709 35.0899 23.9832C35.0899 23.9832 34.4537 24.295 33.795 24.6028C33.0677 24.924 32.321 25.2056 31.5588 25.4463C31.3404 24.8641 31.0072 24.3252 30.5764 23.8573C28.1528 21.4376 26.5433 24.7585 26.5433 24.7585C25.8492 26.5248 26.8067 27.3519 27.1955 27.6029C27.1955 27.6029 28.3668 28.1879 30.5523 27.6451C30.6987 27.609 30.8583 27.5606 31.0235 27.5071C31.1335 27.771 31.2143 28.0446 31.2649 28.3238C31.1958 28.397 31.128 28.4717 31.06 28.5438C28.617 31.1034 26.7347 32.0045 26.7347 32.0045C22.3794 34.5831 20.3366 32.7013 20.3366 32.7013C19.1334 31.7301 19.2477 29.559 19.4713 28.1704C19.7289 27.9954 19.9747 27.8057 20.2075 27.6026C20.2075 27.6026 23.7122 24.4924 24.825 23.5122C24.825 23.5122 27.5683 21.0903 29.7339 20.992C29.7339 20.992 32.1139 20.6915 33.2492 22.5322C33.2492 22.5322 33.8069 21.0926 33.5275 20.6915C31.7381 18.1189 28.1709 19.5709 28.1709 19.5709C26.177 20.2105 23.0691 23.1306 23.0691 23.1306C22.0613 24.1304 19.5381 26.1775 19.5381 26.1775C19.5381 26.1775 17.5826 27.7301 16.3621 27.3499C16.3621 27.3499 14.0685 27.1499 15.1616 23.8696C15.3314 23.3768 15.5538 22.9012 15.8255 22.4499C16.0557 22.1119 15.9613 22.0871 15.8295 22.1308C15.6888 22.1798 15.5705 22.2723 15.4943 22.3929C14.7869 23.492 14.4308 24.7569 14.4681 26.0385C14.6794 28.2605 16.4781 28.95 16.4781 28.95C17.2767 29.2755 18.2473 28.9026 18.9979 28.4667C17.9835 31.8873 19.3133 33.7679 19.3133 33.7679C20.9263 36.0969 24.0174 35.1056 24.0174 35.1056C27.2608 34.1391 29.9201 31.4412 29.9201 31.4412C30.4432 31.0227 30.9011 30.5382 31.2804 30.0016C31.9485 29.0303 31.9365 28.3521 31.9365 28.3521C32.0051 27.9643 32.0297 27.5709 32.0099 27.1782C32.8743 26.8651 33.7175 26.5035 34.535 26.0951C34.535 26.0951 34.6322 26.0342 34.6001 26.2393C34.6001 26.2393 34.535 27.9608 36.2827 28.2042C37.2867 28.3454 38.2868 27.9273 38.8422 27.134C38.8422 27.134 39.3652 26.3848 39.5996 25.9664C39.9027 26.7666 40.6502 27.3484 41.5483 27.4829C43.9549 27.8617 44.1984 25.1925 44.1984 25.1925C44.458 23.2972 43.3851 22.2502 43.3851 22.2502L42.8979 24.3283C43.1493 24.6012 43.3802 24.8901 43.5887 25.1929C43.5887 25.1929 43.0683 25.5792 41.6135 25.2686C41.2749 25.164 40.9694 24.9826 40.7244 24.7409C40.7244 24.7409 40.329 24.3817 40.7204 23.6392C40.7211 23.6405 41.1114 22.7235 40.7293 22.9508ZM27.6012 25.1495C27.6012 25.1495 28.6394 24.2911 29.9706 25.8254C29.8122 25.849 29.6538 25.8688 29.498 25.8801C29.5005 25.8809 26.9089 26.1032 27.6025 25.1493L27.6012 25.1495Z" fill="white"/>
<path d="M34.9704 14.4807C34.2863 15.044 31.1531 17.1138 29.6528 18.0965C29.163 18.417 29.5955 18.2543 29.5955 18.2543L32.1577 16.9923C34.407 15.9148 36.3612 14.3697 37.8695 12.4762C37.9942 12.3332 38.1098 12.1835 38.2157 12.0279C38.5226 12.2156 38.7762 12.4701 38.9545 12.7694C39.4229 11.9682 39.2472 11.8069 39.2472 11.8069C39.071 11.6036 38.8674 11.4224 38.6415 11.2678C38.8394 10.8431 38.9743 10.3951 39.0423 9.93634C38.9258 8.27931 37.8121 8.84052 37.8121 8.84052C37.1394 9.12556 36.6659 9.70799 36.5531 10.3894C36.6702 11.0577 37.6951 11.6987 37.6951 11.6987C37.747 11.7286 37.7962 11.757 37.8442 11.7858C36.8617 13.0214 34.9704 14.4807 34.9704 14.4807ZM38.1048 10.8725C36.9335 10.044 37.1693 9.85639 37.1693 9.85639C38.5454 8.84028 38.3405 11.0054 38.3405 11.0054C38.3366 11.0142 38.3327 11.024 38.3285 11.0336C38.1969 10.937 38.1048 10.8725 38.1048 10.8725Z" fill="white"/>
<path d="M24.0333 26.5925C24.0333 26.5925 22.8819 28.5469 22.6172 29.1811C22.6172 29.1811 21.9971 30.9162 23.6503 31.0542C24.7282 31.0384 25.5882 30.2101 25.5712 29.2042C25.5708 29.1783 25.5698 29.1524 25.5682 29.1265C25.5682 29.1265 25.6521 28.2594 24.0613 27.4768C24.0613 27.4768 24.623 26.2063 24.0333 26.5925ZM25.1834 29.4281C25.1834 29.4281 24.3275 30.5024 23.2358 29.8964C23.2358 29.8964 22.8233 29.6764 23.5313 28.381L23.6647 28.1527L23.6195 28.2706C23.6195 28.2706 24.9779 29.0159 25.1834 29.4281Z" fill="white"/>
<path d="M12.9254 13.4913C12.9254 13.4913 11.774 15.4461 11.5093 16.0797C11.5093 16.0797 10.8892 17.8148 12.5424 17.9528C13.6203 17.9369 14.4803 17.1086 14.4633 16.1027C14.4629 16.0768 14.4618 16.0509 14.4602 16.0251C14.4602 16.0251 14.5442 15.1579 12.9534 14.3745C12.9534 14.3745 13.5151 13.1061 12.9254 13.4913ZM14.0771 16.3281C14.0771 16.3281 13.2213 17.4024 12.1296 16.7964C12.1296 16.7964 11.7171 16.5764 12.4251 15.281L12.5582 15.0519L12.513 15.1698C12.513 15.1698 13.87 15.9157 14.0771 16.3281Z" fill="white"/>
<path d="M18.0804 17.4192C20.2992 11.7974 14.8781 9.28335 14.8781 9.28335L14.8141 10.7627C19.3156 13.6035 17.8263 17.1838 17.8263 17.1838C17.6679 17.8339 18.0804 17.4192 18.0804 17.4192Z" fill="white"/>
<path d="M33.1223 8.16601C31.7341 7.05808 31.1152 10.1323 31.1152 10.1323C30.998 10.9758 30.7811 12.4574 30.7811 12.4574C29.844 8.57092 28.0471 8.53748 28.0471 8.53748C27.3191 8.64308 27.4828 10.0242 27.4828 10.0242C27.596 10.1534 28.7754 10.9606 28.7754 10.9606C28.9511 11.0538 28.9511 10.6674 28.9511 10.6674C29.8628 11.5455 30.547 14.1595 30.547 14.1595C31.0993 13.7694 31.3499 11.3027 31.3499 11.3027C31.7012 7.82236 33.357 9.97624 33.357 9.97624C33.5912 9.74274 33.6072 8.68072 33.6072 8.68072C33.4738 8.48773 33.3104 8.31416 33.1223 8.16601Z" fill="white"/>
<path d="M4.13647 0V15.6864H4.66769V0.49565H46.4692V39.5032H4.66769V25.1585H4.13647V40H47.0003V0H4.13647Z" fill="white"/>
<path d="M38.19 18.0677L39.3586 16.9713L38.0427 15.7367L36.7268 16.9713L37.8954 18.0677L36.7268 19.1643L37.8954 20.2607L36.7268 21.3571L38.0427 22.5917L39.3586 21.3571L38.19 20.2607L39.3586 19.1643L38.19 18.0677Z" fill="white"/>
</svg>
