<svg width="141" height="30" viewBox="0 0 141 30" fill="none" xmlns="http://www.w3.org/2000/svg">
<path d="M2.90055 12.616C2.57416 12.616 2.27823 12.5812 2.01277 12.5115C1.74731 12.4463 1.51666 12.344 1.32083 12.2047C1.12935 12.0698 0.981382 11.8936 0.876938 11.676C0.776845 11.4627 0.726799 11.206 0.726799 10.9057C0.726799 10.7447 0.750734 10.5467 0.798605 10.3117C0.846475 10.0767 0.922632 9.8395 1.02708 9.60015L1.82347 9.8482C1.76254 10.0136 1.71685 10.1681 1.68638 10.3117C1.66027 10.4509 1.64722 10.5837 1.64722 10.7099C1.64722 10.8709 1.67333 11.0123 1.72555 11.1342C1.78212 11.2604 1.86698 11.367 1.98013 11.454C2.09763 11.5411 2.24124 11.6042 2.41097 11.6433C2.58504 11.6869 2.7874 11.7086 3.01805 11.7086C3.32703 11.7086 3.58379 11.6869 3.78833 11.6433C3.99286 11.6042 4.15606 11.5498 4.27791 11.4801C4.40412 11.4149 4.49333 11.3431 4.54555 11.2647C4.60212 11.1908 4.63041 11.1189 4.63041 11.0493C4.63041 11.0014 4.613 10.9579 4.57819 10.9188C4.54337 10.8752 4.47592 10.8252 4.37583 10.7686C4.28009 10.7077 4.1343 10.6359 3.93847 10.5532L4.33013 9.76987C4.57819 9.91783 4.7762 10.044 4.92416 10.1485C5.07212 10.2529 5.1831 10.3443 5.25708 10.4226C5.33541 10.4966 5.38763 10.5684 5.41375 10.6381C5.43986 10.7077 5.45291 10.786 5.45291 10.8731C5.45291 11.0123 5.4268 11.1625 5.37458 11.3235C5.32671 11.4845 5.24402 11.6412 5.12652 11.7935C5.01337 11.9458 4.85888 12.0829 4.66305 12.2047C4.46722 12.3309 4.22351 12.431 3.93194 12.505C3.64472 12.579 3.30092 12.616 2.90055 12.616ZM5.87069 11.1146C5.80541 11.1146 5.71402 11.1037 5.59652 11.082C5.47902 11.0602 5.34847 11.0276 5.20486 10.984C5.0656 10.9405 4.92416 10.8883 4.78055 10.8274C4.63694 10.7621 4.50638 10.6881 4.38888 10.6054L4.33013 9.76987C4.52597 9.86561 4.70004 9.94394 4.85236 10.0049C5.00467 10.0614 5.13958 10.105 5.25708 10.1354C5.37458 10.1659 5.47685 10.1855 5.56388 10.1942C5.65527 10.2029 5.73796 10.2072 5.81194 10.2072H5.89027V11.1146H5.87069ZM2.34569 14.3132L1.71249 13.6735L2.30652 13.0338L2.93972 13.6735L2.34569 14.3132ZM3.48152 14.3132L2.84833 13.6735L3.45541 13.0338L4.08861 13.6735L3.48152 14.3132ZM5.89323 10.2072H6.41545V11.1146H5.89323V10.2072ZM5.89323 10.2072H5.95851V11.1146H5.89323C5.76267 11.1146 5.6974 10.9623 5.6974 10.6576C5.6974 10.3574 5.76267 10.2072 5.89323 10.2072ZM6.41596 10.2072H6.93819V11.1146H6.41596V10.2072ZM6.41596 10.2072H6.48124V11.1146H6.41596C6.28541 11.1146 6.22013 10.9623 6.22013 10.6576C6.22013 10.3574 6.28541 10.2072 6.41596 10.2072ZM6.93869 10.2072H7.46092V11.1146H6.93869V10.2072ZM6.93869 10.2072H7.00397V11.1146H6.93869C6.80814 11.1146 6.74286 10.9623 6.74286 10.6576C6.74286 10.3574 6.80814 10.2072 6.93869 10.2072ZM7.46143 10.2072H7.98365V11.1146H7.46143V10.2072ZM7.46143 10.2072H7.52671V11.1146H7.46143C7.33087 11.1146 7.26559 10.9623 7.26559 10.6576C7.26559 10.3574 7.33087 10.2072 7.46143 10.2072ZM7.98416 10.2072H8.50638V11.1146H7.98416V10.2072ZM7.98416 10.2072H8.04944V11.1146H7.98416C7.8536 11.1146 7.78833 10.9623 7.78833 10.6576C7.78833 10.3574 7.8536 10.2072 7.98416 10.2072ZM8.50689 10.2072H9.02911V11.1146H8.50689V10.2072ZM8.50689 10.2072H8.57217V11.1146H8.50689C8.37634 11.1146 8.31106 10.9623 8.31106 10.6576C8.31106 10.3574 8.37634 10.2072 8.50689 10.2072ZM9.02962 10.2072H9.55185V11.1146H9.02962V10.2072ZM9.02962 10.2072H9.0949V11.1146H9.02962C8.89907 11.1146 8.83379 10.9623 8.83379 10.6576C8.83379 10.3574 8.89907 10.2072 9.02962 10.2072ZM9.55236 10.2072H10.0746V11.1146H9.55236V10.2072ZM9.55236 10.2072H9.61763V11.1146H9.55236C9.4218 11.1146 9.35652 10.9623 9.35652 10.6576C9.35652 10.3574 9.4218 10.2072 9.55236 10.2072ZM10.0751 10.2072H10.5973V11.1146H10.0751V10.2072ZM10.0751 10.2072H10.1404V11.1146H10.0751C9.94453 11.1146 9.87926 10.9623 9.87926 10.6576C9.87926 10.3574 9.94453 10.2072 10.0751 10.2072ZM10.5978 11.1146V10.2072H11.342C11.2854 10.1289 11.2375 10.0288 11.1984 9.90695C11.1592 9.7851 11.1396 9.64802 11.1396 9.4957C11.1396 9.21283 11.2049 8.96913 11.3355 8.76459C11.4704 8.5557 11.6575 8.39686 11.8969 8.28806C12.1362 8.17492 12.4147 8.11834 12.7324 8.11834C12.9326 8.11834 13.1284 8.14228 13.3199 8.19015C13.5114 8.23367 13.6855 8.29677 13.8421 8.37945L13.4635 9.16932C13.3417 9.11709 13.2198 9.0801 13.098 9.05834C12.9805 9.03223 12.8586 9.01918 12.7324 9.01918C12.5105 9.01918 12.3429 9.07357 12.2298 9.18237C12.121 9.28682 12.0666 9.41955 12.0666 9.58057C12.0666 9.68501 12.0992 9.78728 12.1645 9.88737C12.2298 9.98311 12.3342 10.0614 12.4778 10.1224C12.6258 10.1789 12.8194 10.2072 13.0588 10.2072H13.8748V11.1146H10.5978ZM10.5978 10.2072H10.6631V11.1146H10.5978C10.4673 11.1146 10.402 10.9623 10.402 10.6576C10.402 10.3574 10.4673 10.2072 10.5978 10.2072ZM15.9029 11.1146C15.6809 11.1146 15.4938 11.0907 15.3415 11.0428C15.1892 10.9949 15.0651 10.9231 14.9694 10.8274C14.8737 10.7316 14.804 10.6141 14.7605 10.4749C14.717 10.3313 14.6952 10.1659 14.6952 9.97876V6.28404H15.6222V9.67195C15.6222 9.76769 15.6287 9.85038 15.6418 9.92001C15.6548 9.98964 15.6787 10.0462 15.7136 10.0897C15.7527 10.1333 15.8049 10.1637 15.8702 10.1811C15.9399 10.1985 16.0291 10.2072 16.1379 10.2072H16.3925V11.1146H15.9029ZM16.3925 11.1146V10.2072H17.2607C17.2868 10.1376 17.3107 10.0375 17.3325 9.90695C17.3543 9.7764 17.3717 9.64149 17.3847 9.50223C17.4021 9.35862 17.4108 9.23459 17.4108 9.13015L18.4944 8.75154C18.4205 9.06487 18.3465 9.35427 18.2725 9.61973C18.1985 9.88519 18.1093 10.1398 18.0049 10.3835C17.9048 10.6228 17.7764 10.8665 17.6197 11.1146H16.3925ZM18.9514 11.1146C18.6729 11.1146 18.4335 11.0885 18.2333 11.0363C18.0375 10.9797 17.87 10.9144 17.7307 10.8404C17.5958 10.7621 17.4761 10.6881 17.3717 10.6185L17.8613 10.0375C17.9309 10.0767 18.0092 10.1093 18.0963 10.1354C18.1833 10.1572 18.279 10.1746 18.3835 10.1876C18.4923 10.2007 18.6032 10.2072 18.7164 10.2072H18.971V11.1146H18.9514ZM16.3925 10.2072H16.4578V11.1146H16.3925C16.2619 11.1146 16.1967 10.9623 16.1967 10.6576C16.1967 10.3574 16.2619 10.2072 16.3925 10.2072ZM17.9722 8.22279L17.339 7.58306L17.9461 6.94334L18.5793 7.58306L17.9722 8.22279ZM23.7006 9.90043C23.8355 10.0266 23.9856 10.1093 24.151 10.1485C24.3163 10.1876 24.4948 10.2072 24.6862 10.2072V11.1146C24.4338 11.1146 24.1901 11.0624 23.9551 10.9579C23.7201 10.8535 23.5287 10.6816 23.3807 10.4422L23.7006 9.90043ZM18.9679 11.1146V10.2072H23.1261C23.1392 9.97658 23.1196 9.77422 23.0674 9.60015C23.0151 9.42172 22.9237 9.28029 22.7932 9.17584C22.667 9.0714 22.4907 9.01918 22.2644 9.01918C22.0338 9.01918 21.7879 9.09098 21.5268 9.23459C21.2657 9.3782 21.0133 9.60015 20.7696 9.90043C20.5302 10.1964 20.3235 10.5771 20.1494 11.0428L19.8883 10.2399C20.0929 9.76552 20.3257 9.37168 20.5868 9.05834C20.8479 8.74501 21.1308 8.51001 21.4354 8.35334C21.74 8.19668 22.0534 8.11834 22.3754 8.11834C22.7627 8.11834 23.0804 8.20103 23.3285 8.3664C23.5765 8.52742 23.7615 8.74936 23.8833 9.03223C24.0052 9.31075 24.0661 9.63061 24.0661 9.99182C24.0705 10.3487 24.0161 10.7229 23.9029 11.1146H18.9679ZM19.6207 11.1146V6.28404H20.5476V11.1146H19.6207ZM18.9679 10.2072H19.0332V11.1146H18.9679C18.8374 11.1146 18.7721 10.9623 18.7721 10.6576C18.7721 10.3574 18.8374 10.2072 18.9679 10.2072ZM24.6861 10.2072H25.2083V11.1146H24.6861V10.2072ZM24.6861 10.2072H24.7514V11.1146H24.6861C24.5555 11.1146 24.4903 10.9623 24.4903 10.6576C24.4903 10.3574 24.5555 10.2072 24.6861 10.2072ZM25.2088 10.2072H25.7311V11.1146H25.2088V10.2072ZM25.2088 10.2072H25.2741V11.1146H25.2088C25.0783 11.1146 25.013 10.9623 25.013 10.6576C25.013 10.3574 25.0783 10.2072 25.2088 10.2072ZM25.7316 10.2072H26.2538V11.1146H25.7316V10.2072ZM25.7316 10.2072H25.7968V11.1146H25.7316C25.601 11.1146 25.5357 10.9623 25.5357 10.6576C25.5357 10.3574 25.601 10.2072 25.7316 10.2072ZM26.2543 10.2072H26.7765V11.1146H26.2543V10.2072ZM26.2543 10.2072H26.3196V11.1146H26.2543C26.1237 11.1146 26.0585 10.9623 26.0585 10.6576C26.0585 10.3574 26.1237 10.2072 26.2543 10.2072ZM26.777 10.2072H27.2992V11.1146H26.777V10.2072ZM26.777 10.2072H26.8423V11.1146H26.777C26.6465 11.1146 26.5812 10.9623 26.5812 10.6576C26.5812 10.3574 26.6465 10.2072 26.777 10.2072ZM27.2998 10.2072H27.822V11.1146H27.2998V10.2072ZM27.2998 10.2072H27.365V11.1146H27.2998C27.1692 11.1146 27.1039 10.9623 27.1039 10.6576C27.1039 10.3574 27.1692 10.2072 27.2998 10.2072ZM27.8225 10.2072H28.3447V11.1146H27.8225V10.2072ZM27.8225 10.2072H27.8878V11.1146H27.8225C27.6919 11.1146 27.6267 10.9623 27.6267 10.6576C27.6267 10.3574 27.6919 10.2072 27.8225 10.2072ZM28.3452 10.2072H28.8674V11.1146H28.3452V10.2072ZM28.3452 10.2072H28.4105V11.1146H28.3452C28.2147 11.1146 28.1494 10.9623 28.1494 10.6576C28.1494 10.3574 28.2147 10.2072 28.3452 10.2072ZM28.868 10.2072H29.3902V11.1146H28.868V10.2072ZM28.868 10.2072H28.9332V11.1146H28.868C28.7374 11.1146 28.6721 10.9623 28.6721 10.6576C28.6721 10.3574 28.7374 10.2072 28.868 10.2072ZM29.3907 10.2072H29.9129V11.1146H29.3907V10.2072ZM29.3907 10.2072H29.456V11.1146H29.3907C29.2601 11.1146 29.1949 10.9623 29.1949 10.6576C29.1949 10.3574 29.2601 10.2072 29.3907 10.2072ZM29.9134 10.2072H30.4356V11.1146H29.9134V10.2072ZM29.9134 10.2072H29.9787V11.1146H29.9134C29.7829 11.1146 29.7176 10.9623 29.7176 10.6576C29.7176 10.3574 29.7829 10.2072 29.9134 10.2072ZM30.4362 10.2072H30.9584V11.1146H30.4362V10.2072ZM30.4362 10.2072H30.5014V11.1146H30.4362C30.3056 11.1146 30.2403 10.9623 30.2403 10.6576C30.2403 10.3574 30.3056 10.2072 30.4362 10.2072ZM30.9589 10.2072H31.4811V11.1146H30.9589V10.2072ZM30.9589 10.2072H31.0242V11.1146H30.9589C30.8283 11.1146 30.7631 10.9623 30.7631 10.6576C30.7631 10.3574 30.8283 10.2072 30.9589 10.2072ZM34.0079 11.1146V10.2072H37.0694C37.0781 9.97658 37.0563 9.77422 37.0041 9.60015C36.9562 9.42172 36.8714 9.28029 36.7495 9.17584C36.632 9.0714 36.4667 9.01918 36.2534 9.01918C36.0054 9.01918 35.7551 9.10186 35.5027 9.26723C35.2503 9.42825 35.0023 9.6589 34.7586 9.95918C34.5149 10.2595 34.2799 10.6207 34.0536 11.0428L33.5118 10.2333C33.8207 9.76334 34.1275 9.37168 34.4322 9.05834C34.7412 8.74501 35.0523 8.51001 35.3656 8.35334C35.679 8.19668 35.9967 8.11834 36.3187 8.11834C36.706 8.11834 37.0237 8.20103 37.2718 8.3664C37.5198 8.52742 37.7048 8.74936 37.8266 9.03223C37.9485 9.31075 38.0094 9.63061 38.0094 9.99182C38.0137 10.3487 37.9594 10.7229 37.8462 11.1146H34.0079ZM31.4816 11.1146V10.2072H32.3498C32.3759 10.1376 32.3999 10.0375 32.4216 9.90695C32.4434 9.7764 32.4608 9.64149 32.4738 9.50223C32.4912 9.35862 32.5 9.23459 32.5 9.13015L33.5836 8.75154C33.5096 9.06487 33.4356 9.35427 33.3616 9.61973C33.2876 9.88519 33.1984 10.1398 33.094 10.3835C32.9939 10.6228 32.8655 10.8665 32.7088 11.1146H31.4816ZM34.0405 11.1146C33.762 11.1146 33.5226 11.0885 33.3225 11.0363C33.1266 10.9797 32.9591 10.9144 32.8198 10.8404C32.6849 10.7621 32.5652 10.6881 32.4608 10.6185L32.9504 10.0375C33.02 10.0767 33.0983 10.1093 33.1854 10.1354C33.2724 10.1572 33.3681 10.1746 33.4726 10.1876C33.5814 10.2007 33.6924 10.2072 33.8055 10.2072H34.0601V11.1146H34.0405ZM31.4816 10.2072H31.5469V11.1146H31.4816C31.3511 11.1146 31.2858 10.9623 31.2858 10.6576C31.2858 10.3574 31.3511 10.2072 31.4816 10.2072ZM39.0635 11.1146L38.8807 10.2203C39.0287 10.1028 39.181 9.97658 39.3376 9.84168C39.4943 9.70677 39.6445 9.56751 39.7881 9.4239C39.9317 9.27594 40.0557 9.12797 40.1601 8.98001C40.2689 8.83205 40.3429 8.68408 40.3821 8.53612C40.4256 8.39251 40.4583 8.24019 40.48 8.07918C40.5061 7.91816 40.5214 7.75061 40.5257 7.57654C40.5344 7.39811 40.5388 7.21533 40.5388 7.0282C40.5388 6.83672 40.5322 6.64306 40.5192 6.44723L41.4461 6.2514C41.4809 6.63871 41.4831 7.01297 41.4526 7.37418C41.4265 7.73103 41.3678 8.06612 41.2764 8.37945C41.185 8.68844 41.061 8.97566 40.9043 9.24112C40.7825 9.37603 40.6606 9.50658 40.5388 9.63279C40.4169 9.75464 40.3016 9.86561 40.1928 9.9657C40.0883 10.0614 39.9948 10.142 39.9121 10.2072H41.0088C40.9565 10.0767 40.876 9.94394 40.7672 9.80904C40.6628 9.67413 40.5344 9.53487 40.3821 9.39126L40.8978 8.81681C41.1371 9.09969 41.3177 9.37603 41.4396 9.64584C41.5658 9.91566 41.6289 10.1746 41.6289 10.4226C41.6289 10.5445 41.6137 10.6642 41.5832 10.7817C41.5527 10.8948 41.5049 11.0058 41.4396 11.1146H39.0635ZM40.1863 9.21501C39.9687 9.01918 39.7141 8.81899 39.4225 8.61445C39.1309 8.40992 38.8111 8.19668 38.4629 7.97473L38.6653 6.96945C39.057 7.22186 39.4116 7.47209 39.7293 7.72015C40.047 7.9682 40.3255 8.21408 40.5649 8.45779L40.1863 9.21501ZM42.349 6.28404H43.276V11.1146H42.349V6.28404ZM45.8922 11.1146V10.3508H46.2512C46.2207 10.2986 46.1924 10.2355 46.1663 10.1615C46.1446 10.0832 46.1337 9.99617 46.1337 9.90043C46.1337 9.68719 46.1794 9.50223 46.2708 9.34557C46.3665 9.1889 46.4949 9.06922 46.6559 8.98654C46.8169 8.8995 46.9997 8.85598 47.2042 8.85598C47.3391 8.85598 47.474 8.87121 47.609 8.90168C47.7482 8.92779 47.8722 8.96913 47.981 9.0257L47.6873 9.69154C47.609 9.65672 47.535 9.63496 47.4653 9.62626C47.4001 9.61756 47.3457 9.6132 47.3022 9.6132C47.1759 9.6132 47.0802 9.64802 47.0149 9.71765C46.9497 9.78728 46.917 9.87214 46.917 9.97223C46.917 10.0462 46.9366 10.1137 46.9758 10.1746C47.0149 10.2312 47.0759 10.2747 47.1585 10.3051C47.2456 10.3356 47.3587 10.3508 47.498 10.3508H48.0659V11.1146H45.8922ZM50.0271 11.1146C49.8051 11.1146 49.618 11.0907 49.4657 11.0428C49.3134 10.9949 49.1894 10.9231 49.0936 10.8274C48.9979 10.7316 48.9282 10.6141 48.8847 10.4749C48.8412 10.3313 48.8195 10.1659 48.8195 9.97876V6.28404H49.7464V9.67195C49.7464 9.76769 49.7529 9.85038 49.766 9.92001C49.779 9.98964 49.803 10.0462 49.8378 10.0897C49.877 10.1333 49.9292 10.1637 49.9945 10.1811C50.0641 10.1985 50.1533 10.2072 50.2621 10.2072H50.5167V11.1146H50.0271ZM50.5167 10.2072H51.0389V11.1146H50.5167V10.2072ZM50.5167 10.2072H50.582V11.1146H50.5167C50.3862 11.1146 50.3209 10.9623 50.3209 10.6576C50.3209 10.3574 50.3862 10.2072 50.5167 10.2072ZM51.0395 10.2072H51.5617V11.1146H51.0395V10.2072ZM51.0395 10.2072H51.1047V11.1146H51.0395C50.9089 11.1146 50.8436 10.9623 50.8436 10.6576C50.8436 10.3574 50.9089 10.2072 51.0395 10.2072ZM51.5622 10.2072H52.0844V11.1146H51.5622V10.2072ZM51.5622 10.2072H51.6275V11.1146H51.5622C51.4316 11.1146 51.3664 10.9623 51.3664 10.6576C51.3664 10.3574 51.4316 10.2072 51.5622 10.2072ZM52.0849 10.2072H52.6071V11.1146H52.0849V10.2072ZM52.0849 10.2072H52.1502V11.1146H52.0849C51.9544 11.1146 51.8891 10.9623 51.8891 10.6576C51.8891 10.3574 51.9544 10.2072 52.0849 10.2072ZM52.6077 10.2072H53.1299V11.1146H52.6077V10.2072ZM52.6077 10.2072H52.6729V11.1146H52.6077C52.4771 11.1146 52.4118 10.9623 52.4118 10.6576C52.4118 10.3574 52.4771 10.2072 52.6077 10.2072ZM53.1304 10.2072H53.6526V11.1146H53.1304V10.2072ZM53.1304 10.2072H53.1957V11.1146H53.1304C52.9998 11.1146 52.9346 10.9623 52.9346 10.6576C52.9346 10.3574 52.9998 10.2072 53.1304 10.2072ZM53.6531 10.2072H54.1753V11.1146H53.6531V10.2072ZM53.6531 10.2072H53.7184V11.1146H53.6531C53.5226 11.1146 53.4573 10.9623 53.4573 10.6576C53.4573 10.3574 53.5226 10.2072 53.6531 10.2072ZM54.1758 10.2072H54.6981V11.1146H54.1758V10.2072ZM54.1758 10.2072H54.2411V11.1146H54.1758C54.0453 11.1146 53.98 10.9623 53.98 10.6576C53.98 10.3574 54.0453 10.2072 54.1758 10.2072ZM54.6986 10.2072H55.2208V11.1146H54.6986V10.2072ZM54.6986 10.2072H54.7639V11.1146H54.6986C54.568 11.1146 54.5028 10.9623 54.5028 10.6576C54.5028 10.3574 54.568 10.2072 54.6986 10.2072ZM55.2213 10.2072H55.7435V11.1146H55.2213V10.2072ZM55.2213 10.2072H55.2866V11.1146H55.2213C55.0908 11.1146 55.0255 10.9623 55.0255 10.6576C55.0255 10.3574 55.0908 10.2072 55.2213 10.2072ZM55.744 10.2072H56.2663V11.1146H55.744V10.2072ZM55.744 10.2072H55.8093V11.1146H55.744C55.6135 11.1146 55.5482 10.9623 55.5482 10.6576C55.5482 10.3574 55.6135 10.2072 55.744 10.2072ZM56.2668 10.2072H56.789V11.1146H56.2668V10.2072ZM56.2668 10.2072H56.3321V11.1146H56.2668C56.1362 11.1146 56.0709 10.9623 56.0709 10.6576C56.0709 10.3574 56.1362 10.2072 56.2668 10.2072ZM56.7895 10.2072H57.3117V11.1146H56.7895V10.2072ZM56.7895 10.2072H56.8548V11.1146H56.7895C56.659 11.1146 56.5937 10.9623 56.5937 10.6576C56.5937 10.3574 56.659 10.2072 56.7895 10.2072ZM57.3122 10.2072H57.8345V11.1146H57.3122V10.2072ZM57.3122 10.2072H57.3775V11.1146H57.3122C57.1817 11.1146 57.1164 10.9623 57.1164 10.6576C57.1164 10.3574 57.1817 10.2072 57.3122 10.2072ZM58.2528 7.69404L60.1262 6.14043L60.7268 6.85848L58.8664 8.39904L59.0034 8.03348C59.5213 8.18144 59.9195 8.40121 60.198 8.69279C60.4809 8.98001 60.6615 9.32816 60.7398 9.73723C60.8225 10.1463 60.8225 10.6054 60.7398 11.1146H57.835V10.2072H59.9434C59.9043 9.98094 59.8194 9.76987 59.6889 9.57404C59.5627 9.3782 59.3821 9.20848 59.1471 9.06487C58.9164 8.91691 58.6183 8.80811 58.2528 8.73848V7.69404ZM57.835 10.2072H57.9003V11.1146H57.835C57.7044 11.1146 57.6391 10.9623 57.6391 10.6576C57.6391 10.3574 57.7044 10.2072 57.835 10.2072ZM61.401 11.1146L61.2378 10.2072H63.0917C63.2919 10.2072 63.4355 10.1876 63.5225 10.1485C63.6095 10.1093 63.6683 10.0614 63.6988 10.0049L63.9599 10.7686C63.9381 10.8513 63.8794 10.9188 63.7836 10.971C63.6879 11.0232 63.5769 11.0602 63.4507 11.082C63.3289 11.1037 63.2092 11.1146 63.0917 11.1146H61.401ZM62.2496 8.71237L62.9546 7.80501L64.1035 9.84168C64.1601 9.94177 64.2145 10.0179 64.2667 10.0701C64.3233 10.1224 64.3842 10.1594 64.4495 10.1811C64.5147 10.1985 64.5931 10.2072 64.6845 10.2072H64.7497V11.1146H64.6845C64.5452 11.1146 64.4146 11.1037 64.2928 11.082C64.1753 11.0602 64.0621 11.0232 63.9533 10.971C63.8489 10.9144 63.7445 10.8339 63.64 10.7295C63.5399 10.625 63.4355 10.4901 63.3267 10.3247L62.2496 8.71237ZM62.7065 7.4982L62.0733 6.85848L62.6804 6.21876L63.3136 6.85848L62.7065 7.4982ZM64.7516 10.2072H65.2738V11.1146H64.7516V10.2072ZM64.7516 10.2072H64.8169V11.1146H64.7516C64.6211 11.1146 64.5558 10.9623 64.5558 10.6576C64.5558 10.3574 64.6211 10.2072 64.7516 10.2072ZM65.2744 10.2072H65.7966V11.1146H65.2744V10.2072ZM65.2744 10.2072H65.3396V11.1146H65.2744C65.1438 11.1146 65.0785 10.9623 65.0785 10.6576C65.0785 10.3574 65.1438 10.2072 65.2744 10.2072ZM65.7971 10.2072H66.3193V11.1146H65.7971V10.2072ZM65.7971 10.2072H65.8624V11.1146H65.7971C65.6665 11.1146 65.6012 10.9623 65.6012 10.6576C65.6012 10.3574 65.6665 10.2072 65.7971 10.2072ZM66.3198 10.2072H66.842V11.1146H66.3198V10.2072ZM66.3198 10.2072H66.3851V11.1146H66.3198C66.1893 11.1146 66.124 10.9623 66.124 10.6576C66.124 10.3574 66.1893 10.2072 66.3198 10.2072ZM66.8426 10.2072H67.3648V11.1146H66.8426V10.2072ZM66.8426 10.2072H66.9078V11.1146H66.8426C66.712 11.1146 66.6467 10.9623 66.6467 10.6576C66.6467 10.3574 66.712 10.2072 66.8426 10.2072ZM67.3653 10.2072H67.8875V11.1146H67.3653V10.2072ZM67.3653 10.2072H67.4306V11.1146H67.3653C67.2347 11.1146 67.1694 10.9623 67.1694 10.6576C67.1694 10.3574 67.2347 10.2072 67.3653 10.2072ZM67.888 10.2072H68.4102V11.1146H67.888V10.2072ZM67.888 10.2072H67.9533V11.1146H67.888C67.7575 11.1146 67.6922 10.9623 67.6922 10.6576C67.6922 10.3574 67.7575 10.2072 67.888 10.2072ZM68.4107 10.2072H68.933V11.1146H68.4107V10.2072ZM68.4107 10.2072H68.476V11.1146H68.4107C68.2802 11.1146 68.2149 10.9623 68.2149 10.6576C68.2149 10.3574 68.2802 10.2072 68.4107 10.2072ZM68.9335 10.2072H69.4557V11.1146H68.9335V10.2072ZM68.9335 10.2072H68.9988V11.1146H68.9335C68.8029 11.1146 68.7376 10.9623 68.7376 10.6576C68.7376 10.3574 68.8029 10.2072 68.9335 10.2072ZM69.4562 10.2072H69.9784V11.1146H69.4562V10.2072ZM69.4562 10.2072H69.5215V11.1146H69.4562C69.3257 11.1146 69.2604 10.9623 69.2604 10.6576C69.2604 10.3574 69.3257 10.2072 69.4562 10.2072ZM69.9789 10.2072H70.5012V11.1146H69.9789V10.2072ZM69.9789 10.2072H70.0442V11.1146H69.9789C69.8484 11.1146 69.7831 10.9623 69.7831 10.6576C69.7831 10.3574 69.8484 10.2072 69.9789 10.2072ZM70.5017 10.2072H71.0239V11.1146H70.5017V10.2072ZM70.5017 10.2072H70.567V11.1146H70.5017C70.3711 11.1146 70.3058 10.9623 70.3058 10.6576C70.3058 10.3574 70.3711 10.2072 70.5017 10.2072ZM72.4475 10.2072H73.2308V11.1146H72.4475V10.2072ZM71.0244 11.1146V10.2072H71.7164V6.28404H72.6433V11.1146H71.0244ZM71.0244 10.2072H71.0897V11.1146H71.0244C70.8939 11.1146 70.8286 10.9623 70.8286 10.6576C70.8286 10.3574 70.8939 10.2072 71.0244 10.2072ZM73.2301 11.1146V10.2072H73.922V6.28404H74.849V11.1146H73.2301ZM73.2301 10.2072H73.2954V11.1146H73.2301C73.0995 11.1146 73.0343 10.9623 73.0343 10.6576C73.0343 10.3574 73.0995 10.2072 73.2301 10.2072ZM79.6466 12.616C79.3202 12.616 79.0243 12.5812 78.7588 12.5115C78.4933 12.4463 78.2627 12.344 78.0669 12.2047C77.8754 12.0698 77.7274 11.8936 77.623 11.676C77.5229 11.4627 77.4728 11.206 77.4728 10.9057C77.4728 10.7447 77.4968 10.5467 77.5446 10.3117C77.5925 10.0767 77.6687 9.8395 77.7731 9.60015L78.5695 9.8482C78.5086 10.0136 78.4629 10.1681 78.4324 10.3117C78.4063 10.4509 78.3932 10.5837 78.3932 10.7099C78.3932 10.8709 78.4194 11.0123 78.4716 11.1342C78.5282 11.2604 78.613 11.367 78.7262 11.454C78.8437 11.5411 78.9873 11.6042 79.157 11.6433C79.3311 11.6869 79.5334 11.7086 79.7641 11.7086C80.0513 11.7086 80.295 11.689 80.4952 11.6499C80.6954 11.6107 80.8564 11.5585 80.9782 11.4932C81.1045 11.4279 81.1958 11.3605 81.2524 11.2908C81.3133 11.2212 81.3438 11.1603 81.3438 11.1081C81.3438 11.0689 81.322 11.0276 81.2785 10.984C81.2394 10.9405 81.161 10.8883 81.0435 10.8274C80.926 10.7621 80.752 10.6772 80.5213 10.5728C80.3516 10.4945 80.2058 10.4096 80.0839 10.3182C79.9621 10.2268 79.8685 10.1224 79.8032 10.0049C79.738 9.88302 79.7053 9.74594 79.7053 9.59362C79.7053 9.28899 79.7728 9.0257 79.9077 8.80376C80.047 8.57746 80.2363 8.40121 80.4756 8.27501C80.7193 8.14881 80.9978 8.0857 81.3112 8.0857C81.4504 8.0857 81.5853 8.09876 81.7159 8.12487C81.8508 8.15098 81.9792 8.18797 82.101 8.23584C82.2229 8.28371 82.3317 8.34246 82.4274 8.41209L82.0096 9.16932C81.9095 9.10839 81.8029 9.06269 81.6898 9.03223C81.5766 9.00177 81.4504 8.98654 81.3112 8.98654C81.1023 8.98654 80.9413 9.03441 80.8281 9.13015C80.715 9.22154 80.6584 9.32381 80.6584 9.43695C80.6584 9.51094 80.6823 9.58057 80.7302 9.64584C80.7824 9.70677 80.8695 9.77205 80.9913 9.84168C81.1175 9.90695 81.2872 9.98746 81.5005 10.0832C81.6876 10.1659 81.8312 10.2442 81.9313 10.3182C82.0314 10.3878 82.101 10.4662 82.1402 10.5532C82.1837 10.6402 82.2055 10.7403 82.2055 10.8535C82.2055 10.9797 82.1815 11.1189 82.1337 11.2713C82.0858 11.4279 82.0053 11.5846 81.8921 11.7413C81.779 11.8979 81.6245 12.0415 81.4287 12.1721C81.2372 12.307 80.9935 12.4136 80.6976 12.492C80.406 12.5746 80.0557 12.616 79.6466 12.616ZM83.3312 12.727C83.1397 12.727 82.9308 12.69 82.7045 12.616C82.4826 12.5464 82.2715 12.4245 82.0714 12.2504L82.3651 11.6629C82.5131 11.7195 82.6545 11.7608 82.7894 11.787C82.9287 11.8131 83.0549 11.8261 83.168 11.8261C83.4204 11.8261 83.638 11.7761 83.8208 11.676C84.0036 11.5802 84.145 11.4432 84.2451 11.2647C84.3495 11.0863 84.4018 10.8752 84.4018 10.6315C84.4018 10.5184 84.3757 10.4031 84.3234 10.2856C84.2712 10.1637 84.182 10.0179 84.0558 9.8482C83.9296 9.67413 83.7555 9.45436 83.5336 9.1889L84.2516 8.30112C84.4823 8.61445 84.6694 8.90168 84.813 9.16279C84.9566 9.4239 85.0611 9.66978 85.1264 9.90043C85.1916 10.1267 85.2243 10.3552 85.2243 10.5858C85.2243 10.7556 85.2025 10.9362 85.159 11.1276C85.1198 11.3235 85.0545 11.515 84.9632 11.7021C84.8718 11.8892 84.7521 12.0589 84.6041 12.2113C84.4605 12.3679 84.2821 12.492 84.0689 12.5833C83.8556 12.6791 83.6097 12.727 83.3312 12.727ZM86.8903 12.616C86.677 12.616 86.4551 12.579 86.2244 12.505C85.9938 12.4354 85.7762 12.3114 85.5717 12.1329L85.8719 11.5324C86.0112 11.5759 86.1526 11.6107 86.2962 11.6368C86.4442 11.6673 86.5835 11.6825 86.714 11.6825C86.9838 11.6825 87.208 11.6303 87.3864 11.5258C87.5692 11.4258 87.7062 11.2887 87.7976 11.1146H87.4125C87.1383 11.1146 86.9055 11.0885 86.714 11.0363C86.5269 10.9797 86.3724 10.9014 86.2506 10.8013C86.1331 10.7012 86.0482 10.5837 85.996 10.4488C85.9437 10.3139 85.9176 10.1659 85.9176 10.0049C85.9176 9.76552 85.9546 9.54575 86.0286 9.34557C86.1069 9.14538 86.2092 8.97131 86.3354 8.82334C86.466 8.67538 86.6139 8.56223 86.7793 8.4839C86.949 8.40121 87.1253 8.35987 87.3081 8.35987C87.5779 8.35987 87.8085 8.42515 88 8.5557C88.1915 8.68191 88.346 8.86033 88.4635 9.09098C88.581 9.31728 88.6615 9.57839 88.705 9.87432C88.7137 9.92219 88.7224 9.97441 88.7311 10.031C88.7398 10.0876 88.7442 10.1463 88.7442 10.2072H89.1097V11.1146H88.6593C88.6114 11.293 88.5396 11.4693 88.4439 11.6433C88.3525 11.8174 88.2328 11.9784 88.0849 12.1264C87.9412 12.2744 87.7693 12.3919 87.5692 12.4789C87.3733 12.5703 87.147 12.616 86.8903 12.616ZM87.3929 10.2072H87.9021C87.8977 10.1724 87.8934 10.1376 87.889 10.1028C87.8847 10.068 87.8781 10.0353 87.8694 10.0049C87.8433 9.86126 87.7998 9.73288 87.7389 9.61973C87.678 9.50658 87.6062 9.41955 87.5235 9.35862C87.4408 9.29334 87.3494 9.2607 87.2493 9.2607C87.1623 9.2607 87.0818 9.28682 87.0078 9.33904C86.9381 9.39126 86.8794 9.46307 86.8315 9.55445C86.788 9.64149 86.7662 9.73941 86.7662 9.8482C86.7662 9.91783 86.7837 9.98094 86.8185 10.0375C86.8576 10.0897 86.9229 10.1311 87.0143 10.1615C87.1057 10.192 87.2319 10.2072 87.3929 10.2072ZM89.1097 10.2072H89.6319V11.1146H89.1097V10.2072ZM89.1097 10.2072H89.175V11.1146H89.1097C88.9791 11.1146 88.9138 10.9623 88.9138 10.6576C88.9138 10.3574 88.9791 10.2072 89.1097 10.2072ZM89.6324 10.2072H90.1546V11.1146H89.6324V10.2072ZM89.6324 10.2072H89.6977V11.1146H89.6324C89.5019 11.1146 89.4366 10.9623 89.4366 10.6576C89.4366 10.3574 89.5019 10.2072 89.6324 10.2072ZM90.1551 10.2072H90.6774V11.1146H90.1551V10.2072ZM90.1551 10.2072H90.2204V11.1146H90.1551C90.0246 11.1146 89.9593 10.9623 89.9593 10.6576C89.9593 10.3574 90.0246 10.2072 90.1551 10.2072ZM90.6779 10.2072H91.2001V11.1146H90.6779V10.2072ZM90.6779 10.2072H90.7431V11.1146H90.6779C90.5473 11.1146 90.482 10.9623 90.482 10.6576C90.482 10.3574 90.5473 10.2072 90.6779 10.2072ZM91.2006 10.2072H91.7228V11.1146H91.2006V10.2072ZM91.2006 10.2072H91.2659V11.1146H91.2006C91.07 11.1146 91.0048 10.9623 91.0048 10.6576C91.0048 10.3574 91.07 10.2072 91.2006 10.2072ZM91.7233 10.2072H92.2456V11.1146H91.7233V10.2072ZM91.7233 10.2072H91.7886V11.1146H91.7233C91.5928 11.1146 91.5275 10.9623 91.5275 10.6576C91.5275 10.3574 91.5928 10.2072 91.7233 10.2072ZM92.2461 10.2072H92.7683V11.1146H92.2461V10.2072ZM92.2461 10.2072H92.3113V11.1146H92.2461C92.1155 11.1146 92.0502 10.9623 92.0502 10.6576C92.0502 10.3574 92.1155 10.2072 92.2461 10.2072ZM92.7688 10.2072H93.291V11.1146H92.7688V10.2072ZM92.7688 10.2072H92.8341V11.1146H92.7688C92.6382 11.1146 92.573 10.9623 92.573 10.6576C92.573 10.3574 92.6382 10.2072 92.7688 10.2072ZM97.6782 11.1146C97.3997 11.1146 97.1603 11.0885 96.9601 11.0363C96.7643 10.9797 96.5968 10.9144 96.4575 10.8404C96.3182 10.7621 96.1964 10.6881 96.092 10.6185L96.6011 10.0506C96.6969 10.0984 96.8165 10.1376 96.9601 10.1681C97.1081 10.1942 97.2691 10.2072 97.4432 10.2072H98.2526C98.2178 9.98094 98.1526 9.76552 98.0568 9.56098C97.9654 9.35209 97.8523 9.14973 97.7174 8.9539L98.5399 8.11834C98.64 8.30982 98.7314 8.51219 98.814 8.72543C98.8967 8.93431 98.9576 9.16061 98.9968 9.40432C99.036 9.64367 99.0425 9.90478 99.0164 10.1876C98.9903 10.4705 98.9185 10.7795 98.801 11.1146H97.6782ZM93.2915 11.1146V10.2072H93.9965C94.0226 10.1202 94.0466 10.0223 94.0683 9.91348C94.0901 9.80033 94.1053 9.68283 94.114 9.56098C94.1271 9.43478 94.1314 9.3064 94.1271 9.17584L95.2107 8.80376C95.1541 9.08228 95.0976 9.32381 95.041 9.52834C94.9844 9.73288 94.9213 9.92001 94.8517 10.0897C94.782 10.2551 94.7015 10.4183 94.6101 10.5793C94.5188 10.7403 94.4078 10.9188 94.2772 11.1146H93.2915ZM95.3935 11.1146C95.0976 11.1146 94.843 11.0885 94.6297 11.0363C94.4208 10.9797 94.2489 10.9166 94.114 10.847C93.9791 10.773 93.8769 10.7077 93.8072 10.6511L94.1793 9.99182C94.2968 10.0614 94.4361 10.1158 94.5971 10.155C94.7581 10.1898 94.9344 10.2072 95.1258 10.2072H95.8243C95.8504 10.1376 95.8744 10.0462 95.8961 9.93307C95.9179 9.81992 95.9331 9.69807 95.9418 9.56751C95.9549 9.43695 95.9592 9.3064 95.9549 9.17584L97.045 8.80376C96.9884 9.08228 96.9319 9.32381 96.8753 9.52834C96.8187 9.73288 96.7534 9.92001 96.6795 10.0897C96.6098 10.2551 96.5293 10.4183 96.4379 10.5793C96.3465 10.7403 96.2356 10.9188 96.105 11.1146H95.3935ZM93.2915 10.2072H93.3568V11.1146H93.2915C93.161 11.1146 93.0957 10.9623 93.0957 10.6576C93.0957 10.3574 93.161 10.2072 93.2915 10.2072ZM96.562 7.40029L95.9157 6.76056L96.5228 6.11431L97.156 6.76056L96.562 7.40029ZM96.0071 8.42515L95.3739 7.7789L95.9679 7.13918L96.6011 7.7789L96.0071 8.42515ZM97.1429 8.42515L96.5097 7.7789L97.1168 7.13918L97.75 7.7789L97.1429 8.42515Z" fill="white"/>
<path d="M4.56513 20.5929C4.56513 20.8671 4.49767 21.1064 4.36277 21.311C4.22786 21.5155 4.03202 21.6743 3.77527 21.7875C3.52286 21.8963 3.21388 21.9507 2.84832 21.9507C2.6873 21.9507 2.52846 21.9398 2.37179 21.918C2.21948 21.8963 2.07151 21.8658 1.9279 21.8267C1.78864 21.7831 1.65591 21.7309 1.52971 21.67V20.7496C1.75165 20.8453 1.98013 20.9345 2.21513 21.0172C2.45448 21.0955 2.69165 21.1347 2.92665 21.1347C3.08767 21.1347 3.21605 21.113 3.31179 21.0694C3.41189 21.0259 3.48369 20.9672 3.52721 20.8932C3.57508 20.8192 3.59902 20.7343 3.59902 20.6386C3.59902 20.5211 3.55767 20.421 3.47499 20.3383C3.39665 20.2556 3.29003 20.1795 3.15513 20.1099C3.02022 20.0359 2.86573 19.9575 2.69165 19.8749C2.58286 19.8226 2.46536 19.7617 2.33915 19.6921C2.21295 19.6181 2.0911 19.5289 1.9736 19.4244C1.86045 19.3156 1.76689 19.1851 1.6929 19.0328C1.61892 18.8805 1.58193 18.6977 1.58193 18.4844C1.58193 18.2059 1.64503 17.9687 1.77124 17.7729C1.90179 17.5727 2.08457 17.4204 2.31957 17.316C2.55892 17.2115 2.83962 17.1593 3.16165 17.1593C3.40536 17.1593 3.63601 17.1876 3.8536 17.2442C4.07554 17.3007 4.30619 17.3812 4.54554 17.4857L4.22568 18.256C4.01244 18.1689 3.82096 18.1015 3.65124 18.0536C3.48152 18.0057 3.30744 17.9818 3.12902 17.9818C3.00716 17.9818 2.90272 18.0014 2.81568 18.0405C2.72864 18.0797 2.66119 18.1341 2.61332 18.2037C2.5698 18.2734 2.54804 18.3561 2.54804 18.4518C2.54804 18.5606 2.58068 18.6542 2.64596 18.7325C2.71124 18.8065 2.80915 18.8783 2.93971 18.9479C3.07027 19.0175 3.23346 19.1002 3.42929 19.196C3.66864 19.3091 3.87101 19.4266 4.03638 19.5485C4.2061 19.6703 4.33665 19.8139 4.42804 19.9793C4.51943 20.1447 4.56513 20.3492 4.56513 20.5929ZM6.0455 17.9361C6.0455 18.1102 6.03898 18.2777 6.02592 18.4387C6.01722 18.5998 6.00851 18.7129 5.99981 18.7782H6.05203C6.13037 18.6563 6.22175 18.5584 6.3262 18.4844C6.43064 18.4061 6.54597 18.3495 6.67217 18.3147C6.80273 18.2755 6.93981 18.256 7.08342 18.256C7.34018 18.256 7.5643 18.3017 7.75578 18.393C7.94726 18.4844 8.09523 18.6259 8.19967 18.8174C8.30847 19.0088 8.36287 19.2569 8.36287 19.5615V21.8854H7.39023V19.803C7.39023 19.5463 7.34236 19.3548 7.24662 19.2286C7.15523 19.098 7.01162 19.0328 6.81578 19.0328C6.61995 19.0328 6.46546 19.0785 6.35231 19.1699C6.24351 19.2612 6.16518 19.394 6.11731 19.568C6.06944 19.7421 6.0455 19.9554 6.0455 20.2078V21.8854H5.07287V16.9243H6.0455V17.9361ZM11.7588 20.6386C11.7414 20.5646 11.7153 20.4558 11.6805 20.3122C11.65 20.1643 11.6152 20.0076 11.576 19.8422C11.5368 19.6725 11.4999 19.518 11.465 19.3787C11.4302 19.2351 11.4063 19.1307 11.3932 19.0654H11.3671C11.3541 19.1307 11.3301 19.2351 11.2953 19.3787C11.2649 19.518 11.23 19.6725 11.1909 19.8422C11.1517 20.0076 11.1147 20.1643 11.0799 20.3122C11.0451 20.4602 11.019 20.5733 11.0016 20.6517L10.7143 21.8854H9.6699L8.6581 18.3212H9.62421L10.0355 19.901C10.0659 20.0098 10.092 20.1403 10.1138 20.2926C10.1399 20.4449 10.1638 20.5929 10.1856 20.7365C10.2074 20.8758 10.2226 20.9868 10.2313 21.0694H10.2574C10.2618 21.0085 10.2705 20.928 10.2835 20.8279C10.2966 20.7235 10.3118 20.6168 10.3292 20.508C10.351 20.3993 10.3684 20.3013 10.3814 20.2143C10.3988 20.1229 10.4119 20.062 10.4206 20.0315L10.858 18.3212H11.9285L12.3463 20.0315C12.3637 20.0924 12.3833 20.1904 12.405 20.3253C12.4312 20.4602 12.4529 20.5973 12.4703 20.7365C12.4921 20.8758 12.503 20.9868 12.503 21.0694H12.5291C12.5378 20.9955 12.553 20.8888 12.5748 20.7496C12.5965 20.606 12.6205 20.4558 12.6466 20.2992C12.677 20.1425 12.7075 20.0098 12.738 19.901L13.1623 18.3212H14.1153L13.0905 21.8854H12.033L11.7588 20.6386ZM16.4225 18.256C16.4704 18.256 16.527 18.2581 16.5923 18.2625C16.6575 18.2668 16.7098 18.2734 16.7489 18.2821L16.6771 19.196C16.6467 19.1873 16.601 19.1807 16.54 19.1764C16.4835 19.1677 16.4334 19.1633 16.3899 19.1633C16.2637 19.1633 16.1418 19.1807 16.0243 19.2155C15.9068 19.246 15.8002 19.2961 15.7045 19.3657C15.6131 19.4353 15.5391 19.5289 15.4825 19.6464C15.4303 19.7595 15.4042 19.901 15.4042 20.0707V21.8854H14.4316V18.3212H15.1692L15.3128 18.9218H15.3585C15.4281 18.7999 15.5152 18.689 15.6196 18.5889C15.7241 18.4888 15.8437 18.4083 15.9786 18.3474C16.1179 18.2864 16.2659 18.256 16.4225 18.256ZM18.4695 18.2494C18.9482 18.2494 19.3137 18.3539 19.5661 18.5628C19.8229 18.7673 19.9513 19.0828 19.9513 19.5093V21.8854H19.2724L19.0831 21.4024H19.057C18.9569 21.5286 18.8524 21.633 18.7436 21.7157C18.6392 21.7984 18.5173 21.8571 18.3781 21.8919C18.2432 21.9311 18.0756 21.9507 17.8754 21.9507C17.6665 21.9507 17.4772 21.9115 17.3075 21.8332C17.1421 21.7505 17.0116 21.6265 16.9158 21.4611C16.8201 21.2914 16.7722 21.0781 16.7722 20.8214C16.7722 20.4428 16.905 20.1643 17.1704 19.9858C17.4359 19.803 17.8341 19.703 18.365 19.6855L18.9851 19.666V19.5093C18.9851 19.3222 18.9351 19.1851 18.835 19.098C18.7393 19.011 18.6044 18.9675 18.4303 18.9675C18.2562 18.9675 18.0865 18.9936 17.9211 19.0458C17.7557 19.0937 17.5904 19.1546 17.425 19.2286L17.1051 18.5693C17.2966 18.4692 17.5077 18.3909 17.7383 18.3343C17.9733 18.2777 18.217 18.2494 18.4695 18.2494ZM18.6065 20.2469C18.2932 20.2556 18.0756 20.3122 17.9538 20.4167C17.8319 20.5211 17.771 20.6582 17.771 20.8279C17.771 20.9759 17.8145 21.0825 17.9015 21.1478C17.9886 21.2087 18.1017 21.2392 18.241 21.2392C18.4499 21.2392 18.6261 21.1782 18.7697 21.0564C18.9133 20.9302 18.9851 20.7539 18.9851 20.5276V20.2339L18.6065 20.2469ZM24.2869 21.8854H23.3142V17.2246H25.9841V18.034H24.2869V19.2351H25.8666V20.0446H24.2869V21.8854ZM29.7952 20.0968C29.7952 20.3927 29.7539 20.656 29.6712 20.8867C29.5928 21.1173 29.4775 21.3131 29.3252 21.4742C29.1772 21.6308 28.9966 21.7505 28.7834 21.8332C28.5702 21.9115 28.3286 21.9507 28.0588 21.9507C27.8108 21.9507 27.5801 21.9115 27.3669 21.8332C27.158 21.7505 26.9774 21.6308 26.8251 21.4742C26.6727 21.3131 26.5531 21.1173 26.466 20.8867C26.3833 20.656 26.342 20.3927 26.342 20.0968C26.342 19.7008 26.4116 19.3679 26.5509 19.098C26.6902 18.8239 26.8903 18.615 27.1514 18.4714C27.4126 18.3278 27.7215 18.256 28.0784 18.256C28.4135 18.256 28.7094 18.3278 28.9662 18.4714C29.2229 18.615 29.4253 18.8239 29.5733 19.098C29.7212 19.3679 29.7952 19.7008 29.7952 20.0968ZM27.3342 20.0968C27.3342 20.3318 27.3582 20.5298 27.406 20.6908C27.4583 20.8475 27.5388 20.9672 27.6476 21.0499C27.7564 21.1282 27.8978 21.1674 28.0719 21.1674C28.2459 21.1674 28.3852 21.1282 28.4896 21.0499C28.5984 20.9672 28.6768 20.8475 28.7246 20.6908C28.7769 20.5298 28.803 20.3318 28.803 20.0968C28.803 19.8618 28.7769 19.666 28.7246 19.5093C28.6768 19.3526 28.5984 19.2351 28.4896 19.1568C28.3808 19.0785 28.2394 19.0393 28.0653 19.0393C27.8086 19.0393 27.6214 19.1285 27.5039 19.3069C27.3908 19.481 27.3342 19.7443 27.3342 20.0968ZM32.3289 18.256C32.3768 18.256 32.4333 18.2581 32.4986 18.2625C32.5639 18.2668 32.6161 18.2734 32.6553 18.2821L32.5835 19.196C32.553 19.1873 32.5073 19.1807 32.4464 19.1764C32.3898 19.1677 32.3398 19.1633 32.2963 19.1633C32.1701 19.1633 32.0482 19.1807 31.9307 19.2155C31.8132 19.246 31.7066 19.2961 31.6108 19.3657C31.5195 19.4353 31.4455 19.5289 31.3889 19.6464C31.3367 19.7595 31.3106 19.901 31.3106 20.0707V21.8854H30.3379V18.3212H31.0756L31.2192 18.9218H31.2649C31.3345 18.7999 31.4215 18.689 31.526 18.5889C31.6304 18.4888 31.7501 18.4083 31.885 18.3474C32.0243 18.2864 32.1722 18.256 32.3289 18.256ZM38.5222 21.8854L38.1828 20.7757H36.4856L36.1461 21.8854H35.0821L36.7271 17.205H37.9347L39.5863 21.8854H38.5222ZM37.6083 18.863C37.5866 18.7891 37.5583 18.6955 37.5235 18.5824C37.4887 18.4692 37.4538 18.3539 37.419 18.2364C37.3842 18.1189 37.3559 18.0166 37.3342 17.9296C37.3124 18.0166 37.282 18.1254 37.2428 18.256C37.208 18.3822 37.1732 18.504 37.1383 18.6215C37.1079 18.7347 37.0839 18.8152 37.0665 18.863L36.7336 19.9467H37.9478L37.6083 18.863ZM41.8281 18.256C41.876 18.256 41.9325 18.2581 41.9978 18.2625C42.0631 18.2668 42.1153 18.2734 42.1545 18.2821L42.0827 19.196C42.0522 19.1873 42.0065 19.1807 41.9456 19.1764C41.889 19.1677 41.839 19.1633 41.7955 19.1633C41.6692 19.1633 41.5474 19.1807 41.4299 19.2155C41.3124 19.246 41.2058 19.2961 41.11 19.3657C41.0186 19.4353 40.9447 19.5289 40.8881 19.6464C40.8359 19.7595 40.8098 19.901 40.8098 20.0707V21.8854H39.8371V18.3212H40.5748L40.7184 18.9218H40.7641C40.8337 18.7999 40.9207 18.689 41.0252 18.5889C41.1296 18.4888 41.2493 18.4083 41.3842 18.3474C41.5235 18.2864 41.6714 18.256 41.8281 18.256ZM44.0417 21.1739C44.1505 21.1739 44.2549 21.163 44.355 21.1412C44.4551 21.1195 44.5552 21.0934 44.6553 21.0629V21.7875C44.5508 21.831 44.4203 21.868 44.2636 21.8985C44.1113 21.9333 43.9438 21.9507 43.761 21.9507C43.5477 21.9507 43.3563 21.9159 43.1865 21.8462C43.0212 21.7766 42.8884 21.6569 42.7883 21.4872C42.6926 21.3131 42.6447 21.0738 42.6447 20.7692V19.0524H42.1813V18.6411L42.7165 18.3147L42.9972 17.564H43.6174V18.3212H44.6161V19.0524H43.6174V20.7692C43.6174 20.9041 43.6565 21.0063 43.7349 21.076C43.8132 21.1412 43.9155 21.1739 44.0417 21.1739ZM46.0822 18.3212V21.8854H45.1096V18.3212H46.0822ZM45.5992 16.9243C45.7428 16.9243 45.8668 16.9591 45.9712 17.0287C46.0757 17.094 46.1279 17.218 46.1279 17.4008C46.1279 17.5793 46.0757 17.7033 45.9712 17.7729C45.8668 17.8425 45.7428 17.8774 45.5992 17.8774C45.4512 17.8774 45.325 17.8425 45.2205 17.7729C45.1205 17.7033 45.0704 17.5793 45.0704 17.4008C45.0704 17.218 45.1205 17.094 45.2205 17.0287C45.325 16.9591 45.4512 16.9243 45.5992 16.9243ZM48.8088 19.0524H47.9667V21.8854H46.9941V19.0524H46.4588V18.5824L46.9941 18.3212V18.0601C46.9941 17.7555 47.0441 17.5205 47.1442 17.3551C47.2486 17.1854 47.3944 17.0657 47.5816 16.9961C47.773 16.9265 47.9972 16.8917 48.2539 16.8917C48.4454 16.8917 48.6173 16.9069 48.7696 16.9374C48.9263 16.9678 49.0525 17.0026 49.1482 17.0418L48.9002 17.7533C48.8262 17.7316 48.7457 17.712 48.6586 17.6946C48.5716 17.6728 48.4715 17.6619 48.3584 17.6619C48.2235 17.6619 48.1234 17.7033 48.0581 17.786C47.9972 17.8686 47.9667 17.9731 47.9667 18.0993V18.3212H48.8088V19.0524ZM50.3363 18.3212V21.8854H49.3636V18.3212H50.3363ZM49.8532 16.9243C49.9968 16.9243 50.1209 16.9591 50.2253 17.0287C50.3298 17.094 50.382 17.218 50.382 17.4008C50.382 17.5793 50.3298 17.7033 50.2253 17.7729C50.1209 17.8425 49.9968 17.8774 49.8532 17.8774C49.7053 17.8774 49.5791 17.8425 49.4746 17.7729C49.3745 17.7033 49.3245 17.5793 49.3245 17.4008C49.3245 17.218 49.3745 17.094 49.4746 17.0287C49.5791 16.9591 49.7053 16.9243 49.8532 16.9243ZM52.5452 21.9507C52.1927 21.9507 51.8924 21.8876 51.6443 21.7614C51.3963 21.6308 51.207 21.4306 51.0764 21.1608C50.9459 20.891 50.8806 20.545 50.8806 20.1229C50.8806 19.6877 50.9546 19.333 51.1025 19.0589C51.2505 18.7847 51.455 18.5824 51.7161 18.4518C51.9816 18.3212 52.2862 18.256 52.63 18.256C52.8737 18.256 53.0848 18.2799 53.2632 18.3278C53.446 18.3756 53.6049 18.4322 53.7398 18.4975L53.4525 19.2482C53.3002 19.1873 53.1566 19.1372 53.0217 19.098C52.8911 19.0589 52.7606 19.0393 52.63 19.0393C52.4603 19.0393 52.3189 19.0806 52.2057 19.1633C52.0926 19.2417 52.0077 19.3613 51.9511 19.5224C51.8989 19.679 51.8728 19.877 51.8728 20.1164C51.8728 20.3514 51.9011 20.5472 51.9577 20.7039C52.0186 20.8562 52.1056 20.9715 52.2188 21.0499C52.3319 21.1238 52.469 21.1608 52.63 21.1608C52.8346 21.1608 53.0152 21.1347 53.1718 21.0825C53.3285 21.0259 53.4808 20.9498 53.6288 20.854V21.683C53.4808 21.7788 53.3242 21.8462 53.1588 21.8854C52.9978 21.9289 52.7932 21.9507 52.5452 21.9507ZM55.1607 18.3212V21.8854H54.188V18.3212H55.1607ZM54.6776 16.9243C54.8212 16.9243 54.9453 16.9591 55.0497 17.0287C55.1541 17.094 55.2064 17.218 55.2064 17.4008C55.2064 17.5793 55.1541 17.7033 55.0497 17.7729C54.9453 17.8425 54.8212 17.8774 54.6776 17.8774C54.5297 17.8774 54.4034 17.8425 54.299 17.7729C54.1989 17.7033 54.1489 17.5793 54.1489 17.4008C54.1489 17.218 54.1989 17.094 54.299 17.0287C54.4034 16.9591 54.5297 16.9243 54.6776 16.9243ZM57.3781 18.2494C57.8568 18.2494 58.2223 18.3539 58.4747 18.5628C58.7315 18.7673 58.8599 19.0828 58.8599 19.5093V21.8854H58.181L57.9917 21.4024H57.9656C57.8655 21.5286 57.761 21.633 57.6522 21.7157C57.5478 21.7984 57.4259 21.8571 57.2867 21.8919C57.1518 21.9311 56.9842 21.9507 56.7841 21.9507C56.5752 21.9507 56.3859 21.9115 56.2161 21.8332C56.0508 21.7505 55.9202 21.6265 55.8245 21.4611C55.7287 21.2914 55.6809 21.0781 55.6809 20.8214C55.6809 20.4428 55.8136 20.1643 56.0791 19.9858C56.3445 19.803 56.7427 19.703 57.2736 19.6855L57.8938 19.666V19.5093C57.8938 19.3222 57.8437 19.1851 57.7436 19.098C57.6479 19.011 57.513 18.9675 57.3389 18.9675C57.1648 18.9675 56.9951 18.9936 56.8297 19.0458C56.6644 19.0937 56.499 19.1546 56.3336 19.2286L56.0138 18.5693C56.2053 18.4692 56.4163 18.3909 56.647 18.3343C56.882 18.2777 57.1257 18.2494 57.3781 18.2494ZM57.5152 20.2469C57.2018 20.2556 56.9842 20.3122 56.8624 20.4167C56.7405 20.5211 56.6796 20.6582 56.6796 20.8279C56.6796 20.9759 56.7231 21.0825 56.8102 21.1478C56.8972 21.2087 57.0103 21.2392 57.1496 21.2392C57.3585 21.2392 57.5347 21.1782 57.6784 21.0564C57.822 20.9302 57.8938 20.7539 57.8938 20.5276V20.2339L57.5152 20.2469ZM60.567 21.8854H59.5944V16.9243H60.567V21.8854ZM65.6936 21.8854H63.5721V21.324L64.14 21.0629V18.0471L63.5721 17.786V17.2246H65.6936V17.786L65.1257 18.0471V21.0629L65.6936 21.324V21.8854ZM68.172 18.256C68.555 18.256 68.8618 18.3604 69.0924 18.5693C69.3231 18.7738 69.4384 19.1046 69.4384 19.5615V21.8854H68.4658V19.803C68.4658 19.5463 68.4201 19.3548 68.3287 19.2286C68.2373 19.098 68.0915 19.0328 67.8913 19.0328C67.5954 19.0328 67.393 19.135 67.2842 19.3396C67.1754 19.5398 67.121 19.8292 67.121 20.2078V21.8854H66.1484V18.3212H66.8926L67.0231 18.7782H67.0753C67.1537 18.6563 67.2494 18.5584 67.3626 18.4844C67.4757 18.4061 67.6019 18.3495 67.7412 18.3147C67.8804 18.2755 68.0241 18.256 68.172 18.256ZM71.6789 21.1739C71.7877 21.1739 71.8922 21.163 71.9922 21.1412C72.0923 21.1195 72.1924 21.0934 72.2925 21.0629V21.7875C72.1881 21.831 72.0575 21.868 71.9009 21.8985C71.7485 21.9333 71.581 21.9507 71.3982 21.9507C71.185 21.9507 70.9935 21.9159 70.8238 21.8462C70.6584 21.7766 70.5257 21.6569 70.4256 21.4872C70.3298 21.3131 70.282 21.0738 70.282 20.7692V19.0524H69.8185V18.6411L70.3538 18.3147L70.6345 17.564H71.2546V18.3212H72.2534V19.0524H71.2546V20.7692C71.2546 20.9041 71.2938 21.0063 71.3721 21.076C71.4504 21.1412 71.5527 21.1739 71.6789 21.1739ZM74.2156 18.256C74.5463 18.256 74.8292 18.3191 75.0642 18.4453C75.3035 18.5715 75.4885 18.7543 75.619 18.9936C75.7496 19.233 75.8149 19.5267 75.8149 19.8749V20.3449H73.5171C73.5258 20.619 73.6063 20.8344 73.7586 20.9911C73.9153 21.1478 74.1307 21.2261 74.4049 21.2261C74.6355 21.2261 74.8444 21.2043 75.0315 21.1608C75.2187 21.113 75.4123 21.0412 75.6125 20.9454V21.6961C75.4384 21.7831 75.2535 21.8462 75.0576 21.8854C74.8662 21.9289 74.6333 21.9507 74.3592 21.9507C74.0023 21.9507 73.6868 21.8854 73.4126 21.7549C73.1385 21.6199 72.9231 21.4176 72.7664 21.1478C72.6097 20.878 72.5314 20.5385 72.5314 20.1294C72.5314 19.7117 72.601 19.3657 72.7403 19.0915C72.8839 18.813 73.0819 18.6041 73.3343 18.4649C73.5867 18.3256 73.8805 18.256 74.2156 18.256ZM74.2221 18.9479C74.035 18.9479 73.8783 19.0088 73.7521 19.1307C73.6302 19.2525 73.5584 19.4418 73.5367 19.6986H74.901C74.901 19.555 74.8749 19.4266 74.8226 19.3135C74.7748 19.2003 74.7008 19.1111 74.6007 19.0458C74.5006 18.9805 74.3744 18.9479 74.2221 18.9479ZM77.3151 21.8854H76.3424V16.9243H77.3151V21.8854ZM79.0429 21.8854H78.0703V16.9243H79.0429V21.8854ZM80.7707 18.3212V21.8854H79.7981V18.3212H80.7707ZM80.2877 16.9243C80.4313 16.9243 80.5553 16.9591 80.6598 17.0287C80.7642 17.094 80.8164 17.218 80.8164 17.4008C80.8164 17.5793 80.7642 17.7033 80.6598 17.7729C80.5553 17.8425 80.4313 17.8774 80.2877 17.8774C80.1397 17.8774 80.0135 17.8425 79.9091 17.7729C79.809 17.7033 79.7589 17.5793 79.7589 17.4008C79.7589 17.218 79.809 17.094 79.9091 17.0287C80.0135 16.9591 80.1397 16.9243 80.2877 16.9243ZM82.6813 18.256C82.8989 18.256 83.0948 18.2995 83.2688 18.3865C83.4429 18.4736 83.5909 18.6041 83.7127 18.7782H83.7388L83.8172 18.3212H84.6397V21.8919C84.6397 22.2314 84.5722 22.5164 84.4373 22.7471C84.3067 22.9777 84.1087 23.1518 83.8433 23.2693C83.5778 23.3912 83.2492 23.4521 82.8576 23.4521C82.6052 23.4521 82.3702 23.4368 82.1526 23.4064C81.9393 23.3759 81.7305 23.3215 81.5259 23.2432V22.4664C81.6739 22.5273 81.8218 22.5774 81.9698 22.6165C82.1221 22.66 82.2766 22.6905 82.4333 22.7079C82.5943 22.7297 82.7553 22.7405 82.9163 22.7405C83.1687 22.7405 83.3559 22.6731 83.4777 22.5382C83.6039 22.4033 83.667 22.2009 83.667 21.9311V21.8593C83.667 21.7853 83.6692 21.7092 83.6736 21.6308C83.6823 21.5525 83.6888 21.4829 83.6931 21.4219H83.667C83.5452 21.6091 83.3994 21.744 83.2297 21.8267C83.0599 21.9093 82.8685 21.9507 82.6552 21.9507C82.2331 21.9507 81.9023 21.7897 81.663 21.4676C81.428 21.1412 81.3105 20.6887 81.3105 20.1099C81.3105 19.7182 81.3649 19.3853 81.4737 19.1111C81.5825 18.8326 81.7392 18.6215 81.9437 18.4779C82.1526 18.3299 82.3985 18.256 82.6813 18.256ZM82.9881 19.0458C82.8358 19.0458 82.7074 19.0872 82.603 19.1699C82.5029 19.2482 82.4267 19.3679 82.3745 19.5289C82.3267 19.6855 82.3027 19.8836 82.3027 20.1229C82.3027 20.4798 82.3593 20.7474 82.4724 20.9258C82.5856 21.0999 82.7618 21.1869 83.0012 21.1869C83.1274 21.1869 83.2362 21.1717 83.3276 21.1412C83.419 21.1064 83.493 21.052 83.5495 20.978C83.6105 20.8997 83.6561 20.7996 83.6866 20.6778C83.7171 20.5559 83.7323 20.408 83.7323 20.2339V20.1164C83.7323 19.8596 83.7062 19.6529 83.654 19.4962C83.6017 19.3396 83.5212 19.2264 83.4124 19.1568C83.3036 19.0828 83.1622 19.0458 82.9881 19.0458ZM86.8644 18.256C87.1952 18.256 87.478 18.3191 87.713 18.4453C87.9524 18.5715 88.1373 18.7543 88.2679 18.9936C88.3984 19.233 88.4637 19.5267 88.4637 19.8749V20.3449H86.1659C86.1746 20.619 86.2552 20.8344 86.4075 20.9911C86.5641 21.1478 86.7796 21.2261 87.0537 21.2261C87.2844 21.2261 87.4933 21.2043 87.6804 21.1608C87.8675 21.113 88.0612 21.0412 88.2614 20.9454V21.6961C88.0873 21.7831 87.9023 21.8462 87.7065 21.8854C87.515 21.9289 87.2822 21.9507 87.008 21.9507C86.6512 21.9507 86.3357 21.8854 86.0615 21.7549C85.7873 21.6199 85.5719 21.4176 85.4152 21.1478C85.2586 20.878 85.1802 20.5385 85.1802 20.1294C85.1802 19.7117 85.2499 19.3657 85.3891 19.0915C85.5327 18.813 85.7308 18.6041 85.9832 18.4649C86.2356 18.3256 86.5293 18.256 86.8644 18.256ZM86.8709 18.9479C86.6838 18.9479 86.5271 19.0088 86.4009 19.1307C86.2791 19.2525 86.2073 19.4418 86.1855 19.6986H87.5498C87.5498 19.555 87.5237 19.4266 87.4715 19.3135C87.4236 19.2003 87.3496 19.1111 87.2496 19.0458C87.1495 18.9805 87.0233 18.9479 86.8709 18.9479ZM91.0149 18.256C91.3979 18.256 91.7047 18.3604 91.9353 18.5693C92.166 18.7738 92.2813 19.1046 92.2813 19.5615V21.8854H91.3087V19.803C91.3087 19.5463 91.263 19.3548 91.1716 19.2286C91.0802 19.098 90.9344 19.0328 90.7342 19.0328C90.4383 19.0328 90.2359 19.135 90.1271 19.3396C90.0183 19.5398 89.9639 19.8292 89.9639 20.2078V21.8854H88.9913V18.3212H89.7355L89.866 18.7782H89.9182C89.9966 18.6563 90.0923 18.5584 90.2055 18.4844C90.3186 18.4061 90.4448 18.3495 90.5841 18.3147C90.7233 18.2755 90.8669 18.256 91.0149 18.256ZM94.4696 21.9507C94.1171 21.9507 93.8168 21.8876 93.5687 21.7614C93.3207 21.6308 93.1314 21.4306 93.0008 21.1608C92.8703 20.891 92.805 20.545 92.805 20.1229C92.805 19.6877 92.879 19.333 93.0269 19.0589C93.1749 18.7847 93.3794 18.5824 93.6406 18.4518C93.906 18.3212 94.2106 18.256 94.5544 18.256C94.7981 18.256 95.0092 18.2799 95.1876 18.3278C95.3704 18.3756 95.5293 18.4322 95.6642 18.4975L95.3769 19.2482C95.2246 19.1873 95.081 19.1372 94.9461 19.098C94.8156 19.0589 94.685 19.0393 94.5544 19.0393C94.3847 19.0393 94.2433 19.0806 94.1301 19.1633C94.017 19.2417 93.9321 19.3613 93.8756 19.5224C93.8233 19.679 93.7972 19.877 93.7972 20.1164C93.7972 20.3514 93.8255 20.5472 93.8821 20.7039C93.943 20.8562 94.03 20.9715 94.1432 21.0499C94.2563 21.1238 94.3934 21.1608 94.5544 21.1608C94.759 21.1608 94.9396 21.1347 95.0962 21.0825C95.2529 21.0259 95.4052 20.9498 95.5532 20.854V21.683C95.4052 21.7788 95.2486 21.8462 95.0832 21.8854C94.9222 21.9289 94.7176 21.9507 94.4696 21.9507ZM97.5812 18.256C97.9119 18.256 98.1948 18.3191 98.4298 18.4453C98.6692 18.5715 98.8541 18.7543 98.9847 18.9936C99.1152 19.233 99.1805 19.5267 99.1805 19.8749V20.3449H96.8827C96.8914 20.619 96.9719 20.8344 97.1242 20.9911C97.2809 21.1478 97.4963 21.2261 97.7705 21.2261C98.0011 21.2261 98.21 21.2043 98.3972 21.1608C98.5843 21.113 98.7779 21.0412 98.9781 20.9454V21.6961C98.8041 21.7831 98.6191 21.8462 98.4233 21.8854C98.2318 21.9289 97.999 21.9507 97.7248 21.9507C97.3679 21.9507 97.0524 21.8854 96.7783 21.7549C96.5041 21.6199 96.2887 21.4176 96.132 21.1478C95.9754 20.878 95.897 20.5385 95.897 20.1294C95.897 19.7117 95.9667 19.3657 96.1059 19.0915C96.2495 18.813 96.4475 18.6041 96.6999 18.4649C96.9523 18.3256 97.2461 18.256 97.5812 18.256ZM97.5877 18.9479C97.4006 18.9479 97.2439 19.0088 97.1177 19.1307C96.9959 19.2525 96.9241 19.4418 96.9023 19.6986H98.2666C98.2666 19.555 98.2405 19.4266 98.1883 19.3135C98.1404 19.2003 98.0664 19.1111 97.9663 19.0458C97.8662 18.9805 97.74 18.9479 97.5877 18.9479Z" fill="white"/>
<path d="M110.985 16.2042L110.991 16.2042C111.692 16.373 112.409 16.4876 113.129 16.5479C114.254 16.6414 115.389 16.6293 116.514 16.5087C117.006 16.4575 117.496 16.3911 117.988 16.3097C119.465 16.0745 120.924 15.7217 122.342 15.2604C122.351 15.2604 123.181 14.986 124.181 14.5487C124.801 14.2804 125.406 13.9728 125.986 13.632C126.247 13.4843 126.49 13.3064 126.715 13.1074C126.977 12.842 127.17 12.5224 127.285 12.1726C127.313 12.1033 127.335 12.0309 127.36 11.9615C127.619 10.9001 127.22 10.3604 127.22 10.3604C126.896 9.66684 124.789 9.69095 124.789 9.69095C122.395 9.64271 122.629 8.35212 122.629 8.35212C123.333 7.13994 124.356 6.12679 125.596 5.41516C125.876 5.25233 126.282 5.02316 126.628 5.11362C126.811 5.17695 126.967 5.30058 127.064 5.46341L127.572 4.70956C127.731 4.47738 127.718 4.17584 127.538 3.95873C127.538 3.95873 127.538 3.95874 127.535 3.95572C127.357 3.7356 127.098 3.58784 126.811 3.54563C126.699 3.53055 126.587 3.54563 126.484 3.5788C125.658 3.81701 124.084 5.28248 124.084 5.28248C121.039 8.4034 122.214 10.2669 122.214 10.2669C122.878 11.4761 125.094 11.2529 125.094 11.2529C126.325 11.2951 126.724 11.5484 126.852 11.7143C126.877 11.7505 126.896 11.7927 126.908 11.8319C126.908 11.8319 126.908 11.85 126.908 11.853C126.908 11.853 126.889 11.8711 126.88 11.8801L126.871 11.8862C125.668 12.5887 124.393 13.1707 123.068 13.626C121.167 14.2864 119.197 14.7417 117.193 14.9799C117.097 14.992 116.997 15.004 116.9 15.0131C116.305 15.0764 115.713 15.1156 115.118 15.1247C114.569 15.1337 114.024 15.1186 113.472 15.0764C111.34 14.9136 109.246 14.4432 107.26 13.6803C107.126 13.629 107.052 13.623 107.014 13.6652C106.974 13.7105 107.014 13.7798 107.027 13.7949L107.033 13.8009L110.985 16.1951L110.985 16.2042Z" fill="white"/>
<path d="M136.466 17.2108C136.466 17.2108 136.27 17.2771 135.937 17.9134C135.937 17.9134 135.453 18.9265 134.743 19.3336C134.743 19.3336 133.596 19.9608 132.795 19.1949C132.546 18.9084 132.474 18.5134 132.605 18.1637C132.605 18.1637 132.717 17.8229 132.374 17.9827C132.374 17.9827 131.913 18.2149 131.436 18.4471C130.909 18.6883 130.367 18.8994 129.815 19.0773C129.656 18.6431 129.416 18.239 129.102 17.8893C127.344 16.08 126.175 18.5647 126.175 18.5647C125.67 19.8854 126.365 20.5036 126.649 20.6905C126.649 20.6905 127.5 21.1278 129.083 20.7207C129.189 20.6935 129.304 20.6574 129.426 20.6182C129.507 20.8142 129.563 21.0192 129.6 21.2303C129.55 21.2846 129.501 21.3418 129.451 21.3961C127.677 23.3109 126.312 23.9833 126.312 23.9833C123.152 25.9132 121.671 24.505 121.671 24.505C120.799 23.7783 120.883 22.156 121.045 21.1157C121.232 20.986 121.41 20.8443 121.578 20.6905C121.578 20.6905 124.121 18.3657 124.928 17.6299C124.928 17.6299 126.917 15.8177 128.488 15.7453C128.488 15.7453 130.214 15.5192 131.037 16.8972C131.037 16.8972 131.442 15.8207 131.24 15.5192C129.943 13.5954 127.353 14.6809 127.353 14.6809C125.907 15.1603 123.654 17.3435 123.654 17.3435C122.921 18.0913 121.092 19.6231 121.092 19.6231C121.092 19.6231 119.674 20.784 118.788 20.5006C118.788 20.5006 117.124 20.3498 117.919 17.8983C118.044 17.5304 118.203 17.1746 118.402 16.8369C118.57 16.5836 118.502 16.5655 118.402 16.5987C118.299 16.6349 118.215 16.7042 118.159 16.7947C117.645 17.6179 117.389 18.5617 117.414 19.5206C117.567 21.182 118.873 21.6977 118.873 21.6977C119.452 21.9419 120.157 21.6615 120.699 21.3358C119.963 23.8929 120.927 25.301 120.927 25.301C122.095 27.0439 124.339 26.3021 124.339 26.3021C126.692 25.5785 128.622 23.5612 128.622 23.5612C129.002 23.2476 129.332 22.8857 129.61 22.4847C130.093 21.758 130.086 21.2514 130.086 21.2514C130.136 20.9619 130.155 20.6664 130.139 20.3739C130.766 20.1387 131.377 19.8704 131.972 19.5628C131.972 19.5628 132.044 19.5176 132.019 19.6713C132.019 19.6713 131.972 20.9589 133.241 21.1398C133.97 21.2454 134.693 20.9318 135.098 20.3407C135.098 20.3407 135.478 19.7799 135.647 19.4663C135.868 20.0633 136.407 20.5006 137.059 20.6001C138.804 20.8835 138.981 18.8873 138.981 18.8873C139.168 17.4701 138.392 16.6861 138.392 16.6861L138.04 18.239C138.224 18.4441 138.389 18.6582 138.542 18.8843C138.542 18.8843 138.165 19.1738 137.108 18.9416C136.862 18.8632 136.641 18.7275 136.463 18.5466C136.463 18.5466 136.176 18.2782 136.463 17.7234C136.463 17.7234 136.747 17.0389 136.469 17.2078L136.466 17.2108ZM126.945 18.8542C126.945 18.8542 127.699 18.2119 128.662 19.3607C128.547 19.3788 128.432 19.3939 128.319 19.403C128.319 19.403 126.44 19.5688 126.945 18.8572L126.945 18.8542Z" fill="white"/>
<path d="M132.286 10.8669C131.791 11.289 129.519 12.8359 128.431 13.5716C128.076 13.8098 128.39 13.6892 128.39 13.6892L130.248 12.7454C131.878 11.9403 133.296 10.7854 134.39 9.3682C134.48 9.26266 134.564 9.14808 134.642 9.0335C134.864 9.17522 135.048 9.3652 135.178 9.58834C135.518 8.98828 135.39 8.86766 135.39 8.86766C135.263 8.71689 135.116 8.58119 134.951 8.46359C135.094 8.14698 135.191 7.81227 135.241 7.46852C135.157 6.2292 134.349 6.64834 134.349 6.64834C133.86 6.86243 133.517 7.29664 133.436 7.80624C133.52 8.30679 134.265 8.78624 134.265 8.78624C134.303 8.80735 134.34 8.82846 134.374 8.85259C133.661 9.7783 132.289 10.8669 132.289 10.8669L132.286 10.8669ZM134.558 8.16809C133.707 7.54692 133.879 7.40821 133.879 7.40821C134.876 6.64834 134.73 8.2676 134.73 8.2676C134.73 8.27363 134.723 8.28268 134.72 8.28871C134.624 8.21634 134.558 8.16809 134.558 8.16809Z" fill="white"/>
<path d="M124.35 19.9291C124.35 19.9291 123.515 21.3916 123.321 21.865C123.321 21.865 122.872 23.1616 124.069 23.2672C124.852 23.2551 125.475 22.637 125.462 21.8831C125.462 21.865 125.462 21.8439 125.462 21.8258C125.462 21.8258 125.525 21.1775 124.368 20.5925C124.368 20.5925 124.777 19.6427 124.347 19.9322L124.35 19.9291ZM125.185 22.052C125.185 22.052 124.565 22.854 123.773 22.4017C123.773 22.4017 123.474 22.2359 123.988 21.268L124.085 21.0961L124.051 21.1835C124.051 21.1835 125.035 21.7414 125.185 22.0489L125.185 22.052Z" fill="white"/>
<path d="M116.3 10.1315C116.3 10.1315 115.465 11.594 115.271 12.0674C115.271 12.0674 114.823 13.364 116.019 13.4696C116.802 13.4575 117.425 12.8393 117.413 12.0855C117.413 12.0674 117.413 12.0463 117.413 12.0282C117.413 12.0282 117.475 11.3799 116.319 10.7949C116.319 10.7949 116.727 9.84509 116.297 10.1346L116.3 10.1315ZM117.135 12.2544C117.135 12.2544 116.515 13.0565 115.723 12.6042C115.723 12.6042 115.424 12.4383 115.938 11.4704L116.035 11.2985L116.001 11.386C116.001 11.386 116.986 11.9438 117.135 12.2514L117.135 12.2544Z" fill="white"/>
<path d="M120.035 13.069C121.643 8.86558 117.713 6.98399 117.713 6.98399L117.667 8.09062C120.933 10.2165 119.851 12.8941 119.851 12.8941C119.736 13.3796 120.035 13.069 120.035 13.069Z" fill="white"/>
<path d="M130.952 6.15046C129.945 5.32123 129.496 7.62195 129.496 7.62195C129.412 8.25216 129.253 9.36183 129.253 9.36183C128.574 6.45501 127.271 6.43088 127.271 6.43088C126.744 6.50928 126.863 7.54357 126.863 7.54357C126.944 7.64006 127.801 8.24312 127.801 8.24312C127.929 8.31247 127.928 8.023 127.928 8.023C128.589 8.68035 129.085 10.6343 129.085 10.6343C129.487 10.3418 129.668 8.49642 129.668 8.49642C129.923 5.89415 131.123 7.50436 131.123 7.50436C131.291 7.32947 131.304 6.53642 131.304 6.53642C131.207 6.39168 131.089 6.26202 130.952 6.15046Z" fill="white"/>
<path d="M109.911 0.0422401L109.911 11.7751L110.297 11.7751L110.297 0.413134L140.617 0.413132L140.617 29.5869L110.297 29.5869L110.297 18.8582L109.911 18.8582L109.911 29.9578L141 29.9578L141 0.0422382L109.911 0.0422401Z" fill="white"/>
<path d="M134.622 13.5529L135.47 12.7327L134.516 11.81L133.562 12.7327L134.41 13.5529L133.562 14.3731L134.41 15.1932L133.562 16.0134L134.516 16.9361L135.47 16.0134L134.622 15.1932L135.47 14.3731L134.622 13.5529Z" fill="white"/>
</svg>
