<svg width="203" height="137" viewBox="0 0 203 137" fill="none" xmlns="http://www.w3.org/2000/svg">
<path d="M0.5 12C0.5 5.37257 5.87258 0 12.5 0H190.1C196.727 0 202.1 5.37258 202.1 12V124.679C202.1 131.306 196.727 136.679 190.1 136.679H12.5C5.87257 136.679 0.5 131.306 0.5 124.679V12Z" fill="white"/>
<rect x="32.5" y="39.0208" width="4.8" height="4.76787" rx="2" fill="#EEE8E7"/>
<path d="M42.1 41.4047C42.1 40.0881 43.1673 39.0208 44.4839 39.0208H85.316C86.6326 39.0208 87.7 40.0881 87.7 41.4047C87.7 42.7213 86.6326 43.7886 85.316 43.7886H44.4839C43.1673 43.7886 42.1 42.7213 42.1 41.4047Z" fill="#D2D5E2"/>
<rect x="32.5" y="51.7351" width="4.8" height="4.76787" rx="2" fill="#DED1D0"/>
<path d="M42.1 54.119C42.1 52.8024 43.1673 51.7351 44.4839 51.7351H85.316C86.6326 51.7351 87.7 52.8024 87.7 54.119C87.7 55.4357 86.6326 56.503 85.316 56.503H44.4839C43.1673 56.503 42.1 55.4357 42.1 54.119Z" fill="#D2D5E2"/>
<rect x="32.5" y="64.4495" width="4.8" height="4.76787" rx="2" fill="#DED1D0"/>
<path d="M42.1 66.8334C42.1 65.5168 43.1673 64.4495 44.4839 64.4495H85.316C86.6326 64.4495 87.7 65.5168 87.7 66.8334C87.7 68.15 86.6326 69.2173 85.316 69.2173H44.4839C43.1673 69.2173 42.1 68.15 42.1 66.8334Z" fill="#D2D5E2"/>
<rect x="32.5" y="77.1637" width="4.8" height="4.76788" rx="2" fill="#EEE8E7"/>
<path d="M42.1 79.5476C42.1 78.231 43.1673 77.1637 44.4839 77.1637H85.316C86.6326 77.1637 87.7 78.231 87.7 79.5476C87.7 80.8642 86.6326 81.9316 85.316 81.9316H44.4839C43.1673 81.9316 42.1 80.8642 42.1 79.5476Z" fill="#D2D5E2"/>
<rect x="32.5" y="89.8781" width="4.8" height="4.76787" rx="2" fill="#EEE8E7"/>
<path d="M42.1 92.262C42.1 90.9454 43.1673 89.8781 44.4839 89.8781H85.316C86.6326 89.8781 87.7 90.9454 87.7 92.262C87.7 93.5786 86.6326 94.6459 85.316 94.6459H44.4839C43.1673 94.6459 42.1 93.5786 42.1 92.262Z" fill="#D2D5E2"/>
<path d="M170.1 66.8334C170.1 85.4854 154.878 100.606 136.1 100.606C117.322 100.606 102.1 85.4854 102.1 66.8334C102.1 48.1813 117.322 33.0609 136.1 33.0609C154.878 33.0609 170.1 48.1813 170.1 66.8334ZM123.986 66.8334C123.986 73.4791 129.409 78.8666 136.1 78.8666C142.791 78.8666 148.214 73.4791 148.214 66.8334C148.214 60.1876 142.791 54.8001 136.1 54.8001C129.409 54.8001 123.986 60.1876 123.986 66.8334Z" fill="#D9D9D9"/>
<path d="M136.1 33.0609C142.32 33.0609 148.42 34.7555 153.737 37.9603C159.055 41.1651 163.385 45.7573 166.257 51.2371C169.13 56.7168 170.434 62.8742 170.027 69.039C169.621 75.2038 167.52 81.1398 163.954 86.2009L146.024 73.7341C147.295 71.9308 148.044 69.8158 148.188 67.6192C148.333 65.4227 147.869 63.2288 146.845 61.2764C145.822 59.3239 144.279 57.6877 142.384 56.5458C140.49 55.4039 138.316 54.8001 136.1 54.8001V33.0609Z" fill="#EEE8E7" stroke="white" stroke-width="2"/>
<path d="M164.654 85.1664C161.962 89.304 158.391 92.8064 154.191 95.4279C149.992 98.0493 145.266 99.7265 140.345 100.342C135.424 100.957 130.427 100.495 125.704 98.9885C120.982 97.4821 116.649 94.9678 113.008 91.6217L127.872 75.6655C129.169 76.8577 130.713 77.7536 132.396 78.2903C134.079 78.827 135.859 78.9916 137.612 78.7724C139.366 78.5533 141.05 77.9557 142.546 77.0217C144.042 76.0876 145.315 74.8397 146.274 73.3655L164.654 85.1664Z" fill="#DED1D0" stroke="white" stroke-width="2"/>
<path d="M113.928 92.4364C107.832 87.2284 103.792 80.0433 102.525 72.157L124.137 68.7302C124.589 71.5401 126.028 74.1002 128.2 75.9558L113.928 92.4364Z" fill="#DED1D0" stroke="white" stroke-width="2"/>
<path d="M102.838 73.8302C101.209 66.1933 102.295 58.2319 105.91 51.3002C109.524 44.3686 115.445 38.8948 122.664 35.8099L131.313 55.7796C128.74 56.8788 126.631 58.8291 125.343 61.2989C124.055 63.7686 123.668 66.6053 124.249 69.3264L102.838 73.8302Z" fill="#EEE8E7" stroke="white" stroke-width="2"/>
<path d="M120 37.0873C125.034 34.3991 130.669 33.0147 136.384 33.0621L136.201 54.8006C134.165 54.7837 132.157 55.2769 130.364 56.2347L120 37.0873Z" fill="#EEE8E7" stroke="white" stroke-width="2"/>
</svg>
