<svg width="25" height="24" viewBox="0 0 25 24" fill="none" xmlns="http://www.w3.org/2000/svg">
<path d="M14.1163 5.63245C14.7915 4.8746 15.2064 4.53436 16.0213 4.1042V16.7238L14.1163 17.1175V5.63245Z" fill="#0E242D"/>
<path d="M20.2029 11.977C20.5978 11.1434 20.6443 10.7729 20.75 9.91777L6.14805 13.0884C5.80179 13.8598 5.69033 14.2909 5.63696 15.0566L20.2029 11.977Z" fill="#0E242D"/>
<path d="M20.2029 15.8423C20.5978 15.0087 20.6443 14.6383 20.75 13.7831L14.186 15.1724C14.1396 15.9365 14.1929 16.3286 14.1396 17.0943L20.2029 15.8423Z" fill="#0E242D"/>
<path d="M20.2029 19.7071C20.5978 18.8735 20.6443 18.503 20.75 17.6479L14.7668 18.9467C14.4648 19.3635 14.2789 20.0582 14.1396 20.9591L20.2029 19.7071Z" fill="#0E242D"/>
<path d="M10.7014 18.391C11.2821 17.6732 11.8861 16.7701 12.3043 16.0292L5.26109 17.5558C4.91482 18.3271 4.80336 18.7583 4.75 19.524L10.7014 18.391Z" fill="#0E242D"/>
<path d="M10.3994 4.56731C11.0745 3.80946 11.4894 3.46922 12.3043 3.03906V16.0755L10.3994 16.4691V4.56731Z" fill="#0E242D"/>
</svg>
