<svg width="198" height="43" viewBox="0 0 198 43" fill="none" xmlns="http://www.w3.org/2000/svg">
<path d="M3.82062 18.7164C3.36067 18.7164 2.94365 18.6673 2.56956 18.5692C2.19547 18.4772 1.87043 18.3331 1.59446 18.1368C1.32463 17.9467 1.11611 17.6983 0.968931 17.3917C0.827879 17.0912 0.757354 16.7294 0.757354 16.3062C0.757354 16.0793 0.791083 15.8003 0.858543 15.4691C0.926002 15.1379 1.03332 14.8037 1.18051 14.4664L2.30279 14.816C2.21693 15.049 2.15254 15.2667 2.10961 15.4691C2.07281 15.6654 2.05441 15.8524 2.05441 16.0302C2.05441 16.2572 2.09121 16.4565 2.1648 16.6282C2.24453 16.806 2.36411 16.9563 2.52356 17.0789C2.68915 17.2016 2.89152 17.2905 3.1307 17.3457C3.376 17.407 3.66117 17.4377 3.98621 17.4377C4.42162 17.4377 4.78345 17.407 5.07169 17.3457C5.35992 17.2905 5.5899 17.2139 5.76161 17.1157C5.93946 17.0237 6.06518 16.9226 6.13877 16.8122C6.2185 16.7079 6.25836 16.6067 6.25836 16.5086C6.25836 16.4411 6.23383 16.3798 6.18477 16.3246C6.13571 16.2633 6.04065 16.1928 5.8996 16.113C5.76468 16.0272 5.55924 15.926 5.28327 15.8095L5.83521 14.7056C6.18477 14.9141 6.4638 15.0919 6.67232 15.2391C6.88083 15.3863 7.03721 15.5151 7.14146 15.6255C7.25185 15.7297 7.32544 15.8309 7.36224 15.9291C7.39904 16.0272 7.41743 16.1376 7.41743 16.2602C7.41743 16.4565 7.38064 16.668 7.30705 16.895C7.23959 17.1219 7.12307 17.3426 6.95748 17.5573C6.79803 17.7719 6.58033 17.9651 6.30436 18.1368C6.02838 18.3147 5.68496 18.4557 5.27407 18.56C4.86931 18.6642 4.38483 18.7164 3.82062 18.7164ZM8.00617 16.6006C7.91418 16.6006 7.7854 16.5853 7.61981 16.5546C7.45423 16.5239 7.27025 16.4779 7.06787 16.4166C6.87163 16.3553 6.67232 16.2817 6.46994 16.1958C6.26756 16.1038 6.08358 15.9996 5.918 15.8831L5.83521 14.7056C6.11118 14.8405 6.35648 14.9509 6.57113 15.0368C6.78577 15.1165 6.97588 15.1778 7.14146 15.2207C7.30705 15.2637 7.45116 15.2913 7.57382 15.3035C7.7026 15.3158 7.81912 15.3219 7.92338 15.3219H8.03377V16.6006H8.00617ZM3.03871 21.1081L2.1464 20.2066L2.98351 19.3051L3.87582 20.2066L3.03871 21.1081ZM4.63933 21.1081L3.74703 20.2066L4.60254 19.3051L5.49484 20.2066L4.63933 21.1081ZM8.03794 15.3219H8.77386V16.6006H8.03794V15.3219ZM8.03794 15.3219H8.12993V16.6006H8.03794C7.85396 16.6006 7.76197 16.3859 7.76197 15.9567C7.76197 15.5335 7.85396 15.3219 8.03794 15.3219ZM8.77458 15.3219H9.5105V16.6006H8.77458V15.3219ZM8.77458 15.3219H8.86657V16.6006H8.77458C8.5906 16.6006 8.49861 16.3859 8.49861 15.9567C8.49861 15.5335 8.5906 15.3219 8.77458 15.3219ZM9.51122 15.3219H10.2471V16.6006H9.51122V15.3219ZM9.51122 15.3219H9.60321V16.6006H9.51122C9.32724 16.6006 9.23524 16.3859 9.23524 15.9567C9.23524 15.5335 9.32724 15.3219 9.51122 15.3219ZM10.2479 15.3219H10.9838V16.6006H10.2479V15.3219ZM10.2479 15.3219H10.3398V16.6006H10.2479C10.0639 16.6006 9.97188 16.3859 9.97188 15.9567C9.97188 15.5335 10.0639 15.3219 10.2479 15.3219ZM10.9845 15.3219H11.7204V16.6006H10.9845V15.3219ZM10.9845 15.3219H11.0765V16.6006H10.9845C10.8005 16.6006 10.7085 16.3859 10.7085 15.9567C10.7085 15.5335 10.8005 15.3219 10.9845 15.3219ZM11.7211 15.3219H12.4571V16.6006H11.7211V15.3219ZM11.7211 15.3219H11.8131V16.6006H11.7211C11.5372 16.6006 11.4452 16.3859 11.4452 15.9567C11.4452 15.5335 11.5372 15.3219 11.7211 15.3219ZM12.4578 15.3219H13.1937V16.6006H12.4578V15.3219ZM12.4578 15.3219H12.5498V16.6006H12.4578C12.2738 16.6006 12.1818 16.3859 12.1818 15.9567C12.1818 15.5335 12.2738 15.3219 12.4578 15.3219ZM13.1944 15.3219H13.9303V16.6006H13.1944V15.3219ZM13.1944 15.3219H13.2864V16.6006H13.1944C13.0104 16.6006 12.9184 16.3859 12.9184 15.9567C12.9184 15.5335 13.0104 15.3219 13.1944 15.3219ZM13.9311 15.3219H14.667V16.6006H13.9311V15.3219ZM13.9311 15.3219H14.023V16.6006H13.9311C13.7471 16.6006 13.6551 16.3859 13.6551 15.9567C13.6551 15.5335 13.7471 15.3219 13.9311 15.3219ZM14.6677 16.6006V15.3219H15.7164C15.6367 15.2115 15.5692 15.0705 15.514 14.8988C15.4588 14.7271 15.4312 14.5339 15.4312 14.3192C15.4312 13.9206 15.5232 13.5772 15.7072 13.2889C15.8973 12.9946 16.161 12.7707 16.4983 12.6174C16.8356 12.458 17.2281 12.3782 17.6758 12.3782C17.9579 12.3782 18.2338 12.412 18.5037 12.4794C18.7735 12.5408 19.0188 12.6297 19.2396 12.7462L18.7061 13.8593C18.5343 13.7857 18.3626 13.7336 18.1909 13.7029C18.0253 13.6661 17.8536 13.6477 17.6758 13.6477C17.363 13.6477 17.1269 13.7244 16.9674 13.8777C16.8141 14.0249 16.7375 14.2119 16.7375 14.4388C16.7375 14.586 16.7835 14.7301 16.8755 14.8712C16.9674 15.0061 17.1146 15.1165 17.317 15.2023C17.5255 15.2821 17.7984 15.3219 18.1357 15.3219H19.2856V16.6006H14.6677ZM14.6677 15.3219H14.7597V16.6006H14.6677C14.4837 16.6006 14.3917 16.3859 14.3917 15.9567C14.3917 15.5335 14.4837 15.3219 14.6677 15.3219ZM22.1436 16.6006C21.8308 16.6006 21.5671 16.5669 21.3525 16.4994C21.1378 16.4319 20.9631 16.3307 20.8281 16.1958C20.6932 16.0609 20.5951 15.8953 20.5338 15.6991C20.4725 15.4967 20.4418 15.2637 20.4418 15V9.79332H21.7481V14.5676C21.7481 14.7025 21.7572 14.819 21.7756 14.9172C21.794 15.0153 21.8278 15.095 21.8768 15.1563C21.932 15.2177 22.0056 15.2606 22.0976 15.2851C22.1957 15.3097 22.3215 15.3219 22.4748 15.3219H22.8335V16.6006H22.1436ZM22.8336 16.6006V15.3219H24.0571C24.0939 15.2238 24.1276 15.0827 24.1583 14.8988C24.1889 14.7148 24.2135 14.5247 24.2319 14.3284C24.2564 14.1261 24.2686 13.9513 24.2686 13.8041L25.7957 13.2705C25.6914 13.7121 25.5872 14.1199 25.4829 14.494C25.3787 14.8681 25.2529 15.2269 25.1058 15.5703C24.9647 15.9076 24.7838 16.251 24.563 16.6006H22.8336ZM26.4396 16.6006C26.0471 16.6006 25.7098 16.5638 25.4277 16.4902C25.1518 16.4105 24.9156 16.3185 24.7194 16.2142C24.5293 16.1038 24.3606 15.9996 24.2135 15.9015L24.9034 15.0827C25.0015 15.1379 25.1119 15.1839 25.2345 15.2207C25.3572 15.2514 25.4921 15.2759 25.6393 15.2943C25.7926 15.3127 25.949 15.3219 26.1085 15.3219H26.4672V16.6006H26.4396ZM22.8336 15.3219H22.9256V16.6006H22.8336C22.6496 16.6006 22.5576 16.3859 22.5576 15.9567C22.5576 15.5335 22.6496 15.3219 22.8336 15.3219ZM25.0598 12.5254L24.1675 11.6239L25.023 10.7224L25.9153 11.6239L25.0598 12.5254ZM33.1322 14.8896C33.3223 15.0674 33.5339 15.1839 33.7669 15.2391C34 15.2943 34.2514 15.3219 34.5212 15.3219V16.6006C34.1655 16.6006 33.8221 16.527 33.4909 16.3798C33.1598 16.2326 32.8899 15.9904 32.6814 15.6531L33.1322 14.8896ZM26.4629 16.6006V15.3219H32.3227C32.3411 14.9969 32.3135 14.7117 32.2399 14.4664C32.1663 14.215 32.0375 14.0157 31.8535 13.8685C31.6757 13.7213 31.4273 13.6477 31.1084 13.6477C30.7834 13.6477 30.4369 13.7489 30.0689 13.9513C29.701 14.1536 29.3453 14.4664 29.0018 14.8896C28.6645 15.3066 28.3732 15.8432 28.1279 16.4994L27.76 15.3679C28.0482 14.6995 28.3763 14.1445 28.7443 13.7029C29.1122 13.2613 29.5108 12.9302 29.9401 12.7094C30.3694 12.4886 30.811 12.3782 31.2648 12.3782C31.8106 12.3782 32.2583 12.4948 32.6078 12.7278C32.9574 12.9547 33.218 13.2675 33.3898 13.6661C33.5615 14.0586 33.6473 14.5093 33.6473 15.0184C33.6535 15.5212 33.5768 16.0486 33.4173 16.6006H26.4629ZM27.3828 16.6006V9.79332H28.6891V16.6006H27.3828ZM26.4629 15.3219H26.5549V16.6006H26.4629C26.2789 16.6006 26.1869 16.3859 26.1869 15.9567C26.1869 15.5335 26.2789 15.3219 26.4629 15.3219ZM34.521 15.3219H35.2569V16.6006H34.521V15.3219ZM34.521 15.3219H34.613V16.6006H34.521C34.337 16.6006 34.245 16.3859 34.245 15.9567C34.245 15.5335 34.337 15.3219 34.521 15.3219ZM35.2577 15.3219H35.9936V16.6006H35.2577V15.3219ZM35.2577 15.3219H35.3496V16.6006H35.2577C35.0737 16.6006 34.9817 16.3859 34.9817 15.9567C34.9817 15.5335 35.0737 15.3219 35.2577 15.3219ZM35.9943 15.3219H36.7302V16.6006H35.9943V15.3219ZM35.9943 15.3219H36.0863V16.6006H35.9943C35.8103 16.6006 35.7183 16.3859 35.7183 15.9567C35.7183 15.5335 35.8103 15.3219 35.9943 15.3219ZM36.7309 15.3219H37.4669V16.6006H36.7309V15.3219ZM36.7309 15.3219H36.8229V16.6006H36.7309C36.547 16.6006 36.455 16.3859 36.455 15.9567C36.455 15.5335 36.547 15.3219 36.7309 15.3219ZM37.4676 15.3219H38.2035V16.6006H37.4676V15.3219ZM37.4676 15.3219H37.5596V16.6006H37.4676C37.2836 16.6006 37.1916 16.3859 37.1916 15.9567C37.1916 15.5335 37.2836 15.3219 37.4676 15.3219ZM38.2042 15.3219H38.9401V16.6006H38.2042V15.3219ZM38.2042 15.3219H38.2962V16.6006H38.2042C38.0202 16.6006 37.9282 16.3859 37.9282 15.9567C37.9282 15.5335 38.0202 15.3219 38.2042 15.3219ZM38.9409 15.3219H39.6768V16.6006H38.9409V15.3219ZM38.9409 15.3219H39.0328V16.6006H38.9409C38.7569 16.6006 38.6649 16.3859 38.6649 15.9567C38.6649 15.5335 38.7569 15.3219 38.9409 15.3219ZM39.6775 15.3219H40.4134V16.6006H39.6775V15.3219ZM39.6775 15.3219H39.7695V16.6006H39.6775C39.4935 16.6006 39.4015 16.3859 39.4015 15.9567C39.4015 15.5335 39.4935 15.3219 39.6775 15.3219ZM40.4141 15.3219H41.1501V16.6006H40.4141V15.3219ZM40.4141 15.3219H40.5061V16.6006H40.4141C40.2302 16.6006 40.1382 16.3859 40.1382 15.9567C40.1382 15.5335 40.2302 15.3219 40.4141 15.3219ZM41.1508 15.3219H41.8867V16.6006H41.1508V15.3219ZM41.1508 15.3219H41.2428V16.6006H41.1508C40.9668 16.6006 40.8748 16.3859 40.8748 15.9567C40.8748 15.5335 40.9668 15.3219 41.1508 15.3219ZM41.8874 15.3219H42.6233V16.6006H41.8874V15.3219ZM41.8874 15.3219H41.9794V16.6006H41.8874C41.7034 16.6006 41.6114 16.3859 41.6114 15.9567C41.6114 15.5335 41.7034 15.3219 41.8874 15.3219ZM42.624 15.3219H43.36V16.6006H42.624V15.3219ZM42.624 15.3219H42.716V16.6006H42.624C42.4401 16.6006 42.3481 16.3859 42.3481 15.9567C42.3481 15.5335 42.4401 15.3219 42.624 15.3219ZM43.3607 15.3219H44.0966V16.6006H43.3607V15.3219ZM43.3607 15.3219H43.4527V16.6006H43.3607C43.1767 16.6006 43.0847 16.3859 43.0847 15.9567C43.0847 15.5335 43.1767 15.3219 43.3607 15.3219ZM47.6573 16.6006V15.3219H51.9717C51.9839 14.9969 51.9533 14.7117 51.8797 14.4664C51.8122 14.215 51.6926 14.0157 51.5209 13.8685C51.3553 13.7213 51.1223 13.6477 50.8218 13.6477C50.4722 13.6477 50.1196 13.7642 49.7639 13.9973C49.4082 14.2242 49.0587 14.5492 48.7152 14.9724C48.3718 15.3955 48.0406 15.9045 47.7217 16.4994L46.9582 15.3587C47.3936 14.6964 47.826 14.1445 48.2553 13.7029C48.6907 13.2613 49.1292 12.9302 49.5707 12.7094C50.0123 12.4886 50.46 12.3782 50.9138 12.3782C51.4596 12.3782 51.9073 12.4948 52.2568 12.7278C52.6064 12.9547 52.867 13.2675 53.0388 13.6661C53.2105 14.0586 53.2963 14.5093 53.2963 15.0184C53.3025 15.5212 53.2258 16.0486 53.0664 16.6006H47.6573ZM44.0973 16.6006V15.3219H45.3208C45.3576 15.2238 45.3913 15.0827 45.422 14.8988C45.4526 14.7148 45.4772 14.5247 45.4956 14.3284C45.5201 14.1261 45.5324 13.9513 45.5324 13.8041L47.0594 13.2705C46.9552 13.7121 46.8509 14.1199 46.7466 14.494C46.6424 14.8681 46.5167 15.2269 46.3695 15.5703C46.2284 15.9076 46.0475 16.251 45.8267 16.6006H44.0973ZM47.7033 16.6006C47.3108 16.6006 46.9736 16.5638 46.6914 16.4902C46.4155 16.4105 46.1794 16.3185 45.9831 16.2142C45.793 16.1038 45.6244 15.9996 45.4772 15.9015L46.1671 15.0827C46.2652 15.1379 46.3756 15.1839 46.4983 15.2207C46.6209 15.2514 46.7558 15.2759 46.903 15.2943C47.0563 15.3127 47.2127 15.3219 47.3722 15.3219H47.7309V16.6006H47.7033ZM44.0973 15.3219H44.1893V16.6006H44.0973C43.9133 16.6006 43.8214 16.3859 43.8214 15.9567C43.8214 15.5335 43.9133 15.3219 44.0973 15.3219ZM54.7818 16.6006L54.5242 15.3403C54.7327 15.1747 54.9473 14.9969 55.1681 14.8068C55.3889 14.6167 55.6005 14.4204 55.8028 14.218C56.0052 14.0095 56.18 13.801 56.3272 13.5925C56.4805 13.384 56.5848 13.1755 56.64 12.967C56.7013 12.7646 56.7473 12.55 56.7779 12.323C56.8147 12.0961 56.8362 11.86 56.8423 11.6147C56.8546 11.3633 56.8607 11.1057 56.8607 10.842C56.8607 10.5722 56.8515 10.2993 56.8331 10.0233L58.1394 9.74733C58.1885 10.2931 58.1915 10.8205 58.1486 11.3296C58.1118 11.8324 58.029 12.3046 57.9002 12.7462C57.7714 13.1816 57.5967 13.5864 57.3759 13.9605C57.2042 14.1506 57.0324 14.3346 56.8607 14.5124C56.689 14.6841 56.5265 14.8405 56.3732 14.9816C56.226 15.1165 56.0942 15.2299 55.9776 15.3219H57.5231C57.4495 15.1379 57.336 14.9509 57.1827 14.7608C57.0355 14.5707 56.8546 14.3744 56.64 14.172L57.3667 13.3625C57.704 13.7612 57.9585 14.1506 58.1302 14.5308C58.308 14.911 58.397 15.2759 58.397 15.6255C58.397 15.7972 58.3755 15.9659 58.3326 16.1314C58.2896 16.2909 58.2222 16.4473 58.1302 16.6006H54.7818ZM56.364 13.9237C56.0574 13.6477 55.6986 13.3656 55.2877 13.0774C54.8768 12.7891 54.4261 12.4886 53.9355 12.1759L54.2206 10.7592C54.7726 11.1149 55.2724 11.4675 55.7201 11.8171C56.1677 12.1667 56.5602 12.5132 56.8975 12.8566L56.364 13.9237ZM59.4118 9.79332H60.7181V16.6006H59.4118V9.79332ZM64.4048 16.6006V15.5243H64.9107C64.8678 15.4507 64.8279 15.3618 64.7911 15.2575C64.7605 15.1471 64.7451 15.0245 64.7451 14.8896C64.7451 14.5891 64.8095 14.3284 64.9383 14.1077C65.0732 13.8869 65.2542 13.7182 65.4811 13.6017C65.708 13.4791 65.9655 13.4177 66.2538 13.4177C66.4439 13.4177 66.634 13.4392 66.8241 13.4821C67.0204 13.5189 67.1951 13.5772 67.3485 13.6569L66.9345 14.5952C66.8241 14.5461 66.7199 14.5155 66.6217 14.5032C66.5298 14.4909 66.4531 14.4848 66.3918 14.4848C66.2139 14.4848 66.079 14.5339 65.987 14.632C65.895 14.7301 65.849 14.8497 65.849 14.9908C65.849 15.095 65.8766 15.1901 65.9318 15.2759C65.987 15.3557 66.0729 15.417 66.1894 15.4599C66.312 15.5028 66.4715 15.5243 66.6677 15.5243H67.468V16.6006H64.4048ZM70.2318 16.6006C69.919 16.6006 69.6553 16.5669 69.4407 16.4994C69.226 16.4319 69.0512 16.3307 68.9163 16.1958C68.7814 16.0609 68.6833 15.8953 68.622 15.6991C68.5606 15.4967 68.53 15.2637 68.53 15V9.79332H69.8362V14.5676C69.8362 14.7025 69.8454 14.819 69.8638 14.9172C69.8822 15.0153 69.9159 15.095 69.965 15.1563C70.0202 15.2177 70.0938 15.2606 70.1858 15.2851C70.2839 15.3097 70.4096 15.3219 70.5629 15.3219H70.9217V16.6006H70.2318ZM70.9218 15.3219H71.6577V16.6006H70.9218V15.3219ZM70.9218 15.3219H71.0138V16.6006H70.9218C70.7378 16.6006 70.6458 16.3859 70.6458 15.9567C70.6458 15.5335 70.7378 15.3219 70.9218 15.3219ZM71.6584 15.3219H72.3943V16.6006H71.6584V15.3219ZM71.6584 15.3219H71.7504V16.6006H71.6584C71.4744 16.6006 71.3824 16.3859 71.3824 15.9567C71.3824 15.5335 71.4744 15.3219 71.6584 15.3219ZM72.3951 15.3219H73.131V16.6006H72.3951V15.3219ZM72.3951 15.3219H72.487V16.6006H72.3951C72.2111 16.6006 72.1191 16.3859 72.1191 15.9567C72.1191 15.5335 72.2111 15.3219 72.3951 15.3219ZM73.1317 15.3219H73.8676V16.6006H73.1317V15.3219ZM73.1317 15.3219H73.2237V16.6006H73.1317C72.9477 16.6006 72.8557 16.3859 72.8557 15.9567C72.8557 15.5335 72.9477 15.3219 73.1317 15.3219ZM73.8683 15.3219H74.6043V16.6006H73.8683V15.3219ZM73.8683 15.3219H73.9603V16.6006H73.8683C73.6844 16.6006 73.5924 16.3859 73.5924 15.9567C73.5924 15.5335 73.6844 15.3219 73.8683 15.3219ZM74.605 15.3219H75.3409V16.6006H74.605V15.3219ZM74.605 15.3219H74.697V16.6006H74.605C74.421 16.6006 74.329 16.3859 74.329 15.9567C74.329 15.5335 74.421 15.3219 74.605 15.3219ZM75.3416 15.3219H76.0775V16.6006H75.3416V15.3219ZM75.3416 15.3219H75.4336V16.6006H75.3416C75.1576 16.6006 75.0656 16.3859 75.0656 15.9567C75.0656 15.5335 75.1576 15.3219 75.3416 15.3219ZM76.0782 15.3219H76.8142V16.6006H76.0782V15.3219ZM76.0782 15.3219H76.1702V16.6006H76.0782C75.8943 16.6006 75.8023 16.3859 75.8023 15.9567C75.8023 15.5335 75.8943 15.3219 76.0782 15.3219ZM76.8149 15.3219H77.5508V16.6006H76.8149V15.3219ZM76.8149 15.3219H76.9069V16.6006H76.8149C76.6309 16.6006 76.5389 16.3859 76.5389 15.9567C76.5389 15.5335 76.6309 15.3219 76.8149 15.3219ZM77.5515 15.3219H78.2874V16.6006H77.5515V15.3219ZM77.5515 15.3219H77.6435V16.6006H77.5515C77.3675 16.6006 77.2756 16.3859 77.2756 15.9567C77.2756 15.5335 77.3675 15.3219 77.5515 15.3219ZM78.2882 15.3219H79.0241V16.6006H78.2882V15.3219ZM78.2882 15.3219H78.3802V16.6006H78.2882C78.1042 16.6006 78.0122 16.3859 78.0122 15.9567C78.0122 15.5335 78.1042 15.3219 78.2882 15.3219ZM79.0248 15.3219H79.7607V16.6006H79.0248V15.3219ZM79.0248 15.3219H79.1168V16.6006H79.0248C78.8408 16.6006 78.7488 16.3859 78.7488 15.9567C78.7488 15.5335 78.8408 15.3219 79.0248 15.3219ZM79.7614 15.3219H80.4974V16.6006H79.7614V15.3219ZM79.7614 15.3219H79.8534V16.6006H79.7614C79.5775 16.6006 79.4855 16.3859 79.4855 15.9567C79.4855 15.5335 79.5775 15.3219 79.7614 15.3219ZM80.4981 15.3219H81.234V16.6006H80.4981V15.3219ZM80.4981 15.3219H80.5901V16.6006H80.4981C80.3141 16.6006 80.2221 16.3859 80.2221 15.9567C80.2221 15.5335 80.3141 15.3219 80.4981 15.3219ZM81.8235 11.7803L84.4636 9.59094L85.3099 10.6028L82.6882 12.7738L82.8813 12.2587C83.6111 12.4672 84.1723 12.7769 84.5648 13.1878C84.9634 13.5925 85.2179 14.0831 85.3283 14.6596C85.4448 15.2361 85.4448 15.8831 85.3283 16.6006H81.2347V15.3219H84.206C84.1508 15.003 84.0312 14.7056 83.8472 14.4296C83.6694 14.1536 83.4149 13.9145 83.0837 13.7121C82.7587 13.5036 82.3386 13.3503 81.8235 13.2521V11.7803ZM81.2347 15.3219H81.3267V16.6006H81.2347C81.0507 16.6006 80.9588 16.3859 80.9588 15.9567C80.9588 15.5335 81.0507 15.3219 81.2347 15.3219ZM86.26 16.6006L86.03 15.3219H88.6425C88.9246 15.3219 89.127 15.2943 89.2496 15.2391C89.3723 15.1839 89.4551 15.1165 89.498 15.0368L89.866 16.113C89.8353 16.2296 89.7525 16.3246 89.6176 16.3982C89.4827 16.4718 89.3263 16.5239 89.1485 16.5546C88.9767 16.5853 88.8081 16.6006 88.6425 16.6006H86.26ZM87.4558 13.2154L88.4493 11.9367L90.0684 14.8068C90.1481 14.9478 90.2247 15.0552 90.2983 15.1287C90.3781 15.2023 90.4639 15.2545 90.5559 15.2851C90.6479 15.3097 90.7583 15.3219 90.8871 15.3219H90.9791V16.6006H90.8871C90.6908 16.6006 90.5068 16.5853 90.3351 16.5546C90.1695 16.5239 90.0101 16.4718 89.8568 16.3982C89.7096 16.3185 89.5624 16.205 89.4152 16.0578C89.2742 15.9107 89.127 15.7205 88.9737 15.4875L87.4558 13.2154ZM88.0998 11.5043L87.2075 10.6028L88.063 9.70133L88.9553 10.6028L88.0998 11.5043ZM90.9817 15.3219H91.7176V16.6006H90.9817V15.3219ZM90.9817 15.3219H91.0737V16.6006H90.9817C90.7977 16.6006 90.7057 16.3859 90.7057 15.9567C90.7057 15.5335 90.7977 15.3219 90.9817 15.3219ZM91.7184 15.3219H92.4543V16.6006H91.7184V15.3219ZM91.7184 15.3219H91.8104V16.6006H91.7184C91.5344 16.6006 91.4424 16.3859 91.4424 15.9567C91.4424 15.5335 91.5344 15.3219 91.7184 15.3219ZM92.455 15.3219H93.1909V16.6006H92.455V15.3219ZM92.455 15.3219H92.547V16.6006H92.455C92.271 16.6006 92.179 16.3859 92.179 15.9567C92.179 15.5335 92.271 15.3219 92.455 15.3219ZM93.1916 15.3219H93.9276V16.6006H93.1916V15.3219ZM93.1916 15.3219H93.2836V16.6006H93.1916C93.0077 16.6006 92.9157 16.3859 92.9157 15.9567C92.9157 15.5335 93.0077 15.3219 93.1916 15.3219ZM93.9283 15.3219H94.6642V16.6006H93.9283V15.3219ZM93.9283 15.3219H94.0203V16.6006H93.9283C93.7443 16.6006 93.6523 16.3859 93.6523 15.9567C93.6523 15.5335 93.7443 15.3219 93.9283 15.3219ZM94.6649 15.3219H95.4008V16.6006H94.6649V15.3219ZM94.6649 15.3219H94.7569V16.6006H94.6649C94.4809 16.6006 94.3889 16.3859 94.3889 15.9567C94.3889 15.5335 94.4809 15.3219 94.6649 15.3219ZM95.4016 15.3219H96.1375V16.6006H95.4016V15.3219ZM95.4016 15.3219H95.4935V16.6006H95.4016C95.2176 16.6006 95.1256 16.3859 95.1256 15.9567C95.1256 15.5335 95.2176 15.3219 95.4016 15.3219ZM96.1382 15.3219H96.8741V16.6006H96.1382V15.3219ZM96.1382 15.3219H96.2302V16.6006H96.1382C95.9542 16.6006 95.8622 16.3859 95.8622 15.9567C95.8622 15.5335 95.9542 15.3219 96.1382 15.3219ZM96.8748 15.3219H97.6108V16.6006H96.8748V15.3219ZM96.8748 15.3219H96.9668V16.6006H96.8748C96.6909 16.6006 96.5989 16.3859 96.5989 15.9567C96.5989 15.5335 96.6909 15.3219 96.8748 15.3219ZM97.6115 15.3219H98.3474V16.6006H97.6115V15.3219ZM97.6115 15.3219H97.7035V16.6006H97.6115C97.4275 16.6006 97.3355 16.3859 97.3355 15.9567C97.3355 15.5335 97.4275 15.3219 97.6115 15.3219ZM98.3481 15.3219H99.084V16.6006H98.3481V15.3219ZM98.3481 15.3219H98.4401V16.6006H98.3481C98.1641 16.6006 98.0721 16.3859 98.0721 15.9567C98.0721 15.5335 98.1641 15.3219 98.3481 15.3219ZM99.0847 15.3219H99.8207V16.6006H99.0847V15.3219ZM99.0847 15.3219H99.1767V16.6006H99.0847C98.9008 16.6006 98.8088 16.3859 98.8088 15.9567C98.8088 15.5335 98.9008 15.3219 99.0847 15.3219ZM101.827 15.3219H102.931V16.6006H101.827V15.3219ZM99.8214 16.6006V15.3219H100.796V9.79332H102.103V16.6006H99.8214ZM99.8214 15.3219H99.9134V16.6006H99.8214C99.6374 16.6006 99.5454 16.3859 99.5454 15.9567C99.5454 15.5335 99.6374 15.3219 99.8214 15.3219ZM102.93 16.6006V15.3219H103.905V9.79332H105.211V16.6006H102.93ZM102.93 15.3219H103.022V16.6006H102.93C102.746 16.6006 102.654 16.3859 102.654 15.9567C102.654 15.5335 102.746 15.3219 102.93 15.3219ZM111.972 18.7164C111.512 18.7164 111.095 18.6673 110.721 18.5692C110.347 18.4772 110.022 18.3331 109.746 18.1368C109.476 17.9467 109.267 17.6983 109.12 17.3917C108.979 17.0912 108.909 16.7294 108.909 16.3062C108.909 16.0793 108.942 15.8003 109.01 15.4691C109.077 15.1379 109.185 14.8037 109.332 14.4664L110.454 14.816C110.368 15.049 110.304 15.2667 110.261 15.4691C110.224 15.6654 110.206 15.8524 110.206 16.0302C110.206 16.2572 110.242 16.4565 110.316 16.6282C110.396 16.806 110.515 16.9563 110.675 17.0789C110.84 17.2016 111.043 17.2905 111.282 17.3457C111.527 17.407 111.812 17.4377 112.137 17.4377C112.542 17.4377 112.886 17.4101 113.168 17.3549C113.45 17.2997 113.677 17.2261 113.848 17.1341C114.026 17.0421 114.155 16.9471 114.235 16.849C114.321 16.7508 114.364 16.665 114.364 16.5914C114.364 16.5362 114.333 16.4779 114.272 16.4166C114.216 16.3553 114.106 16.2817 113.94 16.1958C113.775 16.1038 113.53 15.9843 113.205 15.8371C112.965 15.7267 112.76 15.6071 112.588 15.4783C112.416 15.3495 112.285 15.2023 112.193 15.0368C112.101 14.865 112.055 14.6719 112.055 14.4572C112.055 14.0279 112.15 13.6569 112.34 13.3441C112.536 13.0252 112.803 12.7769 113.14 12.599C113.484 12.4212 113.876 12.3322 114.318 12.3322C114.514 12.3322 114.704 12.3506 114.888 12.3874C115.078 12.4242 115.259 12.4764 115.431 12.5438C115.602 12.6113 115.756 12.6941 115.891 12.7922L115.302 13.8593C115.161 13.7734 115.011 13.709 114.851 13.6661C114.692 13.6232 114.514 13.6017 114.318 13.6017C114.023 13.6017 113.796 13.6692 113.637 13.8041C113.477 13.9329 113.398 14.077 113.398 14.2364C113.398 14.3407 113.431 14.4388 113.499 14.5308C113.572 14.6167 113.695 14.7087 113.867 14.8068C114.045 14.8988 114.284 15.0122 114.584 15.1471C114.848 15.2637 115.05 15.3741 115.191 15.4783C115.333 15.5764 115.431 15.6868 115.486 15.8095C115.547 15.9321 115.578 16.0732 115.578 16.2326C115.578 16.4105 115.544 16.6067 115.477 16.8214C115.409 17.0421 115.296 17.2629 115.136 17.4837C114.977 17.7045 114.759 17.9068 114.483 18.0908C114.213 18.2809 113.87 18.4312 113.453 18.5416C113.042 18.6581 112.548 18.7164 111.972 18.7164ZM117.164 18.8727C116.894 18.8727 116.6 18.8206 116.281 18.7164C115.968 18.6182 115.671 18.4465 115.389 18.2012L115.803 17.3733C116.011 17.453 116.211 17.5113 116.401 17.5481C116.597 17.5849 116.775 17.6033 116.934 17.6033C117.29 17.6033 117.597 17.5328 117.854 17.3917C118.112 17.2568 118.311 17.0636 118.452 16.8122C118.599 16.5607 118.673 16.2633 118.673 15.9199C118.673 15.7604 118.636 15.5979 118.562 15.4323C118.489 15.2606 118.363 15.0552 118.185 14.816C118.007 14.5707 117.762 14.261 117.449 13.8869L118.461 12.6358C118.786 13.0774 119.05 13.4821 119.252 13.8501C119.455 14.218 119.602 14.5645 119.694 14.8896C119.786 15.2085 119.832 15.5304 119.832 15.8555C119.832 16.0946 119.801 16.3491 119.74 16.619C119.685 16.895 119.593 17.1648 119.464 17.4285C119.335 17.6922 119.167 17.9314 118.958 18.146C118.756 18.3668 118.504 18.5416 118.204 18.6704C117.903 18.8053 117.557 18.8727 117.164 18.8727ZM122.18 18.7164C121.879 18.7164 121.566 18.6642 121.241 18.56C120.916 18.4619 120.61 18.2871 120.322 18.0356L120.745 17.1893C120.941 17.2506 121.14 17.2997 121.343 17.3365C121.551 17.3794 121.747 17.4009 121.931 17.4009C122.312 17.4009 122.627 17.3273 122.879 17.1801C123.136 17.0391 123.33 16.8459 123.458 16.6006H122.916C122.529 16.6006 122.201 16.5638 121.931 16.4902C121.668 16.4105 121.45 16.3001 121.278 16.159C121.113 16.018 120.993 15.8524 120.919 15.6623C120.846 15.4722 120.809 15.2637 120.809 15.0368C120.809 14.6995 120.861 14.3898 120.965 14.1077C121.076 13.8256 121.22 13.5802 121.398 13.3717C121.582 13.1632 121.79 13.0038 122.023 12.8934C122.263 12.7769 122.511 12.7186 122.768 12.7186C123.149 12.7186 123.474 12.8106 123.744 12.9946C124.013 13.1724 124.231 13.4239 124.397 13.7489C124.562 14.0678 124.676 14.4358 124.737 14.8528C124.749 14.9202 124.762 14.9938 124.774 15.0736C124.786 15.1533 124.792 15.2361 124.792 15.3219H125.307V16.6006H124.673C124.605 16.852 124.504 17.1004 124.369 17.3457C124.24 17.591 124.072 17.8179 123.863 18.0264C123.661 18.2349 123.419 18.4005 123.136 18.5232C122.86 18.652 122.542 18.7164 122.18 18.7164ZM122.888 15.3219H123.606C123.599 15.2729 123.593 15.2238 123.587 15.1747C123.581 15.1257 123.572 15.0797 123.56 15.0368C123.523 14.8344 123.461 14.6535 123.376 14.494C123.29 14.3346 123.189 14.2119 123.072 14.1261C122.956 14.0341 122.827 13.9881 122.686 13.9881C122.563 13.9881 122.45 14.0249 122.345 14.0985C122.247 14.172 122.164 14.2732 122.097 14.402C122.036 14.5247 122.005 14.6627 122.005 14.816C122.005 14.9141 122.029 15.003 122.079 15.0827C122.134 15.1563 122.226 15.2146 122.354 15.2575C122.483 15.3005 122.661 15.3219 122.888 15.3219ZM125.307 15.3219H126.043V16.6006H125.307V15.3219ZM125.307 15.3219H125.399V16.6006H125.307C125.123 16.6006 125.031 16.3859 125.031 15.9567C125.031 15.5335 125.123 15.3219 125.307 15.3219ZM126.044 15.3219H126.78V16.6006H126.044V15.3219ZM126.044 15.3219H126.136V16.6006H126.044C125.86 16.6006 125.768 16.3859 125.768 15.9567C125.768 15.5335 125.86 15.3219 126.044 15.3219ZM126.781 15.3219H127.517V16.6006H126.781V15.3219ZM126.781 15.3219H126.873V16.6006H126.781C126.597 16.6006 126.505 16.3859 126.505 15.9567C126.505 15.5335 126.597 15.3219 126.781 15.3219ZM127.517 15.3219H128.253V16.6006H127.517V15.3219ZM127.517 15.3219H127.609V16.6006H127.517C127.333 16.6006 127.241 16.3859 127.241 15.9567C127.241 15.5335 127.333 15.3219 127.517 15.3219ZM128.254 15.3219H128.99V16.6006H128.254V15.3219ZM128.254 15.3219H128.346V16.6006H128.254C128.07 16.6006 127.978 16.3859 127.978 15.9567C127.978 15.5335 128.07 15.3219 128.254 15.3219ZM128.991 15.3219H129.726V16.6006H128.991V15.3219ZM128.991 15.3219H129.082V16.6006H128.991C128.807 16.6006 128.715 16.3859 128.715 15.9567C128.715 15.5335 128.807 15.3219 128.991 15.3219ZM129.727 15.3219H130.463V16.6006H129.727V15.3219ZM129.727 15.3219H129.819V16.6006H129.727C129.543 16.6006 129.451 16.3859 129.451 15.9567C129.451 15.5335 129.543 15.3219 129.727 15.3219ZM130.464 15.3219H131.2V16.6006H130.464V15.3219ZM130.464 15.3219H130.556V16.6006H130.464C130.28 16.6006 130.188 16.3859 130.188 15.9567C130.188 15.5335 130.28 15.3219 130.464 15.3219ZM137.382 16.6006C136.99 16.6006 136.652 16.5638 136.37 16.4902C136.094 16.4105 135.858 16.3185 135.662 16.2142C135.466 16.1038 135.294 15.9996 135.147 15.9015L135.864 15.1011C135.999 15.1686 136.168 15.2238 136.37 15.2667C136.579 15.3035 136.806 15.3219 137.051 15.3219H138.192C138.143 15.003 138.051 14.6995 137.916 14.4112C137.787 14.1169 137.627 13.8317 137.437 13.5557L138.596 12.3782C138.737 12.6481 138.866 12.9332 138.983 13.2337C139.099 13.5281 139.185 13.847 139.24 14.1904C139.296 14.5277 139.305 14.8957 139.268 15.2943C139.231 15.693 139.13 16.1284 138.964 16.6006H137.382ZM131.2 16.6006V15.3219H132.194C132.231 15.1993 132.264 15.0613 132.295 14.908C132.326 14.7485 132.347 14.5829 132.359 14.4112C132.378 14.2334 132.384 14.0525 132.378 13.8685L133.905 13.3441C133.825 13.7366 133.745 14.077 133.666 14.3652C133.586 14.6535 133.497 14.9172 133.399 15.1563C133.301 15.3894 133.187 15.6194 133.059 15.8463C132.93 16.0732 132.773 16.3246 132.589 16.6006H131.2ZM134.163 16.6006C133.745 16.6006 133.387 16.5638 133.086 16.4902C132.792 16.4105 132.55 16.3215 132.359 16.2234C132.169 16.1192 132.025 16.0272 131.927 15.9475L132.451 15.0184C132.617 15.1165 132.813 15.1931 133.04 15.2483C133.267 15.2974 133.516 15.3219 133.785 15.3219H134.77C134.806 15.2238 134.84 15.095 134.871 14.9356C134.901 14.7761 134.923 14.6044 134.935 14.4204C134.954 14.2364 134.96 14.0525 134.954 13.8685L136.49 13.3441C136.41 13.7366 136.33 14.077 136.251 14.3652C136.171 14.6535 136.079 14.9172 135.975 15.1563C135.877 15.3894 135.763 15.6194 135.634 15.8463C135.506 16.0732 135.349 16.3246 135.165 16.6006H134.163ZM131.2 15.3219H131.292V16.6006H131.2C131.016 16.6006 130.924 16.3859 130.924 15.9567C130.924 15.5335 131.016 15.3219 131.2 15.3219ZM135.809 11.3664L134.898 10.4648L135.754 9.55415L136.646 10.4648L135.809 11.3664ZM135.027 12.8106L134.135 11.8999L134.972 10.9984L135.864 11.8999L135.027 12.8106ZM136.628 12.8106L135.736 11.8999L136.591 10.9984L137.483 11.8999L136.628 12.8106Z" fill="#0E242D"/>
<path d="M6.16639 28.9579C6.16639 29.3443 6.07133 29.6815 5.88122 29.9698C5.69111 30.258 5.41514 30.4819 5.05331 30.6413C4.69762 30.7946 4.2622 30.8713 3.74705 30.8713C3.52014 30.8713 3.2963 30.856 3.07552 30.8253C2.86088 30.7946 2.65237 30.7517 2.44999 30.6965C2.25375 30.6352 2.0667 30.5616 1.88885 30.4757V29.1787C2.20162 29.3136 2.52358 29.4393 2.85475 29.5558C3.19205 29.6662 3.52628 29.7214 3.85744 29.7214C4.08435 29.7214 4.26526 29.6907 4.40018 29.6294C4.54123 29.5681 4.64242 29.4853 4.70375 29.381C4.77121 29.2768 4.80494 29.1572 4.80494 29.0223C4.80494 28.8567 4.74668 28.7157 4.63016 28.5991C4.51977 28.4826 4.36952 28.3753 4.17941 28.2772C3.98929 28.1729 3.77158 28.0625 3.52628 27.946C3.37296 27.8724 3.20738 27.7866 3.02953 27.6884C2.85168 27.5842 2.67997 27.4585 2.51439 27.3113C2.35494 27.158 2.22308 26.974 2.11883 26.7593C2.01457 26.5447 1.96244 26.2871 1.96244 25.9866C1.96244 25.5941 2.05137 25.2599 2.22922 24.9839C2.4132 24.7018 2.67077 24.4872 3.00193 24.34C3.33923 24.1928 3.73479 24.1192 4.1886 24.1192C4.53203 24.1192 4.85707 24.1591 5.1637 24.2388C5.47647 24.3185 5.8015 24.432 6.13879 24.5792L5.68804 25.6646C5.38754 25.542 5.1177 25.4469 4.87853 25.3795C4.63936 25.312 4.39405 25.2783 4.14261 25.2783C3.97089 25.2783 3.82371 25.3059 3.70106 25.3611C3.5784 25.4163 3.48335 25.4929 3.41589 25.5911C3.35456 25.6892 3.3239 25.8057 3.3239 25.9406C3.3239 26.0939 3.36989 26.2258 3.46188 26.3362C3.55387 26.4404 3.69186 26.5416 3.87584 26.6397C4.05982 26.7379 4.28979 26.8544 4.56576 26.9893C4.90306 27.1488 5.18823 27.3143 5.42127 27.4861C5.66045 27.6578 5.84443 27.8601 5.97321 28.0932C6.102 28.3262 6.16639 28.6145 6.16639 28.9579ZM8.25255 25.2139C8.25255 25.4592 8.24335 25.6953 8.22496 25.9222C8.21269 26.1491 8.20043 26.3086 8.18816 26.4006H8.26175C8.37214 26.2289 8.50093 26.0909 8.64811 25.9866C8.79529 25.8762 8.95781 25.7965 9.13566 25.7474C9.31964 25.6922 9.51282 25.6646 9.71519 25.6646C10.077 25.6646 10.3929 25.729 10.6627 25.8578C10.9325 25.9866 11.141 26.1859 11.2882 26.4558C11.4415 26.7256 11.5182 27.0752 11.5182 27.5045V30.7793H10.1475V27.8448C10.1475 27.483 10.0801 27.2131 9.94517 27.0353C9.81638 26.8513 9.61401 26.7593 9.33804 26.7593C9.06207 26.7593 8.84436 26.8237 8.68491 26.9525C8.53159 27.0813 8.4212 27.2683 8.35374 27.5136C8.28628 27.759 8.25255 28.0595 8.25255 28.4152V30.7793H6.8819V23.7881H8.25255V25.2139ZM16.3038 29.0223C16.2792 28.918 16.2424 28.7647 16.1934 28.5623C16.1505 28.3538 16.1014 28.133 16.0462 27.9C15.991 27.6608 15.9389 27.4431 15.8898 27.2469C15.8408 27.0445 15.807 26.8973 15.7886 26.8053H15.7518C15.7334 26.8973 15.6997 27.0445 15.6506 27.2469C15.6077 27.4431 15.5586 27.6608 15.5035 27.9C15.4483 28.133 15.3961 28.3538 15.3471 28.5623C15.298 28.7708 15.2612 28.9303 15.2367 29.0407L14.8319 30.7793H13.3601L11.9342 25.7566H13.2957L13.8752 27.9828C13.9182 28.1361 13.955 28.3201 13.9856 28.5347C14.0224 28.7494 14.0561 28.9579 14.0868 29.1603C14.1175 29.3565 14.1389 29.5129 14.1512 29.6294H14.188C14.1941 29.5436 14.2064 29.4301 14.2248 29.2891C14.2432 29.1419 14.2647 28.9916 14.2892 28.8383C14.3198 28.685 14.3444 28.547 14.3628 28.4244C14.3873 28.2956 14.4057 28.2097 14.418 28.1668L15.0343 25.7566H16.5429L17.1317 28.1668C17.1562 28.2526 17.1838 28.3906 17.2145 28.5807C17.2513 28.7708 17.2819 28.964 17.3065 29.1603C17.3371 29.3565 17.3525 29.5129 17.3525 29.6294H17.3893C17.4015 29.5252 17.423 29.3749 17.4536 29.1787C17.4843 28.9763 17.518 28.7647 17.5548 28.5439C17.5978 28.3232 17.6407 28.1361 17.6836 27.9828L18.2816 25.7566H19.6246L18.1804 30.7793H16.6901L16.3038 29.0223ZM22.876 25.6646C22.9434 25.6646 23.0231 25.6677 23.1151 25.6738C23.2071 25.68 23.2807 25.6892 23.3359 25.7014L23.2347 26.9893C23.1918 26.977 23.1274 26.9678 23.0415 26.9617C22.9618 26.9494 22.8913 26.9433 22.83 26.9433C22.6521 26.9433 22.4804 26.9678 22.3148 27.0169C22.1492 27.0598 21.999 27.1304 21.8641 27.2285C21.7353 27.3266 21.631 27.4585 21.5513 27.624C21.4777 27.7835 21.4409 27.9828 21.4409 28.222V30.7793H20.0703V25.7566H21.1097L21.3121 26.6029H21.3765C21.4746 26.4312 21.5973 26.2748 21.7445 26.1338C21.8917 25.9927 22.0603 25.8793 22.2504 25.7934C22.4467 25.7076 22.6552 25.6646 22.876 25.6646ZM25.7605 25.6554C26.4351 25.6554 26.9502 25.8026 27.3059 26.097C27.6678 26.3852 27.8487 26.8299 27.8487 27.4309V30.7793H26.892L26.6252 30.0986H26.5884C26.4474 30.2764 26.3002 30.4236 26.1468 30.5401C25.9997 30.6566 25.828 30.7394 25.6317 30.7885C25.4416 30.8437 25.2055 30.8713 24.9234 30.8713C24.629 30.8713 24.3622 30.8161 24.1231 30.7057C23.89 30.5892 23.706 30.4144 23.5711 30.1814C23.4362 29.9422 23.3687 29.6417 23.3687 29.2799C23.3687 28.7463 23.5558 28.3538 23.9299 28.1024C24.304 27.8448 24.8651 27.7038 25.6133 27.6792L26.4872 27.6516V27.4309C26.4872 27.1672 26.4167 26.974 26.2756 26.8513C26.1407 26.7287 25.9506 26.6673 25.7053 26.6673C25.46 26.6673 25.2208 26.7041 24.9878 26.7777C24.7547 26.8452 24.5217 26.931 24.2887 27.0353L23.8379 26.1062C24.1077 25.9651 24.4052 25.8548 24.7302 25.775C25.0614 25.6953 25.4048 25.6554 25.7605 25.6554ZM25.9537 28.4703C25.5121 28.4826 25.2055 28.5623 25.0338 28.7095C24.8621 28.8567 24.7762 29.0499 24.7762 29.2891C24.7762 29.4976 24.8375 29.6478 24.9602 29.7398C25.0828 29.8257 25.2423 29.8686 25.4385 29.8686C25.7329 29.8686 25.9813 29.7827 26.1836 29.611C26.386 29.4332 26.4872 29.1848 26.4872 28.8659V28.4519L25.9537 28.4703ZM33.9585 30.7793H32.5878V24.2112H36.3502V25.3519H33.9585V27.0445H36.1846V28.1852H33.9585V30.7793ZM41.7208 28.2588C41.7208 28.6758 41.6626 29.0468 41.5461 29.3718C41.4357 29.6969 41.2732 29.9729 41.0585 30.1998C40.85 30.4205 40.5955 30.5892 40.295 30.7057C39.9945 30.8161 39.6541 30.8713 39.2739 30.8713C38.9243 30.8713 38.5993 30.8161 38.2988 30.7057C38.0044 30.5892 37.7499 30.4205 37.5353 30.1998C37.3206 29.9729 37.152 29.6969 37.0293 29.3718C36.9128 29.0468 36.8546 28.6758 36.8546 28.2588C36.8546 27.7007 36.9527 27.2315 37.1489 26.8513C37.3452 26.465 37.6273 26.1706 37.9952 25.9682C38.3632 25.7658 38.7986 25.6646 39.3015 25.6646C39.7737 25.6646 40.1907 25.7658 40.5526 25.9682C40.9144 26.1706 41.1996 26.465 41.4081 26.8513C41.6166 27.2315 41.7208 27.7007 41.7208 28.2588ZM38.2528 28.2588C38.2528 28.5899 38.2865 28.869 38.354 29.0959C38.4276 29.3167 38.541 29.4853 38.6944 29.6018C38.8477 29.7122 39.047 29.7674 39.2923 29.7674C39.5376 29.7674 39.7339 29.7122 39.881 29.6018C40.0344 29.4853 40.1447 29.3167 40.2122 29.0959C40.2858 28.869 40.3226 28.5899 40.3226 28.2588C40.3226 27.9276 40.2858 27.6516 40.2122 27.4309C40.1447 27.2101 40.0344 27.0445 39.881 26.9341C39.7277 26.8237 39.5284 26.7685 39.2831 26.7685C38.9213 26.7685 38.6576 26.8942 38.492 27.1457C38.3325 27.391 38.2528 27.762 38.2528 28.2588ZM45.2913 25.6646C45.3588 25.6646 45.4385 25.6677 45.5305 25.6738C45.6225 25.68 45.6961 25.6892 45.7513 25.7014L45.6501 26.9893C45.6072 26.977 45.5428 26.9678 45.4569 26.9617C45.3772 26.9494 45.3067 26.9433 45.2454 26.9433C45.0675 26.9433 44.8958 26.9678 44.7302 27.0169C44.5646 27.0598 44.4144 27.1304 44.2795 27.2285C44.1507 27.3266 44.0464 27.4585 43.9667 27.624C43.8931 27.7835 43.8563 27.9828 43.8563 28.222V30.7793H42.4857V25.7566H43.5251L43.7275 26.6029H43.7919C43.89 26.4312 44.0127 26.2748 44.1599 26.1338C44.3071 25.9927 44.4757 25.8793 44.6658 25.7934C44.8621 25.7076 45.0706 25.6646 45.2913 25.6646ZM54.019 30.7793L53.5407 29.2155H51.149L50.6706 30.7793H49.1712L51.4893 24.1836H53.1911L55.5185 30.7793H54.019ZM52.7312 26.5202C52.7005 26.4159 52.6607 26.284 52.6116 26.1246C52.5625 25.9651 52.5135 25.8026 52.4644 25.6371C52.4154 25.4715 52.3755 25.3274 52.3448 25.2047C52.3142 25.3274 52.2712 25.4807 52.216 25.6646C52.167 25.8425 52.1179 26.0142 52.0689 26.1798C52.0259 26.3392 51.9922 26.4527 51.9677 26.5202L51.4985 28.0472H53.2095L52.7312 26.5202ZM58.6777 25.6646C58.7452 25.6646 58.8249 25.6677 58.9169 25.6738C59.0089 25.68 59.0825 25.6892 59.1377 25.7014L59.0365 26.9893C58.9935 26.977 58.9291 26.9678 58.8433 26.9617C58.7636 26.9494 58.693 26.9433 58.6317 26.9433C58.4539 26.9433 58.2821 26.9678 58.1166 27.0169C57.951 27.0598 57.8007 27.1304 57.6658 27.2285C57.537 27.3266 57.4328 27.4585 57.353 27.624C57.2795 27.7835 57.2427 27.9828 57.2427 28.222V30.7793H55.872V25.7566H56.9115L57.1139 26.6029H57.1783C57.2764 26.4312 57.399 26.2748 57.5462 26.1338C57.6934 25.9927 57.8621 25.8793 58.0522 25.7934C58.2484 25.7076 58.4569 25.6646 58.6777 25.6646ZM61.7971 29.7766C61.9504 29.7766 62.0976 29.7613 62.2386 29.7306C62.3797 29.6999 62.5208 29.6632 62.6618 29.6202V30.6413C62.5146 30.7026 62.3306 30.7548 62.1099 30.7977C61.8952 30.8468 61.6591 30.8713 61.4015 30.8713C61.101 30.8713 60.8312 30.8222 60.592 30.7241C60.359 30.626 60.1719 30.4573 60.0309 30.2182C59.896 29.9729 59.8285 29.6356 59.8285 29.2063V26.7869H59.1754V26.2074L59.9297 25.7474L60.3253 24.6896H61.1992V25.7566H62.6066V26.7869H61.1992V29.2063C61.1992 29.3964 61.2544 29.5405 61.3647 29.6386C61.4751 29.7306 61.6192 29.7766 61.7971 29.7766ZM64.6727 25.7566V30.7793H63.302V25.7566H64.6727ZM63.9919 23.7881C64.1943 23.7881 64.3691 23.8371 64.5163 23.9352C64.6635 24.0272 64.737 24.202 64.737 24.4596C64.737 24.711 64.6635 24.8858 64.5163 24.9839C64.3691 25.082 64.1943 25.1311 63.9919 25.1311C63.7834 25.1311 63.6056 25.082 63.4584 24.9839C63.3173 24.8858 63.2468 24.711 63.2468 24.4596C63.2468 24.202 63.3173 24.0272 63.4584 23.9352C63.6056 23.8371 63.7834 23.7881 63.9919 23.7881ZM68.515 26.7869H67.3283V30.7793H65.9576V26.7869H65.2033V26.1246L65.9576 25.7566V25.3887C65.9576 24.9594 66.0282 24.6282 66.1692 24.3952C66.3164 24.156 66.5218 23.9874 66.7855 23.8892C67.0554 23.7911 67.3712 23.7421 67.733 23.7421C68.0029 23.7421 68.2451 23.7635 68.4598 23.8064C68.6805 23.8494 68.8584 23.8984 68.9933 23.9536L68.6437 24.9563C68.5395 24.9257 68.426 24.8981 68.3034 24.8735C68.1807 24.8429 68.0397 24.8275 67.8802 24.8275C67.6901 24.8275 67.5491 24.8858 67.4571 25.0023C67.3712 25.1188 67.3283 25.266 67.3283 25.4439V25.7566H68.515V26.7869ZM70.6675 25.7566V30.7793H69.2969V25.7566H70.6675ZM69.9868 23.7881C70.1892 23.7881 70.364 23.8371 70.5111 23.9352C70.6583 24.0272 70.7319 24.202 70.7319 24.4596C70.7319 24.711 70.6583 24.8858 70.5111 24.9839C70.364 25.082 70.1892 25.1311 69.9868 25.1311C69.7783 25.1311 69.6004 25.082 69.4533 24.9839C69.3122 24.8858 69.2417 24.711 69.2417 24.4596C69.2417 24.202 69.3122 24.0272 69.4533 23.9352C69.6004 23.8371 69.7783 23.7881 69.9868 23.7881ZM73.7803 30.8713C73.2836 30.8713 72.8604 30.7824 72.5109 30.6045C72.1613 30.4205 71.8945 30.1384 71.7105 29.7582C71.5266 29.378 71.4346 28.8904 71.4346 28.2956C71.4346 27.6823 71.5388 27.1825 71.7473 26.7961C71.9558 26.4098 72.2441 26.1246 72.612 25.9406C72.9861 25.7566 73.4154 25.6646 73.8999 25.6646C74.2433 25.6646 74.5408 25.6984 74.7922 25.7658C75.0498 25.8333 75.2736 25.913 75.4637 26.005L75.059 27.0629C74.8443 26.977 74.642 26.9065 74.4518 26.8513C74.2679 26.7961 74.0839 26.7685 73.8999 26.7685C73.6607 26.7685 73.4614 26.8268 73.302 26.9433C73.1425 27.0537 73.0229 27.2223 72.9432 27.4493C72.8696 27.67 72.8328 27.9491 72.8328 28.2864C72.8328 28.6175 72.8727 28.8935 72.9524 29.1143C73.0383 29.3289 73.1609 29.4914 73.3204 29.6018C73.4798 29.7061 73.673 29.7582 73.8999 29.7582C74.1881 29.7582 74.4426 29.7214 74.6634 29.6478C74.8842 29.5681 75.0988 29.4608 75.3074 29.3259V30.4941C75.0988 30.629 74.8781 30.7241 74.645 30.7793C74.4181 30.8406 74.1299 30.8713 73.7803 30.8713ZM77.4661 25.7566V30.7793H76.0954V25.7566H77.4661ZM76.7854 23.7881C76.9877 23.7881 77.1625 23.8371 77.3097 23.9352C77.4569 24.0272 77.5305 24.202 77.5305 24.4596C77.5305 24.711 77.4569 24.8858 77.3097 24.9839C77.1625 25.082 76.9877 25.1311 76.7854 25.1311C76.5769 25.1311 76.399 25.082 76.2518 24.9839C76.1108 24.8858 76.0403 24.711 76.0403 24.4596C76.0403 24.202 76.1108 24.0272 76.2518 23.9352C76.399 23.8371 76.5769 23.7881 76.7854 23.7881ZM80.5909 25.6554C81.2655 25.6554 81.7806 25.8026 82.1363 26.097C82.4981 26.3852 82.6791 26.8299 82.6791 27.4309V30.7793H81.7224L81.4556 30.0986H81.4188C81.2777 30.2764 81.1306 30.4236 80.9772 30.5401C80.8301 30.6566 80.6583 30.7394 80.4621 30.7885C80.272 30.8437 80.0359 30.8713 79.7538 30.8713C79.4594 30.8713 79.1926 30.8161 78.9535 30.7057C78.7204 30.5892 78.5364 30.4144 78.4015 30.1814C78.2666 29.9422 78.1991 29.6417 78.1991 29.2799C78.1991 28.7463 78.3862 28.3538 78.7603 28.1024C79.1344 27.8448 79.6955 27.7038 80.4437 27.6792L81.3176 27.6516V27.4309C81.3176 27.1672 81.2471 26.974 81.106 26.8513C80.9711 26.7287 80.781 26.6673 80.5357 26.6673C80.2904 26.6673 80.0512 26.7041 79.8182 26.7777C79.5851 26.8452 79.3521 26.931 79.119 27.0353L78.6683 26.1062C78.9381 25.9651 79.2356 25.8548 79.5606 25.775C79.8918 25.6953 80.2352 25.6554 80.5909 25.6554ZM80.7841 28.4703C80.3425 28.4826 80.0359 28.5623 79.8642 28.7095C79.6924 28.8567 79.6066 29.0499 79.6066 29.2891C79.6066 29.4976 79.6679 29.6478 79.7906 29.7398C79.9132 29.8257 80.0727 29.8686 80.2689 29.8686C80.5633 29.8686 80.8117 29.7827 81.014 29.611C81.2164 29.4332 81.3176 29.1848 81.3176 28.8659V28.4519L80.7841 28.4703ZM85.0847 30.7793H83.7141V23.7881H85.0847V30.7793ZM92.3092 30.7793H89.3195V29.9882L90.1198 29.6202V25.3703L89.3195 25.0023V24.2112H92.3092V25.0023L91.5089 25.3703V29.6202L92.3092 29.9882V30.7793ZM95.8018 25.6646C96.3415 25.6646 96.7738 25.8118 97.0989 26.1062C97.4239 26.3944 97.5864 26.8605 97.5864 27.5045V30.7793H96.2158V27.8448C96.2158 27.483 96.1514 27.2131 96.0226 27.0353C95.8938 26.8513 95.6884 26.7593 95.4062 26.7593C94.9892 26.7593 94.7041 26.9034 94.5507 27.1917C94.3974 27.4738 94.3208 27.8816 94.3208 28.4152V30.7793H92.9501V25.7566H93.9988L94.1828 26.4006H94.2564C94.3668 26.2289 94.5017 26.0909 94.6611 25.9866C94.8206 25.8762 94.9984 25.7965 95.1947 25.7474C95.3909 25.6922 95.5933 25.6646 95.8018 25.6646ZM100.744 29.7766C100.897 29.7766 101.044 29.7613 101.185 29.7306C101.326 29.6999 101.467 29.6632 101.608 29.6202V30.6413C101.461 30.7026 101.277 30.7548 101.057 30.7977C100.842 30.8468 100.606 30.8713 100.348 30.8713C100.048 30.8713 99.7779 30.8222 99.5387 30.7241C99.3056 30.626 99.1186 30.4573 98.9775 30.2182C98.8426 29.9729 98.7752 29.6356 98.7752 29.2063V26.7869H98.122V26.2074L98.8764 25.7474L99.2719 24.6896H100.146V25.7566H101.553V26.7869H100.146V29.2063C100.146 29.3964 100.201 29.5405 100.311 29.6386C100.422 29.7306 100.566 29.7766 100.744 29.7766ZM104.318 25.6646C104.785 25.6646 105.183 25.7536 105.514 25.9314C105.852 26.1093 106.112 26.3668 106.296 26.7041C106.48 27.0414 106.572 27.4554 106.572 27.946V28.6083H103.334C103.346 28.9947 103.46 29.2983 103.674 29.519C103.895 29.7398 104.199 29.8502 104.585 29.8502C104.91 29.8502 105.205 29.8195 105.468 29.7582C105.732 29.6907 106.005 29.5896 106.287 29.4546V30.5125C106.042 30.6352 105.781 30.7241 105.505 30.7793C105.235 30.8406 104.907 30.8713 104.521 30.8713C104.018 30.8713 103.573 30.7793 103.187 30.5953C102.801 30.4052 102.497 30.12 102.276 29.7398C102.055 29.3596 101.945 28.8812 101.945 28.3048C101.945 27.716 102.043 27.2285 102.239 26.8421C102.442 26.4496 102.721 26.1553 103.077 25.959C103.432 25.7628 103.846 25.6646 104.318 25.6646ZM104.328 26.6397C104.064 26.6397 103.843 26.7256 103.665 26.8973C103.494 27.069 103.392 27.3358 103.362 27.6976H105.284C105.284 27.4953 105.248 27.3143 105.174 27.1549C105.106 26.9954 105.002 26.8697 104.861 26.7777C104.72 26.6857 104.542 26.6397 104.328 26.6397ZM108.686 30.7793H107.316V23.7881H108.686V30.7793ZM111.121 30.7793H109.751V23.7881H111.121V30.7793ZM113.556 25.7566V30.7793H112.185V25.7566H113.556ZM112.875 23.7881C113.078 23.7881 113.252 23.8371 113.4 23.9352C113.547 24.0272 113.62 24.202 113.62 24.4596C113.62 24.711 113.547 24.8858 113.4 24.9839C113.252 25.082 113.078 25.1311 112.875 25.1311C112.667 25.1311 112.489 25.082 112.342 24.9839C112.201 24.8858 112.13 24.711 112.13 24.4596C112.13 24.202 112.201 24.0272 112.342 23.9352C112.489 23.8371 112.667 23.7881 112.875 23.7881ZM116.248 25.6646C116.555 25.6646 116.831 25.726 117.076 25.8486C117.322 25.9713 117.53 26.1553 117.702 26.4006H117.739L117.849 25.7566H119.008V30.7885C119.008 31.2668 118.913 31.6685 118.723 31.9936C118.539 32.3186 118.26 32.5639 117.886 32.7295C117.512 32.9012 117.049 32.9871 116.497 32.9871C116.141 32.9871 115.81 32.9656 115.503 32.9227C115.203 32.8797 114.908 32.8031 114.62 32.6927V31.598C114.829 31.6839 115.037 31.7544 115.246 31.8096C115.46 31.8709 115.678 31.9138 115.899 31.9384C116.126 31.969 116.353 31.9844 116.58 31.9844C116.935 31.9844 117.199 31.8893 117.371 31.6992C117.549 31.5091 117.638 31.2239 117.638 30.8437V30.7425C117.638 30.6382 117.641 30.5309 117.647 30.4205C117.659 30.3101 117.668 30.212 117.674 30.1262H117.638C117.466 30.3899 117.26 30.58 117.021 30.6965C116.782 30.813 116.512 30.8713 116.212 30.8713C115.617 30.8713 115.151 30.6444 114.813 30.1906C114.482 29.7306 114.317 29.0928 114.317 28.2772C114.317 27.7252 114.393 27.2561 114.547 26.8697C114.7 26.4772 114.921 26.1798 115.209 25.9774C115.503 25.7689 115.85 25.6646 116.248 25.6646ZM116.681 26.7777C116.466 26.7777 116.285 26.836 116.138 26.9525C115.997 27.0629 115.89 27.2315 115.816 27.4585C115.749 27.6792 115.715 27.9583 115.715 28.2956C115.715 28.7984 115.795 29.1756 115.954 29.427C116.114 29.6723 116.362 29.795 116.699 29.795C116.877 29.795 117.03 29.7735 117.159 29.7306C117.288 29.6815 117.392 29.6049 117.472 29.5006C117.558 29.3902 117.622 29.2492 117.665 29.0775C117.708 28.9058 117.73 28.6973 117.73 28.4519V28.2864C117.73 27.9245 117.693 27.6332 117.619 27.4125C117.546 27.1917 117.432 27.0322 117.279 26.9341C117.125 26.8299 116.926 26.7777 116.681 26.7777ZM122.143 25.6646C122.609 25.6646 123.008 25.7536 123.339 25.9314C123.676 26.1093 123.937 26.3668 124.121 26.7041C124.305 27.0414 124.397 27.4554 124.397 27.946V28.6083H121.159C121.171 28.9947 121.285 29.2983 121.499 29.519C121.72 29.7398 122.024 29.8502 122.41 29.8502C122.735 29.8502 123.029 29.8195 123.293 29.7582C123.557 29.6907 123.83 29.5896 124.112 29.4546V30.5125C123.867 30.6352 123.606 30.7241 123.33 30.7793C123.06 30.8406 122.732 30.8713 122.346 30.8713C121.843 30.8713 121.398 30.7793 121.012 30.5953C120.625 30.4052 120.322 30.12 120.101 29.7398C119.88 29.3596 119.77 28.8812 119.77 28.3048C119.77 27.716 119.868 27.2285 120.064 26.8421C120.267 26.4496 120.546 26.1553 120.901 25.959C121.257 25.7628 121.671 25.6646 122.143 25.6646ZM122.153 26.6397C121.889 26.6397 121.668 26.7256 121.49 26.8973C121.318 27.069 121.217 27.3358 121.187 27.6976H123.109C123.109 27.4953 123.072 27.3143 122.999 27.1549C122.931 26.9954 122.827 26.8697 122.686 26.7777C122.545 26.6857 122.367 26.6397 122.153 26.6397ZM127.992 25.6646C128.532 25.6646 128.964 25.8118 129.289 26.1062C129.614 26.3944 129.777 26.8605 129.777 27.5045V30.7793H128.406V27.8448C128.406 27.483 128.342 27.2131 128.213 27.0353C128.084 26.8513 127.879 26.7593 127.597 26.7593C127.18 26.7593 126.894 26.9034 126.741 27.1917C126.588 27.4738 126.511 27.8816 126.511 28.4152V30.7793H125.141V25.7566H126.189L126.373 26.4006H126.447C126.557 26.2289 126.692 26.0909 126.852 25.9866C127.011 25.8762 127.189 25.7965 127.385 25.7474C127.581 25.6922 127.784 25.6646 127.992 25.6646ZM132.861 30.8713C132.364 30.8713 131.941 30.7824 131.591 30.6045C131.242 30.4205 130.975 30.1384 130.791 29.7582C130.607 29.378 130.515 28.8904 130.515 28.2956C130.515 27.6823 130.619 27.1825 130.828 26.7961C131.036 26.4098 131.324 26.1246 131.692 25.9406C132.066 25.7566 132.496 25.6646 132.98 25.6646C133.324 25.6646 133.621 25.6984 133.872 25.7658C134.13 25.8333 134.354 25.913 134.544 26.005L134.139 27.0629C133.925 26.977 133.722 26.9065 133.532 26.8513C133.348 26.7961 133.164 26.7685 132.98 26.7685C132.741 26.7685 132.542 26.8268 132.382 26.9433C132.223 27.0537 132.103 27.2223 132.023 27.4493C131.95 27.67 131.913 27.9491 131.913 28.2864C131.913 28.6175 131.953 28.8935 132.033 29.1143C132.119 29.3289 132.241 29.4914 132.401 29.6018C132.56 29.7061 132.753 29.7582 132.98 29.7582C133.268 29.7582 133.523 29.7214 133.744 29.6478C133.964 29.5681 134.179 29.4608 134.388 29.3259V30.4941C134.179 30.629 133.958 30.7241 133.725 30.7793C133.498 30.8406 133.21 30.8713 132.861 30.8713ZM137.245 25.6646C137.712 25.6646 138.11 25.7536 138.441 25.9314C138.779 26.1093 139.039 26.3668 139.223 26.7041C139.407 27.0414 139.499 27.4554 139.499 27.946V28.6083H136.261C136.273 28.9947 136.387 29.2983 136.602 29.519C136.822 29.7398 137.126 29.8502 137.512 29.8502C137.837 29.8502 138.132 29.8195 138.395 29.7582C138.659 29.6907 138.932 29.5896 139.214 29.4546V30.5125C138.969 30.6352 138.708 30.7241 138.432 30.7793C138.162 30.8406 137.834 30.8713 137.448 30.8713C136.945 30.8713 136.5 30.7793 136.114 30.5953C135.728 30.4052 135.424 30.12 135.203 29.7398C134.983 29.3596 134.872 28.8812 134.872 28.3048C134.872 27.716 134.97 27.2285 135.167 26.8421C135.369 26.4496 135.648 26.1553 136.004 25.959C136.359 25.7628 136.773 25.6646 137.245 25.6646ZM137.255 26.6397C136.991 26.6397 136.77 26.7256 136.592 26.8973C136.421 27.069 136.319 27.3358 136.289 27.6976H138.211C138.211 27.4953 138.175 27.3143 138.101 27.1549C138.034 26.9954 137.929 26.8697 137.788 26.7777C137.647 26.6857 137.469 26.6397 137.255 26.6397Z" fill="#0E242D"/>
<path d="M155.702 23.3868L155.711 23.3868C156.699 23.6248 157.71 23.7863 158.724 23.8713C160.31 24.003 161.908 23.986 163.494 23.816C164.188 23.7438 164.877 23.6503 165.571 23.5355C167.653 23.2041 169.709 22.7069 171.707 22.0568C171.72 22.0568 172.889 21.6701 174.298 21.054C175.172 20.6758 176.024 20.2423 176.841 19.7622C177.21 19.554 177.553 19.3032 177.869 19.0228C178.238 18.6489 178.51 18.1984 178.673 17.7055C178.712 17.6078 178.743 17.5058 178.778 17.4081C179.143 15.9123 178.581 15.1517 178.581 15.1517C178.124 14.1744 175.155 14.2083 175.155 14.2083C171.782 14.1404 172.111 12.3217 172.111 12.3217C173.104 10.6134 174.544 9.18569 176.292 8.18286C176.688 7.9534 177.259 7.63045 177.746 7.75793C178.005 7.84716 178.225 8.02139 178.361 8.25085L179.077 7.18852C179.301 6.86133 179.283 6.43639 179.029 6.13044C179.029 6.13044 179.029 6.13045 179.024 6.1262C178.774 5.816 178.409 5.60778 178.005 5.54829C177.847 5.52704 177.689 5.5483 177.544 5.59504C176.38 5.93073 174.162 7.99589 174.162 7.99589C169.871 12.3939 171.527 15.02 171.527 15.02C172.463 16.7239 175.585 16.4095 175.585 16.4095C177.32 16.469 177.882 16.8259 178.062 17.0596C178.098 17.1106 178.124 17.1701 178.141 17.2254C178.141 17.2254 178.141 17.2509 178.141 17.2551C178.141 17.2551 178.115 17.2806 178.102 17.2933L178.089 17.3018C176.393 18.2919 174.597 19.112 172.73 19.7537C170.051 20.6843 167.276 21.3259 164.451 21.6616C164.315 21.6786 164.175 21.6956 164.039 21.7084C163.2 21.7976 162.365 21.8528 161.526 21.8656C160.753 21.8783 159.985 21.8571 159.207 21.7976C156.203 21.5681 153.252 20.9052 150.454 19.8302C150.265 19.7579 150.16 19.7494 150.107 19.8089C150.05 19.8727 150.107 19.9704 150.125 19.9916L150.133 20.0001L155.702 23.3741L155.702 23.3868Z" fill="#0E242D"/>
<path d="M191.611 24.8052C191.611 24.8052 191.334 24.8987 190.864 25.7953C190.864 25.7953 190.184 27.2231 189.182 27.7967C189.182 27.7967 187.566 28.6806 186.437 27.6013C186.086 27.1976 185.985 26.6409 186.169 26.148C186.169 26.148 186.327 25.6678 185.844 25.8931C185.844 25.8931 185.194 26.2202 184.522 26.5474C183.78 26.8874 183.016 27.1848 182.238 27.4356C182.014 26.8237 181.676 26.2543 181.233 25.7613C178.755 23.2118 177.108 26.7132 177.108 26.7132C176.397 28.5744 177.376 29.4455 177.776 29.7089C177.776 29.7089 178.975 30.3251 181.206 29.7514C181.356 29.7132 181.518 29.6622 181.689 29.6069C181.804 29.8831 181.883 30.1721 181.935 30.4695C181.865 30.546 181.795 30.6267 181.725 30.7032C179.225 33.4015 177.302 34.3491 177.302 34.3491C172.848 37.0687 170.762 35.0843 170.762 35.0843C169.532 34.0602 169.651 31.7741 169.879 30.3081C170.143 30.1253 170.393 29.9256 170.63 29.7089C170.63 29.7089 174.214 26.4327 175.352 25.3959C175.352 25.3959 178.154 22.8421 180.367 22.7401C180.367 22.7401 182.801 22.4214 183.96 24.3633C183.96 24.3633 184.531 22.8463 184.246 22.4214C182.418 19.7103 178.769 21.2401 178.769 21.2401C176.731 21.9157 173.555 24.9922 173.555 24.9922C172.523 26.046 169.945 28.2047 169.945 28.2047C169.945 28.2047 167.947 29.8406 166.699 29.4412C166.699 29.4412 164.354 29.2287 165.474 25.7741C165.65 25.2557 165.874 24.7542 166.155 24.2783C166.392 23.9214 166.295 23.8959 166.155 23.9426C166.01 23.9936 165.891 24.0914 165.812 24.2188C165.087 25.3789 164.727 26.7089 164.762 28.0602C164.978 30.4015 166.818 31.1282 166.818 31.1282C167.635 31.4724 168.627 31.0772 169.392 30.6183C168.355 34.2217 169.712 36.2061 169.712 36.2061C171.359 38.6622 174.522 37.6168 174.522 37.6168C177.838 36.597 180.556 33.7542 180.556 33.7542C181.092 33.3123 181.558 32.8024 181.949 32.2372C182.629 31.2132 182.62 30.4993 182.62 30.4993C182.691 30.0913 182.717 29.6749 182.695 29.2627C183.578 28.9313 184.439 28.5531 185.278 28.1197C185.278 28.1197 185.379 28.0559 185.344 28.2727C185.344 28.2727 185.278 30.0871 187.065 30.3421C188.093 30.4908 189.112 30.0488 189.683 29.216C189.683 29.216 190.219 28.4256 190.456 27.9837C190.768 28.8251 191.528 29.4412 192.446 29.5814C194.905 29.9809 195.155 27.1678 195.155 27.1678C195.419 25.1707 194.325 24.0658 194.325 24.0658L193.829 26.2542C194.088 26.5432 194.321 26.8449 194.536 27.1636C194.536 27.1636 194.005 27.5715 192.516 27.2443C192.169 27.1338 191.857 26.9426 191.607 26.6877C191.607 26.6877 191.203 26.3095 191.607 25.5276C191.607 25.5276 192.006 24.563 191.615 24.801L191.611 24.8052ZM178.193 27.1211C178.193 27.1211 179.256 26.216 180.613 27.835C180.451 27.8605 180.288 27.8817 180.13 27.8945C180.13 27.8945 177.482 28.1282 178.193 27.1253L178.193 27.1211Z" fill="#0E242D"/>
<path d="M185.72 15.8656C185.022 16.4605 181.82 18.6404 180.287 19.6772C179.787 20.0129 180.23 19.843 180.23 19.843L182.848 18.5129C185.145 17.3784 187.143 15.7509 188.685 13.7537C188.812 13.605 188.931 13.4435 189.041 13.2821C189.353 13.4818 189.612 13.7495 189.796 14.0639C190.275 13.2183 190.095 13.0483 190.095 13.0483C189.915 12.8359 189.708 12.6447 189.476 12.4789C189.678 12.0328 189.814 11.5611 189.884 11.0767C189.766 9.33021 188.628 9.92086 188.628 9.92086C187.938 10.2226 187.455 10.8345 187.341 11.5526C187.46 12.258 188.509 12.9336 188.509 12.9336C188.562 12.9634 188.615 12.9931 188.663 13.0271C187.657 14.3316 185.725 15.8656 185.725 15.8656L185.72 15.8656ZM188.922 12.0625C187.723 11.1872 187.965 10.9917 187.965 10.9917C189.37 9.92086 189.164 12.2027 189.164 12.2027C189.164 12.2112 189.155 12.224 189.151 12.2325C189.014 12.1305 188.922 12.0625 188.922 12.0625Z" fill="#0E242D"/>
<path d="M174.536 28.6361C174.536 28.6361 173.359 30.697 173.087 31.3641C173.087 31.3641 172.455 33.1913 174.141 33.34C175.244 33.3231 176.122 32.452 176.104 31.3896C176.104 31.3641 176.104 31.3344 176.104 31.3089C176.104 31.3089 176.192 30.3953 174.563 29.5709C174.563 29.5709 175.138 28.2324 174.532 28.6403L174.536 28.6361ZM175.713 31.6276C175.713 31.6276 174.839 32.7579 173.724 32.1205C173.724 32.1205 173.302 31.8868 174.027 30.5228L174.163 30.2806L174.115 30.4038C174.115 30.4038 175.503 31.1899 175.713 31.6233L175.713 31.6276Z" fill="#0E242D"/>
<path d="M163.192 14.8294C163.192 14.8294 162.015 16.8903 161.743 17.5575C161.743 17.5575 161.111 19.3847 162.797 19.5334C163.899 19.5164 164.778 18.6453 164.76 17.583C164.76 17.5575 164.76 17.5277 164.76 17.5022C164.76 17.5022 164.848 16.5887 163.219 15.7643C163.219 15.7643 163.794 14.4258 163.188 14.8337L163.192 14.8294ZM164.369 17.8209C164.369 17.8209 163.495 18.9513 162.38 18.3139C162.38 18.3139 161.958 18.0801 162.683 16.7161L162.819 16.4739L162.771 16.5972C162.771 16.5972 164.159 17.3833 164.369 17.8167L164.369 17.8209Z" fill="#0E242D"/>
<path d="M168.456 18.9691C170.723 13.0456 165.184 10.394 165.184 10.394L165.118 11.9535C169.721 14.9493 168.197 18.7226 168.197 18.7226C168.035 19.4068 168.456 18.9691 168.456 18.9691Z" fill="#0E242D"/>
<path d="M183.84 9.21887C182.421 8.05031 181.789 11.2925 181.789 11.2925C181.67 12.1806 181.446 13.7444 181.446 13.7444C180.489 9.64804 178.653 9.61405 178.653 9.61405C177.91 9.72453 178.077 11.1821 178.077 11.1821C178.192 11.318 179.399 12.1679 179.399 12.1679C179.579 12.2656 179.579 11.8577 179.579 11.8577C180.511 12.784 181.209 15.5376 181.209 15.5376C181.775 15.1254 182.03 12.5248 182.03 12.5248C182.39 8.85768 184.081 11.1268 184.081 11.1268C184.318 10.8803 184.336 9.76278 184.336 9.76278C184.2 9.55881 184.033 9.37609 183.84 9.21887Z" fill="#0E242D"/>
<path d="M154.189 0.611328L154.189 17.1453L154.734 17.1453L154.734 1.134L197.46 1.13399L197.46 42.2459L154.734 42.2459L154.734 27.1269L154.189 27.1269L154.189 42.7686L198 42.7685L198 0.611325L154.189 0.611328Z" fill="#0E242D"/>
<path d="M189.012 19.6504L190.207 18.4946L188.863 17.1943L187.519 18.4946L188.713 19.6504L187.519 20.8062L188.713 21.962L187.519 23.1178L188.863 24.4181L190.207 23.1178L189.012 21.962L190.207 20.8062L189.012 19.6504Z" fill="#0E242D"/>
</svg>
