<svg width="47" height="40" viewBox="0 0 47 40" fill="none" xmlns="http://www.w3.org/2000/svg">
<path d="M5.60441 21.613H5.6122C6.58009 21.8382 7.56548 21.9919 8.55917 22.0725C10.1123 22.1988 11.6752 22.1813 13.2246 22.0204C13.9021 21.9534 14.5797 21.8638 15.2572 21.756C17.2955 21.4401 19.3031 20.9702 21.2598 20.351C21.2718 20.3473 22.4178 19.9833 23.7967 19.3997C24.6528 19.0398 25.4837 18.63 26.2846 18.1727C26.6454 17.974 26.9819 17.7391 27.2882 17.4723C27.6472 17.116 27.9163 16.6896 28.0762 16.2239C28.1133 16.1306 28.1468 16.0363 28.1772 15.9405C28.5339 14.5208 27.9829 13.8002 27.9829 13.8002C27.5372 12.8736 24.629 12.9063 24.629 12.9063C21.3268 12.8429 21.6515 11.1178 21.6515 11.1178C22.6235 9.49719 24.0338 8.14282 25.7418 7.1894C26.1266 6.97089 26.6867 6.66642 27.1632 6.78809C27.4166 6.87187 27.6299 7.03705 27.7649 7.25389L28.4636 6.24713C28.6817 5.93799 28.6636 5.53332 28.4184 5.24229C28.4184 5.24229 28.4157 5.23857 28.4129 5.23725C28.1693 4.94118 27.8121 4.74472 27.4164 4.68946C27.2638 4.67088 27.1085 4.68658 26.9638 4.73537C25.823 5.05469 23.6546 7.01344 23.6546 7.01344C19.4564 11.1868 21.0764 13.6786 21.0764 13.6786C21.9896 15.2971 25.0468 14.9988 25.0468 14.9988C26.7453 15.0552 27.2948 15.3931 27.472 15.6151C27.472 15.6151 27.472 15.6176 27.4747 15.6188C27.5073 15.6689 27.5336 15.7222 27.5531 15.7779V15.7816C27.5531 15.7928 27.5558 15.8001 27.5558 15.8052V15.8102C27.5437 15.82 27.5305 15.8302 27.5186 15.8411L27.5053 15.8499C25.8459 16.7878 24.0893 17.5672 22.2622 18.1764C19.6424 19.06 16.9248 19.6675 14.1603 19.9872C14.026 20.0033 13.8887 20.0181 13.7555 20.032C12.9343 20.1166 12.1171 20.17 11.2983 20.1825C10.5437 20.1948 9.78934 20.1737 9.0288 20.1165C6.09014 19.8991 3.20335 19.2692 0.466041 18.2483C0.279772 18.1788 0.176033 18.1715 0.126463 18.2272C0.0717835 18.2894 0.130424 18.3824 0.142433 18.3998L0.149076 18.4096L5.59981 21.6116L5.60441 21.613Z" fill="#171717"/>
<path d="M40.7286 22.9507C40.7286 22.9507 40.4597 23.0415 39.998 23.8911C39.998 23.8911 39.3298 25.2463 38.3529 25.7904C38.3529 25.7904 36.7702 26.6287 35.6669 25.6053C35.3247 25.2206 35.2255 24.696 35.4062 24.2254C35.4062 24.2254 35.5606 23.7708 35.0893 23.9831C35.0893 23.9831 34.4531 24.2949 33.7944 24.6027C33.0671 24.924 32.3203 25.2055 31.5581 25.4462C31.3398 24.864 31.0066 24.3251 30.5758 23.8573C28.1522 21.4375 26.5427 24.7584 26.5427 24.7584C25.8486 26.5248 26.8061 27.3519 27.1949 27.6029C27.1949 27.6029 28.3661 28.1878 30.5517 27.6451C30.6981 27.609 30.8577 27.5605 31.0228 27.5071C31.1328 27.7709 31.2137 28.0446 31.2643 28.3237C31.1952 28.397 31.1273 28.4717 31.0594 28.5437C28.6164 31.1033 26.7341 32.0045 26.7341 32.0045C22.3788 34.5831 20.336 32.7013 20.336 32.7013C19.1328 31.73 19.2471 29.559 19.4707 28.1703C19.7283 27.9953 19.9741 27.8057 20.2068 27.6025C20.2068 27.6025 23.7116 24.4923 24.8243 23.5122C24.8243 23.5122 27.5677 21.0903 29.7333 20.992C29.7333 20.992 32.1132 20.6915 33.2486 22.5321C33.2486 22.5321 33.8063 21.0925 33.5269 20.6915C31.7375 18.1189 28.1703 19.5708 28.1703 19.5708C26.1764 20.2104 23.0685 23.1305 23.0685 23.1305C22.0607 24.1303 19.5375 26.1774 19.5375 26.1774C19.5375 26.1774 17.582 27.73 16.3615 27.3498C16.3615 27.3498 14.0679 27.1499 15.161 23.8695C15.3308 23.3767 15.5532 22.9011 15.8249 22.4498C16.0551 22.1119 15.9607 22.0871 15.8289 22.1307C15.6882 22.1797 15.5699 22.2723 15.4936 22.3929C14.7863 23.4919 14.4302 24.7569 14.4675 26.0385C14.6788 28.2605 16.4775 28.9499 16.4775 28.9499C17.2761 29.2755 18.2467 28.9026 18.9972 28.4666C17.9829 31.8873 19.3127 33.7678 19.3127 33.7678C20.9257 36.0969 24.0168 35.1056 24.0168 35.1056C27.2602 34.1391 29.9195 31.4411 29.9195 31.4411C30.4426 31.0227 30.9005 30.5382 31.2798 30.0015C31.9479 29.0302 31.9359 28.352 31.9359 28.352C32.0045 27.9643 32.0291 27.5709 32.0093 27.1782C32.8737 26.8651 33.7168 26.5034 34.5344 26.0951C34.5344 26.0951 34.6316 26.0342 34.5995 26.2393C34.5995 26.2393 34.5344 27.9608 36.2821 28.2041C37.2861 28.3453 38.2862 27.9272 38.8416 27.1339C38.8416 27.1339 39.3646 26.3848 39.599 25.9663C39.9021 26.7666 40.6496 27.3484 41.5477 27.4829C43.9542 27.8617 44.1977 25.1925 44.1977 25.1925C44.4573 23.2971 43.3844 22.2501 43.3844 22.2501L42.8973 24.3282C43.1487 24.6012 43.3796 24.89 43.5881 25.1928C43.5881 25.1928 43.0677 25.5792 41.6128 25.2686C41.2743 25.1639 40.9688 24.9826 40.7238 24.7408C40.7238 24.7408 40.3284 24.3817 40.7198 23.6391C40.7205 23.6404 41.1108 22.7234 40.7286 22.9507ZM27.6006 25.1494C27.6006 25.1494 28.6388 24.2911 29.97 25.8254C29.8116 25.849 29.6532 25.8688 29.4974 25.88C29.4999 25.8809 26.9083 26.1031 27.6019 25.1492L27.6006 25.1494Z" fill="#171717"/>
<path d="M34.9712 14.4808C34.287 15.044 31.1538 17.1139 29.6536 18.0965C29.1637 18.4171 29.5962 18.2543 29.5962 18.2543L32.1585 16.9923C34.4078 15.9148 36.3619 14.3698 37.8702 12.4762C37.9949 12.3332 38.1105 12.1835 38.2164 12.0279C38.5233 12.2156 38.7769 12.4701 38.9553 12.7694C39.4236 11.9682 39.2479 11.8069 39.2479 11.8069C39.0718 11.6036 38.8681 11.4225 38.6423 11.2678C38.8401 10.8432 38.9751 10.3951 39.043 9.93637C38.9265 8.27933 37.8129 8.84054 37.8129 8.84054C37.1401 9.12559 36.6666 9.70802 36.5538 10.3895C36.671 11.0577 37.6958 11.6988 37.6958 11.6988C37.7477 11.7286 37.7969 11.757 37.8449 11.7858C36.8625 13.0214 34.9712 14.4808 34.9712 14.4808ZM38.1055 10.8725C36.9343 10.044 37.17 9.85642 37.17 9.85642C38.5462 8.84031 38.3413 11.0055 38.3413 11.0055C38.3373 11.0142 38.3335 11.024 38.3293 11.0336C38.1977 10.937 38.1055 10.8725 38.1055 10.8725Z" fill="#171717"/>
<path d="M24.0339 26.5926C24.0339 26.5926 22.8826 28.547 22.6178 29.1812C22.6178 29.1812 21.9977 30.9163 23.6509 31.0543C24.7288 31.0385 25.5888 30.2102 25.5718 29.2043C25.5715 29.1784 25.5704 29.1525 25.5688 29.1266C25.5688 29.1266 25.6527 28.2595 24.0619 27.4769C24.0619 27.4769 24.6236 26.2064 24.0339 26.5926ZM25.184 29.4282C25.184 29.4282 24.3281 30.5025 23.2364 29.8965C23.2364 29.8965 22.8239 29.6765 23.5319 28.3811L23.6653 28.1528L23.6201 28.2707C23.6201 28.2707 24.9785 29.016 25.184 29.4282Z" fill="#171717"/>
<path d="M12.9245 13.4913C12.9245 13.4913 11.7732 15.4461 11.5085 16.0797C11.5085 16.0797 10.8883 17.8148 12.5415 17.9527C13.6194 17.9369 14.4795 17.1086 14.4625 16.1027C14.4621 16.0768 14.4609 16.0509 14.4594 16.025C14.4594 16.025 14.5433 15.1579 12.9525 14.3745C12.9525 14.3745 13.5143 13.106 12.9245 13.4913ZM14.0763 16.3281C14.0763 16.3281 13.2204 17.4024 12.1287 16.7964C12.1287 16.7964 11.7162 16.5764 12.4242 15.281L12.5574 15.0518L12.5121 15.1698C12.5121 15.1698 13.8692 15.9157 14.0763 16.3281Z" fill="#171717"/>
<path d="M18.0808 17.4193C20.2996 11.7975 14.8785 9.28345 14.8785 9.28345L14.8145 10.7628C19.316 13.6036 17.8267 17.1839 17.8267 17.1839C17.6683 17.834 18.0808 17.4193 18.0808 17.4193Z" fill="#171717"/>
<path d="M33.1221 8.16612C31.7339 7.05819 31.1149 10.1324 31.1149 10.1324C30.9978 10.9759 30.7808 12.4575 30.7808 12.4575C29.8437 8.57103 28.0468 8.53759 28.0468 8.53759C27.3189 8.64319 27.4825 10.0243 27.4825 10.0243C27.5957 10.1535 28.7752 10.9607 28.7752 10.9607C28.9508 11.054 28.9508 10.6675 28.9508 10.6675C29.8625 11.5456 30.5468 14.1596 30.5468 14.1596C31.0991 13.7695 31.3496 11.3028 31.3496 11.3028C31.7009 7.82247 33.3568 9.97635 33.3568 9.97635C33.591 9.74285 33.6069 8.68083 33.6069 8.68083C33.4736 8.48784 33.3102 8.31428 33.1221 8.16612Z" fill="#171717"/>
<path d="M4.13672 0V15.6864H4.66793V0.49565H46.4695V39.5032H4.66793V25.1585H4.13672V40H47.0006V0H4.13672Z" fill="#171717"/>
<path d="M38.1898 18.0676L39.3584 16.9712L38.0425 15.7366L36.7266 16.9712L37.8952 18.0676L36.7266 19.1642L37.8952 20.2606L36.7266 21.357L38.0425 22.5916L39.3584 21.357L38.1898 20.2606L39.3584 19.1642L38.1898 18.0676Z" fill="#171717"/>
</svg>
