<svg width="47" height="40" viewBox="0 0 47 40" fill="none" xmlns="http://www.w3.org/2000/svg">
<path d="M5.60435 21.6132H5.61214C6.58003 21.8384 7.56542 21.9921 8.55911 22.0728C10.1122 22.199 11.6751 22.1815 13.2245 22.0206C13.902 21.9536 14.5796 21.8641 15.2571 21.7562C17.2955 21.4404 19.3031 20.9705 21.2598 20.3513C21.2718 20.3475 22.4178 19.9835 23.7966 19.4C24.6527 19.04 25.4837 18.6302 26.2846 18.1729C26.6454 17.9743 26.9819 17.7394 27.2881 17.4725C27.6471 17.1163 27.9163 16.6898 28.0761 16.2241C28.1133 16.1309 28.1467 16.0365 28.1772 15.9408C28.5339 14.5211 27.9828 13.8004 27.9828 13.8004C27.5371 12.8738 24.629 12.9066 24.629 12.9066C21.3267 12.8432 21.6515 11.118 21.6515 11.118C22.6234 9.49744 24.0338 8.14307 25.7417 7.18965C26.1265 6.97113 26.6866 6.66667 27.1632 6.78833C27.4165 6.87212 27.6298 7.03729 27.7649 7.25413L28.4636 6.24737C28.6817 5.93824 28.6635 5.53357 28.4184 5.24253C28.4184 5.24253 28.4157 5.23882 28.4129 5.2375C28.1692 4.94143 27.812 4.74496 27.4164 4.6897C27.2637 4.67113 27.1085 4.68683 26.9637 4.73561C25.823 5.05494 23.6546 7.01368 23.6546 7.01368C19.4564 11.1871 21.0763 13.6789 21.0763 13.6789C21.9895 15.2973 25.0467 14.9991 25.0467 14.9991C26.7453 15.0554 27.2947 15.3933 27.4719 15.6153C27.4719 15.6153 27.4719 15.6178 27.4746 15.619C27.5072 15.6691 27.5335 15.7225 27.5531 15.7781V15.7818C27.5531 15.7931 27.5557 15.8004 27.5557 15.8054V15.8105C27.5436 15.8203 27.5305 15.8305 27.5186 15.8414L27.5053 15.8501C25.8459 16.7881 24.0892 17.5675 22.2622 18.1766C19.6424 19.0603 16.9247 19.6678 14.1602 19.9875C14.0259 20.0035 13.8886 20.0184 13.7555 20.0323C12.9343 20.1168 12.117 20.1703 11.2982 20.1827C10.5437 20.1951 9.78927 20.174 9.02874 20.1168C6.09008 19.8994 3.20329 19.2695 0.46598 18.2485C0.279711 18.179 0.175972 18.1717 0.126402 18.2275C0.0717224 18.2897 0.130363 18.3827 0.142372 18.4001L0.149015 18.4099L5.59975 21.6119L5.60435 21.6132Z" fill="#0E242D"/>
<path d="M40.7293 22.9507C40.7293 22.9507 40.4603 23.0415 39.9986 23.8911C39.9986 23.8911 39.3304 25.2463 38.3535 25.7904C38.3535 25.7904 36.7708 26.6287 35.6675 25.6053C35.3253 25.2206 35.2261 24.696 35.4068 24.2254C35.4068 24.2254 35.5612 23.7708 35.0899 23.9831C35.0899 23.9831 34.4537 24.2949 33.795 24.6027C33.0677 24.924 32.321 25.2055 31.5588 25.4462C31.3404 24.864 31.0072 24.3251 30.5764 23.8573C28.1528 21.4375 26.5433 24.7584 26.5433 24.7584C25.8492 26.5248 26.8067 27.3519 27.1955 27.6029C27.1955 27.6029 28.3668 28.1878 30.5523 27.6451C30.6987 27.609 30.8583 27.5605 31.0235 27.5071C31.1335 27.7709 31.2143 28.0446 31.2649 28.3237C31.1958 28.397 31.128 28.4717 31.06 28.5437C28.617 31.1033 26.7347 32.0045 26.7347 32.0045C22.3794 34.5831 20.3366 32.7013 20.3366 32.7013C19.1334 31.73 19.2477 29.559 19.4713 28.1703C19.7289 27.9953 19.9747 27.8057 20.2075 27.6025C20.2075 27.6025 23.7122 24.4923 24.825 23.5122C24.825 23.5122 27.5683 21.0903 29.7339 20.992C29.7339 20.992 32.1139 20.6915 33.2492 22.5321C33.2492 22.5321 33.8069 21.0925 33.5275 20.6915C31.7381 18.1189 28.1709 19.5708 28.1709 19.5708C26.177 20.2104 23.0691 23.1305 23.0691 23.1305C22.0613 24.1303 19.5381 26.1774 19.5381 26.1774C19.5381 26.1774 17.5826 27.73 16.3621 27.3498C16.3621 27.3498 14.0685 27.1499 15.1616 23.8695C15.3314 23.3767 15.5538 22.9011 15.8255 22.4498C16.0557 22.1119 15.9613 22.0871 15.8295 22.1307C15.6888 22.1797 15.5705 22.2723 15.4943 22.3929C14.7869 23.4919 14.4308 24.7569 14.4681 26.0385C14.6794 28.2605 16.4781 28.9499 16.4781 28.9499C17.2767 29.2755 18.2473 28.9026 18.9979 28.4666C17.9835 31.8873 19.3133 33.7678 19.3133 33.7678C20.9263 36.0969 24.0174 35.1056 24.0174 35.1056C27.2608 34.1391 29.9201 31.4411 29.9201 31.4411C30.4432 31.0227 30.9011 30.5382 31.2804 30.0015C31.9485 29.0302 31.9365 28.352 31.9365 28.352C32.0051 27.9643 32.0297 27.5709 32.0099 27.1782C32.8743 26.8651 33.7175 26.5034 34.535 26.0951C34.535 26.0951 34.6322 26.0342 34.6001 26.2393C34.6001 26.2393 34.535 27.9608 36.2827 28.2041C37.2867 28.3453 38.2868 27.9272 38.8422 27.1339C38.8422 27.1339 39.3652 26.3848 39.5996 25.9663C39.9027 26.7666 40.6502 27.3484 41.5483 27.4829C43.9549 27.8617 44.1984 25.1925 44.1984 25.1925C44.458 23.2971 43.3851 22.2501 43.3851 22.2501L42.8979 24.3282C43.1493 24.6012 43.3802 24.89 43.5887 25.1928C43.5887 25.1928 43.0683 25.5792 41.6135 25.2686C41.2749 25.1639 40.9694 24.9826 40.7244 24.7408C40.7244 24.7408 40.329 24.3817 40.7204 23.6391C40.7211 23.6404 41.1114 22.7234 40.7293 22.9507ZM27.6012 25.1494C27.6012 25.1494 28.6394 24.2911 29.9706 25.8254C29.8122 25.849 29.6538 25.8688 29.498 25.88C29.5005 25.8809 26.9089 26.1031 27.6025 25.1492L27.6012 25.1494Z" fill="#0E242D"/>
<path d="M34.9704 14.4808C34.2862 15.044 31.153 17.1139 29.6528 18.0965C29.1629 18.4171 29.5954 18.2543 29.5954 18.2543L32.1577 16.9923C34.407 15.9148 36.3611 14.3698 37.8694 12.4762C37.9941 12.3332 38.1097 12.1835 38.2157 12.0279C38.5225 12.2156 38.7761 12.4701 38.9545 12.7694C39.4228 11.9682 39.2472 11.8069 39.2472 11.8069C39.071 11.6036 38.8673 11.4225 38.6415 11.2678C38.8394 10.8432 38.9743 10.3951 39.0422 9.93637C38.9257 8.27933 37.8121 8.84054 37.8121 8.84054C37.1393 9.12559 36.6658 9.70802 36.553 10.3895C36.6702 11.0577 37.695 11.6988 37.695 11.6988C37.7469 11.7286 37.7961 11.757 37.8441 11.7858C36.8617 13.0214 34.9704 14.4808 34.9704 14.4808ZM38.1048 10.8725C36.9335 10.044 37.1692 9.85642 37.1692 9.85642C38.5454 8.84031 38.3405 11.0055 38.3405 11.0055C38.3365 11.0142 38.3327 11.024 38.3285 11.0336C38.1969 10.937 38.1048 10.8725 38.1048 10.8725Z" fill="#0E242D"/>
<path d="M24.0333 26.5926C24.0333 26.5926 22.8819 28.547 22.6172 29.1812C22.6172 29.1812 21.9971 30.9163 23.6503 31.0543C24.7282 31.0385 25.5882 30.2102 25.5712 29.2043C25.5708 29.1784 25.5698 29.1525 25.5682 29.1266C25.5682 29.1266 25.6521 28.2595 24.0613 27.4769C24.0613 27.4769 24.623 26.2064 24.0333 26.5926ZM25.1834 29.4282C25.1834 29.4282 24.3275 30.5025 23.2358 29.8965C23.2358 29.8965 22.8233 29.6765 23.5313 28.3811L23.6647 28.1528L23.6195 28.2707C23.6195 28.2707 24.9779 29.016 25.1834 29.4282Z" fill="#0E242D"/>
<path d="M12.9253 13.4913C12.9253 13.4913 11.7739 15.4461 11.5092 16.0797C11.5092 16.0797 10.8891 17.8148 12.5422 17.9527C13.6201 17.9369 14.4802 17.1086 14.4632 16.1027C14.4628 16.0768 14.4617 16.0509 14.4601 16.025C14.4601 16.025 14.5441 15.1579 12.9532 14.3745C12.9532 14.3745 13.515 13.106 12.9253 13.4913ZM14.077 16.3281C14.077 16.3281 13.2211 17.4024 12.1295 16.7964C12.1295 16.7964 11.7169 16.5764 12.425 15.281L12.5581 15.0518L12.5129 15.1698C12.5129 15.1698 13.8699 15.9157 14.077 16.3281Z" fill="#0E242D"/>
<path d="M18.0803 17.419C20.2991 11.7973 14.878 9.2832 14.878 9.2832L14.814 10.7626C19.3155 13.6033 17.8262 17.1836 17.8262 17.1836C17.6678 17.8338 18.0803 17.419 18.0803 17.419Z" fill="#0E242D"/>
<path d="M33.1223 8.16612C31.7341 7.05819 31.1151 10.1324 31.1151 10.1324C30.9979 10.9759 30.781 12.4575 30.781 12.4575C29.8439 8.57103 28.047 8.53759 28.047 8.53759C27.3191 8.64319 27.4827 10.0243 27.4827 10.0243C27.5959 10.1535 28.7754 10.9607 28.7754 10.9607C28.951 11.054 28.951 10.6675 28.951 10.6675C29.8627 11.5456 30.547 14.1596 30.547 14.1596C31.0993 13.7695 31.3498 11.3028 31.3498 11.3028C31.7011 7.82247 33.357 9.97635 33.357 9.97635C33.5912 9.74285 33.6071 8.68083 33.6071 8.68083C33.4737 8.48784 33.3103 8.31428 33.1223 8.16612Z" fill="#0E242D"/>
<path d="M4.13641 0V15.6864H4.66762V0.49565H46.4692V39.5032H4.66762V25.1585H4.13641V40H47.0003V0H4.13641Z" fill="#0E242D"/>
<path d="M38.19 18.0679L39.3586 16.9714L38.0427 15.7368L36.7268 16.9714L37.8954 18.0679L36.7268 19.1644L37.8954 20.2608L36.7268 21.3573L38.0427 22.5919L39.3586 21.3573L38.19 20.2608L39.3586 19.1644L38.19 18.0679Z" fill="#0E242D"/>
</svg>
