<svg width="18" height="16" viewBox="0 0 18 16" fill="none" xmlns="http://www.w3.org/2000/svg">
<path fill-rule="evenodd" clip-rule="evenodd" d="M0.599976 2C0.599976 1.68174 0.726404 1.37652 0.951447 1.15147C1.17649 0.92643 1.48172 0.800001 1.79998 0.800001H16.2C16.5182 0.800001 16.8235 0.92643 17.0485 1.15147C17.2735 1.37652 17.4 1.68174 17.4 2C17.4 2.31826 17.2735 2.62349 17.0485 2.84853C16.8235 3.07357 16.5182 3.2 16.2 3.2H1.79998C1.48172 3.2 1.17649 3.07357 0.951447 2.84853C0.726404 2.62349 0.599976 2.31826 0.599976 2ZM0.599976 8C0.599976 7.68174 0.726404 7.37652 0.951447 7.15147C1.17649 6.92643 1.48172 6.8 1.79998 6.8H8.99998C9.31823 6.8 9.62346 6.92643 9.8485 7.15147C10.0735 7.37652 10.2 7.68174 10.2 8C10.2 8.31826 10.0735 8.62348 9.8485 8.84853C9.62346 9.07357 9.31823 9.2 8.99998 9.2H1.79998C1.48172 9.2 1.17649 9.07357 0.951447 8.84853C0.726404 8.62348 0.599976 8.31826 0.599976 8ZM0.599976 14C0.599976 13.6817 0.726404 13.3765 0.951447 13.1515C1.17649 12.9264 1.48172 12.8 1.79998 12.8H16.2C16.5182 12.8 16.8235 12.9264 17.0485 13.1515C17.2735 13.3765 17.4 13.6817 17.4 14C17.4 14.3183 17.2735 14.6235 17.0485 14.8485C16.8235 15.0736 16.5182 15.2 16.2 15.2H1.79998C1.48172 15.2 1.17649 15.0736 0.951447 14.8485C0.726404 14.6235 0.599976 14.3183 0.599976 14Z" fill="white"/>
</svg>
