<svg width="144" height="32" viewBox="0 0 144 32" fill="none" xmlns="http://www.w3.org/2000/svg">
<path d="M111.442 17.2832L111.449 17.2832C112.209 17.4631 112.987 17.5852 113.768 17.6495C114.988 17.7491 116.219 17.7362 117.439 17.6077C117.973 17.5531 118.504 17.4824 119.038 17.3956C120.64 17.145 122.222 16.769 123.76 16.2774C123.771 16.2774 124.67 15.9849 125.755 15.519C126.428 15.233 127.083 14.9052 127.712 14.5421C127.996 14.3847 128.26 14.1951 128.503 13.983C128.787 13.7002 128.997 13.3596 129.122 12.9869C129.152 12.9129 129.176 12.8358 129.203 12.7619C129.484 11.6308 129.051 11.0556 129.051 11.0556C128.699 10.3165 126.414 10.3422 126.414 10.3422C123.818 10.2908 124.071 8.91548 124.071 8.91548C124.835 7.6237 125.944 6.54401 127.29 5.78565C127.594 5.61213 128.033 5.36791 128.409 5.46432C128.608 5.5318 128.777 5.66355 128.882 5.83707L129.433 5.03372C129.605 4.78629 129.592 4.46495 129.396 4.23358C129.396 4.23358 129.396 4.23359 129.392 4.23038C129.2 3.9958 128.919 3.83834 128.608 3.79335C128.486 3.77728 128.365 3.79335 128.253 3.8287C127.357 4.08256 125.65 5.64426 125.65 5.64426C122.347 8.97012 123.622 10.956 123.622 10.956C124.342 12.2446 126.745 12.0068 126.745 12.0068C128.081 12.0518 128.513 12.3217 128.652 12.4984C128.679 12.537 128.699 12.582 128.713 12.6237C128.713 12.6237 128.713 12.643 128.713 12.6462C128.713 12.6462 128.693 12.6655 128.682 12.6751L128.672 12.6816C127.367 13.4303 125.985 14.0505 124.548 14.5357C122.486 15.2394 120.35 15.7247 118.176 15.9785C118.071 15.9914 117.963 16.0042 117.858 16.0139C117.212 16.0813 116.57 16.1231 115.925 16.1328C115.33 16.1424 114.738 16.1263 114.14 16.0814C111.827 15.9078 109.556 15.4065 107.402 14.5936C107.257 14.5389 107.176 14.5325 107.135 14.5775C107.091 14.6257 107.135 14.6996 107.149 14.7157L107.156 14.7221L111.442 17.2735L111.442 17.2832Z" fill="#0E242D"/>
<path d="M139.082 18.3562C139.082 18.3562 138.869 18.4269 138.507 19.1049C138.507 19.1049 137.983 20.1846 137.212 20.6184C137.212 20.6184 135.968 21.2868 135.099 20.4706C134.829 20.1653 134.751 19.7444 134.893 19.3716C134.893 19.3716 135.015 19.0085 134.643 19.1788C134.643 19.1788 134.143 19.4262 133.626 19.6737C133.054 19.9307 132.466 20.1557 131.868 20.3453C131.695 19.8825 131.435 19.4519 131.094 19.0792C129.187 17.1512 127.919 19.799 127.919 19.799C127.372 21.2065 128.126 21.8652 128.433 22.0644C128.433 22.0644 129.356 22.5304 131.073 22.0966C131.188 22.0676 131.313 22.0291 131.445 21.9873C131.533 22.1962 131.594 22.4147 131.634 22.6396C131.58 22.6975 131.526 22.7585 131.472 22.8163C129.549 24.8568 128.068 25.5734 128.068 25.5734C124.64 27.63 123.035 26.1294 123.035 26.1294C122.088 25.3549 122.179 23.6261 122.355 22.5175C122.558 22.3793 122.751 22.2283 122.933 22.0644C122.933 22.0644 125.692 19.5869 126.567 18.8028C126.567 18.8028 128.724 16.8716 130.428 16.7945C130.428 16.7945 132.3 16.5535 133.193 18.022C133.193 18.022 133.632 16.8748 133.413 16.5535C132.006 14.5033 129.197 15.6602 129.197 15.6602C127.629 16.1711 125.185 18.4976 125.185 18.4976C124.39 19.2945 122.406 20.9269 122.406 20.9269C122.406 20.9269 120.868 22.164 119.908 21.862C119.908 21.862 118.102 21.7013 118.964 19.0888C119.1 18.6968 119.272 18.3176 119.488 17.9577C119.671 17.6878 119.597 17.6685 119.488 17.7039C119.377 17.7424 119.286 17.8163 119.225 17.9127C118.667 18.79 118.39 19.7958 118.417 20.8176C118.582 22.5882 119.999 23.1377 119.999 23.1377C120.628 23.398 121.392 23.0991 121.98 22.7521C121.182 25.477 122.227 26.9777 122.227 26.9777C123.494 28.835 125.928 28.0445 125.928 28.0445C128.481 27.2733 130.573 25.1236 130.573 25.1236C130.985 24.7894 131.344 24.4038 131.645 23.9764C132.169 23.202 132.162 22.6621 132.162 22.6621C132.216 22.3536 132.236 22.0387 132.219 21.727C132.899 21.4764 133.561 21.1904 134.207 20.8626C134.207 20.8626 134.285 20.8144 134.258 20.9783C134.258 20.9783 134.207 22.3504 135.583 22.5432C136.374 22.6557 137.158 22.3215 137.598 21.6917C137.598 21.6917 138.01 21.094 138.193 20.7598C138.433 21.396 139.017 21.862 139.724 21.968C141.617 22.2701 141.81 20.1428 141.81 20.1428C142.013 18.6325 141.171 17.797 141.171 17.797L140.789 19.4519C140.988 19.6705 141.167 19.8986 141.333 20.1396C141.333 20.1396 140.924 20.4481 139.778 20.2007C139.511 20.1171 139.271 19.9725 139.078 19.7797C139.078 19.7797 138.767 19.4937 139.078 18.9024C139.078 18.9024 139.386 18.173 139.085 18.353L139.082 18.3562ZM128.754 20.1075C128.754 20.1075 129.572 19.423 130.617 20.6473C130.492 20.6666 130.367 20.6827 130.245 20.6923C130.245 20.6923 128.207 20.869 128.754 20.1107L128.754 20.1075Z" fill="#0E242D"/>
<path d="M134.548 11.5975C134.01 12.0474 131.546 13.6959 130.366 14.4799C129.981 14.7338 130.322 14.6053 130.322 14.6053L132.337 13.5995C134.105 12.7415 135.643 11.5108 136.83 10.0005C136.928 9.88802 137.019 9.76591 137.103 9.6438C137.343 9.79483 137.543 9.99728 137.685 10.2351C138.053 9.59561 137.915 9.46707 137.915 9.46707C137.776 9.3064 137.617 9.16179 137.438 9.03647C137.594 8.69906 137.698 8.34238 137.752 7.97605C137.661 6.65535 136.786 7.10201 136.786 7.10201C136.255 7.33016 135.883 7.79289 135.795 8.33595C135.886 8.86937 136.694 9.3803 136.694 9.3803C136.735 9.4028 136.775 9.4253 136.813 9.45101C136.039 10.4375 134.551 11.5975 134.551 11.5975L134.548 11.5975ZM137.012 8.72156C136.089 8.0596 136.275 7.91178 136.275 7.91178C137.357 7.10201 137.198 8.82761 137.198 8.82761C137.198 8.83404 137.191 8.84368 137.188 8.85011C137.083 8.77298 137.012 8.72156 137.012 8.72156Z" fill="#0E242D"/>
<path d="M125.937 21.2525C125.937 21.2525 125.031 22.811 124.822 23.3155C124.822 23.3155 124.335 24.6973 125.633 24.8098C126.482 24.7969 127.158 24.1382 127.144 23.3348C127.144 23.3155 127.144 23.2931 127.144 23.2738C127.144 23.2738 127.212 22.5829 125.958 21.9595C125.958 21.9595 126.401 20.9473 125.934 21.2558L125.937 21.2525ZM126.843 23.5148C126.843 23.5148 126.171 24.3695 125.312 23.8875C125.312 23.8875 124.987 23.7108 125.545 22.6793L125.65 22.4961L125.613 22.5893C125.613 22.5893 126.681 23.1838 126.843 23.5116L126.843 23.5148Z" fill="#0E242D"/>
<path d="M117.209 10.8121C117.209 10.8121 116.303 12.3706 116.093 12.8751C116.093 12.8751 115.607 14.2569 116.905 14.3693C117.753 14.3565 118.429 13.6977 118.416 12.8944C118.416 12.8751 118.416 12.8526 118.416 12.8333C118.416 12.8333 118.483 12.1425 117.229 11.5191C117.229 11.5191 117.672 10.5068 117.205 10.8153L117.209 10.8121ZM118.115 13.0743C118.115 13.0743 117.442 13.9291 116.583 13.4471C116.583 13.4471 116.259 13.2703 116.817 12.2389L116.922 12.0557L116.884 12.1489C116.884 12.1489 117.953 12.7434 118.115 13.0711L118.115 13.0743Z" fill="#0E242D"/>
<path d="M121.26 13.9436C123.004 9.46414 118.741 7.45898 118.741 7.45898L118.69 8.63829C122.233 10.9037 121.06 13.7572 121.06 13.7572C120.935 14.2746 121.26 13.9436 121.26 13.9436Z" fill="#0E242D"/>
<path d="M133.099 6.56905C132.007 5.68537 131.52 8.13717 131.52 8.13717C131.429 8.80877 131.257 9.9913 131.257 9.9913C130.52 6.8936 129.107 6.86789 129.107 6.86789C128.535 6.95144 128.664 8.05364 128.664 8.05364C128.752 8.15647 129.681 8.79913 129.681 8.79913C129.82 8.87304 129.82 8.56456 129.82 8.56456C130.537 9.26508 131.074 11.3474 131.074 11.3474C131.51 11.0357 131.706 9.06906 131.706 9.06906C131.983 6.29591 133.285 8.01187 133.285 8.01187C133.467 7.82549 133.481 6.98036 133.481 6.98036C133.376 6.82612 133.248 6.68794 133.099 6.56905Z" fill="#0E242D"/>
<path d="M110.28 0.0595703L110.28 12.5629L110.699 12.5629L110.699 0.45482L143.585 0.454818L143.585 31.5443L110.699 31.5443L110.699 20.1111L110.28 20.1111L110.28 31.9396L144.001 31.9396L144.001 0.0595683L110.28 0.0595703Z" fill="#0E242D"/>
<path d="M137.081 14.456L138 13.5819L136.966 12.5986L135.932 13.5819L136.851 14.456L135.932 15.33L136.851 16.204L135.932 17.0781L136.966 18.0614L138 17.0781L137.081 16.204L138 15.33L137.081 14.456Z" fill="#0E242D"/>
<path d="M4.08279 20.4151C3.92052 20.2898 3.73122 20.1805 3.50473 20.097C3.28162 20.0102 3.03146 19.9427 2.75426 19.8881C2.63256 19.8688 2.51763 19.8431 2.40607 19.8142C2.29452 19.7821 2.19649 19.7467 2.11197 19.7018C2.02746 19.6568 1.95984 19.6086 1.91252 19.5475C1.86519 19.4864 1.84153 19.419 1.84153 19.3418C1.84153 19.2519 1.87196 19.1747 1.92942 19.1105C1.98689 19.0462 2.0714 18.998 2.18296 18.9627C2.29452 18.9305 2.42297 18.9113 2.56833 18.9113C2.78468 18.9113 2.99089 18.9595 3.19034 19.0559C3.38978 19.1523 3.56557 19.2936 3.72107 19.4864L4.51887 18.7474C4.33294 18.4742 4.08279 18.2621 3.7684 18.1047C3.45402 17.9504 3.0416 17.8701 2.52777 17.8701C2.1762 17.8701 1.84829 17.9344 1.54743 18.0629C1.24657 18.1914 1.00317 18.3714 0.820629 18.5995C0.638083 18.8277 0.546811 19.0976 0.546811 19.4029C0.546811 19.6182 0.580615 19.811 0.651605 19.9813C0.722595 20.1516 0.827384 20.3026 0.972744 20.4344C1.11472 20.5661 1.2939 20.6786 1.50687 20.7718C1.71984 20.865 1.97337 20.9389 2.26409 20.9967C2.36888 21.016 2.47368 21.0385 2.57847 21.061C2.67988 21.0835 2.77455 21.1156 2.86244 21.151C2.95033 21.1863 3.0247 21.2249 3.08893 21.2699C3.15315 21.3116 3.20724 21.3631 3.24442 21.4209C3.28161 21.4787 3.3019 21.543 3.3019 21.6137C3.3019 21.7037 3.27147 21.7808 3.20724 21.8451C3.14302 21.9093 3.0585 21.9575 2.95032 21.9929C2.84215 22.025 2.72046 22.0443 2.58524 22.0443C2.31818 22.0443 2.06126 21.9897 1.80772 21.8804C1.55757 21.7712 1.30741 21.5559 1.06064 21.2345L0.276367 22.0732C0.533283 22.3946 0.84091 22.642 1.19924 22.8155C1.55757 22.989 2.00041 23.0758 2.52101 23.0758C2.92328 23.0758 3.27823 23.0115 3.59261 22.883C3.90362 22.7545 4.14701 22.5681 4.3228 22.3239C4.49858 22.0796 4.58647 21.7872 4.58647 21.4434C4.58647 21.2249 4.54253 21.0289 4.45464 20.8586C4.36675 20.6883 4.24167 20.5404 4.08279 20.4151Z" fill="#0E242D"/>
<path d="M8.589 19.2999C8.3828 19.1842 8.12926 19.1231 7.8284 19.1231C7.60867 19.1231 7.3957 19.1649 7.19625 19.2517C6.9968 19.3385 6.8244 19.4509 6.67904 19.5923C6.65875 19.6116 6.64861 19.6341 6.63171 19.6534L6.63171 17.7061L5.43164 17.7061L5.43164 23.0081L6.64523 23.0081L6.64523 20.7427C6.64523 20.6463 6.66213 20.5596 6.69932 20.4856C6.73312 20.4085 6.78721 20.341 6.85482 20.28C6.92243 20.2189 7.00018 20.1739 7.09146 20.145C7.18273 20.1129 7.28076 20.0968 7.38556 20.0968C7.52077 20.0936 7.63571 20.1129 7.7236 20.1611C7.81488 20.2093 7.88249 20.2832 7.92643 20.3828C7.97038 20.4824 7.99404 20.611 7.99404 20.762L7.99404 23.0049L9.20764 23.0049L9.20764 20.6752C9.20764 20.3346 9.15692 20.0518 9.05213 19.8173C8.95071 19.5859 8.79521 19.4124 8.589 19.2935L8.589 19.2999Z" fill="#0E242D"/>
<path d="M13.9455 21.4134L13.1714 19.7328L12.4615 19.7328L11.7246 21.4262L11.0586 19.209L9.78418 19.209L11.0958 23.0136L11.995 23.0136L12.8097 21.1017L13.6312 23.0136L14.5202 23.0136L15.8859 19.209L14.6115 19.209L13.9455 21.4134Z" fill="#0E242D"/>
<path d="M18.8762 19.1229C18.67 19.1229 18.4739 19.1711 18.2846 19.2675C18.0953 19.3639 17.933 19.4925 17.7978 19.6531C17.7572 19.7013 17.7302 19.7527 17.6964 19.801L17.6693 19.2L16.5166 19.2L16.5166 23.0047L17.737 23.0047L17.737 21.1056C17.737 20.9899 17.7572 20.8871 17.7944 20.7971C17.8316 20.7071 17.8857 20.6268 17.9533 20.5593C18.0209 20.4918 18.102 20.4404 18.1933 20.405C18.2846 20.3697 18.3894 20.3504 18.4976 20.3504C18.599 20.3504 18.6936 20.3601 18.7883 20.3826C18.8796 20.4051 18.9539 20.4276 19.0114 20.4565L19.3359 19.1872C19.2751 19.1647 19.2075 19.1454 19.1297 19.1326C19.052 19.1197 18.9675 19.1133 18.8762 19.1133L18.8762 19.1229Z" fill="#0E242D"/>
<path d="M22.3218 19.2725C22.075 19.1761 21.7843 19.1279 21.4462 19.1279C21.0778 19.1279 20.7397 19.1954 20.4287 19.3272C20.1177 19.4621 19.8405 19.6453 19.6005 19.8799L20.3239 20.545C20.4659 20.3876 20.6113 20.2751 20.7668 20.2044C20.9189 20.1337 21.0947 20.1016 21.2907 20.1016C21.4868 20.1016 21.6491 20.1498 21.7606 20.243C21.8722 20.3362 21.9297 20.4808 21.9297 20.6768L21.9297 20.7636L21.3347 20.7636C21.0372 20.7636 20.7769 20.7893 20.5538 20.8375C20.3307 20.8889 20.1448 20.9628 19.996 21.0592C19.8473 21.1556 19.7357 21.2809 19.6614 21.4287C19.587 21.5765 19.5498 21.7501 19.5498 21.9461C19.5498 22.1742 19.6073 22.3767 19.7256 22.5438C19.8439 22.7141 20.0062 22.8458 20.209 22.9422C20.4118 23.0386 20.6383 23.0868 20.8919 23.0868C21.0812 23.0868 21.2637 23.0515 21.4395 22.9808C21.6119 22.9101 21.7742 22.8105 21.9229 22.6884C21.9263 22.6852 21.9297 22.682 21.933 22.6787L21.933 23.0194L23.1027 23.0194L23.1027 20.4615C23.1027 20.1594 23.0351 19.912 22.8999 19.716C22.7646 19.52 22.572 19.3754 22.3286 19.279L22.3218 19.2725ZM21.8654 22.0039C21.7708 22.081 21.666 22.1389 21.5477 22.1806C21.4294 22.2224 21.3043 22.2417 21.1758 22.2417C21.0845 22.2417 21.0068 22.2289 20.9392 22.1999C20.8716 22.171 20.8175 22.1293 20.7769 22.0778C20.7363 22.0264 20.7161 21.9621 20.7161 21.8915C20.7161 21.824 20.7296 21.7661 20.7566 21.7179C20.7837 21.6697 20.8242 21.628 20.8817 21.5926C20.9358 21.5573 21.0034 21.5316 21.0845 21.5123C21.1657 21.4962 21.2569 21.4866 21.3651 21.4866L21.9297 21.4866L21.9297 21.9396C21.9094 21.9621 21.8891 21.9846 21.8654 22.0039Z" fill="#0E242D"/>
<path d="M27.1891 17.9902L26.584 17.9902L26.584 23.0063L27.8753 23.0063L27.8753 21.0879L29.934 21.0879L29.934 20.0629L27.8753 20.0629L27.8753 19.0731L30.2349 19.0731L30.2349 17.9902L27.8753 17.9902L27.1891 17.9902Z" fill="#0E242D"/>
<path d="M33.9925 19.3857C33.668 19.2154 33.2962 19.1318 32.8804 19.1318C32.4646 19.1318 32.0995 19.2154 31.7716 19.3857C31.4437 19.556 31.1901 19.7906 31.0042 20.0894C30.8183 20.3883 30.7236 20.7321 30.7236 21.1177C30.7236 21.5033 30.8149 21.8343 31.0042 22.1331C31.1901 22.432 31.4471 22.6666 31.7716 22.8369C32.0995 23.0072 32.468 23.0907 32.8804 23.0907C33.2928 23.0907 33.668 23.0072 33.9925 22.8369C34.3171 22.6666 34.5706 22.432 34.7565 22.1331C34.9425 21.8343 35.0371 21.4969 35.0371 21.1177C35.0371 20.7385 34.9425 20.3883 34.7565 20.0894C34.5706 19.7906 34.3171 19.556 33.9925 19.3857ZM33.6883 21.6158C33.6072 21.7636 33.499 21.8825 33.3604 21.966C33.2218 22.0528 33.0629 22.0946 32.8804 22.0946C32.6978 22.0946 32.5457 22.0528 32.4037 21.966C32.2617 21.8793 32.1536 21.7636 32.0724 21.6158C31.9913 21.468 31.9507 21.3009 31.9507 21.1145C31.9507 20.9185 31.9913 20.7482 32.0724 20.5971C32.1536 20.4461 32.2617 20.3304 32.4037 20.2469C32.5457 20.1601 32.7012 20.1183 32.8804 20.1183C33.0595 20.1183 33.2218 20.1601 33.3604 20.2437C33.499 20.3272 33.6072 20.4429 33.6883 20.5939C33.7694 20.745 33.8066 20.9185 33.7999 21.1145C33.8032 21.3009 33.7661 21.468 33.6883 21.6158Z" fill="#0E242D"/>
<path d="M38.2004 19.1229C37.9942 19.1229 37.7981 19.1711 37.6088 19.2675C37.4195 19.3639 37.2572 19.4925 37.122 19.6531C37.0814 19.7013 37.0544 19.7527 37.0206 19.801L36.9936 19.2L35.8408 19.2L35.8408 23.0047L37.0612 23.0047L37.0612 21.1056C37.0612 20.9899 37.0815 20.8871 37.1186 20.7971C37.1558 20.7071 37.2099 20.6268 37.2775 20.5593C37.3451 20.4918 37.4263 20.4404 37.5175 20.405C37.6088 20.3697 37.7136 20.3504 37.8218 20.3504C37.9232 20.3504 38.0178 20.3601 38.1125 20.3826C38.2038 20.4051 38.2781 20.4276 38.3356 20.4565L38.6601 19.1872C38.5993 19.1647 38.5317 19.1454 38.4539 19.1326C38.3762 19.1197 38.2917 19.1133 38.2004 19.1133L38.2004 19.1229Z" fill="#0E242D"/>
<path d="M43.0824 17.9902L41.791 17.9902L41.791 23.0063L45.4352 23.0063L45.4352 21.9266L43.0824 21.9266L43.0824 17.9902Z" fill="#0E242D"/>
<path d="M49.2604 19.6742C49.088 19.5039 48.8886 19.3689 48.6587 19.2725C48.4288 19.1761 48.1719 19.1279 47.888 19.1279C47.5905 19.1279 47.32 19.1761 47.0699 19.2758C46.8197 19.3722 46.6034 19.5103 46.4208 19.6871C46.2383 19.8638 46.0963 20.0759 45.9949 20.3201C45.8935 20.5675 45.8428 20.8375 45.8428 21.1331C45.8428 21.5091 45.9307 21.8465 46.1098 22.1389C46.289 22.4313 46.5425 22.6627 46.8704 22.8298C47.1983 22.9969 47.5871 23.0804 48.0266 23.0804C48.2125 23.0804 48.3984 23.0611 48.581 23.0194C48.7635 22.9776 48.9427 22.9165 49.1185 22.833C49.2942 22.7494 49.4599 22.6466 49.6154 22.5213L49.0508 21.7629C48.8953 21.8786 48.75 21.9589 48.6148 22.0071C48.4795 22.0553 48.3274 22.0778 48.1618 22.0778C47.915 22.0778 47.702 22.0361 47.5262 21.9493C47.3471 21.8625 47.2119 21.7404 47.1206 21.583C47.08 21.5155 47.053 21.4384 47.0293 21.3612L49.7709 21.3612L49.7776 21.0463C49.781 20.77 49.7405 20.5129 49.6492 20.2783C49.5579 20.0437 49.4295 19.8413 49.2571 19.6678L49.2604 19.6742ZM47.0868 20.5258C47.1578 20.3876 47.2626 20.2816 47.4012 20.2076C47.5398 20.1337 47.7088 20.0952 47.9116 20.0952C48.0468 20.0952 48.1685 20.1209 48.2767 20.1755C48.3849 20.2269 48.4728 20.2976 48.5404 20.3876C48.608 20.4776 48.6486 20.5804 48.6587 20.6993L48.6587 20.7121L47.0259 20.7121C47.0428 20.6447 47.0597 20.5804 47.0902 20.5258L47.0868 20.5258Z" fill="#0E242D"/>
<path d="M53.3434 19.6074C53.3063 19.5721 53.2691 19.5367 53.2251 19.5014C53.1305 19.4307 53.0257 19.3664 52.9074 19.3086C52.789 19.2507 52.6606 19.2057 52.522 19.1768C52.3834 19.1447 52.2414 19.1318 52.096 19.1318C51.7445 19.1318 51.4267 19.2154 51.1461 19.3825C50.8656 19.5496 50.6424 19.7809 50.4802 20.0766C50.3179 20.3722 50.2334 20.7128 50.2334 21.0952C50.2334 21.4776 50.3145 21.7957 50.4802 22.0817C50.6424 22.3645 50.8689 22.5894 51.1563 22.7469C51.4436 22.9076 51.7681 22.9879 52.1299 22.9879C52.3496 22.9879 52.5626 22.9493 52.762 22.8722C52.9614 22.7951 53.1339 22.6923 53.2725 22.5637C53.2826 22.5541 53.2894 22.5445 53.2995 22.5348L53.2995 22.734C53.2995 22.9493 53.2589 23.1293 53.1812 23.2707C53.1034 23.4153 52.9851 23.5213 52.8228 23.592C52.6606 23.6627 52.4544 23.6981 52.1975 23.6981C51.9777 23.6981 51.7648 23.6691 51.5585 23.6081C51.3523 23.547 51.1732 23.4667 51.0109 23.3607L50.5884 24.1769C50.7878 24.3215 51.0515 24.4371 51.376 24.5239C51.7005 24.6107 52.0217 24.6556 52.3462 24.6556C52.6876 24.6556 52.9919 24.6107 53.2589 24.5239C53.526 24.4339 53.7525 24.3086 53.9418 24.1415C54.1311 23.9744 54.2731 23.7688 54.3711 23.5245C54.4691 23.2803 54.5199 23.004 54.5199 22.6923L54.5199 19.2025L53.3671 19.2025L53.3468 19.601L53.3434 19.6074ZM53.215 21.6254C53.1372 21.7732 53.0257 21.8889 52.8837 21.9693C52.7417 22.0496 52.5693 22.0914 52.3732 22.0914C52.1873 22.0914 52.0251 22.0496 51.8831 21.9693C51.7411 21.8889 51.6329 21.7732 51.5552 21.6254C51.4774 21.4776 51.4368 21.3041 51.4368 21.1016C51.4368 20.8992 51.4774 20.7257 51.5552 20.5779C51.6329 20.43 51.7411 20.3144 51.8831 20.2308C52.0251 20.1473 52.1873 20.1055 52.3732 20.1055C52.5693 20.1055 52.7383 20.1473 52.8837 20.2308C53.0257 20.3144 53.1372 20.43 53.215 20.5779C53.2927 20.7257 53.3333 20.9024 53.3333 21.1081C53.3333 21.3137 53.2927 21.4744 53.215 21.6254Z" fill="#0E242D"/>
<path d="M58.0913 19.2725C57.8446 19.1761 57.5538 19.1279 57.2158 19.1279C56.8473 19.1279 56.5093 19.1954 56.1983 19.3272C55.8873 19.4621 55.6101 19.6453 55.37 19.8799L56.0935 20.545C56.2354 20.3876 56.3808 20.2751 56.5363 20.2044C56.6884 20.1337 56.8642 20.1016 57.0603 20.1016C57.2563 20.1016 57.4186 20.1498 57.5302 20.243C57.6417 20.3362 57.6992 20.4808 57.6992 20.6768L57.6992 20.7636L57.1042 20.7636C56.8067 20.7636 56.5464 20.7893 56.3233 20.8375C56.1002 20.8889 55.9143 20.9628 55.7656 21.0592C55.6168 21.1556 55.5053 21.2809 55.4309 21.4287C55.3565 21.5765 55.3193 21.7501 55.3193 21.9461C55.3193 22.1742 55.3768 22.3767 55.4951 22.5438C55.6134 22.7141 55.7723 22.8458 55.9785 22.9422C56.1814 23.0386 56.4078 23.0868 56.6614 23.0868C56.8541 23.0868 57.0332 23.0515 57.209 22.9808C57.3814 22.9101 57.5437 22.8105 57.6924 22.6884C57.6958 22.6852 57.6992 22.682 57.7026 22.6787L57.7026 23.0194L58.8722 23.0194L58.8722 20.4615C58.8722 20.1594 58.8046 19.912 58.6694 19.716C58.5342 19.52 58.3415 19.3754 58.0981 19.279L58.0913 19.2725ZM57.635 22.0039C57.5403 22.081 57.4355 22.1389 57.3172 22.1806C57.1989 22.2224 57.0738 22.2417 56.9453 22.2417C56.8541 22.2417 56.7763 22.2289 56.7087 22.1999C56.6411 22.171 56.587 22.1293 56.5465 22.0778C56.5059 22.0264 56.4856 21.9621 56.4856 21.8915C56.4856 21.824 56.4991 21.7661 56.5262 21.7179C56.5532 21.6697 56.5938 21.628 56.6512 21.5926C56.7053 21.5573 56.7729 21.5316 56.8541 21.5123C56.9352 21.4962 57.0265 21.4866 57.1313 21.4866L57.6958 21.4866L57.6958 21.9396C57.6755 21.9621 57.6552 21.9846 57.6316 22.0039L57.635 22.0039Z" fill="#0E242D"/>
<path d="M61.0525 17.7061L59.8389 17.7061L59.8389 23.0081L61.0525 23.0081L61.0525 17.7061Z" fill="#0E242D"/>
<path d="M67.9695 20.4151C67.8072 20.2898 67.6179 20.1805 67.3915 20.097C67.1683 20.0102 66.9182 19.9427 66.641 19.8881C66.5193 19.8688 66.4044 19.8431 66.2928 19.8142C66.1812 19.7821 66.0832 19.7467 65.9987 19.7018C65.9142 19.6568 65.8466 19.6086 65.7992 19.5475C65.7519 19.4864 65.7282 19.419 65.7282 19.3418C65.7282 19.2519 65.7587 19.1747 65.8161 19.1105C65.8736 19.0462 65.9581 18.998 66.0697 18.9627C66.1812 18.9305 66.3097 18.9113 66.4551 18.9113C66.6714 18.9113 66.8776 18.9595 67.0771 19.0559C67.2765 19.1523 67.4523 19.2936 67.6078 19.4864L68.4056 18.7474C68.2197 18.4742 67.9695 18.2621 67.6551 18.1047C67.3407 17.9504 66.9283 17.8701 66.4145 17.8701C66.0629 17.8701 65.735 17.9344 65.4341 18.0629C65.1333 18.1914 64.8899 18.3714 64.7074 18.5995C64.5248 18.8277 64.4335 19.0976 64.4335 19.4029C64.4335 19.6182 64.4673 19.811 64.5383 19.9813C64.6093 20.1516 64.7141 20.3026 64.8595 20.4344C65.0015 20.5661 65.1806 20.6786 65.3936 20.7718C65.6066 20.865 65.8601 20.9389 66.1508 20.9967C66.2556 21.016 66.3604 21.0385 66.4652 21.061C66.57 21.0835 66.6613 21.1156 66.7492 21.151C66.8371 21.1863 66.9114 21.2249 66.9756 21.2699C67.0399 21.3116 67.094 21.3631 67.1312 21.4209C67.1683 21.4787 67.1886 21.543 67.1886 21.6137C67.1886 21.7037 67.1582 21.7808 67.094 21.8451C67.0297 21.9093 66.9452 21.9575 66.8371 21.9929C66.7289 22.025 66.6072 22.0443 66.472 22.0443C66.2049 22.0443 65.948 21.9897 65.6945 21.8804C65.4443 21.7712 65.1941 21.5559 64.9474 21.2345L64.1631 22.0732C64.42 22.3946 64.7276 22.642 65.086 22.8155C65.4443 22.989 65.8871 23.0758 66.4077 23.0758C66.81 23.0758 67.165 23.0115 67.4794 22.883C67.7904 22.7545 68.0337 22.5681 68.2095 22.3239C68.3853 22.0796 68.4732 21.7872 68.4732 21.4434C68.4732 21.2249 68.4293 21.0289 68.3414 20.8586C68.2535 20.6883 68.1284 20.5404 67.9695 20.4151Z" fill="#0E242D"/>
<path d="M72.4509 19.6742C72.2785 19.5039 72.079 19.3689 71.8491 19.2725C71.6193 19.1761 71.3623 19.1279 71.0784 19.1279C70.7809 19.1279 70.5105 19.1761 70.2603 19.2758C70.0102 19.3722 69.7938 19.5103 69.6113 19.6871C69.4287 19.8638 69.2867 20.0759 69.1853 20.3201C69.0839 20.5675 69.0332 20.8375 69.0332 21.1331C69.0332 21.5091 69.1211 21.8465 69.3003 22.1389C69.4794 22.4313 69.733 22.6627 70.0609 22.8298C70.3888 22.9969 70.7775 23.0804 71.217 23.0804C71.4029 23.0804 71.5888 23.0611 71.7714 23.0194C71.9539 22.9776 72.1331 22.9165 72.3089 22.833C72.4847 22.7494 72.6503 22.6466 72.8058 22.5213L72.2413 21.7629C72.0858 21.8786 71.9404 21.9589 71.8052 22.0071C71.67 22.0553 71.5178 22.0778 71.3522 22.0778C71.1054 22.0778 70.8925 22.0361 70.7167 21.9493C70.5375 21.8625 70.4023 21.7404 70.311 21.583C70.2704 21.5155 70.2434 21.4384 70.2198 21.3612L72.9613 21.3612L72.9681 21.0463C72.9715 20.77 72.9309 20.5129 72.8396 20.2783C72.7483 20.0437 72.6199 19.8413 72.4475 19.6678L72.4509 19.6742ZM70.2806 20.5258C70.3516 20.3876 70.4564 20.2816 70.595 20.2076C70.7336 20.1337 70.9026 20.0952 71.1054 20.0952C71.2407 20.0952 71.3623 20.1209 71.4705 20.1755C71.5787 20.2269 71.6666 20.2976 71.7342 20.3876C71.8018 20.4776 71.8424 20.5804 71.8525 20.6993L71.8525 20.7121L70.2198 20.7121C70.2367 20.6447 70.2536 20.5804 70.284 20.5258L70.2806 20.5258Z" fill="#0E242D"/>
<path d="M76.1066 19.1343C75.9004 19.1343 75.7044 19.1825 75.5151 19.2789C75.3257 19.3754 75.1635 19.5039 75.0283 19.6646C74.9877 19.7128 74.9607 19.7642 74.9269 19.8156L74.8998 19.2147L73.7471 19.2147L73.7471 23.0193L74.9674 23.0193L74.9674 21.1202C74.9674 21.0045 74.9877 20.9017 75.0249 20.8117C75.0621 20.7218 75.1162 20.6414 75.1838 20.574C75.2514 20.5065 75.3325 20.455 75.4238 20.4197C75.5151 20.3844 75.6198 20.3651 75.728 20.3651C75.8294 20.3651 75.9241 20.3747 76.0187 20.3972C76.11 20.4197 76.1844 20.4422 76.2419 20.4711L76.5664 19.2018C76.5055 19.1793 76.4379 19.1601 76.3602 19.1472C76.2824 19.1344 76.1979 19.1279 76.1066 19.1279L76.1066 19.1343Z" fill="#0E242D"/>
<path d="M79.3126 21.6319L78.4574 19.209L77.1221 19.209L78.7954 23.0136L79.7453 23.0136L81.5099 19.209L80.1848 19.209L79.3126 21.6319Z" fill="#0E242D"/>
<path d="M83.4138 19.209L82.2002 19.209L82.2002 23.0136L83.4138 23.0136L83.4138 19.209Z" fill="#0E242D"/>
<path d="M85.9188 20.2597C86.0641 20.1762 86.2332 20.1344 86.4225 20.1344C86.5475 20.1344 86.6692 20.1537 86.7842 20.1923C86.8991 20.2308 87.0039 20.2822 87.1019 20.3497C87.1966 20.4172 87.2777 20.4911 87.3419 20.5714L87.9978 19.8131C87.8253 19.6042 87.5921 19.4371 87.2912 19.315C86.9938 19.1929 86.6625 19.1318 86.3075 19.1318C85.9221 19.1318 85.574 19.2186 85.263 19.3889C84.9553 19.5624 84.7119 19.797 84.5361 20.0959C84.3604 20.3947 84.2725 20.7353 84.2725 21.1177C84.2725 21.5001 84.3604 21.8247 84.5361 22.1235C84.7119 22.4223 84.9553 22.6569 85.263 22.8304C85.5706 23.004 85.9188 23.0875 86.3075 23.0875C86.6489 23.0875 86.9735 23.0265 87.2811 22.9043C87.5887 22.7822 87.8253 22.6216 87.9978 22.4191L87.3419 21.6608C87.2608 21.7475 87.1763 21.8214 87.0817 21.8825C86.987 21.9435 86.8856 21.9918 86.7774 22.0271C86.6658 22.0592 86.5475 22.0785 86.4157 22.0785C86.2331 22.0785 86.0709 22.0367 85.9255 21.95C85.7802 21.8632 85.6652 21.7475 85.5841 21.6029C85.4996 21.4583 85.459 21.2945 85.459 21.1113C85.459 20.9281 85.4996 20.7578 85.5807 20.61C85.6619 20.4622 85.7734 20.3465 85.9188 20.263L85.9188 20.2597Z" fill="#0E242D"/>
<path d="M91.8073 19.6742C91.6349 19.5039 91.4355 19.3689 91.2056 19.2725C90.9757 19.1761 90.7188 19.1279 90.4348 19.1279C90.1374 19.1279 89.8669 19.1761 89.6168 19.2758C89.3666 19.3722 89.1503 19.5103 88.9677 19.6871C88.7852 19.8638 88.6432 20.0759 88.5418 20.3201C88.4404 20.5675 88.3896 20.8375 88.3896 21.1331C88.3896 21.5091 88.4775 21.8465 88.6567 22.1389C88.8359 22.4313 89.0894 22.6627 89.4173 22.8298C89.7452 22.9969 90.134 23.0804 90.5734 23.0804C90.7594 23.0804 90.9453 23.0611 91.1278 23.0194C91.3104 22.9776 91.4895 22.9165 91.6653 22.833C91.8411 22.7494 92.0067 22.6466 92.1622 22.5213L91.5977 21.7629C91.4422 21.8786 91.2969 21.9589 91.1616 22.0071C91.0264 22.0553 90.8743 22.0778 90.7086 22.0778C90.4619 22.0778 90.2489 22.0361 90.0731 21.9493C89.894 21.8625 89.7587 21.7404 89.6675 21.583C89.6269 21.5155 89.5999 21.4384 89.5762 21.3612L92.3178 21.3612L92.3245 21.0463C92.3279 20.77 92.2873 20.5129 92.1961 20.2783C92.1048 20.0437 91.9763 19.8413 91.8039 19.6678L91.8073 19.6742ZM89.6337 20.5258C89.7047 20.3876 89.8094 20.2816 89.948 20.2076C90.0866 20.1337 90.2557 20.0952 90.4585 20.0952C90.5937 20.0952 90.7154 20.1209 90.8236 20.1755C90.9318 20.2269 91.0197 20.2976 91.0873 20.3876C91.1549 20.4776 91.1954 20.5804 91.2056 20.6993L91.2056 20.7121L89.5728 20.7121C89.5897 20.6447 89.6066 20.5804 89.637 20.5258L89.6337 20.5258Z" fill="#0E242D"/>
<path d="M96.037 21.4865C95.9999 21.3805 95.939 21.2841 95.8511 21.2038C95.7497 21.0977 95.6145 21.0078 95.4488 20.9274C95.2798 20.8471 95.077 20.7796 94.8403 20.7153C94.6544 20.6671 94.5057 20.6254 94.3907 20.5868C94.2792 20.5482 94.1981 20.5161 94.1541 20.4936C94.1034 20.4615 94.0662 20.4229 94.0358 20.3811C94.0087 20.3394 93.9952 20.2944 93.9952 20.2397C93.9952 20.198 94.0054 20.1562 94.0257 20.1209C94.0459 20.0855 94.073 20.0534 94.1135 20.0277C94.1507 20.002 94.1981 19.9827 94.2555 19.9698C94.313 19.957 94.3806 19.9506 94.455 19.9506C94.5564 19.9506 94.6646 19.9698 94.7795 20.0116C94.8944 20.0534 95.0094 20.1048 95.1277 20.1691C95.2426 20.2333 95.344 20.3072 95.4285 20.3876L96.0708 19.7063C95.9356 19.5874 95.7801 19.4846 95.6077 19.3978C95.4353 19.3111 95.2494 19.2436 95.0499 19.1986C94.8505 19.1504 94.6409 19.1279 94.4212 19.1279C94.1406 19.1279 93.8769 19.1761 93.6369 19.2757C93.3969 19.3721 93.2008 19.5103 93.0521 19.6871C92.9033 19.8638 92.829 20.0694 92.829 20.304C92.829 20.4583 92.856 20.5964 92.9067 20.7185C92.9608 20.8439 93.0352 20.9531 93.1366 21.0495C93.2481 21.1556 93.3901 21.2488 93.5625 21.3291C93.7349 21.4094 93.9411 21.4801 94.1778 21.538C94.3434 21.5765 94.4786 21.6119 94.5834 21.6504C94.6882 21.6858 94.7626 21.7147 94.8032 21.7404C94.8877 21.7886 94.9316 21.8593 94.9316 21.9557C94.9316 22.0039 94.9215 22.0457 94.9012 22.081C94.8809 22.1164 94.8539 22.1485 94.8133 22.1742C94.7761 22.1999 94.7322 22.2192 94.6815 22.2353C94.6308 22.2481 94.5733 22.2578 94.5091 22.2578C94.3333 22.2578 94.1473 22.2224 93.9513 22.1549C93.7552 22.0842 93.5794 21.9782 93.4239 21.8304L92.6836 22.4313C92.8628 22.6369 93.1062 22.7976 93.407 22.9165C93.7079 23.0322 94.0493 23.0932 94.4313 23.0932C94.7525 23.0932 95.0398 23.0386 95.2866 22.9326C95.5367 22.8265 95.7328 22.6755 95.8748 22.4891C96.0167 22.2995 96.0911 22.0842 96.0911 21.84C96.0911 21.7147 96.0708 21.599 96.0337 21.493L96.037 21.4865Z" fill="#0E242D"/>
<path d="M83.5848 17.8637L82.7938 17.0957L82.0332 17.8637L82.831 18.6221L83.5848 17.8637Z" fill="#0E242D"/>
<path d="M6.8069 14.1702L6.12405 13.5146L5.37695 14.273L6.16799 15.041L6.81366 14.379L7.49652 15.041L8.25036 14.273L7.45933 13.5146L6.8069 14.1702Z" fill="#0E242D"/>
<path d="M11.9394 9.75263L10.8542 10.8066C11.03 11.0155 11.1754 11.2244 11.2903 11.43C11.4053 11.6357 11.483 11.8221 11.5236 11.9892L8.06198 11.9892C7.9369 11.9892 7.8152 11.9827 7.70027 11.9699C7.59547 11.9602 7.50082 11.9409 7.41292 11.9217C7.47715 11.7481 7.53801 11.5714 7.58871 11.3883C7.67661 11.0862 7.76449 10.7584 7.85577 10.4114L6.43934 10.8837C6.44273 10.9802 6.43935 11.099 6.43259 11.2372C6.42245 11.3786 6.40892 11.5168 6.3954 11.655C6.38187 11.7931 6.3616 11.9024 6.34132 11.9859L4.39078 11.9859C4.1609 11.9859 3.99189 11.9506 3.89047 11.8735C3.78906 11.7996 3.73496 11.6678 3.73496 11.4814L3.73496 9.28027L2.52137 9.28027L2.52137 9.80084C2.31855 9.87796 2.12248 9.95829 1.93656 10.0354C1.59851 10.18 1.3044 10.3375 1.05425 10.5014C0.804093 10.6652 0.611405 10.8484 0.472806 11.0509C0.334206 11.2501 0.266601 11.475 0.266601 11.7257C0.266601 11.9924 0.344346 12.2237 0.503229 12.4133C0.662111 12.6029 0.881846 12.7507 1.16243 12.8503C1.44301 12.95 1.76753 13.0014 2.136 13.0014C2.36588 13.0014 2.57208 12.9757 2.75124 12.921C2.82223 12.9018 2.89323 12.876 2.9676 12.8471C3.03859 12.8953 3.11296 12.9403 3.20424 12.9821C3.39692 13.0656 3.65383 13.1074 3.97836 13.1074L6.82811 13.1074C6.88896 13.011 6.94304 12.9178 6.99713 12.8214C7.14249 12.8921 7.30813 12.9564 7.51096 13.011C7.75097 13.0753 8.0417 13.1074 8.38989 13.1074L12.2267 13.1074C12.4126 12.5965 12.5039 12.1402 12.5005 11.7353C12.5005 11.3304 12.4397 10.9673 12.3315 10.6427C12.22 10.3182 12.0915 10.0194 11.9394 9.74622L11.9394 9.75263ZM2.09206 11.8799C1.85542 11.8799 1.69654 11.8606 1.60865 11.8188C1.52414 11.7771 1.48019 11.7257 1.48019 11.6646C1.48019 11.6132 1.51061 11.5489 1.56808 11.475C1.62554 11.4011 1.72021 11.3208 1.85205 11.2372C1.98388 11.1537 2.15966 11.0701 2.38277 10.9866C2.42672 10.9705 2.47405 10.9544 2.52137 10.9384L2.52137 11.806C2.52137 11.806 2.52137 11.8381 2.52137 11.851C2.44362 11.8606 2.37263 11.867 2.3084 11.8703C2.21375 11.8735 2.13938 11.8767 2.08867 11.8767L2.09206 11.8799Z" fill="#0E242D"/>
<path d="M12.1966 8.59877L11.4022 7.83398L10.6416 8.59877L11.4428 9.36034L12.1966 8.59877Z" fill="#0E242D"/>
<path d="M20.8798 8.59877L20.0887 7.83398L19.3281 8.59877L20.1259 9.36034L20.8798 8.59877Z" fill="#0E242D"/>
<path d="M20.6297 9.76269L19.5445 10.8167C19.7203 11.0256 19.8657 11.2344 19.9806 11.4401C20.0955 11.6457 20.1733 11.8321 20.2139 11.9992L16.7083 11.9992C16.7049 11.9189 16.6948 11.8418 16.6813 11.7679C16.6677 11.694 16.6576 11.6233 16.6475 11.5558C16.5866 11.2537 16.4852 10.9838 16.3466 10.746C16.2046 10.5082 16.0221 10.3186 15.799 10.1805C15.5758 10.0423 15.2986 9.97157 14.9741 9.97157C14.7476 9.97157 14.5347 10.0198 14.3386 10.1162C14.1391 10.2126 13.9634 10.3443 13.8112 10.5146C13.6591 10.6849 13.5374 10.8842 13.4495 11.1123C13.3616 11.3405 13.3177 11.5911 13.3177 11.8578C13.3177 12.0474 13.3481 12.2209 13.4123 12.3784C13.4766 12.5326 13.578 12.6676 13.7166 12.7801C13.8586 12.8925 14.0411 12.9793 14.2676 13.0371C14.4941 13.0982 14.7713 13.1271 15.106 13.1271L15.4609 13.1271C15.3595 13.2749 15.2141 13.3938 15.0282 13.4774C14.8389 13.5641 14.5955 13.6059 14.2946 13.6059C14.1391 13.6059 13.9803 13.5931 13.8146 13.5706C13.6524 13.5481 13.4901 13.5127 13.3278 13.471L12.9492 14.21C13.1892 14.4253 13.4495 14.5731 13.7301 14.6535C14.0107 14.7338 14.2777 14.7756 14.5414 14.7756C14.8423 14.7756 15.1093 14.7242 15.3392 14.6246C15.5691 14.5249 15.7719 14.39 15.9376 14.2261C16.1066 14.0622 16.2452 13.8823 16.3533 13.6927C16.4615 13.5031 16.546 13.3135 16.6069 13.1271L20.9204 13.1271C21.1063 12.6162 21.1976 12.1599 21.1942 11.755C21.1942 11.3501 21.1333 10.987 21.0252 10.6625C20.9136 10.3379 20.7852 10.039 20.633 9.76591L20.6297 9.76269ZM15.035 11.996C14.8795 11.996 14.7578 11.9831 14.6699 11.9542C14.582 11.9253 14.5211 11.8867 14.4839 11.8353C14.4501 11.7839 14.4299 11.7293 14.4299 11.6682C14.4299 11.5525 14.4535 11.453 14.4975 11.363C14.5414 11.2762 14.5989 11.2055 14.6699 11.1573C14.7409 11.1091 14.8119 11.0866 14.8896 11.0866C14.9843 11.0866 15.0755 11.1155 15.16 11.1702C15.2446 11.2248 15.3223 11.3051 15.3933 11.4079C15.4643 11.5108 15.515 11.6329 15.5522 11.7711C15.5623 11.8032 15.5691 11.8418 15.5758 11.8771C15.5792 11.9157 15.586 11.9574 15.5894 11.9992L15.0316 11.9992L15.035 11.996Z" fill="#0E242D"/>
<path d="M28.4133 8.3972L29.0961 9.05273L29.85 8.29437L29.0589 7.52637L28.4065 8.18832L27.7236 7.52637L26.9766 8.29437L27.7676 9.05273L28.4133 8.3972Z" fill="#0E242D"/>
<path d="M31.3791 11.9843L29.9593 11.9843C30.0438 11.8654 30.1114 11.7498 30.1452 11.6309C30.1892 11.4895 30.2094 11.3417 30.2094 11.1906C30.2094 10.9946 30.1689 10.805 30.0911 10.6251C30.0134 10.4451 29.8984 10.278 29.7497 10.1302C29.5976 9.98238 29.4117 9.8635 29.1885 9.77995C28.9654 9.69319 28.7051 9.65141 28.4077 9.65141C28.1102 9.65141 27.86 9.69319 27.6335 9.77995C27.4104 9.86671 27.2211 9.98238 27.0724 10.1302C26.9236 10.278 26.8087 10.4419 26.7343 10.6251C26.6599 10.8082 26.6228 10.9946 26.6228 11.1906C26.6228 11.3384 26.643 11.483 26.6836 11.6276C26.7174 11.7498 26.7816 11.8686 26.8662 11.9843L23.9319 11.9843C23.8102 11.9843 23.7156 11.9747 23.6412 11.9554C23.5668 11.9361 23.5127 11.904 23.4722 11.859C23.4316 11.814 23.4045 11.753 23.3876 11.6791C23.3741 11.6051 23.364 11.5152 23.364 11.4091L23.364 7.80371L22.1504 7.80371L22.1504 11.8237C22.1504 12.0518 22.1808 12.2478 22.2383 12.4117C22.2958 12.5756 22.3836 12.7073 22.502 12.8102C22.6203 12.913 22.769 12.9869 22.9516 13.0351C23.1341 13.0833 23.3471 13.1058 23.6006 13.1058L26.9946 13.1058C27.2515 13.1058 27.4577 13.1026 27.6166 13.093C27.7755 13.0833 27.904 13.0705 28.002 13.0544C28.1 13.0383 28.1845 13.019 28.2555 12.9966C28.3265 12.9741 28.3975 12.9516 28.4753 12.9291C28.6375 12.9869 28.7998 13.0255 28.9688 13.0512C29.1378 13.0737 29.3407 13.0897 29.5773 13.0962C29.8139 13.1026 30.1114 13.1058 30.4664 13.1058L32.5994 13.1058L32.5994 7.80371L31.3859 7.80371L31.3859 11.9811L31.3791 11.9843ZM28.8911 11.5923C28.8505 11.6887 28.7896 11.7723 28.7085 11.8494C28.6274 11.9265 28.526 11.9908 28.4077 12.0422C28.2927 11.9843 28.1947 11.9168 28.1136 11.8429C28.0324 11.7658 27.9716 11.6823 27.931 11.5891C27.8904 11.4959 27.8702 11.3963 27.8702 11.2902C27.8702 11.2003 27.8904 11.1135 27.9344 11.0364C27.9783 10.956 28.0392 10.895 28.1203 10.8468C28.2014 10.7986 28.2961 10.7761 28.4077 10.7761C28.5192 10.7761 28.6206 10.7986 28.7018 10.8468C28.7829 10.895 28.8437 10.9561 28.8877 11.0332C28.9316 11.1103 28.9519 11.1971 28.9519 11.2902C28.9519 11.3963 28.9316 11.4959 28.8911 11.5923Z" fill="#0E242D"/>
<path d="M34.8415 7.80957L33.6279 7.80957L33.6279 13.1117L34.8415 13.1117L34.8415 7.80957Z" fill="#0E242D"/>
<path d="M41.2116 9.19896L41.8945 9.85448L42.6484 9.09291L41.8573 8.32812L41.2083 8.99008L40.522 8.32812L39.7783 9.09291L40.5694 9.85448L41.2116 9.19896Z" fill="#0E242D"/>
<path d="M43.8773 9.74734L42.7922 10.8013C42.968 11.0102 43.1133 11.2191 43.2282 11.4247C43.3432 11.6304 43.4209 11.8168 43.4615 11.9839L40.152 11.9839C39.9526 11.9839 39.7734 11.9646 39.6213 11.926C39.4692 11.8875 39.3475 11.82 39.2629 11.7171C39.1784 11.6175 39.1345 11.4729 39.1345 11.2866C39.1345 11.1677 39.1514 11.0327 39.1886 10.8817C39.2224 10.7306 39.2798 10.5475 39.361 10.3322L38.4719 9.953C38.2657 10.3065 38.1237 10.6182 38.0426 10.8913C37.9615 11.1644 37.9209 11.4054 37.9209 11.6143C37.9209 12.0867 38.0832 12.453 38.4077 12.7133C38.7322 12.9736 39.2697 13.1053 40.0236 13.1053L44.1646 13.1053C44.3506 12.5944 44.4418 12.1381 44.4385 11.7332C44.4385 11.3283 44.3776 10.9652 44.2694 10.6407C44.1579 10.3161 44.0294 10.0173 43.8773 9.74414L43.8773 9.74734Z" fill="#0E242D"/>
<path d="M51.5242 10.1971C51.2842 10.0397 50.9935 9.95933 50.6555 9.95933C50.4391 9.95933 50.2397 9.99468 50.0571 10.0622C49.8746 10.1329 49.7022 10.2325 49.5433 10.3642C49.3844 10.496 49.2357 10.6566 49.0903 10.843C48.9483 11.0326 48.8063 11.2447 48.6644 11.4857C48.5731 11.6335 48.4987 11.7428 48.4379 11.8167C48.377 11.8874 48.3229 11.9356 48.2722 11.9581C48.2215 11.9806 48.1674 11.9902 48.1066 11.9902L47.1702 11.9902C47.0485 11.9902 46.9538 11.9805 46.8795 11.9613C46.8051 11.942 46.751 11.9098 46.7104 11.8649C46.6699 11.8199 46.6428 11.7588 46.6259 11.6849C46.6124 11.611 46.6023 11.521 46.6023 11.415L46.6023 7.80957L45.3887 7.80957L45.3887 11.8295C45.3887 12.0577 45.4191 12.2537 45.4766 12.4176C45.534 12.5815 45.6219 12.7132 45.7402 12.816C45.8586 12.9189 46.0073 12.9928 46.1898 13.041C46.369 13.0892 46.5854 13.1117 46.8389 13.1117L48.1066 13.1117C48.3162 13.1117 48.4953 13.0988 48.6373 13.0699C48.7793 13.041 48.9044 12.9896 49.0092 12.9189C49.0903 12.8642 49.168 12.7871 49.2424 12.7035C49.3573 12.8032 49.4824 12.8931 49.6177 12.967C49.807 13.0635 50.0098 13.1374 50.2261 13.1824C50.4425 13.2273 50.6622 13.2498 50.8853 13.2466C51.1084 13.2466 51.3282 13.2177 51.5445 13.1695C51.7609 13.1181 51.9603 13.0474 52.1463 12.951C52.2612 12.5461 52.3119 12.1637 52.3018 11.8038C52.2882 11.4471 52.2172 11.129 52.082 10.8494C51.9502 10.5731 51.7609 10.3546 51.5209 10.1971L51.5242 10.1971ZM50.6453 12.0995C50.4662 12.0577 50.3073 12.0062 50.1619 11.9452C50.0334 11.8906 49.9219 11.8327 49.8239 11.7717C49.8982 11.6496 49.9625 11.55 50.0233 11.4696C50.1382 11.3154 50.2397 11.2093 50.3208 11.1579C50.4053 11.1065 50.4763 11.0776 50.5371 11.0776C50.6386 11.0776 50.7264 11.1097 50.8076 11.174C50.8887 11.2383 50.9563 11.325 51.0138 11.4311C51.0713 11.5371 51.1186 11.656 51.1524 11.7813C51.1862 11.9066 51.2065 12.0352 51.2132 12.1637C51.0138 12.1605 50.8211 12.1348 50.6453 12.0962L50.6453 12.0995Z" fill="#0E242D"/>
<path d="M61.5179 8.38031L60.7269 7.6123L59.9629 8.38031L60.7641 9.13866L61.5179 8.38031Z" fill="#0E242D"/>
<path d="M69.7089 11.987L68.2993 11.987L68.2993 7.80957L67.0857 7.80957L67.0857 11.987L64.2596 11.987C64.0838 11.987 63.9385 11.9838 63.8269 11.9741C63.7289 11.9645 63.6478 11.9548 63.5835 11.9388C63.6951 11.9034 63.7965 11.8713 63.8844 11.852L63.908 10.8783C63.6917 10.8848 63.4889 10.8462 63.2962 10.7723C63.1069 10.6952 62.9142 10.602 62.7249 10.4895C62.5322 10.3771 62.3361 10.2646 62.1367 10.1489C61.9372 10.0332 61.7209 9.94005 61.491 9.86293C61.2611 9.78581 61.011 9.74725 60.7405 9.74725C60.5343 9.74725 60.3247 9.7858 60.1151 9.85971C59.9056 9.93362 59.6993 10.0654 59.5033 10.2518C59.3072 10.4381 59.1247 10.7016 58.9523 11.039L59.7298 11.4182C59.8751 11.219 60.0137 11.0776 60.1456 10.994C60.2774 10.9137 60.4194 10.8719 60.5749 10.8719C60.6966 10.8719 60.8149 10.8816 60.9332 10.9008C61.0515 10.9201 61.1766 10.9491 61.3118 10.9908C61.4437 11.0326 61.5857 11.084 61.7378 11.1483C61.8899 11.2126 62.0555 11.2897 62.2415 11.3796C62.2279 11.3829 62.2077 11.3925 62.184 11.4054C62.1603 11.4182 62.1367 11.4311 62.113 11.4439C62.0893 11.4568 62.0589 11.4761 62.0217 11.4953C61.8662 11.5821 61.7074 11.656 61.5451 11.7171C61.3828 11.7781 61.1969 11.8295 60.9805 11.8713C60.7642 11.9131 60.5005 11.942 60.1895 11.9613C59.8785 11.9805 59.4931 11.9902 59.0368 11.9902L56.9781 11.9902C56.8767 11.9902 56.7921 11.9838 56.7212 11.9677C56.6502 11.9548 56.5893 11.9259 56.5319 11.8809C56.4778 11.8392 56.4203 11.7717 56.3662 11.6817L55.0377 9.40983L54.1114 10.5506L55.1391 11.9902L52.9756 11.9902L53.1852 13.1149L55.1391 13.1149C55.2608 13.1149 55.3926 13.102 55.538 13.0795C55.6834 13.057 55.8118 13.0153 55.9267 12.9606C55.9538 12.9478 55.9673 12.9285 55.991 12.9156C56.0315 12.9381 56.0755 12.9639 56.116 12.9831C56.2445 13.0378 56.3797 13.0731 56.5183 13.0892C56.6265 13.102 56.7516 13.1052 56.8767 13.1084L56.8767 13.1149L58.9624 13.1149C59.4898 13.1149 59.9461 13.0924 60.3349 13.0442C60.7203 12.996 61.0583 12.9317 61.3456 12.8514C61.633 12.771 61.8865 12.6811 62.1063 12.5815C62.2922 12.5011 62.4646 12.4176 62.637 12.334C62.7384 12.4979 62.8466 12.6393 62.9649 12.7485C63.1069 12.8803 63.286 12.9735 63.499 13.0313C63.712 13.0892 63.9892 13.1181 64.3238 13.1181L70.9293 13.1181L70.9293 7.816L69.7157 7.816L69.7157 11.9934L69.7089 11.987Z" fill="#0E242D"/>
<path d="M79.6046 12.75C79.6046 12.6311 79.5877 12.5251 79.5505 12.4351C79.5167 12.3451 79.4423 12.2583 79.3342 12.178C79.226 12.0977 79.0603 12.0109 78.8406 11.9209C78.5499 11.7956 78.3335 11.696 78.1949 11.6221C78.0563 11.5482 77.9684 11.4807 77.9312 11.4261C77.8941 11.3714 77.8738 11.3072 77.8738 11.2397C77.8738 11.1433 77.9313 11.0501 78.0462 10.9601C78.1611 10.8701 78.3301 10.8252 78.5499 10.8252C78.7054 10.8252 78.8474 10.8412 78.9724 10.8766C79.0975 10.9087 79.2125 10.9569 79.3105 11.0115L79.8378 10.0861C79.733 10.0058 79.6114 9.93506 79.4728 9.87721C79.3342 9.81937 79.1854 9.77439 79.0265 9.74547C78.8677 9.71334 78.7088 9.69727 78.5465 9.69727C78.1679 9.69727 77.8366 9.77117 77.5425 9.91577C77.2518 10.0604 77.0219 10.266 76.8563 10.5295C76.6906 10.793 76.6061 11.1015 76.6061 11.455C76.6061 11.6189 76.6399 11.7635 76.7042 11.8888C76.7684 12.0141 76.8698 12.1298 77.005 12.2326C77.1402 12.3355 77.3126 12.4319 77.5256 12.5218C77.8265 12.6472 78.0428 12.7436 78.1747 12.8143C78.3065 12.8849 78.3842 12.9396 78.4147 12.9781C78.4451 13.0167 78.4586 13.0488 78.4586 13.0713C78.4586 13.1195 78.4282 13.1742 78.3673 13.2384C78.3065 13.3027 78.2118 13.3669 78.0766 13.428C77.9448 13.4891 77.7656 13.5405 77.5425 13.579C77.3194 13.6176 77.0422 13.6369 76.7177 13.6369C76.4574 13.6369 76.2309 13.6144 76.0382 13.5694C75.8455 13.5244 75.69 13.4569 75.5649 13.3638C75.4398 13.2738 75.3452 13.1613 75.2844 13.0295C75.2235 12.8978 75.1931 12.75 75.1931 12.5829C75.1931 12.4447 75.21 12.3033 75.2438 12.1587C75.2776 12.0141 75.3215 11.8599 75.3824 11.6928L74.3412 11.3843C74.2161 11.6317 74.1248 11.892 74.0674 12.1587C74.0099 12.4254 73.9795 12.6568 73.9795 12.8528C73.9795 13.1934 74.0403 13.4826 74.1654 13.7236C74.2871 13.9647 74.4629 14.1607 74.6928 14.3149C74.9226 14.4691 75.1931 14.5816 75.5075 14.6523C75.8218 14.723 76.17 14.7584 76.552 14.7584C77.0591 14.7584 77.4918 14.7101 77.8434 14.6137C78.1983 14.5173 78.489 14.392 78.7189 14.2346C78.9488 14.0771 79.1246 13.9068 79.2496 13.7269C79.3747 13.5437 79.4626 13.367 79.5133 13.1966C79.564 13.0231 79.5877 12.8753 79.5877 12.7436L79.6046 12.75Z" fill="#0E242D"/>
<path d="M82.6208 10.9272C82.4551 10.6316 82.2388 10.307 81.9717 9.95996L81.0083 11.0846C81.2652 11.3771 81.468 11.6116 81.6202 11.7916C81.7723 11.9715 81.8771 12.1226 81.9413 12.2447C82.0055 12.3668 82.036 12.4889 82.036 12.6142C82.036 12.8681 81.9785 13.0834 81.8669 13.2665C81.7554 13.4465 81.5931 13.5879 81.3869 13.6811C81.1807 13.7775 80.9339 13.8257 80.6466 13.8257C80.5249 13.8257 80.3897 13.816 80.2409 13.7967C80.0888 13.7775 79.9299 13.7357 79.7575 13.6746L79.3789 14.3976C79.6189 14.6033 79.8725 14.7479 80.1361 14.8282C80.3998 14.9086 80.6466 14.9504 80.8697 14.9504C81.2111 14.9504 81.5086 14.8957 81.7621 14.7865C82.0157 14.6772 82.2286 14.5326 82.3977 14.3527C82.5701 14.1727 82.7053 13.9767 82.8101 13.7646C82.9115 13.5525 82.9859 13.3372 83.0332 13.1219C83.0771 12.9066 83.1008 12.7106 83.1008 12.5339C83.1008 12.28 83.0602 12.0229 82.9825 11.7627C82.9047 11.5024 82.7831 11.2228 82.6174 10.9272L82.6208 10.9272Z" fill="#0E242D"/>
<path d="M93.1047 9.59487L93.7875 10.2568L94.5414 9.48882L93.7504 8.73047L93.0979 9.38599L92.4151 8.73047L91.668 9.48882L92.4624 10.2568L93.1047 9.59487Z" fill="#0E242D"/>
<path d="M93.8505 8.30316L93.0594 7.53516L92.2988 8.30316L93.1034 9.06151L93.8505 8.30316Z" fill="#0E242D"/>
<path d="M96.0587 11.1403C96.0147 10.8704 95.9471 10.6197 95.8525 10.3884C95.7578 10.157 95.653 9.9417 95.5347 9.73926L94.4496 10.7868C94.595 10.9636 94.7234 11.1531 94.8383 11.3556C94.9499 11.558 95.0378 11.7669 95.0986 11.9822L94.1724 11.9822C93.9797 11.9822 93.8073 11.9693 93.6484 11.9436C93.5301 11.9244 93.4354 11.8987 93.3543 11.8729C93.4219 11.7123 93.4828 11.5355 93.5369 11.3363C93.6011 11.1017 93.6721 10.819 93.7465 10.4848L92.3064 10.9507C92.3199 11.0889 92.33 11.2238 92.33 11.3556C92.33 11.4873 92.3266 11.6062 92.3199 11.7155C92.3131 11.8215 92.2996 11.9115 92.2861 11.9854L91.3734 11.9854C91.299 11.9854 91.2314 11.979 91.1604 11.9758C91.1604 11.9725 91.1638 11.9693 91.1671 11.9629C91.2449 11.783 91.3159 11.5741 91.3835 11.3395C91.4477 11.1049 91.5153 10.8222 91.5863 10.488L90.1598 10.9539C90.1733 11.0921 90.1834 11.2206 90.1834 11.3395C90.1834 11.4584 90.18 11.5709 90.1733 11.6769C90.1665 11.783 90.153 11.8858 90.1395 11.9854L87.2357 11.9854C87.2323 11.9051 87.2221 11.828 87.2086 11.7541C87.1951 11.6801 87.1849 11.6094 87.1748 11.542C87.114 11.2399 87.0125 10.97 86.8739 10.7322C86.732 10.4944 86.5494 10.3048 86.3263 10.1666C86.1032 10.0285 85.826 9.95777 85.5015 9.95777C85.275 9.95777 85.062 10.006 84.8659 10.1024C84.6665 10.1988 84.4907 10.3305 84.3386 10.5008C84.1865 10.6711 84.0648 10.8704 83.9769 11.0985C83.889 11.3267 83.845 11.5773 83.845 11.844C83.845 12.0336 83.8755 12.2071 83.9397 12.3646C84.0039 12.5188 84.1053 12.6538 84.2439 12.7663C84.3859 12.8787 84.5685 12.9655 84.795 13.0233C85.0214 13.0844 85.2986 13.1133 85.6333 13.1133L85.9883 13.1133C85.8868 13.2611 85.7415 13.38 85.5556 13.4636C85.3663 13.5503 85.1228 13.5921 84.822 13.5921C84.6665 13.5921 84.5076 13.5793 84.342 13.5568C84.1797 13.5343 84.0174 13.4989 83.8552 13.4571L83.4766 14.1962C83.7166 14.4115 83.9769 14.5593 84.2575 14.6397C84.538 14.72 84.8051 14.7618 85.0688 14.7618C85.3696 14.7618 85.6367 14.7104 85.8666 14.6107C86.0964 14.5111 86.2992 14.3762 86.4649 14.2123C86.6339 14.0484 86.7725 13.8685 86.8807 13.6789C86.9889 13.4893 87.0734 13.2997 87.1342 13.1133L90.4911 13.1133C90.5282 13.0587 90.562 13.0105 90.5958 12.9591C90.6601 12.9784 90.7277 12.9976 90.802 13.0137C91.0623 13.078 91.3835 13.1101 91.7587 13.1101L92.6478 13.1101C92.7458 12.9687 92.8303 12.8402 92.9081 12.7181C92.9487 12.7406 92.9825 12.763 93.0264 12.7855C93.1887 12.8755 93.3881 12.9494 93.6248 13.0137C93.8648 13.078 94.1555 13.1101 94.5037 13.1101L95.8085 13.1101C95.9539 12.7181 96.0452 12.3614 96.079 12.0336C96.1128 11.7091 96.1094 11.4102 96.0688 11.1403L96.0587 11.1403ZM85.5589 11.9822C85.4034 11.9822 85.2817 11.9693 85.1939 11.9404C85.106 11.9115 85.0451 11.8729 85.0079 11.8215C84.9741 11.7701 84.9538 11.7155 84.9538 11.6544C84.9538 11.5387 84.9775 11.4391 85.0214 11.3492C85.0654 11.2624 85.1229 11.1917 85.1939 11.1435C85.2648 11.0953 85.3358 11.0728 85.4136 11.0728C85.5082 11.0728 85.5995 11.1017 85.684 11.1564C85.7685 11.211 85.8463 11.2913 85.9173 11.3941C85.9882 11.497 86.039 11.6191 86.0761 11.7573C86.0863 11.7894 86.0931 11.828 86.0998 11.8633C86.1032 11.9019 86.1099 11.9436 86.1133 11.9854L85.5556 11.9854L85.5589 11.9822Z" fill="#0E242D"/>
<path d="M2.21112 8.23019L2.89397 8.88573L3.64782 8.12414L2.85679 7.35937L2.20436 8.02133L1.5215 7.35937L0.774414 8.12414L1.56544 8.88573L2.21112 8.23019Z" fill="#0E242D"/>
</svg>
