<svg width="18" height="16" viewBox="0 0 18 16" fill="none" xmlns="http://www.w3.org/2000/svg">
<path fill-rule="evenodd" clip-rule="evenodd" d="M0.599609 1.9998C0.599609 1.68154 0.726038 1.37632 0.951081 1.15128C1.17612 0.926233 1.48135 0.799805 1.79961 0.799805H16.1996C16.5179 0.799805 16.8231 0.926233 17.0481 1.15128C17.2732 1.37632 17.3996 1.68154 17.3996 1.9998C17.3996 2.31806 17.2732 2.62329 17.0481 2.84833C16.8231 3.07338 16.5179 3.1998 16.1996 3.1998H1.79961C1.48135 3.1998 1.17612 3.07338 0.951081 2.84833C0.726038 2.62329 0.599609 2.31806 0.599609 1.9998ZM0.599609 7.9998C0.599609 7.68154 0.726038 7.37632 0.951081 7.15128C1.17612 6.92623 1.48135 6.7998 1.79961 6.7998H8.99961C9.31787 6.7998 9.62309 6.92623 9.84814 7.15128C10.0732 7.37632 10.1996 7.68154 10.1996 7.9998C10.1996 8.31806 10.0732 8.62329 9.84814 8.84833C9.62309 9.07338 9.31787 9.1998 8.99961 9.1998H1.79961C1.48135 9.1998 1.17612 9.07338 0.951081 8.84833C0.726038 8.62329 0.599609 8.31806 0.599609 7.9998ZM0.599609 13.9998C0.599609 13.6815 0.726038 13.3763 0.951081 13.1513C1.17612 12.9262 1.48135 12.7998 1.79961 12.7998H16.1996C16.5179 12.7998 16.8231 12.9262 17.0481 13.1513C17.2732 13.3763 17.3996 13.6815 17.3996 13.9998C17.3996 14.3181 17.2732 14.6233 17.0481 14.8483C16.8231 15.0734 16.5179 15.1998 16.1996 15.1998H1.79961C1.48135 15.1998 1.17612 15.0734 0.951081 14.8483C0.726038 14.6233 0.599609 14.3181 0.599609 13.9998Z" fill="#0E242D"/>
</svg>
